<svg xmlns="http://www.w3.org/2000/svg" viewBox="0 0 242.52 269.54"><defs><style>.cls-1{fill:#fff;}.cls-10,.cls-11,.cls-12,.cls-2,.cls-4,.cls-6,.cls-8{fill:none;}.cls-2{stroke:#fff;stroke-width:1.44px;}.cls-3{fill:#008248;}.cls-4{stroke:#008248;}.cls-10,.cls-11,.cls-12,.cls-4,.cls-6,.cls-8{stroke-width:0.36px;}.cls-5{fill:#a63732;}.cls-6{stroke:#a63732;}.cls-7{fill:#ba9653;}.cls-8{stroke:#ba9653;}.cls-9{fill:#f9b282;}.cls-10,.cls-11{stroke:#f9b282;}.cls-10{stroke-linecap:round;}.cls-12{stroke:#00a55c;}.cls-13{fill:#008348;}</style></defs><title>boston-celtics</title><g id="Layer_2" data-name="Layer 2"><g id="Layer_1-2" data-name="Layer 1"><path class="cls-1" d="M75,256.56c2.28,2.64,6.72,6.6,10,8a15.21,15.21,0,0,0,8.28,1.56c2.4-.24,1.92.72,0,1.08s-6.12.24-8.88-1.2-7.32-4.32-10.08-8.4C73.68,256.68,74.28,255.72,75,256.56Z"/><path class="cls-1" d="M241.8,126.72A120.4,120.4,0,0,0,134.28,6.84a10.36,10.36,0,0,0-2.16-1.68c-9.72-6.24-17.64-1.56-23.28,1.08q-.7.39-1.44.72A119.37,119.37,0,0,0,77.28,14.4a35.39,35.39,0,0,0-4-4.68,30.48,30.48,0,0,0-21.84-9A30.83,30.83,0,0,0,20.64,31.54v0a30.34,30.34,0,0,0,6.84,19.32A120.83,120.83,0,0,0,36,212a123.39,123.39,0,0,0,38.16,25.8c-.72,6.36.24,10.68,1.44,12.36-1.8,1.56-2.52,2.4-2.76,4.2-2.76,3.84,4,8.64,6.84,10.8,5.76,4.44,8.76,3.6,13.2,3.48,5.52-.24,10.68-6.72,13.68-10.92,6-.84,7.08.12,7.32.84a31.65,31.65,0,0,0,7.92-2.28c8-3.36,5.88-7.56,5-8.28a4.94,4.94,0,0,1-.6-.84A119.39,119.39,0,0,0,180,232.08a11.37,11.37,0,0,1,1.68,2.28c1.8,2.64,2.76,11,3.12,15.48s1.08,7.32,3.24,14.16,3,1.92,3,0,.48-8.52.24-13.32-.48-11.88.48-14.88-.72-3.72-1.2-4.32,0-.72-1.2-4.56a1.48,1.48,0,0,1-.12-.72,122.11,122.11,0,0,0,17.28-14.4A118.94,118.94,0,0,0,241.8,126.72Z"/><path class="cls-2" d="M241.8,126.72A120.4,120.4,0,0,0,134.28,6.84a10.36,10.36,0,0,0-2.16-1.68c-9.72-6.24-17.64-1.56-23.28,1.08q-.7.39-1.44.72A119.37,119.37,0,0,0,77.28,14.4a35.39,35.39,0,0,0-4-4.68,30.48,30.48,0,0,0-21.84-9A30.83,30.83,0,0,0,20.64,31.54v0a30.34,30.34,0,0,0,6.84,19.32A120.83,120.83,0,0,0,36,212a123.39,123.39,0,0,0,38.16,25.8c-.72,6.36.24,10.68,1.44,12.36-1.8,1.56-2.52,2.4-2.76,4.2-2.76,3.84,4,8.64,6.84,10.8,5.76,4.44,8.76,3.6,13.2,3.48,5.52-.24,10.68-6.72,13.68-10.92,6-.84,7.08.12,7.32.84a31.65,31.65,0,0,0,7.92-2.28c8-3.36,5.88-7.56,5-8.28a4.94,4.94,0,0,1-.6-.84A119.39,119.39,0,0,0,180,232.08a11.37,11.37,0,0,1,1.68,2.28c1.8,2.64,2.76,11,3.12,15.48s1.08,7.32,3.24,14.16,3,1.92,3,0,.48-8.52.24-13.32-.48-11.88.48-14.88-.72-3.72-1.2-4.32,0-.72-1.2-4.56a1.48,1.48,0,0,1-.12-.72,122.11,122.11,0,0,0,17.28-14.4A118.94,118.94,0,0,0,241.8,126.72Z"/><path d="M241.8,126.72A120.4,120.4,0,0,0,134.28,6.84a10.36,10.36,0,0,0-2.16-1.68c-9.72-6.24-17.64-1.56-23.28,1.08q-.7.39-1.44.72A119.37,119.37,0,0,0,77.28,14.4a35.39,35.39,0,0,0-4-4.68,30.48,30.48,0,0,0-21.84-9A30.83,30.83,0,0,0,20.64,31.54v0a30.34,30.34,0,0,0,6.84,19.32A120.83,120.83,0,0,0,36,212a123.39,123.39,0,0,0,38.16,25.8c-.72,6.36.24,10.68,1.44,12.36-1.8,1.56-2.52,2.4-2.76,4.2-2.76,3.84,4,8.64,6.84,10.8,5.76,4.44,8.76,3.6,13.2,3.48,5.52-.24,10.68-6.72,13.68-10.92,6-.84,7.08.12,7.32.84a31.65,31.65,0,0,0,7.92-2.28c8-3.36,5.88-7.56,5-8.28a4.94,4.94,0,0,1-.6-.84A119.39,119.39,0,0,0,180,232.08a11.37,11.37,0,0,1,1.68,2.28c1.8,2.64,2.76,11,3.12,15.48s1.08,7.32,3.24,14.16,3,1.92,3,0,.48-8.52.24-13.32-.48-11.88.48-14.88-.72-3.72-1.2-4.32,0-.72-1.2-4.56a1.48,1.48,0,0,1-.12-.72,122.11,122.11,0,0,0,17.28-14.4A118.94,118.94,0,0,0,241.8,126.72Z"/><path class="cls-3" d="M92.76,239.28a50.41,50.41,0,0,0,13.56-2.88c.36.12,1,.48,1.92.84.36-3-1.56-9.12-2.64-12-.6-1.8-1.32-3.12-2.16-5a41.07,41.07,0,0,1-7.92-2.76c0,1.8.36,6.36.72,9.36a30.81,30.81,0,0,1-3.84.24A108.72,108.72,0,0,1,92.76,239.28Z"/><path class="cls-4" d="M92.76,239.28a50.41,50.41,0,0,0,13.56-2.88c.36.12,1,.48,1.92.84.36-3-1.56-9.12-2.64-12-.6-1.8-1.32-3.12-2.16-5a41.07,41.07,0,0,1-7.92-2.76c0,1.8.36,6.36.72,9.36a30.81,30.81,0,0,1-3.84.24A108.72,108.72,0,0,1,92.76,239.28Z"/><path class="cls-3" d="M177.12,229.32c-.84-.84,1.08-3.48,1.92-8.28s.84-13-2.64-17.64a15.86,15.86,0,0,1-2.88-4.56,87.51,87.51,0,0,1-37.08,15.6,7,7,0,0,0-.48.84,31.9,31.9,0,0,1-8.52,7.56,49.71,49.71,0,0,1-7.8,3.24c-.36,3-.84,9.6-.12,11.88.36.84,3.72,2.88,4.92,5,.24.24.24.48.36.72a115,115,0,0,0,52.68-14.28C177.24,229.44,177.24,229.44,177.12,229.32Z"/><path class="cls-4" d="M177.12,229.32c-.84-.84,1.08-3.48,1.92-8.28s.84-13-2.64-17.64a15.86,15.86,0,0,1-2.88-4.56,87.51,87.51,0,0,1-37.08,15.6,7,7,0,0,0-.48.84,31.9,31.9,0,0,1-8.52,7.56,49.71,49.71,0,0,1-7.8,3.24c-.36,3-.84,9.6-.12,11.88.36.84,3.72,2.88,4.92,5,.24.24.24.48.36.72a115,115,0,0,0,52.68-14.28C177.24,229.44,177.24,229.44,177.12,229.32Z"/><path class="cls-3" d="M204.12,43.8A116,116,0,0,0,137,10.68c2,4,2.28,8.52,2.52,11.52,3.6-1.56,6.48-2.4,7.92-4.92s3.6-1.92,4.92-.12,1.2,4-2.16,6.12a68.58,68.58,0,0,1-6.84,3.6c-.72.36,0,1,.84,2.4s3,4.8,3.36,12.12v.24a87.35,87.35,0,0,1,36.6,22.08,89,89,0,0,1,17.28,101.76c.72.36,1.8,3.12,2.16,6.72a12.72,12.72,0,0,1-.36,5.28c-.6,1.2-5,7.8-7.2,9.84a2.64,2.64,0,0,1-3.6-.48c-.84-1.2-1-.6-1.68,0s-2.76,4-3.36,4.8-2.4,1.56-1.2,5,2.64,5.76,2.16,7.68-.72,2.4,1.8,4.56,2.4,4.68,1.32,6.48a20.26,20.26,0,0,0-2.28,6.72A117.19,117.19,0,0,0,204.12,43.8Z"/><path class="cls-4" d="M204.12,43.8A116,116,0,0,0,137,10.68c2,4,2.28,8.52,2.52,11.52,3.6-1.56,6.48-2.4,7.92-4.92s3.6-1.92,4.92-.12,1.2,4-2.16,6.12a68.58,68.58,0,0,1-6.84,3.6c-.72.36,0,1,.84,2.4s3,4.8,3.36,12.12v.24a87.35,87.35,0,0,1,36.6,22.08,89,89,0,0,1,17.28,101.76c.72.36,1.8,3.12,2.16,6.72a12.72,12.72,0,0,1-.36,5.28c-.6,1.2-5,7.8-7.2,9.84a2.64,2.64,0,0,1-3.6-.48c-.84-1.2-1-.6-1.68,0s-2.76,4-3.36,4.8-2.4,1.56-1.2,5,2.64,5.76,2.16,7.68-.72,2.4,1.8,4.56,2.4,4.68,1.32,6.48a20.26,20.26,0,0,0-2.28,6.72A117.19,117.19,0,0,0,204.12,43.8Z"/><path class="cls-3" d="M69.6,213.24c-.36-3.24-.84-8.88,1.44-13a81.44,81.44,0,0,1-12.72-10.56,89,89,0,0,1,.06-125.87c.61-.61,1.23-1.22,1.86-1.81a2.6,2.6,0,0,1,.6-1,33.46,33.46,0,0,1-9.12,1.32A30.43,30.43,0,0,1,30,53.4a117.23,117.23,0,0,0,8.4,156.12,118.6,118.6,0,0,0,36.24,24.72,68.11,68.11,0,0,1,2.4-8.16c1.08-2.76-.48-9-3.12-12.24A18.52,18.52,0,0,0,69.6,213.24Z"/><path class="cls-4" d="M69.6,213.24c-.36-3.24-.84-8.88,1.44-13a81.44,81.44,0,0,1-12.72-10.56,89,89,0,0,1,.06-125.87c.61-.61,1.23-1.22,1.86-1.81a2.6,2.6,0,0,1,.6-1,33.46,33.46,0,0,1-9.12,1.32A30.43,30.43,0,0,1,30,53.4a117.23,117.23,0,0,0,8.4,156.12,118.6,118.6,0,0,0,36.24,24.72,68.11,68.11,0,0,1,2.4-8.16c1.08-2.76-.48-9-3.12-12.24A18.52,18.52,0,0,0,69.6,213.24Z"/><path class="cls-3" d="M100.68,11.4a103,103,0,0,0-21.6,6,30.11,30.11,0,0,1,3.48,14.16A31.49,31.49,0,0,1,76.68,49.8,87.54,87.54,0,0,1,97.32,41l1.44-1.44C96,35.16,92.4,28.08,95.64,18.24A14.23,14.23,0,0,1,100.68,11.4Z"/><path class="cls-4" d="M100.68,11.4a103,103,0,0,0-21.6,6,30.11,30.11,0,0,1,3.48,14.16A31.49,31.49,0,0,1,76.68,49.8,87.54,87.54,0,0,1,97.32,41l1.44-1.44C96,35.16,92.4,28.08,95.64,18.24A14.23,14.23,0,0,1,100.68,11.4Z"/><path class="cls-1" d="M147.48,46.68A7.8,7.8,0,0,1,151.8,56c-.36,2.16-2.16,4.2-2.4,5-.24,1.44-3.12,3.72-4.08,5.64s-1.08,3.48-.84,4.2a24.1,24.1,0,0,0,6.72,4c1.44.48,1.32.84.72,1.8,1.08.12,1.56.72,2.52,1.92s3.84.48,5.4-.36,3.84-1.2,5.52.84a34.44,34.44,0,0,1,5.4,9.36,41,41,0,0,0,2.88,7c.36.6-1.32,10.8-1.8,15s-.84,5.88-1,6.48,2.64-2.28,2.76,1.2c0,2.88,1.44,11.88,2.88,18.6a31.22,31.22,0,0,0,1.2,4.56c1.08.12,2,2.4,2.76,5.76s1.92,5.64,2.16,7.32c0,1.68.48,1.92,1.08,2.28s.36,1.08-1.32,3a12.53,12.53,0,0,1,1.32,1.2,20.44,20.44,0,0,0,1.8-1.92s5.16,2,6.24,2.4,2.52-2.4,5.76-.84a6.2,6.2,0,0,1,2.64,2.88,85.68,85.68,0,0,0,8.16-36.72A86.69,86.69,0,0,0,147.6,43.68C147.6,45,147.48,46.2,147.48,46.68Z"/><path class="cls-1" d="M174.48,193.2c-1.32-.6-2.28.36-2.88-4.8a7.55,7.55,0,0,0-2.28-4.32,4.28,4.28,0,0,1-.48-4.2,21.39,21.39,0,0,0,.84-6.36c-.12-1.92.24-4.2,2.76-5.28a7.63,7.63,0,0,1-1.56-3.36c-3.84-1.32-4.68-1.44-5.4-3.24a54,54,0,0,1-2.4-10.2c-.24-1.2-.36-2.28-.48-3.36-1.2-2.28-4-7.44-6-11.28-.72-1.44-1.56-2.76-1.92-3.6-1.92-3.24,0-7.56.84-10.08s1.68-4.68.84-7.32a26.08,26.08,0,0,1-1.08-4.08c-.12-1.08-1.08-2.28-2.16,1.2s-3.24,8.76-4.44,14.16a37,37,0,0,0-1.08,9.72,21.07,21.07,0,0,0,1.68,7.08c2.4,4.92,5.4,9.6,4.92,12.36a9.61,9.61,0,0,1-1,3.36c-.48,5.4-2.76,15.84-4,18.84s-6,13.8-7.08,18.36a105.82,105.82,0,0,1-4.8,15.48,87.31,87.31,0,0,0,37.56-17C175.2,194.4,175.2,193.68,174.48,193.2Z"/><path class="cls-1" d="M70.8,71A11.74,11.74,0,0,0,75,74.4c4.56,2.4,5.4,4.08,5.4,8s.84,12.24,2,13.56a10.91,10.91,0,0,0,2-2.4c1.2,2.4,3.84,7,8,9.72.36.12.12,1.2.84,1.44,1.44.36,10.44,1.8,10.68,3.6,1.92-1.92,4.92-6.48,5.4-8.16a50.52,50.52,0,0,1,6.24-9.36,7.76,7.76,0,0,1,.12-2c-.72.6-1.68,2-3.12,2.64s-6.72,3-10.44,4.8c-1.32.6-3.6,1.44-4.56-5.4s0-10.44.6-12,1.92-3,4.2-2.28,6.12,2,7.08,2c.12-.72.84-2.16-1.68-2.4-1.8-.24-6.48-1.56-9-5.16A10.23,10.23,0,0,1,97,65.4c-5.28.84-17.52,2.4-20.28,3.12s-5,1.2-5.88-4.92c-.36-2.64-1-6.24.84-4.92a8.85,8.85,0,0,1,7.2-1.92,2.85,2.85,0,0,1,1.8,1.2c.24.84-.24,2.4-.6,3.72-.84,2.52-2.4,4.32,2.64,3.12,5.4-1.2,12.12-2.16,13.8-2.52.24-1.8,1.8-4.68,3.6-6.72a9.55,9.55,0,0,0,2.16-4.32c0-.72-.6-.84-1.44,0-1.08.84-4.2,2.76-7,2-1.2-.36-2.64-2.4-3.24-3.6a27.69,27.69,0,0,1,4.08-5.76A84.82,84.82,0,0,0,67.2,58.68a18.43,18.43,0,0,0,.72,6A19.58,19.58,0,0,0,70.8,71Z"/><path class="cls-1" d="M77.28,198.24c3.84-1.44,6.84-1.44,9.72,2.64.84,1.08,1.56,4.32,8.76,1.44-3.84-4.56-6.12-10-8.16-17.28-3.36-11.4-10.8-24.48-8-30.36-1.56-1.56-3.48-7.32-5.4-6.6-1.32.36-3.12.36-1.68-4a27.94,27.94,0,0,1,4-7.2c2.52-3.48,6.6-7.68,13.08-12.72.48-.48.72-.84.36-1.2a9.22,9.22,0,0,0-2-1.8,1.36,1.36,0,0,0-1.8.36c-.6.48-1.56,1.2-2,1.56s-5-4-7.32-7.2a14.71,14.71,0,0,0-5.52-4.56c.84-1.08,3-3.24,2.28-3-1.44.48-3.84.72-6.36-1.92-3.12-3.24-1.92-4.92-2.64-5.4s-4,.36-6.48-3.6S54.48,91.8,56.4,89c1.08-1.44,1.44-2,1.2-3.84s0-2.88,2.28-5,3.72-4.32,4.8-4.08c.72.12-1.68-2.88-3-5a5.12,5.12,0,0,1-.84-1.56,20.37,20.37,0,0,1-1.2-4.2,86.91,86.91,0,0,0,0,122.91l.09.09A112.83,112.83,0,0,0,72.12,198.6,3.45,3.45,0,0,1,77,198C77.06,198,77.18,198.14,77.28,198.24Z"/><path class="cls-5" d="M27.84,14.52C35.4,16.44,41.16,22.68,43.68,26c.72,1,1.32.84,1.56.12a30.15,30.15,0,0,0,1.68-9.36c0-7.8,1.08-10.92,3-14.52A29.25,29.25,0,0,0,27.84,14.52Z"/><path class="cls-6" d="M27.84,14.52C35.4,16.44,41.16,22.68,43.68,26c.72,1,1.32.84,1.56.12a30.15,30.15,0,0,0,1.68-9.36c0-7.8,1.08-10.92,3-14.52A29.25,29.25,0,0,0,27.84,14.52Z"/><path class="cls-5" d="M23.16,38.52C37.56,39.84,42,31.8,43,30.6s-.12-1.92-.72-2.64c-2.4-3.48-8-9.6-15.6-11.52a28.49,28.49,0,0,0-4.32,15.12A34,34,0,0,0,23.16,38.52Z"/><path class="cls-6" d="M23.16,38.52C37.56,39.84,42,31.8,43,30.6s-.12-1.92-.72-2.64c-2.4-3.48-8-9.6-15.6-11.52a28.49,28.49,0,0,0-4.32,15.12A34,34,0,0,0,23.16,38.52Z"/><path class="cls-5" d="M80.16,37.92C74,35.4,66.84,37.68,61.8,42.24S54,50,52.2,60.72h-.6A28.84,28.84,0,0,1,31.92,53C40.68,50.88,48,46.8,56.4,39S68.76,22.08,69.84,17.76s-.36-1.8-1.2.12a63.59,63.59,0,0,1-14.16,19.2c-8.4,7.92-15,11.76-23.88,14.76A30.07,30.07,0,0,1,24,41c3,.24,12.36-.84,17-4.68,6.24-5.16,7-11.16,7.8-19.68s2-11,4.08-14.4a29.36,29.36,0,0,1,28,29.16A28.23,28.23,0,0,1,80.16,37.92Z"/><path class="cls-6" d="M80.16,37.92C74,35.4,66.84,37.68,61.8,42.24S54,50,52.2,60.72h-.6A28.84,28.84,0,0,1,31.92,53C40.68,50.88,48,46.8,56.4,39S68.76,22.08,69.84,17.76s-.36-1.8-1.2.12a63.59,63.59,0,0,1-14.16,19.2c-8.4,7.92-15,11.76-23.88,14.76A30.07,30.07,0,0,1,24,41c3,.24,12.36-.84,17-4.68,6.24-5.16,7-11.16,7.8-19.68s2-11,4.08-14.4a29.36,29.36,0,0,1,28,29.16A28.23,28.23,0,0,1,80.16,37.92Z"/><path class="cls-5" d="M79.32,40.8c-1.44-1.92-6.36-2.88-14.28,2-.84.48-1.32.84-.36,1.68a33.15,33.15,0,0,1,6,9.12A29.77,29.77,0,0,0,79.32,40.8Z"/><path class="cls-6" d="M79.32,40.8c-1.44-1.92-6.36-2.88-14.28,2-.84.48-1.32.84-.36,1.68a33.15,33.15,0,0,1,6,9.12A29.77,29.77,0,0,0,79.32,40.8Z"/><path class="cls-5" d="M68.28,55.56c-1.68-4.08-3-7.08-4.68-9.12-.72-1.2-1-1.56-2.52-.24C56.64,50,55,55.92,54,60.6A28,28,0,0,0,68.28,55.56Z"/><path class="cls-6" d="M68.28,55.56c-1.68-4.08-3-7.08-4.68-9.12-.72-1.2-1-1.56-2.52-.24C56.64,50,55,55.92,54,60.6A28,28,0,0,0,68.28,55.56Z"/><path class="cls-7" d="M104.28,238.8c.6-.24,1.32-.6,1.8-.36s2.52,1.92,4,3.12,1.8,1.56.72,2.28-2.16,1.2-1.92.72a2.12,2.12,0,0,0-.36-2.16,37,37,0,0,0-3.36-2.76Z"/><path class="cls-8" d="M104.28,238.8c.6-.24,1.32-.6,1.8-.36s2.52,1.92,4,3.12,1.8,1.56.72,2.28-2.16,1.2-1.92.72a2.12,2.12,0,0,0-.36-2.16,37,37,0,0,0-3.36-2.76Z"/><path class="cls-7" d="M98.88,240.36a1.17,1.17,0,0,0,0,1.64l0,0c.6.48,3.72,3.12,4.2,3.6a2.36,2.36,0,0,0,2.16.6c.84-.24-1,1-1.68,1.2a2.43,2.43,0,0,1-2.28-.6c-.72-.6-4.92-4.56-5.76-5.4s.24-.84,1-1A17.54,17.54,0,0,0,98.88,240.36Z"/><path class="cls-8" d="M98.88,240.36a1.17,1.17,0,0,0,0,1.64l0,0c.6.48,3.72,3.12,4.2,3.6a2.36,2.36,0,0,0,2.16.6c.84-.24-1,1-1.68,1.2a2.43,2.43,0,0,1-2.28-.6c-.72-.6-4.92-4.56-5.76-5.4s.24-.84,1-1A17.54,17.54,0,0,0,98.88,240.36Z"/><path class="cls-7" d="M93.72,216.48c.36.84.36,1.68-.84,1.44s-6.84-.72-8.4-.72c-.48,0-.24-.84-.84-.48s-.36,1.2-.36,2.16V221c0,1,.6,2.4,3.12,2.52s4.8-.12,5.64-.72-.12-1.32-.84-1.32-4.8.36-5.76,0-1.44-1.32-.84-1.8c.84-.48,2.28.12,3.6.12s3-.36,3.48-.12.84.12.84,1.92c0,.36,1,.48,1.32.48s.6.72.48,1.68.12,1.08-1.68,1.08h-10c-.48,0-.48-.36-.48-1.2s-.36-6.72-.48-7.2,1.08-.48,2.16-.24a25.74,25.74,0,0,0,3.72.36c1.56.12,4,.36,4,.36s1.2.12,1.32-.24C93.24,216.36,93.6,216.24,93.72,216.48Z"/><path class="cls-8" d="M93.72,216.48c.36.84.36,1.68-.84,1.44s-6.84-.72-8.4-.72c-.48,0-.24-.84-.84-.48s-.36,1.2-.36,2.16V221c0,1,.6,2.4,3.12,2.52s4.8-.12,5.64-.72-.12-1.32-.84-1.32-4.8.36-5.76,0-1.44-1.32-.84-1.8c.84-.48,2.28.12,3.6.12s3-.36,3.48-.12.84.12.84,1.92c0,.36,1,.48,1.32.48s.6.72.48,1.68.12,1.08-1.68,1.08h-10c-.48,0-.48-.36-.48-1.2s-.36-6.72-.48-7.2,1.08-.48,2.16-.24a25.74,25.74,0,0,0,3.72.36c1.56.12,4,.36,4,.36s1.2.12,1.32-.24C93.24,216.36,93.6,216.24,93.72,216.48Z"/><path class="cls-9" d="M60.24,88.2c-1.2-.36-2.16,1.08-2.64,2.28s-1.2,2.28.48,4.8,2.88,4.08,6,3.84a4.85,4.85,0,0,0,3.24-1.92c.48-.6.48.48-.12,1.68s-1.32,3.72,0,5.4,4.32,3.24,8.16,1.08a16.49,16.49,0,0,0,6.12-6.12c.6-1.2.6-1.8,0-2.64s-2.88-4.2-3.24-11.16c-.36-4.2.36-7-2.16-8.4s-8.64-5-9.36-12c-.24-2.64-.12-6.6-2.64-4.44a6.56,6.56,0,0,0-2.88,5.28c-.36,1.56,1.08,3.72,2.16,5.16s2.4,4.8,3.48,5.64,1.56,1.56,2.52,1.56,4.2.12,5,.36,1.2,1.32-.72,1.32a45.78,45.78,0,0,0-6.6.72c-1.44.24-2.76.36-3.48,3.12S62,89.88,62,90.84s-.72,1.56-.72,2.16,1.08,3.24,3.6.48a18.77,18.77,0,0,0,4-6.6c.48-1.32,1.08-1.2.6.84s-.6,7.2.36,8.88c1,1.92,3.12,3.84,5.76,2.64a4,4,0,0,1,2.28-.72c.72.12-.12,1.44-.84,1.92s-2.76,3-6.6-.36a9.87,9.87,0,0,1-2.52-5,.83.83,0,0,0-.88-.78.82.82,0,0,0-.68.42c-.48.6-3,3-4.68,1.2s-2.52-2.64-1.56-6.12C60.36,89,60.72,88.44,60.24,88.2Z"/><path class="cls-10" d="M60.24,88.2c-1.2-.36-2.16,1.08-2.64,2.28s-1.2,2.28.48,4.8,2.88,4.08,6,3.84a4.85,4.85,0,0,0,3.24-1.92c.48-.6.48.48-.12,1.68s-1.32,3.72,0,5.4,4.32,3.24,8.16,1.08a16.49,16.49,0,0,0,6.12-6.12c.6-1.2.6-1.8,0-2.64s-2.88-4.2-3.24-11.16c-.36-4.2.36-7-2.16-8.4s-8.64-5-9.36-12c-.24-2.64-.12-6.6-2.64-4.44a6.56,6.56,0,0,0-2.88,5.28c-.36,1.56,1.08,3.72,2.16,5.16s2.4,4.8,3.48,5.64,1.56,1.56,2.52,1.56,4.2.12,5,.36,1.2,1.32-.72,1.32a45.78,45.78,0,0,0-6.6.72c-1.44.24-2.76.36-3.48,3.12S62,89.88,62,90.84s-.72,1.56-.72,2.16,1.08,3.24,3.6.48a18.77,18.77,0,0,0,4-6.6c.48-1.32,1.08-1.2.6.84s-.6,7.2.36,8.88c1,1.92,3.12,3.84,5.76,2.64a4,4,0,0,1,2.28-.72c.72.12-.12,1.44-.84,1.92s-2.76,3-6.6-.36a9.87,9.87,0,0,1-2.52-5,.83.83,0,0,0-.88-.78.82.82,0,0,0-.68.42c-.48.6-3,3-4.68,1.2s-2.52-2.64-1.56-6.12C60.36,89,60.72,88.44,60.24,88.2Z"/><path class="cls-9" d="M62.16,83c-.36,1.2-.72,2.76-1,3.36s-1,1.8-1.8.12a3.21,3.21,0,0,1,.48-4c.36-.36,1-1.08,1.32-.72S62.28,82.8,62.16,83Z"/><path class="cls-10" d="M62.16,83c-.36,1.2-.72,2.76-1,3.36s-1,1.8-1.8.12a3.21,3.21,0,0,1,.48-4c.36-.36,1-1.08,1.32-.72S62.28,82.8,62.16,83Z"/><path class="cls-9" d="M66.36,78.72c-.72.36-2.4.36-3,1.68-.36.84-1.92-.12-1.08-1.2s1.2-.84,1.8-1.2c.36-.24.6-1.08,1.56-.6S66.6,78.6,66.36,78.72Z"/><path class="cls-10" d="M66.36,78.72c-.72.36-2.4.36-3,1.68-.36.84-1.92-.12-1.08-1.2s1.2-.84,1.8-1.2c.36-.24.6-1.08,1.56-.6S66.6,78.6,66.36,78.72Z"/><path class="cls-9" d="M127.68,32.64c-2.64.24-5,1.8-7.44,3.48S109.08,45.24,107,46.68c2.16,1.08,2.76,3.36,2,7-.24.84,0,1.2.48.6s3.12-3.36,3.12-5.64a7.35,7.35,0,0,0-1.32-3.84c-.12-.36.72-1.44,1.8.84s.72,5.64-2.28,9.24-5.52,3.6-6.84,4.2-2.64,1.68-1.44,3.6,3.48,1.2,4.44.6,2.28-1.44,5.28-1.2,4-1.56,1.92-3.6c-.6-.6-2.28-2.16-.24-2.16,1.2,0,2.64,2.76,3.48,3.48s2.76,1.08,5.28,1.2,6.48,1.08,6.48,3.48c0,1.56-.84,2-1.92.84-.48-.48-1.08.24-1.44.72-1.68,1.56-5.64,5.88-8.64,6.6s-4-.12-7.8-2.16-7.32-4.2-8.4-4.8-3.12-2.16-2.16.84,3.6,6.12,8.52,7.8,5.88,2.16,7,2.76.48,1.08-1.08.84c-1.2-.12-2.64-1.2-1.56,1.2s2.76,5.28,7.92,4.56,5.28-1.68,8.52-7c.48-1,1.08-.36.72,2.16a37.42,37.42,0,0,1,5.4-2,11.81,11.81,0,0,0,7.92-6.36c1.32-2.4,2-3.24,1.8-5.76,0-1,1.32-2.88,2.76-4.2S152,54.24,150,50.76s-5.28-1.8-6.84.84-3.36,5.4-3.48,10a2.34,2.34,0,0,0-2.76.84c-.24.48-4.32,0-5.76.36s-1.92-.48-.36-2.4,6.72-9.12,6.48-14.28a7.87,7.87,0,0,1,.36-3.12c.24-1.56.36-1.56-1.44-2.64-1.32-.72-1.32-2.64-1.56-4.08s-.48-1.56-2.28-1.2C130.92,35.64,128.76,34.32,127.68,32.64Z"/><path class="cls-11" d="M127.68,32.64c-2.64.24-5,1.8-7.44,3.48S109.08,45.24,107,46.68c2.16,1.08,2.76,3.36,2,7-.24.84,0,1.2.48.6s3.12-3.36,3.12-5.64a7.35,7.35,0,0,0-1.32-3.84c-.12-.36.72-1.44,1.8.84s.72,5.64-2.28,9.24-5.52,3.6-6.84,4.2-2.64,1.68-1.44,3.6,3.48,1.2,4.44.6,2.28-1.44,5.28-1.2,4-1.56,1.92-3.6c-.6-.6-2.28-2.16-.24-2.16,1.2,0,2.64,2.76,3.48,3.48s2.76,1.08,5.28,1.2,6.48,1.08,6.48,3.48c0,1.56-.84,2-1.92.84-.48-.48-1.08.24-1.44.72-1.68,1.56-5.64,5.88-8.64,6.6s-4-.12-7.8-2.16-7.32-4.2-8.4-4.8-3.12-2.16-2.16.84,3.6,6.12,8.52,7.8,5.88,2.16,7,2.76.48,1.08-1.08.84c-1.2-.12-2.64-1.2-1.56,1.2s2.76,5.28,7.92,4.56,5.28-1.68,8.52-7c.48-1,1.08-.36.72,2.16a37.42,37.42,0,0,1,5.4-2,11.81,11.81,0,0,0,7.92-6.36c1.32-2.4,2-3.24,1.8-5.76,0-1,1.32-2.88,2.76-4.2S152,54.24,150,50.76s-5.28-1.8-6.84.84-3.36,5.4-3.48,10a2.34,2.34,0,0,0-2.76.84c-.24.48-4.32,0-5.76.36s-1.92-.48-.36-2.4,6.72-9.12,6.48-14.28a7.87,7.87,0,0,1,.36-3.12c.24-1.56.36-1.56-1.44-2.64-1.32-.72-1.32-2.64-1.56-4.08s-.48-1.56-2.28-1.2C130.92,35.64,128.76,34.32,127.68,32.64Z"/><path class="cls-9" d="M116.88,61.8c-.6,1.2-2,2.28-5.28,1.8-1.56-.12-3.12-.12-3.48,1.08-.12,1-.84.84-1.92.84s-2.28-.24-2.28.12,4.56,3.12,6.12,3.84,3.72,2.4,5.64,2.16c2.4-.24,4.44-1.44,8-5.28,1.56-1.56,2.64-2.4,1.32-3a7.18,7.18,0,0,0-3.24-.48C120.6,62.88,117.84,62.64,116.88,61.8Z"/><path class="cls-11" d="M116.88,61.8c-.6,1.2-2,2.28-5.28,1.8-1.56-.12-3.12-.12-3.48,1.08-.12,1-.84.84-1.92.84s-2.28-.24-2.28.12,4.56,3.12,6.12,3.84,3.72,2.4,5.64,2.16c2.4-.24,4.44-1.44,8-5.28,1.56-1.56,2.64-2.4,1.32-3a7.18,7.18,0,0,0-3.24-.48C120.6,62.88,117.84,62.64,116.88,61.8Z"/><path class="cls-9" d="M99.48,61.8c-1.32,0-1.44-1-.6-2.4a13.67,13.67,0,0,1,2.76-3.48,3.32,3.32,0,0,0,1.2,1.68,4.08,4.08,0,0,0-1.56,3.72Z"/><path class="cls-11" d="M99.48,61.8c-1.32,0-1.44-1-.6-2.4a13.67,13.67,0,0,1,2.76-3.48,3.32,3.32,0,0,0,1.2,1.68,4.08,4.08,0,0,0-1.56,3.72Z"/><path d="M120.36,48c.24-1.2.12-2.4-1.92-.72-1.8-1.32-3.36-2.88-3.84-3.24a.86.86,0,0,1-.51-1.1.84.84,0,0,1,.39-.46c.6-.72,1.8.48,1.56-1.44-.12-.72,1.44-.24,1.8-.48s-.24-1.08,1.56-.72c.48.24.24-.84,1.44-.72s1.56.6,1.8-.24.6-1.44,1.92-.6c1,.6,1.32.24,1.44-.24s1-.12,1.8.36a16.87,16.87,0,0,1,5,4.08c.6.72.84,1.32.48,1.44s-.84,0-.84.72-.48,1.44-1,.6-.48.12-.84-.84-.72.36-1-.24-.6.12-.84-.48c-.24-.36-1.08.36-1.32-.12s-1,.48-1.32-.12-.48.72-1.2.36-.48.72-1.2.48-.6.84-1.2.72-.72.12-.84.84-.48,4-.48,4.56,1.56.6,4,.24a19,19,0,0,0,8.52-3.36c.84-.6,1.56-.6,1.68-.48s-.24,1.08-.84,1.56a11.27,11.27,0,0,1-5.76,2.88c-3.6.6-6.6,1.2-7.2,1.08s.24,1,1.32.72c.6-.24,1.8,2,3.72,2,1.56,0,4-1.8,4.56-2.28s3-1.56,1.44,0-3.24,3.36-4.92,3.48a11.6,11.6,0,0,1-6-1.8c-1.8-1.2-2.4-1.8-2.16-3.72A14.55,14.55,0,0,0,120.36,48Z"/><path class="cls-11" d="M120.36,48c.24-1.2.12-2.4-1.92-.72-1.8-1.32-3.36-2.88-3.84-3.24a.86.86,0,0,1-.51-1.1.84.84,0,0,1,.39-.46c.6-.72,1.8.48,1.56-1.44-.12-.72,1.44-.24,1.8-.48s-.24-1.08,1.56-.72c.48.24.24-.84,1.44-.72s1.56.6,1.8-.24.6-1.44,1.92-.6c1,.6,1.32.24,1.44-.24s1-.12,1.8.36a16.87,16.87,0,0,1,5,4.08c.6.72.84,1.32.48,1.44s-.84,0-.84.72-.48,1.44-1,.6-.48.12-.84-.84-.72.36-1-.24-.6.12-.84-.48c-.24-.36-1.08.36-1.32-.12s-1,.48-1.32-.12-.48.72-1.2.36-.48.72-1.2.48-.6.84-1.2.72-.72.12-.84.84-.48,4-.48,4.56,1.56.6,4,.24a19,19,0,0,0,8.52-3.36c.84-.6,1.56-.6,1.68-.48s-.24,1.08-.84,1.56a11.27,11.27,0,0,1-5.76,2.88c-3.6.6-6.6,1.2-7.2,1.08s.24,1,1.32.72c.6-.24,1.8,2,3.72,2,1.56,0,4-1.8,4.56-2.28s3-1.56,1.44,0-3.24,3.36-4.92,3.48a11.6,11.6,0,0,1-6-1.8c-1.8-1.2-2.4-1.8-2.16-3.72A14.55,14.55,0,0,0,120.36,48Z"/><path d="M147.48,54c-1.08.72-1.68,1.08-1.8,2.28s-.36,3.6-.84,3.72-.48-1.2-.72-.72c-.24.72-1.08.36-1.32-.24,0-.24-2.4-.24-.6-2.88s3-3.72,4.2-4.32S149.64,52.44,147.48,54Z"/><path class="cls-11" d="M147.48,54c-1.08.72-1.68,1.08-1.8,2.28s-.36,3.6-.84,3.72-.48-1.2-.72-.72c-.24.72-1.08.36-1.32-.24,0-.24-2.4-.24-.6-2.88s3-3.72,4.2-4.32S149.64,52.44,147.48,54Z"/><path class="cls-9" d="M193.08,164.64c-.48-1.08.36-2.88,2.64-1.56s4.08,2.4,2.4,7.56-2.88,8-3.48,10.2-3.24,4.92-2.4,1.2,1.32-8,1-10.2c-.72-4.2.6-3.84.24-5.76C193.32,165.48,193.2,165.12,193.08,164.64Z"/><path class="cls-10" d="M193.08,164.64c-.48-1.08.36-2.88,2.64-1.56s4.08,2.4,2.4,7.56-2.88,8-3.48,10.2-3.24,4.92-2.4,1.2,1.32-8,1-10.2c-.72-4.2.6-3.84.24-5.76C193.32,165.48,193.2,165.12,193.08,164.64Z"/><path class="cls-9" d="M201.84,169.08c.72,2,1.44,6.6.36,8.52s-4.56,7-5.88,8.28-2.28.72-1.44-.6,1.92-3.36,1.92-4-.12-1.44,1.08-3.48,3-9.36,3.12-10S201.72,168.6,201.84,169.08Z"/><path class="cls-10" d="M201.84,169.08c.72,2,1.44,6.6.36,8.52s-4.56,7-5.88,8.28-2.28.72-1.44-.6,1.92-3.36,1.92-4-.12-1.44,1.08-3.48,3-9.36,3.12-10S201.72,168.6,201.84,169.08Z"/><path class="cls-9" d="M177.84,186.36c-.48-1.68-.84-4.08-1.8-5.52.84-2,3.24-7.56,7.44-9.24.36-.12.72-.6.48-1s.48-.72.84.6a43.46,43.46,0,0,1,1.08,5,7.37,7.37,0,0,1-.36,2.64c-.24,1.08-.72,3.6-.36,4.92s.72,2.28,3.36,1.68c1.32-.24,1.2-.72,1.56-1.8s1.44-4.32,1.8-6.12a23.5,23.5,0,0,0-.24-7.2c-.36-1.08.12-4.8-.24-5.52s-.36-1.92-2.76-2.64-3-1-4.56.6-2.16,2.28-2.88,3-2.52.12-1-1.44,3-3,3.48-3.36l-.48-1.2h-.84a16.94,16.94,0,0,1-8,4.44c-.84.12-2.4.36-1.32,1.8.36.36.36,1.44,1.08,1.08s1.68-2,2.64-1.32-.12,2.64-1.32,3.36-2.28,1.68-3.12,2.28c-.84.36-1.32.84-1.2,2.4a14.13,14.13,0,0,1-.72,6.12c-.72,2-.36,2.64.48,4.08s1.92,2.52,2.28,4.8.48,2.76,2,2.64a3.12,3.12,0,0,0,2.64-1.8Z"/><path class="cls-10" d="M177.84,186.36c-.48-1.68-.84-4.08-1.8-5.52.84-2,3.24-7.56,7.44-9.24.36-.12.72-.6.48-1s.48-.72.84.6a43.46,43.46,0,0,1,1.08,5,7.37,7.37,0,0,1-.36,2.64c-.24,1.08-.72,3.6-.36,4.92s.72,2.28,3.36,1.68c1.32-.24,1.2-.72,1.56-1.8s1.44-4.32,1.8-6.12a23.5,23.5,0,0,0-.24-7.2c-.36-1.08.12-4.8-.24-5.52s-.36-1.92-2.76-2.64-3-1-4.56.6-2.16,2.28-2.88,3-2.52.12-1-1.44,3-3,3.48-3.36l-.48-1.2h-.84a16.94,16.94,0,0,1-8,4.44c-.84.12-2.4.36-1.32,1.8.36.36.36,1.44,1.08,1.08s1.68-2,2.64-1.32-.12,2.64-1.32,3.36-2.28,1.68-3.12,2.28c-.84.36-1.32.84-1.2,2.4a14.13,14.13,0,0,1-.72,6.12c-.72,2-.36,2.64.48,4.08s1.92,2.52,2.28,4.8.48,2.76,2,2.64a3.12,3.12,0,0,0,2.64-1.8Z"/><path class="cls-5" d="M178.44,190.68a9.27,9.27,0,0,0-1.8,4.44c0,1.56-1.56,3.24-1.44,4s2.28,2.76,3.48,4.8a18.17,18.17,0,0,1,2.76,10.2,64.94,64.94,0,0,1-1.92,13.08c-.12.84-.72,1.68.72,3s3.6,3.72,4.56,9.24,1.44,8.4,1.8,8.64.24.84.24,1.8,1,7,1.56,8,.6-6.24.48-8.4.12-12.48.48-13.92.72-3.12-.48-5-3.6-5-1.92-10.44,4.32-5.4,3.48-7.44a17.61,17.61,0,0,0-3.36-4.92c-1.2-1.2-.24-4.08-.36-5.28-.12-2.28-1.92-2.64-2-5.16s-.36-4.56,1.56-7.08-.72-2.4-1.56-4-1.2-3.6-.48-7c.36-1.68.12-2.16-.36-2.28s-2.4-.6-2.4-.6l-2.76,5.88a13.92,13.92,0,0,1,.6,3.84Z"/><path class="cls-6" d="M178.44,190.68a9.27,9.27,0,0,0-1.8,4.44c0,1.56-1.56,3.24-1.44,4s2.28,2.76,3.48,4.8a18.17,18.17,0,0,1,2.76,10.2,64.94,64.94,0,0,1-1.92,13.08c-.12.84-.72,1.68.72,3s3.6,3.72,4.56,9.24,1.44,8.4,1.8,8.64.24.84.24,1.8,1,7,1.56,8,.6-6.24.48-8.4.12-12.48.48-13.92.72-3.12-.48-5-3.6-5-1.92-10.44,4.32-5.4,3.48-7.44a17.61,17.61,0,0,0-3.36-4.92c-1.2-1.2-.24-4.08-.36-5.28-.12-2.28-1.92-2.64-2-5.16s-.36-4.56,1.56-7.08-.72-2.4-1.56-4-1.2-3.6-.48-7c.36-1.68.12-2.16-.36-2.28s-2.4-.6-2.4-.6l-2.76,5.88a13.92,13.92,0,0,1,.6,3.84Z"/><path class="cls-1" d="M151.44,77.28c-2.28,3-5.76,10.8-7.56,15.6s-5.4,16.44-2.76,24.12,8,2.76,9.24-.12,3.12-7.8,3.72-9.12.72-2,1.8,1.08a80.53,80.53,0,0,1,2.52,11c0,.72-1,2.52-2.16,5.4s-1.8,4.92-.6,6.72,5.4,9.24,6.84,12.6c.84,1.92,1.56,2.28,3.84,1.8a93.76,93.76,0,0,0,9.24-3.12c1.56-.84.84-2,.36-3.6-.72-2.4-3.48-15.84-3.48-17.64s.36-4.2-1.92-1.56c-.84,1-1.92,0-1.68-1.2s3.12-19.56,3.24-21.72c-1.56-3.48-6.24-14.28-7.56-16.32s-1.8-2-3.72-1-6.36,2.52-7.92-1.2c-.36-.6-.84-2.16.36-2.28l-.84-.36C152.4,76.32,151.8,76.8,151.44,77.28Z"/><path class="cls-1" d="M175.92,144.24c-1.68,1-7.68,3.6-10.08,4s-1.8,1.08-1.44,2.88,1.92,7.44,2.64,9.48,1.8,1.92,3.84,1.92a19.15,19.15,0,0,0,11.52-4.8c-1-1.2-2.76-7.08-3.36-9.48C178.44,145.44,178.44,142.8,175.92,144.24Z"/><path class="cls-1" d="M122.52,90.48A2.52,2.52,0,0,1,120.24,92c-1.56,0-2.76-.48-3.72.84s-6.12,7.56-7.2,11.4c1.08,2.28,2.64,6.48,3.72,9.48,3.6-3.12,15.24-14.4,17.4-16.56.84-.84,1-1.56-.24-2.4s-5.76-3.72-6.48-4.2S122.64,90.12,122.52,90.48Z"/><path class="cls-1" d="M93.12,106.8a47.54,47.54,0,0,1-4.44,11.88c.84,1.56,1.56,2.76,2.76,3.36a67.3,67.3,0,0,0,8.88-8.16c1.44-1.68,3.12-4.2,3.12-4.68s-.6-.72-1.44-.6-4.32-1.2-7.68-1.8C93.48,106.44,93.24,106.44,93.12,106.8Z"/><path class="cls-1" d="M91.08,104c-1.08-.24-4.56-4-5.76-6s-1.44-1.92-1.92-.36A24.44,24.44,0,0,1,80,103.92c-1.2,1.56-4.44,5.76-5.28,6.6s0,1.32.72,2S80,118,80.88,119s1.8,2.88,4,.84a24.21,24.21,0,0,0,6.24-9.6c1.2-3.84,1.2-5.88,2.28-5.64l.12-.84-.36-.48-.48-.48a.93.93,0,0,1-.12,1C92.28,104.4,91.56,104.16,91.08,104Z"/><path class="cls-1" d="M148.08,18.36c-2.52,3-7.56,5.64-16.08,7.68s-16.56,8.16-19.92,11S100,47,95.88,48.84c-1.2.48-3.6,2-.48,2.4,2.28.36,3.84-1,8.64-4.56s8.64-6,12.36-9.6c3.48-3.48,9.6-6.6,16.44-8.4s15.48-4.8,18-7.68c1.2-1.2,1.32-1.92.24-3S149.16,17.16,148.08,18.36Z"/><path class="cls-1" d="M105.36,47.64c-.72.36-1.08.84-1.92,3.6s-.72,4.2,0,4.92a2.16,2.16,0,0,0,1.56.48c.36,0,.6.12.6-.6s-.12-4.2,2.4-5.76c.48-.24-.12-2.28-1.8-1.92C105.72,48.48,106.32,47.16,105.36,47.64Z"/><path class="cls-1" d="M76.56,58.32c1.32,0,2.16,0,2,1.56s-.72,3.48-.84,4.92-.12,1.92.72,1.92-1.2.84-2.28,1.08-2.88.84-3.72-4c-.36-1.44-.24-3.84-.48-4.32A10,10,0,0,1,76.56,58.32Z"/><path class="cls-1" d="M101.28,62.28c.36,1.92.84,1.92.48,2.16s-.72-.72-2.28-.48-13.2,2-14,2.16c-2.64.36-2.76-.12-.24-.72s11.28-2,13.92-2.52Z"/><path class="cls-1" d="M87.24,204.84c1.2.72,4.08,1.56,9-.48s10.44-.72,11.28,2.88,1,8-.72,10c-1.2,1.68-2.52,1.56-4,1.08-2.64-.84-8.88-3.72-10.68-4.56a18.48,18.48,0,0,0-7-1.8c-.72-1.8-.72-4.92-.12-6s.6-2.28,1.08-1.92A8.69,8.69,0,0,0,87.24,204.84Z"/><path class="cls-1" d="M106.8,221.28a4.26,4.26,0,0,1,4.08,2.76c.6,1.8,4.2,2.16,5.76,2.16s1.32.72,1.2,1.68-.36,3.72-.36,4.8.36,5,.48,5.76-.48,1.2-1.32,1.56-3.84,1.2-5.76-.12c-1.08-.72-2.28-1.8-1.08-1.8s-1.56-10.68-2.28-12.48S104.64,221.28,106.8,221.28Z"/><path class="cls-1" d="M74.64,199.32c.6.12.84.72,1.2,1.32a1.31,1.31,0,0,1-.12,1.8c-1.08,1.2-2.28,6.24-2,10a10.3,10.3,0,0,0-2.76-.36c-.24-2-.12-8.4.84-10.44S73.56,199,74.64,199.32Z"/><path class="cls-1" d="M74.88,256.2c2.4,2.64,6.72,6.6,10,8a15.45,15.45,0,0,0,8.4,1.56c2.28-.24,1.8.72,0,1.08s-6.24.24-9-1.2-7.2-4.32-10-8.4C73.44,256.32,74.16,255.36,74.88,256.2Z"/><path class="cls-1" d="M123.48,249.6a43.44,43.44,0,0,1-8.88,3.48,9.4,9.4,0,0,1,.48,2.88c2,0,6-1.44,9.24-3.48.72-.48,1.08-1.08.72-1.68S124.44,249.12,123.48,249.6Z"/><path class="cls-1" d="M101.4,242c-.48-.48,2.16-1.08,2.76-1.08a12.68,12.68,0,0,1,2.28,1.92c.36.24.24.36-.12.6a19.79,19.79,0,0,1-2.64.72A21.12,21.12,0,0,1,101.4,242Z"/><path class="cls-1" d="M106.32,203.28c-.72-.6-.72-.84-.24-1.44a3.56,3.56,0,0,1,1.08-1.2c.36-.12.84-.24,1.56.72a86.12,86.12,0,0,1,4.92,8.4c.84,1.56,1.68.48,1.32-.36a17.6,17.6,0,0,0-1.44-3,40.41,40.41,0,0,0,2-11.16,19.14,19.14,0,0,0-1.32-7.44c2.64,0,8,0,10.2-.72s.36-.84-.48-.72a70.84,70.84,0,0,1-11.28-.48c-7.68-.84-15.12-5.28-17.52-8.16-.36-.48-2.64-.24-.72,1.2s6.6,5.88,13.56,7.2c1.56.36,4.08.72,4.44,6.48a67.83,67.83,0,0,1-.12,10.08c0,.6-.36.72-.84.12a14.34,14.34,0,0,0-2.88-3.24,1.79,1.79,0,0,0-2.16.12A14.8,14.8,0,0,0,104,202Z"/><path class="cls-1" d="M91.2,221.4c-.6,0-4.8.36-5.76,0s-1.44-1.32-.84-1.8c.84-.48,2.28.24,3.6.24s3-.36,3.48-.24.84.24.84,1.92Z"/><path class="cls-1" d="M81.12,247.08c-1.2-.84-2.64-4.2-2.88-11.16a24.53,24.53,0,0,1,1.56-8c.72-1.92-.48-1.2-.72-.48a24.27,24.27,0,0,0-1.56,5.28,27.19,27.19,0,0,0,0,9,44.38,44.38,0,0,0,1.32,6.24Z"/><path class="cls-7" d="M119.28,18.24a7.55,7.55,0,0,1,.6-1.44c-.72.48-1.44.72-2,1.08C118.2,18.48,118.8,19.44,119.28,18.24Z"/><path class="cls-8" d="M119.28,18.24a7.55,7.55,0,0,1,.6-1.44c-.72.48-1.44.72-2,1.08C118.2,18.48,118.8,19.44,119.28,18.24Z"/><path class="cls-7" d="M136.08,19.08c-.24-1-1.2.6-2.28,1.92s-2.88.6-3-.12A9.94,9.94,0,0,0,129.24,18c-1.08-1.32,1-3.12,1.8-3.36a11,11,0,0,0,2.16-.72c.24-.24-.12-1.56-.36-2.64a69.91,69.91,0,0,0-11,4.56c1.08.36.72,2.52.6,2.76s-.48,2.28.36,1.08a4.57,4.57,0,0,1,2-1.8c.84-.24,1.8-.24,1.8,1.08s-.48,1.2-.72,2,0,.84.48,1,.72.72.36,1.68-1.68,1-3,.84-1.44,0-1,.36a3.62,3.62,0,0,1,1,1.92,45.84,45.84,0,0,1,12.36-3.84A13.72,13.72,0,0,0,136.08,19.08Z"/><path class="cls-8" d="M136.08,19.08c-.24-1-1.2.6-2.28,1.92s-2.88.6-3-.12A9.94,9.94,0,0,0,129.24,18c-1.08-1.32,1-3.12,1.8-3.36a11,11,0,0,0,2.16-.72c.24-.24-.12-1.56-.36-2.64a69.91,69.91,0,0,0-11,4.56c1.08.36.72,2.52.6,2.76s-.48,2.28.36,1.08a4.57,4.57,0,0,1,2-1.8c.84-.24,1.8-.24,1.8,1.08s-.48,1.2-.72,2,0,.84.48,1,.72.72.36,1.68-1.68,1-3,.84-1.44,0-1,.36a3.62,3.62,0,0,1,1,1.92,45.84,45.84,0,0,1,12.36-3.84A13.72,13.72,0,0,0,136.08,19.08Z"/><path class="cls-7" d="M106.68,37.44c-.48-.84-1.08-1-1.32-.24s-.72,2.88-2.16,3.48c-.48.12-.84.24-1.2.36.6.48,1.08,1,1.8,1.44A41.27,41.27,0,0,1,107,39.24,4.63,4.63,0,0,0,106.68,37.44Z"/><path class="cls-8" d="M106.68,37.44c-.48-.84-1.08-1-1.32-.24s-.72,2.88-2.16,3.48c-.48.12-.84.24-1.2.36.6.48,1.08,1,1.8,1.44A41.27,41.27,0,0,1,107,39.24,4.63,4.63,0,0,0,106.68,37.44Z"/><path class="cls-7" d="M120.6,26.4c-.6-.12-1,.6-1.32,1.08A2.11,2.11,0,0,1,117,28.8c-1.2-.12-1.44-.48-1.8-1.56a1.73,1.73,0,0,0-1.92-1.32c-.84,0-1.44-1.08-.48-2.16s1.8-.6,2.64-.6,1.08-.84.48-1.2a4.23,4.23,0,0,1-1.44-2,82.73,82.73,0,0,0-9.84,7.44,13.58,13.58,0,0,1,1.56.36,1.49,1.49,0,0,1,1.08,1.56c0,.84.12,1.08.72.48s-.12-2.28,1.68-2.88,1.92.6,1.8,1.44,0,1.68,1,2.16,1.8,1.8-.12,2.52a23.53,23.53,0,0,1-3.84,1.32c-.84.24-.6,1.08.12,1.56.36.24.6.6.84.72a84.25,84.25,0,0,1,7.44-5.88,41.65,41.65,0,0,1,4.2-2.64C121.2,27.48,121.32,26.64,120.6,26.4Z"/><path class="cls-8" d="M120.6,26.4c-.6-.12-1,.6-1.32,1.08A2.11,2.11,0,0,1,117,28.8c-1.2-.12-1.44-.48-1.8-1.56a1.73,1.73,0,0,0-1.92-1.32c-.84,0-1.44-1.08-.48-2.16s1.8-.6,2.64-.6,1.08-.84.48-1.2a4.23,4.23,0,0,1-1.44-2,82.73,82.73,0,0,0-9.84,7.44,13.58,13.58,0,0,1,1.56.36,1.49,1.49,0,0,1,1.08,1.56c0,.84.12,1.08.72.48s-.12-2.28,1.68-2.88,1.92.6,1.8,1.44,0,1.68,1,2.16,1.8,1.8-.12,2.52a23.53,23.53,0,0,1-3.84,1.32c-.84.24-.6,1.08.12,1.56.36.24.6.6.84.72a84.25,84.25,0,0,1,7.44-5.88,41.65,41.65,0,0,1,4.2-2.64C121.2,27.48,121.32,26.64,120.6,26.4Z"/><path class="cls-7" d="M102.36,35c.12-.84-.72-1.2-1.08-1.44-.48,0-1.08-.72-1.32-1.32a6.4,6.4,0,0,0-1.2,1.92c.24.6.36,1.2.6,1.68C100.44,35.88,102.24,35.88,102.36,35Z"/><path class="cls-8" d="M102.36,35c.12-.84-.72-1.2-1.08-1.44-.48,0-1.08-.72-1.32-1.32a6.4,6.4,0,0,0-1.2,1.92c.24.6.36,1.2.6,1.68C100.44,35.88,102.24,35.88,102.36,35Z"/><path class="cls-7" d="M141.72,78.6a25.32,25.32,0,0,0-10.08,1.68c.6.36,1.2,1.2,2.4.72,1.8-.6,2.4,1.32,1.56,1.8s-1.08,1.8.48.84,3,.48,2.4,1.44-1.56.24-1.32,1.68-.12,2.76-1.44,3-1.56-1.68-2.16-1.56.12,3.48-.12,3.48a4.39,4.39,0,0,0-2.28,1.44.12.12,0,0,1,.12.12h0c5,3.6,6.36,1.56,7.2-.12a73.23,73.23,0,0,0,2.88-9.72A35,35,0,0,0,141.72,78.6Z"/><path class="cls-8" d="M141.72,78.6a25.32,25.32,0,0,0-10.08,1.68c.6.36,1.2,1.2,2.4.72,1.8-.6,2.4,1.32,1.56,1.8s-1.08,1.8.48.84,3,.48,2.4,1.44-1.56.24-1.32,1.68-.12,2.76-1.44,3-1.56-1.68-2.16-1.56.12,3.48-.12,3.48a4.39,4.39,0,0,0-2.28,1.44.12.12,0,0,1,.12.12h0c5,3.6,6.36,1.56,7.2-.12a73.23,73.23,0,0,0,2.88-9.72A35,35,0,0,0,141.72,78.6Z"/><path class="cls-7" d="M130.56,88.68c.24-.6-.48-1.2-1.32-.84-.84.6-1.92,1.32-2.76,0s1-1.56,1-2.16-.48-.84-.24-1.8,1.56-.84,2.4-.24.6-1,.48-1.56a4,4,0,0,1,0-1.2,14.26,14.26,0,0,0-3,1.56c-4.8,2.88-4.92,5.4-3.84,6.36s3.12,1.2,6.6,3.48A12.65,12.65,0,0,1,130.56,88.68Z"/><path class="cls-8" d="M130.56,88.68c.24-.6-.48-1.2-1.32-.84-.84.6-1.92,1.32-2.76,0s1-1.56,1-2.16-.48-.84-.24-1.8,1.56-.84,2.4-.24.6-1,.48-1.56a4,4,0,0,1,0-1.2,14.26,14.26,0,0,0-3,1.56c-4.8,2.88-4.92,5.4-3.84,6.36s3.12,1.2,6.6,3.48A12.65,12.65,0,0,1,130.56,88.68Z"/><path class="cls-7" d="M115.32,85.92A14.26,14.26,0,0,1,110,80.28s.12-.48-.36-.48a20.07,20.07,0,0,1-6.12-1.32c-3.48-1.2-4-.48-4.32,1a35.87,35.87,0,0,0-1,8.76c0,4.44,1.92,7.2,3.12,6.84.6-.24,2-1,3.72-1.8,0-1,.12-2.4.12-3.24.24-1-1-.6-1.44,0s-1.32,1.44-2.16,1.32-1.44-1.68-1.2-3-1.56-1.92-.48-3.84,1.92.48,2.76.36.48-.72,0-2.16,1.32-1.8,2.4-.84c.72.72,1.08-.84,2-.6s1.68,1,1.08,2c-.48.72-.84,2.52,0,1.56s1.8-1.56,2.64-.84.36,2,.12,2.64,1.44,1.56.24,2.4-2.52-.6-3.24-.36-.72,1,.12,1.56a6.53,6.53,0,0,0,1.68,1,24.53,24.53,0,0,0,5-2.4l1.2.12C116,87.24,115.8,86.28,115.32,85.92Z"/><path class="cls-8" d="M115.32,85.92A14.26,14.26,0,0,1,110,80.28s.12-.48-.36-.48a20.07,20.07,0,0,1-6.12-1.32c-3.48-1.2-4-.48-4.32,1a35.87,35.87,0,0,0-1,8.76c0,4.44,1.92,7.2,3.12,6.84.6-.24,2-1,3.72-1.8,0-1,.12-2.4.12-3.24.24-1-1-.6-1.44,0s-1.32,1.44-2.16,1.32-1.44-1.68-1.2-3-1.56-1.92-.48-3.84,1.92.48,2.76.36.48-.72,0-2.16,1.32-1.8,2.4-.84c.72.72,1.08-.84,2-.6s1.68,1,1.08,2c-.48.72-.84,2.52,0,1.56s1.8-1.56,2.64-.84.36,2,.12,2.64,1.44,1.56.24,2.4-2.52-.6-3.24-.36-.72,1,.12,1.56a6.53,6.53,0,0,0,1.68,1,24.53,24.53,0,0,0,5-2.4l1.2.12C116,87.24,115.8,86.28,115.32,85.92Z"/><path class="cls-7" d="M108.48,106.44c-.84-1.68-1.08-.36-3.12,2.76a76.43,76.43,0,0,1-7,8.28c2.28.36,7.2,1.56,4.2,4.08s-1.8,2.4-.36,2.28,3.84.6,2,3.84-3,5.4-4.68,6.36-4.2,1-4.68-1.44-2.16,0-2.28,1.56a38.77,38.77,0,0,0,0,5.28L89,139.2a46.17,46.17,0,0,1,.24-5.76c.24-1.44.12-3.12-2-2.4a3.67,3.67,0,0,1-2.76-.24c-4.2,3.6-6.36,6.24-7.68,8.52a4.36,4.36,0,0,0,4.56,1c2-.84,5.4.12,3.36,3.36s-1.92,4.68.12,2.76,5.28-5.4,6.36-1.8c.6,2.28-1.56,3-1.44,4.92s1.92,3.72-.72,6-3.72-1.56-5.4-1.08a1.89,1.89,0,0,0-1.2,2.16c2.28,3.36,5.64,8,6.84,10,1.92,3.12,1.92,6.84,2.64,6.24S94.44,170.52,95,170a1.88,1.88,0,0,0,.84-2,34.16,34.16,0,0,1-1.08-10.32c.36-4.32,2.4-9.12,3.84-11.88s5.76-11.16,6.84-13.32,3-4.92,3.36-7,2.28-6.84,3-9.12A46.74,46.74,0,0,0,108.48,106.44Z"/><path class="cls-8" d="M108.48,106.44c-.84-1.68-1.08-.36-3.12,2.76a76.43,76.43,0,0,1-7,8.28c2.28.36,7.2,1.56,4.2,4.08s-1.8,2.4-.36,2.28,3.84.6,2,3.84-3,5.4-4.68,6.36-4.2,1-4.68-1.44-2.16,0-2.28,1.56a38.77,38.77,0,0,0,0,5.28L89,139.2a46.17,46.17,0,0,1,.24-5.76c.24-1.44.12-3.12-2-2.4a3.67,3.67,0,0,1-2.76-.24c-4.2,3.6-6.36,6.24-7.68,8.52a4.36,4.36,0,0,0,4.56,1c2-.84,5.4.12,3.36,3.36s-1.92,4.68.12,2.76,5.28-5.4,6.36-1.8c.6,2.28-1.56,3-1.44,4.92s1.92,3.72-.72,6-3.72-1.56-5.4-1.08a1.89,1.89,0,0,0-1.2,2.16c2.28,3.36,5.64,8,6.84,10,1.92,3.12,1.92,6.84,2.64,6.24S94.44,170.52,95,170a1.88,1.88,0,0,0,.84-2,34.16,34.16,0,0,1-1.08-10.32c.36-4.32,2.4-9.12,3.84-11.88s5.76-11.16,6.84-13.32,3-4.92,3.36-7,2.28-6.84,3-9.12A46.74,46.74,0,0,0,108.48,106.44Z"/><path class="cls-7" d="M149,147.84c-2.4-4-2.88-5.64-3.24-9.72a49.68,49.68,0,0,1,.48-9.12c-.84-.12-1.68,0-1.8,1.2a16.94,16.94,0,0,1-1.44,5.64c-.6,1.2-2.4,1.2-3.6,1.2s-1.08-.6-.36-2.28,1.08-2.4.84-4-.84-.12-1.56,1.2-2.52,3.84-4.68,3.6-1.56-3.6-1.44-4.68-.36-1.32-1.2-1.44-2.64-.6-1.56-3.36c.84-2.64,1.92-2.4,3.12-1.92s1.56-.36.36-.84-2.52-1.56-2.4-2.76c.24-3.48,2.4-3.12,4.08-2.76a5.61,5.61,0,0,0,4.56-1.92v-.24c-2.52-9.48,2.28-21.12,3.48-24.36a153.65,153.65,0,0,1,8.16-15.24l-4.8-2.4c-1.32-.6-2-1.08-2.4-.48s-.84.84-1.56,1.68c-1.2,1.92-.12,1.56.12,1.56.48,0,2,2,2.28,2.64.36.36,0,.72-.6,2.28-.84,1.92-1.44,6.48-2.28,9.12-2.16,8.16-5.76,7.32-7.32,6.36s-2,.48-3.6,2.76c-.48.48-1.44,1.56-2.64,2.76,1.56.72,3.6,2.64,1.2,4.56-3,2.28-3.48,3.48-2,3.12s2.76-2.4,4.32-.84-.48,3.12-1.44,3.6-2.52,1.32-2,3.12.84,4.2-1.56,4.68-3.24-.36-3.84-1.56-1.32-.36-1.56,1.08a16.46,16.46,0,0,0-.48,3.12c0,.6-1.68-.24-2.4-1s-1.68,1.2-2.52.24,1-4.2,1.56-5.28.36-2.64-3.36-.84c-1.2,2-2.16,4.92-3.6,9.48a101.89,101.89,0,0,1-8.64,17.76c-5,8.16-6,15.72-5.16,20.52s1.32,4.32,2.4,4.32,3.48,3.12,5.16,5.16,2.4,1.08,3.24.36A89.26,89.26,0,0,1,123,164.88a87.22,87.22,0,0,1,11.88-4.68,29.2,29.2,0,0,1,.6-4.56c.12-1-.72-1.2-1.68,0s-3.36,4.2-5,3.36-3.12-2.52-2.16-4.2-.36-1.92-1.08-2.76-.72-4.2,1.44-4.44,2.64,1.56,4.08,2,2.64.36.84-1.56-4-1.2-2.88-4,2.76-2.52,4.68-1.92,2.76-.48,4-1.32,3.6-1.92,5.28,0-1.2,3.72-1.92,4.32c-1.2,1.32-1.44,3.6,0,2.28s3.72-6.48,5.4-2.28c.84,2.4-.84,3.48-.6,4.92s2.88,3.48.84,5.4-5,.36-6.24-.84-2.52-1.68-1.92.36a14.49,14.49,0,0,1,.6,4.08c4.08-1.08,7.68-1.8,9.48-1.68,2.64.24,4.68,1.08,4.56-1.44C152.76,153.48,151.44,151.8,149,147.84Z"/><path class="cls-8" d="M149,147.84c-2.4-4-2.88-5.64-3.24-9.72a49.68,49.68,0,0,1,.48-9.12c-.84-.12-1.68,0-1.8,1.2a16.94,16.94,0,0,1-1.44,5.64c-.6,1.2-2.4,1.2-3.6,1.2s-1.08-.6-.36-2.28,1.08-2.4.84-4-.84-.12-1.56,1.2-2.52,3.84-4.68,3.6-1.56-3.6-1.44-4.68-.36-1.32-1.2-1.44-2.64-.6-1.56-3.36c.84-2.64,1.92-2.4,3.12-1.92s1.56-.36.36-.84-2.52-1.56-2.4-2.76c.24-3.48,2.4-3.12,4.08-2.76a5.61,5.61,0,0,0,4.56-1.92v-.24c-2.52-9.48,2.28-21.12,3.48-24.36a153.65,153.65,0,0,1,8.16-15.24l-4.8-2.4c-1.32-.6-2-1.08-2.4-.48s-.84.84-1.56,1.68c-1.2,1.92-.12,1.56.12,1.56.48,0,2,2,2.28,2.64.36.36,0,.72-.6,2.28-.84,1.92-1.44,6.48-2.28,9.12-2.16,8.16-5.76,7.32-7.32,6.36s-2,.48-3.6,2.76c-.48.48-1.44,1.56-2.64,2.76,1.56.72,3.6,2.64,1.2,4.56-3,2.28-3.48,3.48-2,3.12s2.76-2.4,4.32-.84-.48,3.12-1.44,3.6-2.52,1.32-2,3.12.84,4.2-1.56,4.68-3.24-.36-3.84-1.56-1.32-.36-1.56,1.08a16.46,16.46,0,0,0-.48,3.12c0,.6-1.68-.24-2.4-1s-1.68,1.2-2.52.24,1-4.2,1.56-5.28.36-2.64-3.36-.84c-1.2,2-2.16,4.92-3.6,9.48a101.89,101.89,0,0,1-8.64,17.76c-5,8.16-6,15.72-5.16,20.52s1.32,4.32,2.4,4.32,3.48,3.12,5.16,5.16,2.4,1.08,3.24.36A89.26,89.26,0,0,1,123,164.88a87.22,87.22,0,0,1,11.88-4.68,29.2,29.2,0,0,1,.6-4.56c.12-1-.72-1.2-1.68,0s-3.36,4.2-5,3.36-3.12-2.52-2.16-4.2-.36-1.92-1.08-2.76-.72-4.2,1.44-4.44,2.64,1.56,4.08,2,2.64.36.84-1.56-4-1.2-2.88-4,2.76-2.52,4.68-1.92,2.76-.48,4-1.32,3.6-1.92,5.28,0-1.2,3.72-1.92,4.32c-1.2,1.32-1.44,3.6,0,2.28s3.72-6.48,5.4-2.28c.84,2.4-.84,3.48-.6,4.92s2.88,3.48.84,5.4-5,.36-6.24-.84-2.52-1.68-1.92.36a14.49,14.49,0,0,1,.6,4.08c4.08-1.08,7.68-1.8,9.48-1.68,2.64.24,4.68,1.08,4.56-1.44C152.76,153.48,151.44,151.8,149,147.84Z"/><path class="cls-7" d="M116,164.4c-2.28.72-2.64-.36-4.2-.84s-1.56.72-.48,2.28,2.16,3.12.84,3.12-2.16.12-2.28,1.08-2.16-.12-2.64-2.16-.84-5.64-1.92-3.84-1.92,5-4.56,3.6-.84-3.24-2.16-4.56-2.64-3-1.2-5.4c1.2-2.28,2.4-.36,3.6-.36s1.44-1.08.36-1.92-2.52-4.92,2.64-4.56a10.12,10.12,0,0,0,5.76-1.8c1.68-1.2,6-.6,4.2,2.52s-1.2,3.72-.12,2.64,2.4-3.12,4.32-2.64,1.08,2-.12,3.72-.48,2.76.48,3.48S121.2,163,116,164.4Z"/><path class="cls-8" d="M116,164.4c-2.28.72-2.64-.36-4.2-.84s-1.56.72-.48,2.28,2.16,3.12.84,3.12-2.16.12-2.28,1.08-2.16-.12-2.64-2.16-.84-5.64-1.92-3.84-1.92,5-4.56,3.6-.84-3.24-2.16-4.56-2.64-3-1.2-5.4c1.2-2.28,2.4-.36,3.6-.36s1.44-1.08.36-1.92-2.52-4.92,2.64-4.56a10.12,10.12,0,0,0,5.76-1.8c1.68-1.2,6-.6,4.2,2.52s-1.2,3.72-.12,2.64,2.4-3.12,4.32-2.64,1.08,2-.12,3.72-.48,2.76.48,3.48S121.2,163,116,164.4Z"/><path class="cls-7" d="M125.4,142.44a15.5,15.5,0,0,1-3.72-.36c-.12,1.8-1.8,4.32-3.6,7-.12.24-1.2.24-1.68-.12s-1.8-1.08-.72-2.16,2.76-3.48,2.4-4.56-1.08-1.92-2.16-.48S113,146,111,146s-3.84-1.56-3-3.36,1.2-2.76,0-4.32-.84-3.6,1.92-4.92a3.77,3.77,0,0,1,3.36.84c1.08.84,1.56,0,.12-.84s-2.52-1.8-2.64-3.72.84-3.6,3.36-2.64a4.42,4.42,0,0,0,4.92-.6c1.08-.84,5.4-1.92,4.8,1.92-.48,2.76-1.8,2.88-2.16,4.32s.72.48,1.32-.48c.72-1.2,2.28-5.76,5.28-2.28.72.84.48,2.28-.48,3.84s-.12,2.52.48,3.36S130.08,142.2,125.4,142.44Z"/><path class="cls-8" d="M125.4,142.44a15.5,15.5,0,0,1-3.72-.36c-.12,1.8-1.8,4.32-3.6,7-.12.24-1.2.24-1.68-.12s-1.8-1.08-.72-2.16,2.76-3.48,2.4-4.56-1.08-1.92-2.16-.48S113,146,111,146s-3.84-1.56-3-3.36,1.2-2.76,0-4.32-.84-3.6,1.92-4.92a3.77,3.77,0,0,1,3.36.84c1.08.84,1.56,0,.12-.84s-2.52-1.8-2.64-3.72.84-3.6,3.36-2.64a4.42,4.42,0,0,0,4.92-.6c1.08-.84,5.4-1.92,4.8,1.92-.48,2.76-1.8,2.88-2.16,4.32s.72.48,1.32-.48c.72-1.2,2.28-5.76,5.28-2.28.72.84.48,2.28-.48,3.84s-.12,2.52.48,3.36S130.08,142.2,125.4,142.44Z"/><path class="cls-3" d="M123.72,24.48c1.32.12,2.64.12,3-.84s.12-1.44-.36-1.56-.6-.24-.48-1.08.84-.72.72-1.92-1-1.44-1.8-1.08-1.2.6-2,1.8-.48-.72-.36-1.08.48-2.52-.6-2.88c-.72.36-1.32.72-1.92,1a7.16,7.16,0,0,0-.48,1.44c-.48,1.2-1.08.24-1.44-.36a31.07,31.07,0,0,0-3.12,1.92c-.12,0-.24.12-.36.12A3.82,3.82,0,0,0,116,22c.6.48.24,1.2-.6,1.2s-1.56-.48-2.64.6c-.84,1.08-.24,2.16.6,2.16a1.81,1.81,0,0,1,1.92,1.32c.36,1.08.6,1.44,1.8,1.56a2.22,2.22,0,0,0,2.28-1.32c.24-.48.72-1.32,1.2-1.2.84.36.72,1.08.48,1.92,1-.48,1.8-1,2.76-1.44a5.77,5.77,0,0,0-1-1.92C122.4,24.6,122.52,24.36,123.72,24.48Z"/><path class="cls-12" d="M123.72,24.48c1.32.12,2.64.12,3-.84s.12-1.44-.36-1.56-.6-.24-.48-1.08.84-.72.72-1.92-1-1.44-1.8-1.08-1.2.6-2,1.8-.48-.72-.36-1.08.48-2.52-.6-2.88c-.72.36-1.32.72-1.92,1a7.16,7.16,0,0,0-.48,1.44c-.48,1.2-1.08.24-1.44-.36a31.07,31.07,0,0,0-3.12,1.92c-.12,0-.24.12-.36.12A3.82,3.82,0,0,0,116,22c.6.48.24,1.2-.6,1.2s-1.56-.48-2.64.6c-.84,1.08-.24,2.16.6,2.16a1.81,1.81,0,0,1,1.92,1.32c.36,1.08.6,1.44,1.8,1.56a2.22,2.22,0,0,0,2.28-1.32c.24-.48.72-1.32,1.2-1.2.84.36.72,1.08.48,1.92,1-.48,1.8-1,2.76-1.44a5.77,5.77,0,0,0-1-1.92C122.4,24.6,122.52,24.36,123.72,24.48Z"/><path class="cls-3" d="M134.16,11a4.31,4.31,0,0,0-1.32.36c.24,1.08.6,2.4.36,2.64a10,10,0,0,1-2.16.6c-.84.24-2.76,2.16-1.8,3.48A6.17,6.17,0,0,1,130.8,21a1.8,1.8,0,0,0,2.49.59,1.76,1.76,0,0,0,.51-.47c1.2-1.44,2-2.88,2.4-1.92a13.72,13.72,0,0,1,0,3.84,1.48,1.48,0,0,0,.72-.12C137.28,17.64,136.08,13.8,134.16,11Z"/><path class="cls-12" d="M134.16,11a4.31,4.31,0,0,0-1.32.36c.24,1.08.6,2.4.36,2.64a10,10,0,0,1-2.16.6c-.84.24-2.76,2.16-1.8,3.48A6.17,6.17,0,0,1,130.8,21a1.8,1.8,0,0,0,2.49.59,1.76,1.76,0,0,0,.51-.47c1.2-1.44,2-2.88,2.4-1.92a13.72,13.72,0,0,1,0,3.84,1.48,1.48,0,0,0,.72-.12C137.28,17.64,136.08,13.8,134.16,11Z"/><path class="cls-3" d="M108.6,36c-.72-.48-.84-1.2-.12-1.56a19.88,19.88,0,0,0,3.84-1.2c1.92-.84,1-2.28.12-2.64s-1-1.2-1-2.16-.12-2.16-1.8-1.44-1.2,2.28-1.68,2.88-.84.36-.72-.48-.6-1.32-1.08-1.56a10.38,10.38,0,0,0-1.56-.36A35.71,35.71,0,0,0,100,32.4a3.08,3.08,0,0,0,1.32,1.44,1.27,1.27,0,0,1,1.08,1.44h0c0,.72-1.8.72-3,.84a15,15,0,0,0,2.88,5.16,7.17,7.17,0,0,0,1-.48c1.44-.6,1.92-2.76,2.28-3.36.12-.72.72-.6,1.2.24a5,5,0,0,1,.48,1.68c.84-.84,1.68-1.56,2.4-2.28A8.23,8.23,0,0,0,108.6,36Z"/><path class="cls-12" d="M108.6,36c-.72-.48-.84-1.2-.12-1.56a19.88,19.88,0,0,0,3.84-1.2c1.92-.84,1-2.28.12-2.64s-1-1.2-1-2.16-.12-2.16-1.8-1.44-1.2,2.28-1.68,2.88-.84.36-.72-.48-.6-1.32-1.08-1.56a10.38,10.38,0,0,0-1.56-.36A35.71,35.71,0,0,0,100,32.4a3.08,3.08,0,0,0,1.32,1.44,1.27,1.27,0,0,1,1.08,1.44h0c0,.72-1.8.72-3,.84a15,15,0,0,0,2.88,5.16,7.17,7.17,0,0,0,1-.48c1.44-.6,1.92-2.76,2.28-3.36.12-.72.72-.6,1.2.24a5,5,0,0,1,.48,1.68c.84-.84,1.68-1.56,2.4-2.28A8.23,8.23,0,0,0,108.6,36Z"/><path class="cls-3" d="M133.32,91.68c.36,0-.48-3.36.12-3.48s1,1.8,2.16,1.56,1.68-1.56,1.44-3,.72-.72,1.32-1.68-.72-2.4-2.28-1.44-1.32-.24-.48-.84.24-2.4-1.56-1.8c-1.32.48-2-.36-2.64-.72a6.53,6.53,0,0,0-1.32.6,4.86,4.86,0,0,0,0,1.32c.12.6.48,2.16-.48,1.44s-2-.84-2.4.24.36,1.2.24,1.8-1.8.84-1,2.16,1.92.6,2.76.12,1.56.12,1.32.84a11.7,11.7,0,0,0-.72,3.6,7.17,7.17,0,0,1,1.2.84A4,4,0,0,1,133.32,91.68Z"/><path class="cls-12" d="M133.32,91.68c.36,0-.48-3.36.12-3.48s1,1.8,2.16,1.56,1.68-1.56,1.44-3,.72-.72,1.32-1.68-.72-2.4-2.28-1.44-1.32-.24-.48-.84.24-2.4-1.56-1.8c-1.32.48-2-.36-2.64-.72a6.53,6.53,0,0,0-1.32.6,4.86,4.86,0,0,0,0,1.32c.12.6.48,2.16-.48,1.44s-2-.84-2.4.24.36,1.2.24,1.8-1.8.84-1,2.16,1.92.6,2.76.12,1.56.12,1.32.84a11.7,11.7,0,0,0-.72,3.6,7.17,7.17,0,0,1,1.2.84A4,4,0,0,1,133.32,91.68Z"/><path class="cls-3" d="M107.88,88.44c.72-.12,2,1.32,3.24.48s-.48-1.68-.24-2.4.72-2-.12-2.64-1.68-.12-2.64.84-.6-.84-.12-1.68,0-1.68-1-1.8-1.44,1.2-2,.6c-1.2-1.08-2.88-.6-2.4.84s.84,1.8,0,2-1.8-2.16-2.76-.24.6,2.4.36,3.72.48,3,1.32,3c.84.24,1.68-.72,2.16-1.32s1.56-1,1.44.12a27.12,27.12,0,0,0-.12,3.12,42.27,42.27,0,0,1,4.56-2h.12c-.48-.24-1.08-.6-1.68-1C107,89.52,107.28,88.68,107.88,88.44Z"/><path class="cls-12" d="M107.88,88.44c.72-.12,2,1.32,3.24.48s-.48-1.68-.24-2.4.72-2-.12-2.64-1.68-.12-2.64.84-.6-.84-.12-1.68,0-1.68-1-1.8-1.44,1.2-2,.6c-1.2-1.08-2.88-.6-2.4.84s.84,1.8,0,2-1.8-2.16-2.76-.24.6,2.4.36,3.72.48,3,1.32,3c.84.24,1.68-.72,2.16-1.32s1.56-1,1.44.12a27.12,27.12,0,0,0-.12,3.12,42.27,42.27,0,0,1,4.56-2h.12c-.48-.24-1.08-.6-1.68-1C107,89.52,107.28,88.68,107.88,88.44Z"/><path class="cls-3" d="M87.24,130.92c2.16-.72,2.28,1.08,2,2.4A24.12,24.12,0,0,0,89,139.2l3.6.12a38.77,38.77,0,0,1,0-5.28c.12-1.56,1.68-4,2.28-1.56s3,2.52,4.68,1.56,2.88-3.24,4.68-6.48-.6-4-2-3.84-2.76.36.36-2.28c3-2.4-1.92-3.6-4.2-4.08a166.67,166.67,0,0,1-12.48,11.88c-.48.48-1.08,1-1.44,1.32C84.84,131,85.8,131.4,87.24,130.92Z"/><path class="cls-12" d="M87.24,130.92c2.16-.72,2.28,1.08,2,2.4A24.12,24.12,0,0,0,89,139.2l3.6.12a38.77,38.77,0,0,1,0-5.28c.12-1.56,1.68-4,2.28-1.56s3,2.52,4.68,1.56,2.88-3.24,4.68-6.48-.6-4-2-3.84-2.76.36.36-2.28c3-2.4-1.92-3.6-4.2-4.08a166.67,166.67,0,0,1-12.48,11.88c-.48.48-1.08,1-1.44,1.32C84.84,131,85.8,131.4,87.24,130.92Z"/><path class="cls-3" d="M83.52,154.44c1.8-.6,2.88,3.24,5.52,1s.72-4.08.6-6,2-2.52,1.44-4.92c-1-3.48-4.2-.12-6.24,1.8s-2.16.36-.12-2.76-1.32-4.2-3.36-3.36a4.36,4.36,0,0,1-4.56-1c-.72,1.32-1.32,2.4-1.92,3.6-1.8,3.72-.6,3.84.72,3.84s4.08,5.4,4.44,6.48c.24.36,1.2,1.68,2.4,3.48A1.76,1.76,0,0,1,83.52,154.44Z"/><path class="cls-12" d="M83.52,154.44c1.8-.6,2.88,3.24,5.52,1s.72-4.08.6-6,2-2.52,1.44-4.92c-1-3.48-4.2-.12-6.24,1.8s-2.16.36-.12-2.76-1.32-4.2-3.36-3.36a4.36,4.36,0,0,1-4.56-1c-.72,1.32-1.32,2.4-1.92,3.6-1.8,3.72-.6,3.84.72,3.84s4.08,5.4,4.44,6.48c.24.36,1.2,1.68,2.4,3.48A1.76,1.76,0,0,1,83.52,154.44Z"/><path class="cls-3" d="M110.88,129.84c-.24-1.8.84-3.6,3.36-2.64a4.26,4.26,0,0,0,4.92-.72c1.08-.84,5.4-1.8,4.68,1.92-.36,2.88-1.8,3-2.16,4.44s.72.48,1.44-.6,2.16-5.64,5.28-2.16c.72.72.48,2.16-.48,3.72a3.13,3.13,0,0,0,.36,3.48c.6.72,1.92,4.92-2.76,5.16a14.55,14.55,0,0,1-3.72-.36c-.12,1.8-1.92,4.32-3.6,7-.12.24-1.2.24-1.68-.12s-1.8-1.08-.72-2.16,2.64-3.48,2.4-4.56-1.08-1.92-2.16-.48-3,4.32-4.92,4.32-3.84-1.56-3-3.36,1.2-2.76-.12-4.32-.72-3.6,2-4.92a3.77,3.77,0,0,1,3.36.84c1.08.84,1.56,0,.12-.84A4.45,4.45,0,0,1,110.88,129.84Z"/><path class="cls-12" d="M110.88,129.84c-.24-1.8.84-3.6,3.36-2.64a4.26,4.26,0,0,0,4.92-.72c1.08-.84,5.4-1.8,4.68,1.92-.36,2.88-1.8,3-2.16,4.44s.72.48,1.44-.6,2.16-5.64,5.28-2.16c.72.72.48,2.16-.48,3.72a3.13,3.13,0,0,0,.36,3.48c.6.72,1.92,4.92-2.76,5.16a14.55,14.55,0,0,1-3.72-.36c-.12,1.8-1.92,4.32-3.6,7-.12.24-1.2.24-1.68-.12s-1.8-1.08-.72-2.16,2.64-3.48,2.4-4.56-1.08-1.92-2.16-.48-3,4.32-4.92,4.32-3.84-1.56-3-3.36,1.2-2.76-.12-4.32-.72-3.6,2-4.92a3.77,3.77,0,0,1,3.36.84c1.08.84,1.56,0,.12-.84A4.45,4.45,0,0,1,110.88,129.84Z"/><path class="cls-3" d="M134.52,117.6c-1.68-.36-3.84-.6-4.08,2.88-.12,1.2,1.2,2.28,2.4,2.76s1,1.2-.36.84-2.28-.84-3.24,1.92.84,3,1.56,3.24,1.56.36,1.32,1.44-.72,4.32,1.44,4.68,4-2.28,4.68-3.6,1.44-2.64,1.56-1.08-.12,2.16-.84,3.84-.72,2.4.36,2.28,3,0,3.48-1.2a19.39,19.39,0,0,0,1.56-5.64c.12-1.08,1.08-1.2,1.68-1.2.24-1.92.6-3.72.84-5.28-3.72.48-6.84-4-7.92-7.8C137.88,117.12,136,118.08,134.52,117.6Z"/><path class="cls-12" d="M134.52,117.6c-1.68-.36-3.84-.6-4.08,2.88-.12,1.2,1.2,2.28,2.4,2.76s1,1.2-.36.84-2.28-.84-3.24,1.92.84,3,1.56,3.24,1.56.36,1.32,1.44-.72,4.32,1.44,4.68,4-2.28,4.68-3.6,1.44-2.64,1.56-1.08-.12,2.16-.84,3.84-.72,2.4.36,2.28,3,0,3.48-1.2a19.39,19.39,0,0,0,1.56-5.64c.12-1.08,1.08-1.2,1.68-1.2.24-1.92.6-3.72.84-5.28-3.72.48-6.84-4-7.92-7.8C137.88,117.12,136,118.08,134.52,117.6Z"/><path class="cls-3" d="M117.12,117c-.72,1.2-2.52,4.32-1.68,5.4s1.8-1.08,2.64-.36,2.4,1.56,2.4,1.08a23.28,23.28,0,0,1,.36-3.12c.36-1.56,1-2.4,1.56-1.2a3.11,3.11,0,0,0,4,1.68c2.28-.48,2-3,1.56-4.68s1.2-2.64,2-3.12,3-2.16,1.44-3.6-3,.72-4.32,1-.84-1,1.92-3.24c2.52-1.92.48-3.72-1.08-4.44-4,4.08-11,10.56-12.72,12.12a13.36,13.36,0,0,0-1.44,1.92C117.48,114.48,117.72,116,117.12,117Z"/><path class="cls-12" d="M117.12,117c-.72,1.2-2.52,4.32-1.68,5.4s1.8-1.08,2.64-.36,2.4,1.56,2.4,1.08a23.28,23.28,0,0,1,.36-3.12c.36-1.56,1-2.4,1.56-1.2a3.11,3.11,0,0,0,4,1.68c2.28-.48,2-3,1.56-4.68s1.2-2.64,2-3.12,3-2.16,1.44-3.6-3,.72-4.32,1-.84-1,1.92-3.24c2.52-1.92.48-3.72-1.08-4.44-4,4.08-11,10.56-12.72,12.12a13.36,13.36,0,0,0-1.44,1.92C117.48,114.48,117.72,116,117.12,117Z"/><path class="cls-3" d="M140.28,154.44c1.2,1.2,4.08,2.76,6.12.84s-.48-3.84-.72-5.4,1.44-2.4.48-4.8c-1.68-4.2-4,.72-5.4,2.16s-1.2-1,.12-2.16c.6-.72,3.48-2.4,1.8-4.44s-4.08-.84-5.28,0-2.16,1.92-4,1.32-3.48-.72-4.56,1.92,1,1.92,2.76,4,.6,2-.84,1.56-1.92-2.28-4.08-1.92-2,3.48-1.44,4.32,1.92,1.2,1.08,2.88.48,3.48,2.16,4.2,4.2-2.28,5.16-3.48,1.8-.84,1.56,0a33.46,33.46,0,0,0-.6,4.68c1.44-.48,2.76-.84,4.2-1.2a18.7,18.7,0,0,0-.6-4.08C137.64,152.88,139.08,153.36,140.28,154.44Z"/><path class="cls-12" d="M140.28,154.44c1.2,1.2,4.08,2.76,6.12.84s-.48-3.84-.72-5.4,1.44-2.4.48-4.8c-1.68-4.2-4,.72-5.4,2.16s-1.2-1,.12-2.16c.6-.72,3.48-2.4,1.8-4.44s-4.08-.84-5.28,0-2.16,1.92-4,1.32-3.48-.72-4.56,1.92,1,1.92,2.76,4,.6,2-.84,1.56-1.92-2.28-4.08-1.92-2,3.48-1.44,4.32,1.92,1.2,1.08,2.88.48,3.48,2.16,4.2,4.2-2.28,5.16-3.48,1.8-.84,1.56,0a33.46,33.46,0,0,0-.6,4.68c1.44-.48,2.76-.84,4.2-1.2a18.7,18.7,0,0,0-.6-4.08C137.64,152.88,139.08,153.36,140.28,154.44Z"/><path class="cls-3" d="M103.92,150.84a8.67,8.67,0,0,0,5.76-1.8c1.68-1.2,6.12-.48,4.32,2.64s-1.2,3.72-.12,2.52,2.28-3.12,4.2-2.52,1.2,1.92,0,3.72a2.29,2.29,0,0,0,0,3.23,2.42,2.42,0,0,0,.31.25c1,.6,2.64,4.2-2.52,5.64-2.28.72-2.64-.36-4.08-.84s-1.56.72-.6,2.28,2.16,3.12,1,3.12-2.16.12-2.4,1.08-2.16-.12-2.52-2.16-1-5.76-2-3.84-1.92,4.92-4.56,3.48-.84-3.24-2.16-4.56-2.52-3-1.2-5.28,2.4-.36,3.6-.36,1.44-1.2.36-2S98.88,150.6,103.92,150.84Z"/><path class="cls-12" d="M103.92,150.84a8.67,8.67,0,0,0,5.76-1.8c1.68-1.2,6.12-.48,4.32,2.64s-1.2,3.72-.12,2.52,2.28-3.12,4.2-2.52,1.2,1.92,0,3.72a2.29,2.29,0,0,0,0,3.23,2.42,2.42,0,0,0,.31.25c1,.6,2.64,4.2-2.52,5.64-2.28.72-2.64-.36-4.08-.84s-1.56.72-.6,2.28,2.16,3.12,1,3.12-2.16.12-2.4,1.08-2.16-.12-2.52-2.16-1-5.76-2-3.84-1.92,4.92-4.56,3.48-.84-3.24-2.16-4.56-2.52-3-1.2-5.28,2.4-.36,3.6-.36,1.44-1.2.36-2S98.88,150.6,103.92,150.84Z"/><path class="cls-7" d="M122.4,85.68c-.6,1.44-1.32,3.36-1.68,4.2s-2,.6-1.92,0c.24-1.44-1.8-.48-1.56-1.68.24-.84-.12-2.4.84-2.4S121.08,85.68,122.4,85.68Z"/><path class="cls-8" d="M122.4,85.68c-.6,1.44-1.32,3.36-1.68,4.2s-2,.6-1.92,0c.24-1.44-1.8-.48-1.56-1.68.24-.84-.12-2.4.84-2.4S121.08,85.68,122.4,85.68Z"/><path class="cls-7" d="M119.28,18.24a7.55,7.55,0,0,1,.6-1.44c-.72.48-1.44.72-2,1.08C118.2,18.48,118.8,19.44,119.28,18.24Z"/><path class="cls-7" d="M136.08,19.08c-.24-1-1.2.6-2.28,1.92s-2.88.6-3-.12A9.94,9.94,0,0,0,129.24,18c-1.08-1.32,1-3.12,1.8-3.36a11,11,0,0,0,2.16-.72c.24-.24-.12-1.56-.36-2.64a69.91,69.91,0,0,0-11,4.56c1.08.36.72,2.52.6,2.76s-.48,2.28.36,1.08a4.57,4.57,0,0,1,2-1.8c.84-.24,1.8-.24,1.8,1.08s-.48,1.2-.72,2,0,.84.48,1,.72.72.36,1.68-1.68,1-3,.84-1.44,0-1,.36a3.62,3.62,0,0,1,1,1.92,45.84,45.84,0,0,1,12.36-3.84A13.72,13.72,0,0,0,136.08,19.08Z"/><path class="cls-7" d="M106.68,37.44c-.48-.84-1.08-1-1.32-.24s-.72,2.88-2.16,3.48c-.48.12-.84.24-1.2.36.6.48,1.08,1,1.8,1.44A41.27,41.27,0,0,1,107,39.24,4.63,4.63,0,0,0,106.68,37.44Z"/><path class="cls-7" d="M120.6,26.4c-.6-.12-1,.6-1.32,1.08A2.11,2.11,0,0,1,117,28.8c-1.2-.12-1.44-.48-1.8-1.56a1.73,1.73,0,0,0-1.92-1.32c-.84,0-1.44-1.08-.48-2.16s1.8-.6,2.64-.6,1.08-.84.48-1.2a4.23,4.23,0,0,1-1.44-2,82.73,82.73,0,0,0-9.84,7.44,13.58,13.58,0,0,1,1.56.36,1.49,1.49,0,0,1,1.08,1.56c0,.84.12,1.08.72.48s-.12-2.28,1.68-2.88,1.92.6,1.8,1.44,0,1.68,1,2.16,1.8,1.8-.12,2.52a23.53,23.53,0,0,1-3.84,1.32c-.84.24-.6,1.08.12,1.56.36.24.6.6.84.72a84.25,84.25,0,0,1,7.44-5.88,41.65,41.65,0,0,1,4.2-2.64C121.2,27.48,121.32,26.64,120.6,26.4Z"/><path class="cls-7" d="M102.36,35c.12-.84-.72-1.2-1.08-1.44-.48,0-1.08-.72-1.32-1.32a6.4,6.4,0,0,0-1.2,1.92c.24.6.36,1.2.6,1.68C100.44,35.88,102.24,35.88,102.36,35Z"/><path class="cls-7" d="M141.72,78.6a25.32,25.32,0,0,0-10.08,1.68c.6.36,1.2,1.2,2.4.72,1.8-.6,2.4,1.32,1.56,1.8s-1.08,1.8.48.84,3,.48,2.4,1.44-1.56.24-1.32,1.68-.12,2.76-1.44,3-1.56-1.68-2.16-1.56.12,3.48-.12,3.48a4.39,4.39,0,0,0-2.28,1.44.12.12,0,0,1,.12.12h0c5,3.6,6.36,1.56,7.2-.12a73.23,73.23,0,0,0,2.88-9.72A35,35,0,0,0,141.72,78.6Z"/><path class="cls-7" d="M130.56,88.68c.24-.6-.48-1.2-1.32-.84-.84.6-1.92,1.32-2.76,0s1-1.56,1-2.16-.48-.84-.24-1.8,1.56-.84,2.4-.24.6-1,.48-1.56a4,4,0,0,1,0-1.2,14.26,14.26,0,0,0-3,1.56c-4.8,2.88-4.92,5.4-3.84,6.36s3.12,1.2,6.6,3.48A12.65,12.65,0,0,1,130.56,88.68Z"/><path class="cls-7" d="M115.32,85.92A14.26,14.26,0,0,1,110,80.28s.12-.48-.36-.48a20.07,20.07,0,0,1-6.12-1.32c-3.48-1.2-4-.48-4.32,1a35.87,35.87,0,0,0-1,8.76c0,4.44,1.92,7.2,3.12,6.84.6-.24,2-1,3.72-1.8,0-1,.12-2.4.12-3.24.24-1-1-.6-1.44,0s-1.32,1.44-2.16,1.32-1.44-1.68-1.2-3-1.56-1.92-.48-3.84,1.92.48,2.76.36.48-.72,0-2.16,1.32-1.8,2.4-.84c.72.72,1.08-.84,2-.6s1.68,1,1.08,2c-.48.72-.84,2.52,0,1.56s1.8-1.56,2.64-.84.36,2,.12,2.64,1.44,1.56.24,2.4-2.52-.6-3.24-.36-.72,1,.12,1.56a6.53,6.53,0,0,0,1.68,1,24.53,24.53,0,0,0,5-2.4l1.2.12C116,87.24,115.8,86.28,115.32,85.92Z"/><path class="cls-7" d="M108.48,106.44c-.84-1.68-1.08-.36-3.12,2.76a76.43,76.43,0,0,1-7,8.28c2.28.36,7.2,1.56,4.2,4.08s-1.8,2.4-.36,2.28,3.84.6,2,3.84-3,5.4-4.68,6.36-4.2,1-4.68-1.44-2.16,0-2.28,1.56a38.77,38.77,0,0,0,0,5.28L89,139.2a46.17,46.17,0,0,1,.24-5.76c.24-1.44.12-3.12-2-2.4a3.67,3.67,0,0,1-2.76-.24c-4.2,3.6-6.36,6.24-7.68,8.52a4.36,4.36,0,0,0,4.56,1c2-.84,5.4.12,3.36,3.36s-1.92,4.68.12,2.76,5.28-5.4,6.36-1.8c.6,2.28-1.56,3-1.44,4.92s1.92,3.72-.72,6-3.72-1.56-5.4-1.08a1.89,1.89,0,0,0-1.2,2.16c2.28,3.36,5.64,8,6.84,10,1.92,3.12,1.92,6.84,2.64,6.24S94.44,170.52,95,170a1.88,1.88,0,0,0,.84-2,34.16,34.16,0,0,1-1.08-10.32c.36-4.32,2.4-9.12,3.84-11.88s5.76-11.16,6.84-13.32,3-4.92,3.36-7,2.28-6.84,3-9.12A46.74,46.74,0,0,0,108.48,106.44Z"/><path class="cls-7" d="M149,147.84c-2.4-4-2.88-5.64-3.24-9.72a49.68,49.68,0,0,1,.48-9.12c-.84-.12-1.68,0-1.8,1.2a16.94,16.94,0,0,1-1.44,5.64c-.6,1.2-2.4,1.2-3.6,1.2s-1.08-.6-.36-2.28,1.08-2.4.84-4-.84-.12-1.56,1.2-2.52,3.84-4.68,3.6-1.56-3.6-1.44-4.68-.36-1.32-1.2-1.44-2.64-.6-1.56-3.36c.84-2.64,1.92-2.4,3.12-1.92s1.56-.36.36-.84-2.52-1.56-2.4-2.76c.24-3.48,2.4-3.12,4.08-2.76a5.61,5.61,0,0,0,4.56-1.92v-.24c-2.52-9.48,2.28-21.12,3.48-24.36a153.65,153.65,0,0,1,8.16-15.24l-4.8-2.4c-1.32-.6-2-1.08-2.4-.48s-.84.84-1.56,1.68c-1.2,1.92-.12,1.56.12,1.56.48,0,2,2,2.28,2.64.36.36,0,.72-.6,2.28-.84,1.92-1.44,6.48-2.28,9.12-2.16,8.16-5.76,7.32-7.32,6.36s-2,.48-3.6,2.76c-.48.48-1.44,1.56-2.64,2.76,1.56.72,3.6,2.64,1.2,4.56-3,2.28-3.48,3.48-2,3.12s2.76-2.4,4.32-.84-.48,3.12-1.44,3.6-2.52,1.32-2,3.12.84,4.2-1.56,4.68-3.24-.36-3.84-1.56-1.32-.36-1.56,1.08a16.46,16.46,0,0,0-.48,3.12c0,.6-1.68-.24-2.4-1s-1.68,1.2-2.52.24,1-4.2,1.56-5.28.36-2.64-3.36-.84c-1.2,2-2.16,4.92-3.6,9.48a101.89,101.89,0,0,1-8.64,17.76c-5,8.16-6,15.72-5.16,20.52s1.32,4.32,2.4,4.32,3.48,3.12,5.16,5.16,2.4,1.08,3.24.36A89.26,89.26,0,0,1,123,164.88a87.22,87.22,0,0,1,11.88-4.68,29.2,29.2,0,0,1,.6-4.56c.12-1-.72-1.2-1.68,0s-3.36,4.2-5,3.36-3.12-2.52-2.16-4.2-.36-1.92-1.08-2.76-.72-4.2,1.44-4.44,2.64,1.56,4.08,2,2.64.36.84-1.56-4-1.2-2.88-4,2.76-2.52,4.68-1.92,2.76-.48,4-1.32,3.6-1.92,5.28,0-1.2,3.72-1.92,4.32c-1.2,1.32-1.44,3.6,0,2.28s3.72-6.48,5.4-2.28c.84,2.4-.84,3.48-.6,4.92s2.88,3.48.84,5.4-5,.36-6.24-.84-2.52-1.68-1.92.36a14.49,14.49,0,0,1,.6,4.08c4.08-1.08,7.68-1.8,9.48-1.68,2.64.24,4.68,1.08,4.56-1.44C152.76,153.48,151.44,151.8,149,147.84Z"/><path class="cls-13" d="M116,164.4c-2.28.72-2.64-.36-4.2-.84s-1.56.72-.48,2.28,2.16,3.12.84,3.12-2.16.12-2.28,1.08-2.16-.12-2.64-2.16-.84-5.64-1.92-3.84-1.92,5-4.56,3.6-.84-3.24-2.16-4.56-2.64-3-1.2-5.4c1.2-2.28,2.4-.36,3.6-.36s1.44-1.08.36-1.92-2.52-4.92,2.64-4.56a10.12,10.12,0,0,0,5.76-1.8c1.68-1.2,6-.6,4.2,2.52s-1.2,3.72-.12,2.64,2.4-3.12,4.32-2.64,1.08,2-.12,3.72-.48,2.76.48,3.48S121.2,163,116,164.4Z"/><path class="cls-13" d="M125.4,142.44a15.5,15.5,0,0,1-3.72-.36c-.12,1.8-1.8,4.32-3.6,7-.12.24-1.2.24-1.68-.12s-1.8-1.08-.72-2.16,2.76-3.48,2.4-4.56-1.08-1.92-2.16-.48S113,146,111,146s-3.84-1.56-3-3.36,1.2-2.76,0-4.32-.84-3.6,1.92-4.92a3.77,3.77,0,0,1,3.36.84c1.08.84,1.56,0,.12-.84s-2.52-1.8-2.64-3.72.84-3.6,3.36-2.64a4.42,4.42,0,0,0,4.92-.6c1.08-.84,5.4-1.92,4.8,1.92-.48,2.76-1.8,2.88-2.16,4.32s.72.48,1.32-.48c.72-1.2,2.28-5.76,5.28-2.28.72.84.48,2.28-.48,3.84s-.12,2.52.48,3.36S130.08,142.2,125.4,142.44Z"/><polygon class="cls-1" points="202.32 68.4 205.2 66.36 211.32 75.48 215.04 72.96 208.68 63.96 211.44 62.04 218.16 71.4 221.88 68.88 211.8 54.84 195.24 66.6 204.36 79.44 208.08 76.92 202.32 68.4"/><polygon class="cls-1" points="214.2 100.2 219.6 97.68 216 89.64 228.6 84.36 226.32 79.2 208.44 87 214.2 100.2"/><polygon class="cls-1" points="217.44 108.72 218.04 113.64 230.04 112.32 230.52 117.48 235.8 117.12 234.48 99.6 229.08 100.08 229.44 107.28 217.44 108.72"/><polygon class="cls-1" points="218.04 125.76 218.16 131.64 235.8 131.64 235.68 125.64 218.04 125.76"/><path class="cls-1" d="M226.44,140a11.93,11.93,0,0,0-9,1.8,9.49,9.49,0,0,0-3.84,6.36,16.41,16.41,0,0,0,.6,6.72l4.68-1.56a6.53,6.53,0,0,1-.12-4.32c1-3.24,3.48-4.68,6.72-4.2s5.16,3.6,4.56,7.2a5.45,5.45,0,0,1-2.64,3.84l2.88,3.36a10.31,10.31,0,0,0,4.56-6.24c.6-3.36-.24-5.64-1.8-8.4A9.54,9.54,0,0,0,226.44,140Z"/><path class="cls-1" d="M223.2,164.64c-2.52-.6-5.88,2.16-7.44,3.6-1,1-4.2,4.2-5.76,3.72-1.32-.48-.84-2.52-.36-3.84a8.12,8.12,0,0,1,3.24-4.68l-3-1.2a11.16,11.16,0,0,0-3.6,5,13.93,13.93,0,0,0-.84,6.36c.36,2.16,1.2,3.6,3.6,3.36,1.8-.12,6.48-3.24,9.24-5.76,1.32-1.2,2.52-1.44,3.12-1.08,1,.48.84,2.28.6,3.24-.48,1.44-1.2,3.6-2.28,4.44l4,2.64a12.49,12.49,0,0,0,3-6.36C227.76,168.48,224.76,165,223.2,164.64Z"/><path class="cls-1" d="M201,47.64a13.47,13.47,0,0,0-3.36-7.2,9.66,9.66,0,0,0-8.16-2.16A11.09,11.09,0,0,0,182,42.84a11.91,11.91,0,0,0-2,8.76c.6,2.76,1.8,4.32,4.32,6.12A16.65,16.65,0,0,0,190.68,60l.48-4.92a6.21,6.21,0,0,1-4.08-1.68A5.84,5.84,0,0,1,186,45.6c2-2.76,5.52-3.24,8.64-1.2,1.2.84,1.68,2,1.92,4.08Z"/><path class="cls-1" d="M20.76,149.28c.12-1.44.12-3.84,1.44-4.08s2.4,1.08,2.64,2.4c.48,2,1,3.6.24,5.4l3.72-.36a11.76,11.76,0,0,0,0-6.12,9.37,9.37,0,0,0-3-5.4c-1.56-1.44-2.76-1.8-5.16-1.32-1.44.24-4.08,2.88-4.2,8,0,1-.24,2.88-1.08,3-1.08,0-1.92-1.32-2.16-2.4a12.12,12.12,0,0,1,.6-5.88H10a18.43,18.43,0,0,0-.36,7.68c1.08,5,4.2,6.72,6.6,6.36C19,156.24,20.4,153.48,20.76,149.28Z"/><polygon class="cls-1" points="12.84 127.8 26.88 127.68 26.76 123.36 12.84 123.48 12.84 117.6 8.28 117.6 8.52 134.28 12.96 134.16 12.84 127.8"/><polygon class="cls-1" points="38.04 84.24 27.24 78 27.36 78 41.52 77.76 44.88 72.48 27.48 62.4 24.72 66.48 36.72 74.04 20.4 74.4 18.12 78.84 35.4 88.8 38.04 84.24"/><path class="cls-1" d="M20.64,94.44a5.58,5.58,0,1,1,.12,11.16h-.12a5.58,5.58,0,0,1-.12-11.16Zm0,16.32A10.8,10.8,0,1,0,9.84,100,10.79,10.79,0,0,0,20.64,110.76Z"/><path class="cls-1" d="M27.6,176.4a5.58,5.58,0,1,1,5.64-5.52h0A5.68,5.68,0,0,1,27.6,176.4Zm10.8-5.52a10.8,10.8,0,1,0-10.8,10.8,10.91,10.91,0,0,0,10.8-10.8Z"/><path class="cls-1" d="M47.88,196l-.48-.48c-1.2-1.44-5.16-5.64-3.48-7.2s5.28,3.48,6.36,4.8l.48.48Zm-6.72,6c-1.44-1.68-5.76-5-3.84-6.72,1.68-1.68,6,3.48,6.48,4.2Zm-.6-18.84a6.08,6.08,0,0,0-1,7.32c-1.68-.84-5-1.2-6.6.24-4,3.36.84,8.16,4.68,12l5.4,5.4L57.36,196.2l-5.76-6.72c-2.16-2.52-7.8-9.24-11-6.36Z"/></g></g></svg>