<svg xmlns="http://www.w3.org/2000/svg" viewBox="0 0 268.04 259.74"><defs><style>.cls-1{fill:#a1a1a4;}.cls-2{fill:#1d1160;}.cls-3{fill:#00788c;}.cls-4{fill:#fff;}</style></defs><title>charlotte-hornets</title><g id="Layer_2" data-name="Layer 2"><g id="Layer_1-2" data-name="Layer 1"><path class="cls-1" d="M262.92,41.18c-6.07,16-14,32.66-18,39.52-6.72,11.49-20.08,18.35-27.89,21,0,0-3.83,9.25-7.8,14.31h16v21.68L240.53,145l-15.32,7.66V171l-14.81,9.11s-11.78-1.45-17.56-2.1L146,205.12c-9.25,42.41-11.63,54.62-11.63,54.62s-2.24-11.64-11.63-54.62L75.94,178c-5.71.65-17.56,2.09-17.56,2.09L43.57,171V152.67l-15.32-7.59,15.32-7.3V116h16c-3.9-4.84-7.87-14.45-7.87-14.45A63.06,63.06,0,0,1,38.44,95.3,46.32,46.32,0,0,1,23.63,80.63,361.19,361.19,0,0,1,6.07,41.11C3.32,34.25,0,23.77,0,23.77s8.74,4.12,11.34,5.42C7.22,16.62,3.54,0,3.54,0s59.9,39.52,101.94,73.12l.65-.51V70.37a8.52,8.52,0,0,1,.29-2.38,9.35,9.35,0,0,1,4-4.63c-3-2.38-8.74-6.07-9.24-6.72-4-3.54-4.77-7.51-4.48-9.39l.65-4.48,22.75,16.91a47.24,47.24,0,0,1,27.75,0l22.76-16.91.65,4.48c.29,2.1-.29,5.93-4.48,9.39-.51.51-6.07,4.34-9.25,6.72C160,65,161,66.54,161.47,68a8.52,8.52,0,0,1,.29,2.38v2.24l.65.51C205.55,38.73,264.5.07,264.5.07s-3,13.73-7.8,29.19c2.38-1.08,11.34-5.42,11.34-5.42a112.2,112.2,0,0,1-5.13,17.34Z"/><path class="cls-2" d="M65.54,118.56H46.39v20.73L34.9,144.86l11.49,6.07v18.35l12.72,7.8c4.62-.65,10.54-1.44,17.55-2.09l48.92,28.17,9,41c0-.15,9.11-41,9.11-41L192.55,175c6.86.79,12.93,1.44,17.56,2.09l12.57-7.8V150.93L234.17,145l-11.49-5.71V118.56H203.53a44.33,44.33,0,0,0,6.72-9.25,106.13,106.13,0,0,0,4.77-9.9c13.87-4.12,24.06-13.08,28.54-21.67,11.92-21.68,20.88-48.41,20.88-48.41s-5.13,2.53-11.34,5.56C258,19.57,261.19,6.5,261.19,6.5s-54.84,36.34-97.68,70.44l-3.69-2.24c0-.29.15-3.32.15-3.68,0,0,.5-3.54-5.93-5.71A4.51,4.51,0,0,0,153,65c3-2.38,7.95-5.92,11.34-8.31,5.56-3.83,4.91-8.09,4.91-8.09L148.84,63.79a45.88,45.88,0,0,0-28.68,0L99.78,48.62s-.65,4.12,4.92,8.09c3.54,2.39,8.45,5.93,11.48,8.31a3,3,0,0,1-1.08.29c-6.36,2.24-5.92,5.71-5.92,5.71,0,.29.14,3.32.14,3.68l-3.68,1.88C62.77,42.56,8,6.29,8,6.29s3,13.08,8.09,28.39C9.38,31.51,4.76,29.12,4.76,29.12s8.88,26.81,20.73,48.41C29.83,86.27,40.16,95.09,54,99.2c0,0,2.39,5.42,4.34,9.25a59.6,59.6,0,0,0,7.15,10.12Z"/><path class="cls-3" d="M250.42,21.45c-39.45,24.13-74.63,51.23-93,66a13.05,13.05,0,0,1-.65,1.73c19.3-12.57,52.75-34.39,90.32-58.81,0,0,0,.8,3.32-9Zm-232.07.08c3.18,9.53,3.33,9,3.33,9C59.25,54.69,92.91,76.73,112.21,89.3a4.89,4.89,0,0,1-.65-1.81C93.42,72.68,58.16,45.58,18.35,21.53ZM135,65.91A40,40,0,0,0,125.35,67c3.4,4.77,2.9,11.49,2.9,11.49a14.8,14.8,0,0,0-7.66-10.19c-.94.29-2,.58-3.33,1.09,2.53,1,5.57,3.54,7.66,8.31,1,2.38,1.59,11.49,6.72,13.73-4.26,4-9.54,2.88-13.51-.66a31.18,31.18,0,0,0,16.4,16.12c2.82-2.17,4.26-8.75,2.89-15.46,5.13-2.24,5.78-11.35,6.72-13.73,2.1-5,5.13-7.23,7.66-8.31-1.08-.29-2.24-.8-3.32-1.09a14.93,14.93,0,0,0-7.66,10.19s-.44-6.72,2.89-11.49A33.76,33.76,0,0,0,135,65.91Zm72,34.59-3.69,1.08c-12.42,3.32-35.83,6.5-35.83,6.5a258,258,0,0,1,26.44,1.74,18.41,18.41,0,0,0,3-4.48,42.79,42.79,0,0,1-1.45,7,27.72,27.72,0,0,1-3.14,7.15A49.69,49.69,0,0,0,207,100.5Zm-14.63,19-.18.14S192.29,119.6,192.37,119.5ZM61.85,100.57a50,50,0,0,0,14.81,19.15,56,56,0,0,1-3.32-7.3,40.75,40.75,0,0,1-1.44-7,24.24,24.24,0,0,0,3,4.48c5.42-.65,15.1-1.44,26.45-1.73,0,0-23.56-3.33-35.84-6.51Zm19.44,63.58c-1.74.15-3.32.29-4.91.51L109.69,184a33.37,33.37,0,0,1-4.48-5.93Zm106.43,0L163.8,178a23.58,23.58,0,0,1-4.48,5.93l33.31-19.29c-1.59-.22-3.18-.36-4.91-.51Zm-55.27,1.16a66.62,66.62,0,0,0-15.32,1.87c.79.94,1.73,1.74,2.53,2.53,4,3.83,7.51,5.57,7.51,10.84a5.91,5.91,0,0,1-1.88,4.12,9.76,9.76,0,0,1-3,2.24,6.91,6.91,0,0,1-1.08.5,47.94,47.94,0,0,0,8.95,4.34,23.53,23.53,0,0,1-5.56.14c1,1.59,2,3,2.89,4.77a16.43,16.43,0,0,1,6.86-1.73,12.87,12.87,0,0,1,6.58,1.73,51.66,51.66,0,0,1,2.89-4.77,15.18,15.18,0,0,1-5.56-.14,37.18,37.18,0,0,0,9-4.34,7,7,0,0,0-1.08-.5,13.72,13.72,0,0,1-3-2.24,5.64,5.64,0,0,1-1.88-4.12c0-5.13,3.54-7,7.51-10.84.8-.79,1.59-1.73,2.53-2.53a67.73,67.73,0,0,0-15.32-1.87l-1.73,22.18H134l-1.58-22.18Zm-17.34,2.24a27.66,27.66,0,0,0-6.36,3.32c2.38,2.24,6.86,5.13,14.81,6.86-.87-2.38-3.4-5-6.07-7.8Zm38.72.14-2.38,2.38c-2.6,2.68-5.13,5.28-6.07,7.81,8.09-1.74,12.43-4.63,14.81-6.87a17,17,0,0,0-6.36-3.32Zm-44.94,6.14a28,28,0,0,0,9.39,10.84c.15.07,4.63-1.37,5.57-3.32-10.55-2.39-15-7.52-15-7.52Zm51.3.07s-4.34,5.28-15,7.52c.94,1.88,5.57,3.32,5.57,3.32a29.37,29.37,0,0,0,9.39-10.84Z"/><path class="cls-4" d="M247.46,30.34c-37.57,24.35-71.1,46.24-90.31,58.81a45.15,45.15,0,0,1-2.53,5.57l75.86-41.26-59.1,42.7,2.89-.51,31.21-3s21.17-2.1,33-17.85c5.56-8.59,14.95-33.3,14.95-33.3l-13.94,7c4.48-10.54,8-18.13,8-18.13Zm-225.78.14s3.33,7.45,8,18L16,41.61s9.39,24.71,14.88,33.31c11.85,15.75,33,17.84,33,17.84l31.21,3,2.89.5L38.88,53.61l75.65,41.25A43.55,43.55,0,0,1,112,89.3C92.78,76.73,59.25,54.83,21.68,30.48Zm101.15,53.4c.07,0-5.06,8.6,4.48,8.09A11.61,11.61,0,0,1,122.83,83.88Zm23.62,0A11.61,11.61,0,0,1,142,92C151.37,92.48,146.45,83.88,146.45,83.88ZM83.16,114.3v8.31l1.16,1.08H90v-3H87.79v.93H85.62v-5h2.17v.65H90V114.3Zm12.14,0v9.39h2.24v-3h2.67v3h2.24V114.3h-2.24v4.26H97.54V114.3Zm12.28,0v9.25H110v-3h2.74v3h2.17v-8.17l-1.08-1.08Zm7.3,9.25v.14l.07-.14Zm18.5-9.25v9.39h5.78v-2.1h-3.4V114.3Zm10.4,0v8.31l1.08,1.08h6.22v-8.31L150,114.3Zm12.43,0v2.24h2.09v7.15h2.53v-7.15l1.88-.15V114.3Zm11.27,0v2.24h2.09v7.15h2.53v-7.15l1.74-.15V114.3Zm11.77,0v9.39h6.87v-2.1h-4.63v-1.44h4.63V118h-4.63v-1.44h4.63V114.3Zm-58.95.21v9.25h2.38v-3.25h1.74l1.44,3.18h2.39l-1.52-3.18h.94V115.6l-1.09-1.09ZM110,116.32h2.74v2.24H110Zm12.71.07h2.75v1.88h-2.75Zm23.34.08h2.67v5.12H146Zm48.41,7.08,2.53,2.89v15.17l13.22,5.71v8.45s-3-.29-6.87-.94v-2.67l-6.35-.8V160c7,.79,13.51,1.73,19.57,2.89-.14-4.77-.14-11.78-.14-15.25,2.1-.93,4-1.87,5.93-2.88-6.36-3-12.72-5.57-19.3-8.1v-7.29h6.87V132h6.5v-8.45Zm-142.26.14v18.79S46.9,145,46.9,145.15l5.27,2.74v15.32c2.1-.29,4.12-.79,6.36-1.08V147.46l7.3-3v16.4c2.09-.29,4.11-.65,6.35-.8V123.69H65.83v13.08l-7.3,3V123.69Zm47.4,5.42,2.53,3v25.15c2.24-.15,4.12-.15,6.36-.29v-9.76h-.07c1.59,0,3-.14,4.77-.14,1.3,3,2.38,6.5,3.53,9.54,2.24,0,4.12-.15,6.36-.15-1.3-3-2.38-6.5-3.54-9.54H122V132l-2.89-2.89Zm-24.93.14L77,132.14v23.92l2.53,3c5.56-.65,11.63-1.08,17.7-1.44V132.29l-3-3Zm100.5,0v5.93h5.56V158.3c2.38.14,4.62.29,7,.65V135.18h5.56v-5.93Zm-50.72.08,2.52,3v24.35h6.51c-.07-.22-.07-21.53-.07-21.53h7.29v21.38c2.24,0,4.48,0,6.72.15V132.36l-3-3Zm25.5.14,2.38,3v24.57c6.51.14,13.08.51,19.29.94v-6.5h-.14v-.08c-4.12-.14-8.31-.5-12.43-.65V146.3c4.12.15,8.31.29,12.43.51v-6.36c-4.12-.14-8.31-.14-12.43-.29V135.4h12.43v-5.93Zm-66.54,5.71h7.3v16.54c-2.53.15-4.77.29-7.3.51Zm25,0h7.29v5.71c-2.52,0-4.77,0-7.29.14Zm26,66.25c-3,0-3.83.8-4.77,1.45l4.91,19.72L139.16,203C138.51,202.23,137.42,201.43,134.39,201.43Z"/></g></g></svg>