<svg xmlns="http://www.w3.org/2000/svg" viewBox="0 0 238.56 240.6"><defs><style>.cls-1{fill:#ce1141;}.cls-2{fill:none;stroke:#ce1141;stroke-width:0.24px;}.cls-3{fill:#fff;}</style></defs><title>chicago-bulls</title><g id="Layer_2" data-name="Layer 2"><g id="Layer_1-2" data-name="Layer 1"><path d="M217.56,92.52c-.84-14.52-7.32-27.6-11.16-35.4l-.48-.84-1.68-3.36.36,3.72c.36,5.16,1.56,22.92-3.72,33.12C194.28,103.32,175,102,168.6,101.64h-.36c-10.44-.72-44.4-1.92-54.84-1.92-13.68.12-28.8,1.2-41,2.16-6,.48-11.16.84-14.64,1-.36,0-.72.12-1.32.12-17,1.56-27.84-3.48-32-15-2.52-7.08-2.52-21.12-2.52-27.84v-4.8l-1.32,2.4A90.37,90.37,0,0,0,9.36,93.12c-1.2,21.6,10.08,29.4,18.6,33.24,9,4.2,18.12,4.8,21.12,5h.12a11.64,11.64,0,0,0,2,.12,13.71,13.71,0,0,1,3,.24c-1.68.36-3.84.72-5.64,1-2,.48-4,.72-4.92,1-2,.48-10.68,2.4-15.24,4.08-3.84,1.32-8.16,3.36-8.28,3.36l-.72.36.6.72s1.44,1.92,2.88,3.48a28.15,28.15,0,0,0,21.6,7.08c8-1,12.48-3,14.16-3.84a84,84,0,0,0,3.12,9c3.6,9,12,26.4,15.12,32.4,2.52,4.92,5,9.24,6.72,12.12l.6,1.08a7.38,7.38,0,0,1-2.88,3.84c-.24.24-.36.48-.6.6l-.12.24v.36c-.12,1.56-.48,16.8,9.72,27.84l.12.12h.12c5.16,2,11.76,4.08,22.56,4.08s20.16-2.64,23.4-4.2l.12-.12.12-.12c7.08-8.4,10.44-21.24,10.44-25.8v-.24l-.24-.24-.48-.48a10.75,10.75,0,0,1-3.36-5.64c1-1.44,2.64-5,4.08-7.92a29,29,0,0,1,1.8-3.72c3-6,11.76-25,15.36-33.84,2.16-5.76,3.36-8.52,4-9.72,1.56.84,5.76,2.76,13.68,3.6,10.2,1,19.92-5.76,22.68-9.6.48-.6,1.2-1.44,1.32-1.56l.6-.72-.84-.36c-.12,0-.36-.12-2-.72l-5.64-1.8-5.64-1.92c-1.56-.48-8.52-2-13.44-3.12l-3.84-.84,1.2-.24C188.16,128.76,219.36,123.36,217.56,92.52Z"/><path class="cls-1" d="M20.64,61.32c-.36,8-.24,16.8,1.56,24.48A66.63,66.63,0,0,0,17,80.88c-1.68,1.8-3.12,3.72-4.8,5.4A103.82,103.82,0,0,1,20.64,61.32Z"/><path class="cls-2" d="M20.64,61.32c-.36,8-.24,16.8,1.56,24.48A66.63,66.63,0,0,0,17,80.88c-1.68,1.8-3.12,3.72-4.8,5.4A103.82,103.82,0,0,1,20.64,61.32Z"/><path class="cls-1" d="M214.44,82.68l.48,2.16-4.2-3c-1.92.84-3.72,2-5.52,2.88a104.92,104.92,0,0,0,1.2-23.88C210.12,67.68,212.16,75.12,214.44,82.68Z"/><path class="cls-2" d="M214.44,82.68l.48,2.16-4.2-3c-1.92.84-3.72,2-5.52,2.88a104.92,104.92,0,0,0,1.2-23.88C210.12,67.68,212.16,75.12,214.44,82.68Z"/><path class="cls-1" d="M113.64,158.76c4.32,6.72,12.36,8.64,19.8,6.72a36.28,36.28,0,0,0,7.92-2.76,65.54,65.54,0,0,0-3.72,22.8,63.42,63.42,0,0,0,3.24,19.8c-1.08-.24-2-1.08-3.24-1.56-14.76-7.44-35.52-7.2-50,.48.72-2.28,1.44-4.92,2-7.32,2.16-11.16.6-22.8-3.24-33,7.8,3.24,19.2,4,25.56-3.24A13.92,13.92,0,0,1,113.64,158.76Z"/><path class="cls-2" d="M113.64,158.76c4.32,6.72,12.36,8.64,19.8,6.72a36.28,36.28,0,0,0,7.92-2.76,65.54,65.54,0,0,0-3.72,22.8,63.42,63.42,0,0,0,3.24,19.8c-1.08-.24-2-1.08-3.24-1.56-14.76-7.44-35.52-7.2-50,.48.72-2.28,1.44-4.92,2-7.32,2.16-11.16.6-22.8-3.24-33,7.8,3.24,19.2,4,25.56-3.24A13.92,13.92,0,0,1,113.64,158.76Z"/><path class="cls-1" d="M80.76,164.28c-.36,3.12-1.44,6.72-4.8,7.92-2.76.72-5.16-.84-7-2.76a6.92,6.92,0,0,1-1.68-3.24c4.2,2.76,9.72.6,13.32-2Z"/><path class="cls-2" d="M80.76,164.28c-.36,3.12-1.44,6.72-4.8,7.92-2.76.72-5.16-.84-7-2.76a6.92,6.92,0,0,1-1.68-3.24c4.2,2.76,9.72.6,13.32-2Z"/><path class="cls-1" d="M159.84,164.64c-1,2.88-3.48,5.76-6.36,6.36a5.41,5.41,0,0,1-5.52-2.64,7.3,7.3,0,0,1-1.32-3.6C150.36,167.76,156.24,167,159.84,164.64Z"/><path class="cls-2" d="M159.84,164.64c-1,2.88-3.48,5.76-6.36,6.36a5.41,5.41,0,0,1-5.52-2.64,7.3,7.3,0,0,1-1.32-3.6C150.36,167.76,156.24,167,159.84,164.64Z"/><path class="cls-1" d="M151.68,172.8a10.48,10.48,0,0,0,4.68-.6c-4.2,10.44-9.24,20.52-14.4,30.6-1.8-5-1.32-10.44-1.08-16.08a100.7,100.7,0,0,1,4.32-19.32C146.64,169.8,148.92,172.32,151.68,172.8Z"/><path class="cls-2" d="M151.68,172.8a10.48,10.48,0,0,0,4.68-.6c-4.2,10.44-9.24,20.52-14.4,30.6-1.8-5-1.32-10.44-1.08-16.08a100.7,100.7,0,0,1,4.32-19.32C146.64,169.8,148.92,172.32,151.68,172.8Z"/><path class="cls-1" d="M86,202.68v.12c-6.36-9.6-11.16-19.8-15.72-30,2,1.08,5.52,1.8,7.68.36a11.25,11.25,0,0,0,4-6C87.12,177.48,88.32,190.92,86,202.68Z"/><path class="cls-2" d="M86,202.68v.12c-6.36-9.6-11.16-19.8-15.72-30,2,1.08,5.52,1.8,7.68.36a11.25,11.25,0,0,0,4-6C87.12,177.48,88.32,190.92,86,202.68Z"/><path class="cls-1" d="M145.2,210.84a43.78,43.78,0,0,1-10,23.88c-13.08,5.16-30.72,5.64-43.8.12-6.48-7-8.88-16-9.24-25.56,13.92-10.08,35.64-12.36,51.6-5.16C137.76,206,141.72,208,145.2,210.84Z"/><path class="cls-2" d="M145.2,210.84a43.78,43.78,0,0,1-10,23.88c-13.08,5.16-30.72,5.64-43.8.12-6.48-7-8.88-16-9.24-25.56,13.92-10.08,35.64-12.36,51.6-5.16C137.76,206,141.72,208,145.2,210.84Z"/><path class="cls-1" d="M199.08,138.6a118.46,118.46,0,0,0-36.84-6.84c-1.08-13.32-2.64-21.6-5.28-29.16-6.12-.36-33.24-1.44-43.8-1.44s-37.2,1.68-43.2,2a118.67,118.67,0,0,0-6.6,29.16,152.64,152.64,0,0,0-39.12,8.28c-1.68.6-2.4,1.2-2.4,1.08a24.86,24.86,0,0,0,19,9.48c3.6.12,10.44-.6,14.76-2.52,1.2-.48,3.6-1.56,3.6-1.56a17.09,17.09,0,0,1,1.2,2.52c1.2,3.36,2.76,8.28,3.84,10.32,1.56,3.24,4.08,5.64,8.16,5.76a9.29,9.29,0,0,0,6.84-3.6c-10.56-.6-15-6.24-15.72-14.76-2.52-.36-3.24-.6-3.48-2A5.15,5.15,0,0,1,61.08,141c1.2-1.68,3.24-3.24,8.28-1.68a25.52,25.52,0,0,1,7.8,4.8c2.16,2,8.52,8.64,12.36,10.8,4.08,2.4,11.88,4.68,16.92-.36a19.89,19.89,0,0,0,6-11.4,201.12,201.12,0,0,1-23.76-2c-2.16-.36-1.2-2.4.48-1.92,0,0,13.8,1.8,23.64,1.92,0-1.2,0-3.12.12-5.4A154.26,154.26,0,0,1,88.2,133.2c-1.8-.48-1.44-2.52.24-2a189.62,189.62,0,0,0,24.48,2.4c0-1.68.12-4.2.12-6.48a164.17,164.17,0,0,1-24.24-2.16c-2-.36-1.56-2.16,0-1.92A213.78,213.78,0,0,0,113,124.92v-5.4c0-2,1.8-2.16,1.8-.12v5.4a162.89,162.89,0,0,0,22.8-2.16c2.4-.48,2.16,1.56,1.08,1.68a159.67,159.67,0,0,1-23.88,2.76v6.48c7.32-.24,16-.48,23.28-2.16,2.76-.6,3,1.56.72,1.92a173.89,173.89,0,0,1-23.88,2.4c0,1.8,0,4.08.12,5.4A219.84,219.84,0,0,0,139.92,139c1.92-.36,2.28,1.68.24,2s-15.84,2-24.72,2.28c1,3,1.08,7.32,5.4,11,4.08,3.6,11.16,3.24,16.08.36,3.84-2.28,10-8.88,12.12-10.92,1.8-1.56,6.12-5.52,11.88-5.4s5.76,3,6.12,3.84.48,2.52-.84,3.36c-1,.6-1.92.36-2.88.84-.72,4.68-2.16,10-5.88,12.72-4,3-10.08,3.36-10.08,3.36s.84,1,1.08,1.2a8,8,0,0,0,5.52,1.44,12.39,12.39,0,0,0,6.72-3.48c1.92-2.52,3.72-7.68,5-11,.48-1.2,1.68-3.48,2-4.44,1.2.48,1.68.84,3.84,1.68a37.58,37.58,0,0,0,13.8,2.4c5.88-.12,12.6-3.72,16.56-7.44.6-.6,2-2.28,2-2.28S200.16,139,199.08,138.6Z"/><path class="cls-2" d="M199.08,138.6a118.46,118.46,0,0,0-36.84-6.84c-1.08-13.32-2.64-21.6-5.28-29.16-6.12-.36-33.24-1.44-43.8-1.44s-37.2,1.68-43.2,2a118.67,118.67,0,0,0-6.6,29.16,152.64,152.64,0,0,0-39.12,8.28c-1.68.6-2.4,1.2-2.4,1.08a24.86,24.86,0,0,0,19,9.48c3.6.12,10.44-.6,14.76-2.52,1.2-.48,3.6-1.56,3.6-1.56a17.09,17.09,0,0,1,1.2,2.52c1.2,3.36,2.76,8.28,3.84,10.32,1.56,3.24,4.08,5.64,8.16,5.76a9.29,9.29,0,0,0,6.84-3.6c-10.56-.6-15-6.24-15.72-14.76-2.52-.36-3.24-.6-3.48-2A5.15,5.15,0,0,1,61.08,141c1.2-1.68,3.24-3.24,8.28-1.68a25.52,25.52,0,0,1,7.8,4.8c2.16,2,8.52,8.64,12.36,10.8,4.08,2.4,11.88,4.68,16.92-.36a19.89,19.89,0,0,0,6-11.4,201.12,201.12,0,0,1-23.76-2c-2.16-.36-1.2-2.4.48-1.92,0,0,13.8,1.8,23.64,1.92,0-1.2,0-3.12.12-5.4A154.26,154.26,0,0,1,88.2,133.2c-1.8-.48-1.44-2.52.24-2a189.62,189.62,0,0,0,24.48,2.4c0-1.68.12-4.2.12-6.48a164.17,164.17,0,0,1-24.24-2.16c-2-.36-1.56-2.16,0-1.92A213.78,213.78,0,0,0,113,124.92v-5.4c0-2,1.8-2.16,1.8-.12v5.4a162.89,162.89,0,0,0,22.8-2.16c2.4-.48,2.16,1.56,1.08,1.68a159.67,159.67,0,0,1-23.88,2.76v6.48c7.32-.24,16-.48,23.28-2.16,2.76-.6,3,1.56.72,1.92a173.89,173.89,0,0,1-23.88,2.4c0,1.8,0,4.08.12,5.4A219.84,219.84,0,0,0,139.92,139c1.92-.36,2.28,1.68.24,2s-15.84,2-24.72,2.28c1,3,1.08,7.32,5.4,11,4.08,3.6,11.16,3.24,16.08.36,3.84-2.28,10-8.88,12.12-10.92,1.8-1.56,6.12-5.52,11.88-5.4s5.76,3,6.12,3.84.48,2.52-.84,3.36c-1,.6-1.92.36-2.88.84-.72,4.68-2.16,10-5.88,12.72-4,3-10.08,3.36-10.08,3.36s.84,1,1.08,1.2a8,8,0,0,0,5.52,1.44,12.39,12.39,0,0,0,6.72-3.48c1.92-2.52,3.72-7.68,5-11,.48-1.2,1.68-3.48,2-4.44,1.2.48,1.68.84,3.84,1.68a37.58,37.58,0,0,0,13.8,2.4c5.88-.12,12.6-3.72,16.56-7.44.6-.6,2-2.28,2-2.28S200.16,139,199.08,138.6Z"/><path d="M135.84,212.28c1.08,2,.24,4.32-1,6.12a8.8,8.8,0,0,1-9.12,3,9.42,9.42,0,0,1-5-3.84c-.48,1.68.72,2.88.6,4.44a.63.63,0,0,1-.88.19l-.08-.07c-1.92-2.52-2.64-6.36-1-9.12,2-3.84,6-5.4,10.2-5A8.38,8.38,0,0,1,135.84,212.28Z"/><path class="cls-2" d="M135.84,212.28c1.08,2,.24,4.32-1,6.12a8.8,8.8,0,0,1-9.12,3,9.42,9.42,0,0,1-5-3.84c-.48,1.68.72,2.88.6,4.44a.63.63,0,0,1-.88.19l-.08-.07c-1.92-2.52-2.64-6.36-1-9.12,2-3.84,6-5.4,10.2-5A8.38,8.38,0,0,1,135.84,212.28Z"/><path d="M106.92,213.6c1.68,2.76.84,6.36-.72,9-.24.36-.6.72-1.08.36-.72-.84.24-1.56.36-2.4a4.39,4.39,0,0,0,.12-2.16,9.38,9.38,0,0,1-9.36,4,8.65,8.65,0,0,1-6-5.16,5.86,5.86,0,0,1,.72-4.92c2.52-3.36,7.08-4.08,10.8-2.88A9.37,9.37,0,0,1,106.92,213.6Z"/><path class="cls-2" d="M106.92,213.6c1.68,2.76.84,6.36-.72,9-.24.36-.6.72-1.08.36-.72-.84.24-1.56.36-2.4a4.39,4.39,0,0,0,.12-2.16,9.38,9.38,0,0,1-9.36,4,8.65,8.65,0,0,1-6-5.16,5.86,5.86,0,0,1,.72-4.92c2.52-3.36,7.08-4.08,10.8-2.88A9.37,9.37,0,0,1,106.92,213.6Z"/><path d="M135.6,231.72c-.24.6-.36.6-.84,1.2-1.32-.36-2.76-.84-4.2-1.32-12-4.68-27.24-3.36-38.52,1.32a1.72,1.72,0,0,1-.72-1.08C104.4,226,122.4,225.24,135.6,231.72Z"/><path class="cls-2" d="M135.6,231.72c-.24.6-.36.6-.84,1.2-1.32-.36-2.76-.84-4.2-1.32-12-4.68-27.24-3.36-38.52,1.32a1.72,1.72,0,0,1-.72-1.08C104.4,226,122.4,225.24,135.6,231.72Z"/><path d="M137.76,168c-1.92,9.48-7.92,20.4-18,23.16-7.92,2-16.8.36-22.2-6.24a30.25,30.25,0,0,1-6.36-16.56,2.27,2.27,0,0,1,1.2-.24c.84,9,5.52,18.84,14.52,21.6a21.05,21.05,0,0,0,22.56-6.6,39.17,39.17,0,0,0,7.08-15.6A1.55,1.55,0,0,1,137.76,168Z"/><path class="cls-2" d="M137.76,168c-1.92,9.48-7.92,20.4-18,23.16-7.92,2-16.8.36-22.2-6.24a30.25,30.25,0,0,1-6.36-16.56,2.27,2.27,0,0,1,1.2-.24c.84,9,5.52,18.84,14.52,21.6a21.05,21.05,0,0,0,22.56-6.6,39.17,39.17,0,0,0,7.08-15.6A1.55,1.55,0,0,1,137.76,168Z"/><path d="M19.8,2.4A10.34,10.34,0,0,0,13,0C10.2.12,0,3.6,0,18.72S9.24,38.88,14.76,38.88s11.16-4.2,13-11.64c.24-1.08.12-1.2-1-1.68l-3.6-1.44c-.84-.24-1-.24-1.44,1.2-.36,1.08-1.92,5.4-5.64,5.4s-5.28-5.4-5.28-11.16,1-11,5.52-11,5.52,4.8,5.88,6.6c.12.84.24.84,1.08.84h3.36c.72,0,.72,0,.72-1.56V1.92c0-.72-.12-.72-1.56-.72h-3c-.6,0-.6.12-1,1C21.48,2.64,20.76,3.36,19.8,2.4Z"/><path d="M156.72,8.52l7,22c.36,1,.36,1.08,1,1.08h1c1.2,0,1.2,0,1.2,1v4.2c0,1.44-.12,1.44-.84,1.44h-13.8c-1.2,0-1.2-.12-1.2-1V32.88c0-1.32.12-1.32,1.08-1.32h1.32c.72,0,.72-.24.48-1.08l-1.08-3.36c-.36-.6-.48-.6-1.32-.6H143l1.8-5H150c.84,0,1-.12.72-.72L147.6,11c-.12-.6-.36-.6-.48-.12L144,20.76c-.24.72-.24.72,1,.72l-1.8,5c-1,0-1,0-1.2.6l-1.08,3.36c-.24,1-.24,1.08.36,1.08h1.32c1.08,0,1.08.12,1.08,1.32V37.2c0,.84-.12,1-1.2,1H133c-.84,0-.84-.12-.84-1.44v-4.2c0-.84.12-1,1.08-1h1a.84.84,0,0,0,1-.7v0l7.08-22.2c.24-.6.24-.72-.84-.72H140C139,7.92,139,7.8,139,7V2.52c0-1.32,0-1.32,1.56-1.32h18.36c1.08,0,1.08.12,1.08,1.32v4.2c0,1,0,1-1.32,1H157.2C156.48,7.56,156.48,7.8,156.72,8.52Z"/><path d="M190,25.2h2.4c1.08,0,1.08.12,1.08.72,0,2.16-1.56,4.8-5.52,4.8-3.72,0-5.28-5.4-5.28-11.16s1-11,5.52-11A5.89,5.89,0,0,1,194,13c.12.84.12.84,1.08.84h3.36c.72,0,.72,0,.72-1.68V1.92c0-.72-.12-.72-1.56-.72h-3c-.6,0-.6,0-1.08,1-.12.48-1,1.2-1.92.24A10.59,10.59,0,0,0,184.8,0c-2.76.12-13,3.6-13,18.72S181,38.88,186.6,38.88c8.4,0,14.88-6.36,14.88-18.36,0-1.2-.12-1.32-1.8-1.32h-10c-1,0-1.08.12-1.08,1.2v4C188.64,25.2,188.76,25.2,190,25.2Z"/><path d="M222.24,1C213.12,1,205.8,9.6,205.8,20s7.32,19,16.44,19,16.32-8.4,16.32-19S231.24,1,222.24,1l-.12,6.84c3.36,0,6.12,5.52,6.12,12.24s-2.64,12.24-6.12,12.24S216,26.76,216,20,218.76,7.8,222.12,7.8Z"/><path d="M38,30.72v-22c0-.84-.12-1-1-1H36c-1.08,0-1.08-.12-1.08-.84V2.16c0-.84.12-1,1.32-1h13c1,0,1.08,0,1.08,1V6.6c0,1-.12,1-1.08,1h-.72c-.6,0-.72,0-.6.84v6.36c0,1.56,0,1.68,1.32,1.68h7c1.32,0,1.32-.12,1.32-1.68V8.4c0-.84-.12-.84-.6-.84h-.72c-1.08,0-1.2,0-1.2-1V2.16c0-1,.24-1,1.2-1H69c1.44,0,1.44,0,1.44,1V7c0,.84-.12.84-1.2.84H68.16c-.84,0-.84.12-.84,1v22c0,.84.12.84,1.08.84h1.08c1,0,1,0,1,1.32V37.2c0,.72,0,1-1.2,1H55.56c-.84,0-.84,0-.84-1.44v-4.2c-.12-1,0-1,1.08-1h.72c.84,0,.84-.12.84-1V23.76c0-1.56-.12-1.68-1.2-1.68h-7c-1.08,0-1.2.12-1.2,1.68V30.6c0,1,0,1,.84,1h.72c1.08,0,1.08,0,1.08,1v4.2c0,1.44,0,1.44-.84,1.44H36c-1.08,0-1.08,0-1.08-1V32.88c0-1.32.12-1.32.84-1.32H37C38,31.56,38,31.56,38,30.72Z"/><path d="M80,8.52c0-.84,0-.84-.6-.84h-1.2c-1.2,0-1.2-.12-1.2-1V2.16c0-1,.12-1,1.08-1H91c1.44,0,1.44,0,1.44,1V7c0,.84-.12.84-1.2.84h-.6c-.84,0-.84.12-.84,1v22c0,.84.12.84,1.08.84h1c.84,0,.84,0,.84,1.32V37.2c0,.72,0,1-1.08,1H77.88c-.84,0-.84,0-.84-1.44v-4.2c-.12-1,0-1,1.08-1H79.2c.84,0,.84,0,.84-1Z"/><path d="M117.6,2.4A10.59,10.59,0,0,0,110.76,0c-2.76.12-13,3.6-13,18.72s9.12,20.16,14.76,20.16,11.16-4.2,13-11.64c.24-1.08.12-1.2-1-1.68L121,24.12c-.84-.24-1-.24-1.44,1.2-.36,1.08-1.92,5.4-5.64,5.4s-5.28-5.4-5.28-11.16,1-11,5.52-11,5.52,4.8,5.88,6.6c.12.84.24.84,1.08.84h3.36c.72,0,.72,0,.72-1.56V1.92c0-.72-.12-.72-1.56-.72h-3c-.6,0-.6.12-1,1C119.28,2.64,118.56,3.36,117.6,2.4Z"/><path d="M35.88,55.56V77.4c0,.72-.12.72-.84.72h-1.2c-1,0-1.08.24-1.08,1.2v4.56c0,.84.24.84,1.2.84H54l-6.84-7c-1.32,0-1.44,0-1.44-1.44V70.08c0-1.2.12-1.32,1.44-1.32V63.12c-1.44,0-1.44-.12-1.44-1.32V55.44c0-1.32.12-1.32,1.32-1.32s6.6.12,6.6,4.68-4.8,4.32-6.48,4.32v5.76c1.44,0,6.48.12,6.48,4.68S48.84,78,47.16,78L54,85c5,0,8.76-4.56,8.76-9.72s-3.24-7.2-5.88-9.12C58.8,64.68,62,62.52,62,57.36,62,51.6,56.4,48,52.92,48H34.44c-1.56,0-1.68,0-1.68,1.2v4.68c0,.72.12.84,1.2.84h1.2C35.88,54.48,35.88,54.6,35.88,55.56Z"/><path d="M97.2,55.2V74c0,4.8-2.52,11.88-12,11.88S71,78.84,71,74V55.2c0-.84-.12-.84-.84-.84H69.12c-1.08,0-1.08,0-1.08-1V49.2c0-1.44.12-1.44,1.32-1.44H82.2c1,0,1.2,0,1.2,1.2v4.2c0,1-.12,1-1.44,1H80.88c-.6,0-.72.12-.72.84V73.32a5.55,5.55,0,0,0,5.64,5.4,5.16,5.16,0,0,0,5.51-4.79,4.16,4.16,0,0,0,0-.61V55.2c0-1.08-.12-1.08-1-1.08h-1c-1.08,0-1.2,0-1.2-1V49c0-1.08,0-1.2,1.08-1.2h9.48c1.68,0,1.68,0,1.68,1.2V53.4c0,1,0,1-1.2,1H98C97.2,54.48,97.2,54.48,97.2,55.2Z"/><path d="M142,78.12h-1.32c-.84,0-1,.24-1,1.44v4.32c0,.84.12.84,1.08.84H164.4c1.08,0,1.2,0,1.2-1.32V72.72c0-1-.12-1-1.2-1H161c-1.08,0-1.2,0-1.2,1.32V76.8c0,1.44-.12,1.56-1.08,1.56h-5.28c-1.56,0-1.68-.24-1.68-1.2V55.8c0-1.44,0-1.44.84-1.44H154c1.08,0,1.08-.12,1.08-1V49.2c0-1.2,0-1.32-1.2-1.32h-12.6c-1.68,0-1.68.12-1.68,1.32v4.32c0,1,.12,1.08,1.2,1.08h1.08c.84,0,.84,0,.84,1.32V77.16C142.8,78.12,142.68,78.12,142,78.12Z"/><path d="M196.8,74.52c0,7.8-7.44,11.16-10.56,11.16a11.75,11.75,0,0,1-6.84-2.4c-1-1-2,.12-2.4.6-.48.84-.6,1-1,1h-1.56c-1.56,0-1.44,0-1.44-.84V73.8c0-1.68,0-1.68.6-1.68H176c.84,0,.84.12,1.08.84a7.16,7.16,0,0,0,6.72,5c1.8,0,3.24-.48,3.24-2,0-3.48-2-4.32-5.64-6.24s-9-4-9-11.88a11,11,0,0,1,10.32-11,10.52,10.52,0,0,1,6.48,2.4,1.55,1.55,0,0,0,2.19-.25,1.25,1.25,0,0,0,.21-.35c.6-1,.6-1,1.08-1h1.56c1.44,0,1.56,0,1.56.84v10.2c0,1.56,0,1.68-.72,1.68h-2.28c-1,0-1-.12-1.2-.84a7.69,7.69,0,0,0-7.08-5,2.21,2.21,0,0,0-2.4,2,2.67,2.67,0,0,0,0,.4c0,2.16,2.4,4.08,6.48,6.12S196.8,67.92,196.8,74.52Z"/><path d="M109.08,78.12h-1.32c-.84,0-1,.24-1,1.44v4.32c0,.84.12.84,1.2.84h23.64c1,0,1.08,0,1.08-1.32V72.72c0-1-.12-1-1.08-1h-3.48c-1.08,0-1.2,0-1.2,1.32V76.8c0,1.44-.12,1.56-1.08,1.56H120.6c-1.56,0-1.56-.24-1.56-1.2V55.8c0-1.44,0-1.44.72-1.44h1.32c1.08,0,1.08-.12,1.08-1V49.2c0-1.2,0-1.32-1.2-1.32h-12.6c-1.56,0-1.56.12-1.56,1.32v4.32c0,1,0,1.08,1.08,1.08H109c.84,0,.84,0,.84,1.32V77.16C109.92,78.12,109.8,78.12,109.08,78.12Z"/><path class="cls-3" d="M24.24,91.92c5.16,10,15.6,13.2,26.28,12.6,5.88,0,11.64-.6,17.52-1v.36a126.59,126.59,0,0,0-6.24,25.8c-15.36.6-31.08-.72-42.36-10.92-7.8-7.8-9.72-18.6-8-29.28,1.8-2.16,3.84-4,5.64-6.12C19.56,86.16,23.64,88.32,24.24,91.92Z"/><path class="cls-3" d="M215.4,87.48c.36,1.56.36,3,.6,4.68.72,11.76-4.44,22.68-14.52,28.68-11,6.72-23.76,8.88-37.32,9.36-.24-1.2-.36-2.88-.6-4.2a148.42,148.42,0,0,0-4.68-23c14.52-.24,32.16,3.6,41.76-9.72,1.2-1.92,2.52-3.48,3.6-5.52,2.16-1,4.2-2.4,6.36-3.48C212.4,85.08,213.6,86.52,215.4,87.48Z"/><path class="cls-3" d="M160.32,147.36c.12,4.56-1.44,9.24-5.52,11.4a12.17,12.17,0,0,1-6.24,1.32,4.86,4.86,0,0,1,0-1.32c3.24,0,6.48-1.2,8.28-3.84a14.39,14.39,0,0,0,1.68-6.84A4.05,4.05,0,0,1,160.32,147.36Z"/><path class="cls-3" d="M78.48,159.6a3.72,3.72,0,0,1-2,0A10.58,10.58,0,0,1,65.85,149q0-.42,0-.84a3,3,0,0,1,2,0c0,4.2,1.68,9.72,10.32,9.72C78.84,158.88,78.24,159,78.48,159.6Z"/></g></g></svg>