<svg xmlns="http://www.w3.org/2000/svg" viewBox="0 0 248.24 257.64"><defs><style>.cls-1{fill:#fff;}.cls-2{fill:#c4ced4;}.cls-3{fill:#0050b5;}</style></defs><title>dallas-mavericks</title><g id="Layer_2" data-name="Layer 2"><g id="Layer_1-2" data-name="Layer 1"><g id="Layer_1-2-2" data-name="Layer 1-2"><path class="cls-1" d="M239.16,132.24c1.44-3.48,6.84-16.8,6.84-16.8L223.2,128c-.12.12-6.84,3.72-16.44,7.92a332.09,332.09,0,0,0,13.32-40.44c8-30.6,12.36-64.32,12.48-65.76l1.8-13.56s-43,11.88-47,13C172.08,10.8,148.56,0,124,0,99.12,0,75.6,10.92,60.36,29.4,56.16,28.2,13.2,16.2,13.2,16.2L15,29.76c0,.48,4.56,35,13,66.12A367.38,367.38,0,0,0,41.4,135c-10.2-4.44-18.84-8.4-19.08-8.52L1.2,116.4s5,12.72,6.48,16.2c-.36,0-7.68-2.88-7.68-2.88l7.08,19v-.12c.48,1.44,3.48,9.48,26.28,70.8l3.24,8.4s5-1.68,6.6-2.16c1.2,3.36,4.56,12.24,4.56,12.24L57,233.16c7-3.6,22.08-9.72,34.2-11.64,14.52,19.8,25.8,30.12,26.4,30.48l6.24,5.64L130,252c.6-.48,12-11.16,26.16-30.36a92.56,92.56,0,0,1,31.08,10.44l9,4.92,4-9.36a17.36,17.36,0,0,1,1-2.4c.72.12,5,1.68,5,1.68l3.36-8.4c.6-1.68,15.24-35.64,29.28-68.52l9.36-21.84S239.16,132.24,239.16,132.24Z"/><path d="M225,131.4a230,230,0,0,1-25.2,11.4,331.75,331.75,0,0,0,16.68-48.24c8-30.6,12.36-64.92,12.48-65.28l1-8-7.8,2.16S126,49.92,123.24,50.76c-2.76-.72-105.6-29.4-105.6-29.4l1.08,8c0,.36,4.44,34.56,12.84,65.52a358.49,358.49,0,0,0,16.8,46.92c-13.8-5.4-27.48-11.88-27.6-12L8.28,124l5,12.72c12.24,30.6,18.48,47.4,26.4,68.76l10.12,27.2,5.4-2.76c8.16-4.08,24.8-10.68,37.8-12.36,14.76,20.64,26.52,31.2,27.12,31.68l3.6,3.36,3.6-3.36c.6-.48,12.48-11.76,27-31.68,15.12,1.56,28.08,7.68,34.68,11.28l5.4,2.88,2.28-5.52c6-14.52,35.64-87.48,36-88.2l5.76-14.16Z"/><path class="cls-1" d="M235.8,134.88c-.24.12-24,10.2-43.44,15,7.56-17.4,14.16-33.12,20.4-56.28,8-30.36,12.24-64.44,12.36-64.8l.24-2.4-2.28.6-100,27.6c-.72-.24-101-28.2-101-28.2l.24,2.4c.12.36,4.56,34.44,12.84,65C40.68,114,47,129.2,53.28,143.8c0,0,1.08,2.64,2,4.92-16.8-4.2-39.6-12.24-39.84-12.36l-3.24-1.08,1.2,3.12c10,26.6,15.16,40.76,20.6,55.88l10.92,30.24,1.44-.48a312.5,312.5,0,0,1,48.12-10.2c14.52,20.88,28,32.64,28.08,32.76l1.08.84,1.08-.84a228.7,228.7,0,0,0,27.8-32.6c12.84.84,37,6.36,46.08,9.84l1.44.6.6-1.44c6-14.4,37-85.32,37.2-85.92l1.56-3.72Z"/><path class="cls-2" d="M187,154.44l1.32-2.88c8.4-19.32,15-34.56,21.36-58.8,6.72-25.56,10.92-53.76,12-61.92-4.44,1.2-98,27-98,27l-.48.12S30.36,32.16,25.8,31c1.2,8.28,5.4,36.48,12.48,62.28C43.68,113.2,50,128.2,56.16,142.84l4.44,10.68L96,210.6l.6.84c12.12,17.76,23.52,28.8,27,31.92,3.36-3.12,14.4-14.16,26.88-31.68L151,211Z"/><path d="M56.4,119.76c-1-1.32-5-7.8-5-18.6v-1A70,70,0,0,1,47,76.08c0-20,8.64-38.16,22.56-51.36a79.85,79.85,0,0,1,108.72,0A70.07,70.07,0,0,1,201,76.08a66.3,66.3,0,0,1-3.48,21.36,67.55,67.55,0,0,1-11,37.32,7.53,7.53,0,0,1-1.44,1.08H185c-.12.12-.12.12-.12.36,0,0-.24.84-.48,1.56l.24-.12-.36.48a73,73,0,0,1-59,29.52C93.12,167.76,66,147.6,56.4,119.76Z"/><path class="cls-3" d="M227.88,141.24c-.48.12-49,21-104.64,20.76-49-.24-104.52-21.12-105-21.36L6.6,136.2l4.2,11.16c0,.36,0,.36,26.28,70.8l1.92,5,5.16-1.56a270,270,0,0,1,79-12.24c34,0,63.6,7,75.84,11.16l5.16,1.68,2-5c.84-1.92,18-42,29.4-68.64l5.64-13.08Z"/><path class="cls-1" d="M228.36,148l-4.92,1.8s-10.92,4.08-11,4.08a21.93,21.93,0,0,0-7.56,4,18.48,18.48,0,0,0-3.12,3.6,2.87,2.87,0,0,0,.24-1l1.56-4.08-4.2,1.2-10,2.64c-1,.24-7.8,1.56-9.84,2l-2.28.36-11.64,2c-.6,0-5,.84-7.44,3.12a16.63,16.63,0,0,0-1.32,1.8l.72-4-3,.36-9.36.84-.36,2.4a5.56,5.56,0,0,0-.84-.84c-1.8-1.32-4.8-1.32-5.64-1.2l-13.8.36-11.16-.12a11.09,11.09,0,0,0-6.48,2.4c-.36.36-.6.84-1,1.2v-2.16l-.12-1.92s-11.28-1.08-11.64-1.08l-13.68-1.68.6,3,.12.84c-3.12-3.6-7.92-4.8-8.16-4.92s-14-3-14-3l1,3.6.6,2.64a15.65,15.65,0,0,0-9-7.92c-3.48-1.2-10.44-2.88-10.68-2.88l-4-1c-3.6-1.56-11.64-4.08-14.28-5L18.24,148l1.68,4.44,23,62.16s9.12-2.52,9.6-2.64c0,0,9.48-2.28,10.2-2.4.36-.12,10-1.8,10-1.8v-.12c2.64-.36,7.92-1.2,8.4-1.2s5-.84,7.68-1.08l9.6-1c1-.12,4.08-.36,5.76-1.8A4.49,4.49,0,0,0,105.6,201l.12,2.64,11.4-.36c.48-.12,3.48-.36,5.4-2.28a5.24,5.24,0,0,0,.72-.84l-.12,3s8.76.24,9.24.24l10.32.24,7.44.6,9.48,1.08a12.71,12.71,0,0,0,6.72-1.32c.24-.24.48-.36.72-.6l-.72,2.76,9.6,1.68v-.12c.36.12,7.08,1.32,8.64,1.56l1,.36c.24,0,5,1.2,8.64.72,4.44-.48,9-4.08,11-8.76l9.6-22C214.92,179.16,228.36,148,228.36,148Z"/><polygon points="143.04 201.48 149.04 201.96 154.8 168.24 147.12 168.96 143.04 201.48"/><path d="M168,170.76l-2.88,12,7.44-.12,5-17.64L166,166.92s-4.2.72-6.12,2.64c-2.64,2.64-3.24,7.44-3.24,7.44L152,202.2l7.44.84a10.61,10.61,0,0,0,5.52-1c1.8-.84,2.88-2.88,3.48-4.68s2.4-9,2.4-9H164l-1.56,7.2a7.24,7.24,0,0,1-1.2,2.76,3.64,3.64,0,0,1-3.12,1.2l4.92-22.4a19.3,19.3,0,0,1,1.92-4.68A3.72,3.72,0,0,1,168,170.76Z"/><path d="M181,183.36l6.36-20.4-6.6,1.44L169.2,204.24l5.16.72,5.4-16.92,1.56-.12s1.08.36,1.08,1.32a7.28,7.28,0,0,1-.48,2.16l-4.56,14,6,1.2,5-14.64a9.8,9.8,0,0,0,.6-3.6,6.91,6.91,0,0,0-1.2-3.24s1.2,0,2.88-1.68a6.82,6.82,0,0,0,2-4.08c.32-1.2,7.2-19.56,7.2-19.56l-8.68,2.2-5,16.44a9.12,9.12,0,0,1-1.2,2.88c-.84,1.2-1.44,1.68-1.92,1.68A7.11,7.11,0,0,1,181,183.36Z"/><path d="M211.08,163.2l-5.64,15.12,7.68-.36,11-25.92-11,4a22.21,22.21,0,0,0-6.84,3.6,30.72,30.72,0,0,0-5.64,7.92c-.6,1.44-3.12,7.08-3.48,8.88S193,188.2,193,188.2h8.76l-3.72,10a11,11,0,0,1-1.92,4.08,5.78,5.78,0,0,1-3.48,2l4.92-12.72h-5.4l-5.88,15.84a25.49,25.49,0,0,0,7.68.84c3.48-.36,7.44-3.12,9.24-7.44s8.16-18.8,8.16-18.8l-10.44.6,3.24-9.24s2.16-5.4,3.72-7.2A12.52,12.52,0,0,1,211.08,163.2Z"/><path d="M22,151.56,44.4,211.8l6.6-1.92L34.32,161.16s2.52.24,4.68,4.08a40.19,40.19,0,0,1,3.72,9.12c.6,2.4,11.16,34.92,11.16,34.92l6.72-1.56L47.76,164.88s1.56,0,3.24,2.88A27.27,27.27,0,0,1,53.4,173l9.84,34.2,6.48-1.32L61.44,174.2s-1.92-5.64-4-8.52a12.92,12.92,0,0,0-6.72-5.16c-3.24-1.08-10.44-3-10.44-3l1.08,3.24A21.31,21.31,0,0,0,36.72,157C34.92,155.88,22,151.56,22,151.56Z"/><path d="M74.52,184.56,70.92,169a8.65,8.65,0,0,1,3.36,1.68c1.32,1.2,1.68,4.56,1.68,4.56l1.8,9.36ZM82,203.76l5.6-.76-4.8-25s-1.08-5.52-2.52-7.8c-2.52-3.72-7.8-5.16-7.8-5.16l-10.32-2L72.84,205.2l6.36-1-4-15.84H79Z"/><path d="M83.4,166.8l7.2,36,7.56-.84s3.6-.12,4.56-1a5.42,5.42,0,0,0,2-4l-.8-28-7.44-.72,2.64,26.52s.24,2.4-1,3.6a2.4,2.4,0,0,1-2.16.84L92.12,167.8Z"/><path d="M107.88,201.24l9-.36A7.63,7.63,0,0,0,121,199.2a8.07,8.07,0,0,0,1.8-4l.12-5H116.8l.12,5a3.36,3.36,0,0,1-.72,2.4c-.6.6-2.64.6-2.64.6V188h9.36l.24-3H113.4v-8.88a2.33,2.33,0,0,1,.72-1.92,4.12,4.12,0,0,1,2.76-.6v9.12h6.48l.84-13.08-10.8-.24a8.49,8.49,0,0,0-4.8,1.8c-2.28,2-1.92,6.72-1.92,6.72Z"/><path d="M136.56,174.48l-.48,7.92a2.87,2.87,0,0,1-.48,1.56,2,2,0,0,1-1,.72l-2.16-.12.6-11.64,1.56-.12a2.37,2.37,0,0,1,1.32.36C136.56,173.4,136.56,174.48,136.56,174.48Zm6-3.84c-1.2-1.2-4.08-1.08-4.08-1.08l-11.76.36-1.2,31,5.88.12.72-12.72s1.92-.6,2.88.72a2.8,2.8,0,0,1,.48,1.8l-.72,10.2,5.76.36L141.6,191a5.92,5.92,0,0,0-.24-3.12,3.22,3.22,0,0,0-1.8-1.56s.84,0,2-1.32a5.71,5.71,0,0,0,1.32-3.48l.72-7.2C143.52,174.36,143.88,172,142.56,170.64Z"/><path d="M137.52,214.92l7.32-1.8-7.44-.72c-.36,0-7.32-.6-10.8-.6l-3.48-10.44-1.2,3.48c-.12.24-1.68,4.56-2.52,7-4.08,0-9.48.48-9.6.48l-7.92.84,7.68,1.68c2.4.48,7.2,2.16,7.56,4.2-.6,2.4-2.16,6.6-2.16,6.6l-1.56,3.84s8.4-5.88,9.6-6.6c1.2.72,9.36,6.48,9.36,6.48s-3.36-9.72-3.6-10.56C129.6,217.56,133.8,215.76,137.52,214.92Z"/><path class="cls-1" d="M126.72,218.64c.6-2,4.08-3.6,6.84-4.56-2.76-.24-6.24-.48-8-.48h-.36l-2.16-6c-.6,1.8-1.56,4.44-1.92,5.64l-.12.48h-.48c-1.92,0-4.68.12-6.72.24,2.4,1.08,5.28,2.64,5.64,4.92v.36c-.36,1.32-1.08,3.6-1.68,5.16,1.92-1.44,5.4-3.84,5.4-3.84s3.72,2.52,5.64,3.84c-.84-2-2-5.4-2-5.4Z"/><path class="cls-1" d="M51,76.2C51,38.28,83.76,7.44,124,7.44s73,30.84,73,68.76-32.64,68.64-73,68.64S51,114,51,76.2Z"/><path d="M79.92,35.4l3-2.52c2-1.56,2.64-3.72,1.56-5-1.44-1.8-3.72-1.2-6.12.6l-2.4,2ZM79.68,30l.12-.12c1-.72,1.68-.84,2.28-.12s.12,1.44-.72,2l-.12.24Z"/><path d="M98,23l2.16-1,.6.6,3.12-1.32L98.64,16.8,95.4,18,95,25l3.12-1.2Zm-.12-1.68-.12-1.92v-.12a3.19,3.19,0,0,0,.6.72l.72.84Z"/><polygon points="113.28 12.96 116.4 12.6 116.88 16.8 119.52 16.56 119.76 18.6 114 19.2 113.28 12.96"/><polygon points="131.16 12.6 134.4 13.08 133.68 17.28 136.32 17.64 135.96 19.68 130.32 18.84 131.16 12.6"/><path d="M149.16,22.8l2.16,1-.12.84L154.32,26,154,19l-3.24-1.32-5.28,4.56,3.12,1.44Zm1.08-1.08,1.32-1.56v.12c0,.36-.12.48-.12.84l-.12,1.08Z"/><path d="M164.76,30l.12.24A4.86,4.86,0,0,0,166,31.92c.24.24.72.48.84.24s-.12-.6-.24-.72l-.48-.48c-.84-1-1.32-1.92-.72-2.76,1-1.08,3-.6,4.44.6A10.07,10.07,0,0,1,171.6,31l-1.68.72a3.43,3.43,0,0,0-1.2-1.44c-.12-.24-.6-.48-.72-.24s.12.48.36.72l.36.48c1,1,1.32,2,.6,2.88-1,1.08-2.88.48-4.32-.72a7.48,7.48,0,0,1-2.16-2.52Z"/><path d="M185.16,58.56c-.48-.36-1.44-1-1.44-1a1.38,1.38,0,0,1-.48-.48,7.51,7.51,0,0,0-.48-1.68,71.57,71.57,0,0,0-23.52-19.56,11.17,11.17,0,0,0-3.12-.84.89.89,0,0,1-.6-.24,7.81,7.81,0,0,0-2.76-1.8A73.38,73.38,0,0,0,125,27.6a71.22,71.22,0,0,0-8.76.6l3.88-5.2c-15.12-.48-26,11.4-26,11.4a80.43,80.43,0,0,0-10.48,5.8,17.14,17.14,0,0,0-10.2,9.24c-2,1.56-6,6.84-6,6.84a22.33,22.33,0,0,0-2.64,2,28.34,28.34,0,0,0-7,13.44.44.44,0,0,0-.12.36c-.12.36-.12.84-.24,1.32-.12,1-.36,1.8-.48,2.76l.12-.12a.52.52,0,0,1-.12.36A38.2,38.2,0,0,0,55.68,81c-.12.6-2.28,6.84-2.28,6.84h0c-5.4,19,1.8,30.36,3,32.16,9.6,27.84,36.72,47.76,68.52,47.76a72.79,72.79,0,0,0,59-29.52,5.65,5.65,0,0,0,.48-1.8.86.86,0,0,1,.36-.6c1-.48,1.32-.84,1.32-1a67.55,67.55,0,0,0,11-37.32A66.69,66.69,0,0,0,185.16,58.56Z"/><path class="cls-1" d="M94.8,44.88c.12-.24.36-.36.48-.48l.36-.36h.12a25.77,25.77,0,0,1,.84-6.48C103.2,28.44,114,26,114,26c1.32-.48.48.12.48.12C107.64,33.8,108.36,40,108.36,40L115,63.72s-5.28-1.92-9.36-10.08c-1.92,16.56,13.8,30,13.8,30,.6.6-.48-.12-.48-.12-3.84-1.92-8.4-6.12-9.6-7.2.24,1.32,7.92,39.48,8,39.72a2.35,2.35,0,0,0,.24.72l2.52-6.48,2.28,19.32c-10.08,9.24-20.64,5.64-21.24,5.4a6,6,0,0,1,.36.6s8.64,16.8,43.8,15.12c0,0,.84,0,.72.12a.37.37,0,0,0-.24.12,8.12,8.12,0,0,1-1.68.36C101.76,162.6,79.8,126.6,78.84,125a36.58,36.58,0,0,1-3.48-6.12c0-.12,0-.36.12-.12,0,0,4.44,4.56,17.28,5.76h.12c-9.84-10.8-14-18.72-14.64-19.92,0,0-1.2-1.8-2.64-6.84,0,0,.12-.24.12,0,.48,1,3.84,5.76,7.8,6.84C80.16,99.2,78,90.68,77.76,89.48c4.56,6.36,12.72,6.84,12.72,6.84a.12.12,0,0,0-.12-.12h0v.12C77,83,79.92,68.64,85.32,58.2A57.32,57.32,0,0,1,94.8,44.88Z"/><polygon class="cls-2" points="134.64 132.6 125.88 141.72 136.68 133.44 131.04 114.24 133.56 91.2 129.24 113.16 134.64 132.6"/><path class="cls-2" d="M132.48,85.8a.88.88,0,0,0,.48-.24,8,8,0,0,0,2.4-1.92,12.48,12.48,0,0,0,3.48-9.24,24.47,24.47,0,0,0-1.2-7.2C137.52,70.44,136.56,82.32,132.48,85.8Z"/><path class="cls-2" d="M136.56,46.56c3-4.56,8-4.92,10.2-4.92a16.34,16.34,0,0,0-5-.84,14.37,14.37,0,0,0-5.16.84q-1.44.54-1.8.72A35.14,35.14,0,0,1,136.56,46.56Z"/><path class="cls-2" d="M128.88,58.8l.12-.12Zm3.72-2.52a.13.13,0,0,1,.12.11h0v1.32c0,9.84-2.52,20.64-3.6,24.48a56.57,56.57,0,0,0,4.8-23,50,50,0,0,0-.72-8.64,21.53,21.53,0,0,0-.48-2.52c-1,7.44-3.84,10.8-3.84,10.8l-.12.12c-.12,0-.12,0-.24-.12a46.9,46.9,0,0,0-10.44-12.72,29.16,29.16,0,0,0-5.52-3.84c8.88,19.2,11.52,34,12.24,38.88V79.44a102.87,102.87,0,0,0-2-17.76c-1-5.16-2-8.88-2-8.88v-.24h.2c4,3.12,6.84,11.88,7.2,13.56a23.71,23.71,0,0,0,2.64-5.28c.72-2.28,1.44-4.44,1.44-4.44Z"/><path class="cls-2" d="M57.84,96.24c0,9.12,1.56,18.6,9.48,30.84C74.88,142.8,88.56,151.2,95,154.44L98.52,156a65.82,65.82,0,0,0,28.32,6.48A68.07,68.07,0,0,0,164.16,151c1.92-1.32,3-2.16,3-2.16h0L168,148c0,.12-.24.24-.36.24l-.72.48c-14,8.16-26.88,10.68-37.44,10.68-16.56,0-27.12-6.12-27.12-6.12-35-18.24-35.52-49.92-35.52-49.92a.13.13,0,0,1,.11-.12h.25c4.44,8.76,10,11.64,12.36,12.6a4.43,4.43,0,0,0,.84.36C70.2,103.44,67.32,92.64,67.32,84.6c0-10.8,5.16-16.8,5.16-16.8l.12-.12a.12.12,0,0,1,.12.12h0a53.23,53.23,0,0,0-1,10A36.81,36.81,0,0,0,73.2,88.44a27.21,27.21,0,0,0,1.08,2.76,54.46,54.46,0,0,1-.48-7.44,58.63,58.63,0,0,1,17-41.4c-2.28,1-4.92,3.36-7.08,5.64-2.4,2.4-4.32,4.8-4.32,4.8h-.12c-.12,0-.12,0-.12-.12a13,13,0,0,1,1.8-5.4,22.18,22.18,0,0,0-4.44,6.48,28.81,28.81,0,0,0-1.8,4.56v.12A50.06,50.06,0,0,0,67.2,70.2,37.87,37.87,0,0,0,65,75.84c-.12.48-.24.72-.24.84s0,.12-.24.12-.12-.12-.12-.24v-.12a2.93,2.93,0,0,1,.12-.72c0-4.56,1.92-9.48,2.64-11.4C61.92,70,60.6,77.76,60.6,83.88A43.71,43.71,0,0,0,61.8,94.2a75.84,75.84,0,0,0,1.32,11.64c.84,3.6,1.44,6.24,1.44,6.24a5,5,0,0,1,.36,1.2v.12H64.8c-.24,0-.24-.12-.36-.24a.92.92,0,0,1-.24-.36l-.24-.48c-3.84-5.76-5.64-15.12-6-17.4A4.89,4.89,0,0,0,57.84,96.24Z"/><path class="cls-3" d="M175.8,55.92s-17-22.8-49.08-22.8H126a.6.6,0,0,0-.48.24c0,.24.24.36.48.48a58.66,58.66,0,0,1,7.2,6.72v.12l.12-.12a11.62,11.62,0,0,1,2-.72,22.35,22.35,0,0,1,5.52-.72,21.49,21.49,0,0,1,10.32,2.64c-1.68.84-9.6,4.8-11.4,9.48l.12.12s8,7.2,24.6,7.2a54.33,54.33,0,0,0,8.64-.6,5.05,5.05,0,0,0,1.44-.24c.72-.24,1.56-.48,1.56-1.32A1.92,1.92,0,0,1,175.8,55.92Z"/><path class="cls-3" d="M141.36,87.84c-.12-.12-.24-.12-.24,0s-.12.12,0,.12a4.51,4.51,0,0,1,.48.6c1,1.32,2.76,4.44,2.76,10a34.86,34.86,0,0,1-3.72,14.88,26.79,26.79,0,0,0-.6-5.28c-.6-3.12-1.68-6.36-4.2-7.08h-.24l-1.44,13.56,5.4,20.16-10.68,8.64c-.12,0-.12,0-.12.12a.13.13,0,0,0,.11.12h0A41.29,41.29,0,0,0,140.16,145a67.88,67.88,0,0,0,13.56-1.44A2.61,2.61,0,0,0,155.4,142a69.19,69.19,0,0,0,1.2-13.32C156.72,116.76,154.2,99.84,141.36,87.84Z"/><path class="cls-3" d="M159,142c-.24-.12-.24-.36-.24-.72v-.6a33.41,33.41,0,0,0,.84-4.44,67.24,67.24,0,0,0,.84-11.16c0-12.12-2.88-29-16.44-42.12a.37.37,0,0,0-.24-.12l-.36-.36a.37.37,0,0,1,.12-.24h.24a1.53,1.53,0,0,1,.6.12,15.22,15.22,0,0,1,6.12,3.84c-.12-.6-.36-1.92-.72-3.6a23.16,23.16,0,0,0-4.2-7.92l-.36-.36c-.12-.24-.24-.24-.24-.48V73.6h.24c.12,0,.24.12.6.36.84.36,34.92,16.8,36.12,49.92v.6a4.68,4.68,0,0,1-1.2,3.36c-.36.36-8.4,10.44-20.4,14.16a1.54,1.54,0,0,1-.72.24C159.48,142.2,159.12,142.2,159,142Z"/><path class="cls-3" d="M184.56,117.72c-.72-27.36-26.64-46-39.6-53.64a59.12,59.12,0,0,0-7.2-3.84l-.6-.24H138a10.9,10.9,0,0,1,8.16,3.72,12.9,12.9,0,0,0-.6-3.48l-.24-.36.36.12c3.72,1.44,8.4,1.92,13.08,1.92A89.44,89.44,0,0,0,171,61c3.24-.36,5.4-.84,5.4-.84h.48c1.92,0,2.52,1.08,2.52,1.2,4.44,4.92,9.84,16.2,10.8,29.76.12,1.68.12,3.36.12,4.92,0,10.2-2.16,18.12-3.72,21.36-.6,1.2-1.08,1.8-1.56,1.8S184.56,118.56,184.56,117.72Z"/><path d="M109.8,29.28l.12-.12c-.36.12-7.44,2.28-9.48,12.84,0,0,0,.24.12,0,.6-1,2.76-4.32,4.8-3.36V38.4C105.48,37.56,106.2,33.84,109.8,29.28Z"/><path d="M104.52,125.4c-1.56-3-11.28-24.24-11.28-24.24-3,1.08-6.72-1.44-6.72-1.44,4.8,12.6,16.08,23.64,17.88,25.68.24.36.24.24.24.24Z"/><path d="M94.8,56.52c-8.8,19.92,10.92,28.2,11.28,28.32L105,80.16l-.6-2.52A7.71,7.71,0,0,0,103,77c-.12,0-.24-.12-.36-.24a.89.89,0,0,1-.6-.24c-8.68-4.52-7.84-15.44-7.24-19v-.36a2.18,2.18,0,0,0,.12-.72h0C94.92,56.16,94.92,56.4,94.8,56.52Z"/><path class="cls-2" d="M107.76,112.68,106.32,87.6l8.52,28S112.08,109,107.76,112.68Z"/><path class="cls-2" d="M114.84,63.72l-6.48-23.64v.48l1.8,15a1.53,1.53,0,0,1,.12.6c0,.84-.48,1.92-4.56-2.28-.12-.24-.24-.24-.24-.24C109.56,61.92,114.84,63.72,114.84,63.72Z"/><path class="cls-2" d="M99.36,68a7.8,7.8,0,0,1-.84-3.48,7.51,7.51,0,0,1,2.76-5.64l.12-.12a37.56,37.56,0,0,1,0-6c-2.16,3.12-6.72,10.68-1.2,16.56-.12-.12-.24-.24-.24-.36A9.6,9.6,0,0,1,99.36,68Z"/><path d="M105.12,71a31.92,31.92,0,0,1-3.72-12.12V58.8a7.54,7.54,0,0,0-2.76,5.76,10,10,0,0,0,.72,3.36A4.53,4.53,0,0,1,100,69c.12,0,.24.24.24.36l.36.36a7.36,7.36,0,0,0,5,2.16A2.7,2.7,0,0,1,105.12,71Z"/><path class="cls-2" d="M112.92,115.92s-4.2-1.08-3.84,7.56a1.86,1.86,0,0,1,.24-.72c1.2-2.88,2.4-4,3.48-4.08.84,0,1.56.84,2,1.92a31.21,31.21,0,0,1,1.32,4,20.68,20.68,0,0,1,.72,3.48,12.41,12.41,0,0,1,.12,2.28v.12C117.12,129.48,118.92,117.6,112.92,115.92Z"/><path d="M117,130.44h0c-.12-1.08-.12-1.8-.24-2.4-.12-1-.36-2.16-.6-3.36a20.4,20.4,0,0,0-1.44-4.08c-.48-1.08-1.2-1.8-2-1.8-1.08,0-2.16,1.2-3.48,4a2.25,2.25,0,0,1-.24.84l2.16,4.44S112.32,115.92,117,130.44Z"/></g></g></g></svg>