<svg xmlns="http://www.w3.org/2000/svg" viewBox="0 0 299.61 299.61"><defs><style>.cls-1{fill:#ffc627;}.cls-2{fill:#8b2332;}.cls-3{fill:#0d2240;}.cls-4{fill:#fff;}</style></defs><title>denver-nuggets</title><g id="Layer_2" data-name="Layer 2"><g id="Layer_1-2" data-name="Layer 1"><path class="cls-1" d="M149.88,0A150,150,0,0,1,299.61,149.81c0,82.61-67.19,149.8-149.73,149.8A149.81,149.81,0,1,1,149.88,0"/><path class="cls-2" d="M149.88,287.7c76,0,137.75-61.79,137.75-137.89S225.83,12,149.88,12,12,73.78,12,149.73c0,76.1,61.8,138,137.9,138"/><path class="cls-3" d="M22.17,149.73c0-70.33,57.3-127.56,127.64-127.56a127.6,127.6,0,0,1,0,255.2c-70.34.07-127.64-57.23-127.64-127.64"/><path class="cls-1" d="M250.33,96.33l2.84-1.58L244,80.52l-2.54,1.87c-15.58-19.7-43.3-41.64-69.66-44.94,19.85,9.07,42.17,32.21,55.8,50L213.32,97.9l1.73,2.62-64.72,42-64.72-42,1.73-2.62L73,87.49c13.7-17.83,36-41,55.87-50-26.29,3.3-54,25.24-69.51,44.87l-2.69-1.95L47.49,94.53l2.84,1.65-.07.15c-11.39,22.39-19.77,56.92-11.61,82.24-.22-21.87,11.53-51.91,22.1-71.91l15.43,8.69,1.57-2.47,60.07,37.75L58.57,202.16l-.15-.15-10.63,2.85.15.3c-.53,2,.45,5.62,2.69,9.14s5.1,5.92,7.27,6.36l.15.3,7-8.53-.07-.15L222.84,113l1.57,2.47,15.5-8.69c10.57,20,22.32,50.11,22.18,71.91,8.08-25.39-.38-60-11.76-82.39"/><path class="cls-1" d="M242.16,202l-.15.15-72.88-47.34-12.73,7.57,79.17,49.81-.08.15,7,8.54.22-.3c2.1-.37,4.94-2.77,7.27-6.37,2.17-3.52,3.22-7.11,2.69-9.14l.15-.29Z"/><polygon class="cls-1" points="162.76 50.19 157.3 57.38 149.73 39.25 149.73 122.92 175.2 90.26 200.81 96.92 162.76 50.19"/><polygon class="cls-4" points="162.76 69.81 162.76 50.19 157.3 57.38 162.76 69.81"/><polygon class="cls-4" points="149.73 39.25 103.52 95.65 123.89 90.41 149.73 122.92 149.73 39.25"/><path class="cls-1" d="M122.62,250.18a40,40,0,0,1,23.89-11V226.66H112a37.82,37.82,0,0,0,10.64,23.52"/><path class="cls-1" d="M146.44,261.79V247a32.57,32.57,0,0,0-18,8.23,39,39,0,0,0,18,6.6"/><path class="cls-4" d="M154.15,185v14.76a31.72,31.72,0,0,0,17.9-8.24,39.14,39.14,0,0,0-17.9-6.52"/><path class="cls-4" d="M178,196.62a39.71,39.71,0,0,1-23.82,10.94v11.38h34.46A39.1,39.1,0,0,0,178,196.62"/><path class="cls-4" d="M146.44,199.77V185a38.23,38.23,0,0,0-17.91,6.59,32.35,32.35,0,0,0,17.91,8.17"/><path class="cls-1" d="M154.15,226.66v12.51a39.16,39.16,0,0,1,23.82,11,37.54,37.54,0,0,0,10.71-23.52Z"/><path class="cls-4" d="M112,218.94h34.46V207.56a40.36,40.36,0,0,1-23.9-10.94A39,39,0,0,0,112,218.94"/><path class="cls-1" d="M154.15,261.79a38.16,38.16,0,0,0,17.9-6.6,31.87,31.87,0,0,0-17.9-8.23Z"/></g></g></svg>