<svg xmlns="http://www.w3.org/2000/svg" viewBox="0 0 283.77 283.77"><defs><style>.cls-1{fill:#b5b3b3;}.cls-2{fill:#1d428a;}.cls-3{fill:#c8102e;}.cls-4{fill:#fff;}</style></defs><title>detroit-pistons</title><g id="Layer_2" data-name="Layer 2"><g id="Layer_1-2" data-name="Layer 1"><path class="cls-1" d="M283.77,141.89a141.86,141.86,0,1,1,0-.06v.06"/><path class="cls-2" d="M279.68,141.89A137.8,137.8,0,1,1,141.89,4.09h0A137.78,137.78,0,0,1,279.68,141.85v0"/><path class="cls-3" d="M259.38,141.89A117.52,117.52,0,1,1,141.84,24.39a117.51,117.51,0,0,1,117.54,117.5v0"/><path class="cls-4" d="M141.89,24.39a117.5,117.5,0,1,0,117.49,117.5A117.49,117.49,0,0,0,141.89,24.39M31.19,145.33H52.81v-6.89H31.19c.09-2.61.19-5.23.49-7.79,7.63-38.57,54.14-68.38,110.21-68.38S244.41,92,252.09,130.65c.25,2.56.4,5.18.5,7.79H231v6.89h21.58c-.1,2.61-.2,5.23-.5,7.79-7.68,38.57-54.14,68.38-110.2,68.38S39.31,191.74,31.63,153.12c-.25-2.56-.4-5.13-.44-7.79M141.89,31.14A110.91,110.91,0,0,1,245.1,101.78c-19.71-26.95-58.58-45.32-103.21-45.32S58.33,74.83,38.67,101.78A110.86,110.86,0,0,1,141.89,31.14m0,221.54A110.91,110.91,0,0,1,38.67,182c19.71,27,58.58,45.32,103.22,45.32S225.44,209,245.1,182a111,111,0,0,1-103.21,70.64"/><polygon class="cls-4" points="92.22 182.28 100.5 182.28 100.5 144.99 92.22 144.99 92.22 182.28"/><path class="cls-4" d="M124.05,145h-.25c-2.31,0-10.83-.05-12.46,0h-.44c-2.52,0-4.09,1.18-4.49,3.35,0,.21,0,.43,0,.64s-.59,7.09.1,9.06c1.14,3.21,3.7,4.39,6.11,5.13.1,0,.15.05.25.05l.44.15a.94.94,0,0,1,.54.44l0,13.45H107l0,5h9c3.15-.14,5.27-1.52,6.11-3.89.25-1.82.25-14.33.1-17a3.27,3.27,0,0,0-1.43-2.51,12.74,12.74,0,0,0-1.33-.88c-.49-.25-1-.55-1.53-.74-2-.94-4.14-2-4.14-4.54v-2.11h6.51a3.42,3.42,0,0,0,3.1-1.88,5.45,5.45,0,0,0,.69-2,8.24,8.24,0,0,0,0-1.57Z"/><path class="cls-4" d="M162,144.94a20.68,20.68,0,0,0-5.37.49c-4.08,1-6,3.7-6,8.33V176c0,5.66,4.08,6.84,10.19,6.84,7.39,0,11.63-2.61,11.63-7.19V152.48c0-7.54-4.78-7.54-10.4-7.54m-2.7,8.42a12.84,12.84,0,0,1,.24-2.31l.15-.15a9.39,9.39,0,0,1,1.18-.1h.15c2.81,0,2.91.89,2.91,6v15.57c0,.46,0,.92-.05,1.38a5.53,5.53,0,0,1-.15,1.28l-.15.15a14.52,14.52,0,0,1-1.48.1,3.06,3.06,0,0,1-2.21-.69c-.64-.69-.69-1.82-.64-3.15V155.63c0,.1,0-1.67.05-2.27"/><path class="cls-4" d="M191.69,160.85c-4-14.38-10.34-16-12.95-16a6.27,6.27,0,0,0-1.14.1l-.19,0v37.29h8.42v-15l5.86,15h8.58V145h-8.53v15.86Z"/><path class="cls-4" d="M82.08,144.94l-21,.05h-.25v.25a5.47,5.47,0,0,0,4.73,5.46v31.63h8.62V166.47h7.25c3.84,0,6-2.51,6-6.9v-1.33c0-10.64-.45-12.76-5.37-13.3m-3.35,16.6H74.05V150.7s2.56,0,2.9,0c.94.1,1.78.5,1.78,1.58,0,.35,0,9.26,0,9.26"/><path class="cls-4" d="M148,145H128.58v5.86h5.57v31.48h8.57V150.8h.3a4.56,4.56,0,0,0,3.59-1.38,6,6,0,0,0,1.43-4.18Z"/><path class="cls-4" d="M222.88,145h-.25c-2.31,0-10.84-.05-12.46,0h-.45c-2.51,0-4.08,1.18-4.48,3.35a4.6,4.6,0,0,0-.05.64c0,.1-.59,7.09.1,9.06,1.13,3.21,3.7,4.39,6.11,5.13.1,0,.15.05.25.05l.44.15a.94.94,0,0,1,.54.44l.05,13.45h-6.85l0,5h9c3.15-.14,5.27-1.52,6.11-3.89.24-1.82.24-14.33.09-17a3.26,3.26,0,0,0-1.42-2.51,12.74,12.74,0,0,0-1.33-.88c-.5-.25-1-.55-1.53-.74-2-.94-4.14-2-4.14-4.54v-2.11h6.5a3.43,3.43,0,0,0,3.11-1.88,5.64,5.64,0,0,0,.69-2,8.24,8.24,0,0,0,0-1.57Z"/><path class="cls-4" d="M146.57,121.93H148c1.38,0,3.7.45,3.7,3,0,1.18.1,4.93.15,6.3v.55a23.21,23.21,0,0,0,.19,2.36c.6,2.17,2.27,3.5,4.93,3.75h2.41V124.54a7.19,7.19,0,0,0-1.52-3.89l-.2-.24a7.21,7.21,0,0,0,1.87-5.33V113.8c0-10.29-.39-12.36-5.22-12.9H138.24v36.45h8.33Zm0-15.22h1.68c2.17.05,3,.05,2.91,3.89,0,3.06,0,3.25,0,4.78v.3a2.06,2.06,0,0,1-.45,1.23,1,1,0,0,1-.69.29h-3.4Z"/><polygon class="cls-4" points="198.15 100.94 190.02 100.94 190.02 137.4 198.15 137.4 198.15 100.94"/><path class="cls-4" d="M120.36,137.45h8.32V106.66h.3a4.71,4.71,0,0,0,3.54-1.33,5.87,5.87,0,0,0,1.38-4.09V101h-19v5.72h5.42Z"/><path class="cls-4" d="M207.8,137.45h8.33V106.66h.29a4.57,4.57,0,0,0,3.55-1.38,5.91,5.91,0,0,0,1.38-4.09V101h-19v5.71h5.42Z"/><polygon class="cls-4" points="110.55 131.54 101.83 131.54 101.83 122.67 107.84 122.67 107.84 114.79 101.83 114.79 101.83 106.56 110.55 106.56 110.55 100.94 93.75 100.94 93.7 137.4 110.55 137.4 110.55 131.54"/><path class="cls-4" d="M83.16,101H62.37l0,.24A5.55,5.55,0,0,0,63.4,105a5.15,5.15,0,0,0,3.9,1.67v30.69H82.77c3.54,0,5.91-3,5.91-7.44V113c0-9.36,0-11.88-5.52-12.07m-2.91,30.59H75.62V106.66a12.08,12.08,0,0,1,3.5.15c1.08.44,1,2.41,1,2.46.34,2.91.14,20,.09,22.27"/><path class="cls-4" d="M175.29,101a20.6,20.6,0,0,0-5.37.49c-4,.93-6,3.64-6,8.13v21.72c0,5.57,4,6.7,10.1,6.7,7.34,0,11.57-2.56,11.57-7V108.34c0-7.39-4.77-7.39-10.29-7.39m-2.76,8.27a12.21,12.21,0,0,1,.24-2.26l.15-.15a7.83,7.83,0,0,1,1.18-.1h.15c2.81.05,2.86.89,2.86,5.86v15.27a11.74,11.74,0,0,1-.05,1.33,5.19,5.19,0,0,1-.15,1.24l-.14.14c-.5,0-1,.1-1.48.1a2.7,2.7,0,0,1-2.17-.69c-.64-.69-.69-1.77-.64-3.05V111.49c.05,0,.05-1.68.05-2.27"/></g></g></svg>