<svg xmlns="http://www.w3.org/2000/svg" viewBox="0 0 229.97 277.65"><defs><style>.cls-1{fill:#1d428a;}.cls-2{fill:#fdb927;}</style></defs><title>golden-state-warriors</title><g id="Layer_2" data-name="Layer 2"><g id="Layer_1-2" data-name="Layer 1"><polygon class="cls-1" points="117.93 11.13 109.55 0 106.17 0 105.16 0 103.81 0 103.81 1.06 105.16 2.02 105.16 18.36 109.55 18.36 109.55 7.33 117.98 18.36 122.32 18.36 122.32 0 117.93 0 117.93 11.13"/><polygon class="cls-1" points="87.23 21.16 99.81 18.94 99.19 15.18 91.14 16.58 90.51 13.06 97.06 11.9 96.78 10.27 96.39 8.14 89.83 9.3 89.26 5.98 96.58 4.72 96.92 0.77 85.02 2.89 84.05 3.04 82.75 3.28 82.94 4.34 84.39 5.06 87.23 21.16"/><path class="cls-1" d="M66.32,28l6.45-2.36c6-2.17,8.29-7.09,6.46-12.15S72.48,6.17,66.46,8.34l-5.69,2.07-.72.24-1.45.53.39,1,1.83.53Zm-.63-15.28L68,11.9c2.36-.86,5.55-.53,6.89,3.23s-.86,6-3.22,6.9l-2.32.81Z"/><polygon class="cls-1" points="49.74 37.11 61.11 30.51 60 26.51 51.71 31.28 44.58 18.89 41.59 20.58 40.58 21.21 39.57 21.78 40.1 22.7 41.54 22.84 49.74 37.11"/><path class="cls-1" d="M38.56,33c-3.43-4-9.21-4.63-13.74-.68S20.15,42,23.57,46s9.2,4.67,13.73.72S42,36.92,38.56,33M27.18,42.89c-2.12-2.45-2.12-5.49.29-7.56s5.45-1.69,7.57.77,2.12,5.54-.29,7.61-5.5,1.59-7.57-.82"/><path class="cls-1" d="M20,48.53l-3.61,4.63-1,1.2-1.54,2,2.89,2.26,2.9-3.66A5,5,0,0,1,19,60.29h0c-2,2.51-5.06,2.65-7.57.68s-3.13-5-1.15-7.52a6.89,6.89,0,0,1,1-1A4.71,4.71,0,0,1,13,51.57l1.5-1.93,1.88-2.41.09-.1c-.09,0-.19,0-.29,0a9.44,9.44,0,0,0-8.62,3.42,4.58,4.58,0,0,0-.44.53C3.42,55.76,4.39,61.5,8.53,64.73s9.93,2.79,13.64-1.93c.14-.15.24-.34.39-.48A9.42,9.42,0,0,0,23.23,52a8.25,8.25,0,0,0-.53-.86,12.37,12.37,0,0,0-1.93-2c-.34-.19-.58-.38-.82-.53h0"/><path class="cls-1" d="M144.49,13.88l1.59,1.49c1.35,1.26,2,1.88,1.73,2.85-.19.77-1.15,1.15-2.5.77a8.84,8.84,0,0,1-4.53-3.66L139.43,20a12,12,0,0,0,5.2,2.85c3.52,1,6.94-.24,8-3.67.78-2.7-.67-4.53-2.65-6.36L148.1,11c-.87-.82-1.06-1.35-.87-2s1.11-1.06,2.27-.77a9.2,9.2,0,0,1,4.39,3.13l1.2-4.19a11.66,11.66,0,0,0-4.72-2.6c-3.81-1.11-6.89.58-7.71,3.52-.73,2.07-.1,4,1.83,5.78"/><polygon class="cls-1" points="159.72 28.24 163.96 30.22 170.08 17.01 175.33 19.47 176.92 16 162.22 9.16 160.63 12.63 165.89 15.04 159.72 28.24"/><path class="cls-1" d="M171.57,31.66l-1.11,1.64,3.19,2.12L175,33.93l2-1,2.84,1.88,2.85,1.88-.2,2.26-.86,1.78,3.18,2.17,1.11-1.64,4.19-16.91L188,22.84l-1.74-1.15-.48-.34-1.44-1-.63.91.48,1.26Zm13.74-5L183.62,33l-1.78-1.2-1.78-1.21Z"/><polygon class="cls-1" points="195.72 33.21 199.96 37.21 190.03 47.86 193.45 51.04 203.38 40.39 207.62 44.29 210.23 41.54 198.32 30.46 195.72 33.21"/><polygon class="cls-1" points="209.12 57.26 213.21 62.51 216.2 60.2 212.1 54.94 214.76 52.87 219.33 58.75 222.95 57.21 215.43 47.57 215.48 47.52 214.03 45.69 213.21 46.36 213.26 48.15 200.44 58.22 208.3 68.29 211.29 65.93 206.27 59.47 209.12 57.26"/><path class="cls-1" d="M223.33,133.84A110.27,110.27,0,1,1,113.06,23.57h0A110.27,110.27,0,0,1,223.33,133.84"/><path class="cls-2" d="M185.16,61.69A102,102,0,0,0,40.92,205.85l0,0A102,102,0,0,0,185.21,61.73l-.05,0M44.87,65.59a96.49,96.49,0,0,1,156.2,107.77c-11.71-4-23.23-8.39-34.51-13.4-1.49-.68-3-1.3-4.43-2l-4.39-2.07-2.22-1.06-2.16-1.06L149,151.62c-1.45-.72-2.89-1.49-4.29-2.26l-2.17-1.16L140.44,147l-4.24-2.36L132,142.22a272.41,272.41,0,0,1-32.15-21.93c-5.06-4-10-8.24-14.7-12.72-2.36-2.22-4.63-4.53-6.84-6.89-.53-.58-1.11-1.16-1.64-1.78s-1.06-1.21-1.59-1.84-1.06-1.2-1.54-1.83c0,0,0,0,0-.09-.2-7.09-.29-11.33-.29-11.33l-4.82-1.16v6.46h-4.1V82.32l-5.16,1.25,0,2.46-2.41,1.3c0,2,.1,4.67.15,7.81-2,3.42-23.33,40.34-39.33,51.71a99.88,99.88,0,0,1-.91-13.16,95.3,95.3,0,0,1,28.19-68.1m126.7,115.53-9.92.33-8.1-21,1.59.77,4.43,2.22c1.5.72,3,1.39,4.48,2.12.44.19.87.38,1.26.58ZM169.16,168c4,1.83,8.05,3.57,12.1,5.25l3.33,7.42-10,.34Zm-10.6,13.59-10.17.34-10.55-30,2,1.16,2.17,1.2c1.45.82,2.89,1.59,4.34,2.41l3.32,1.78Zm-13.11.43-9.06.29-13.2-39.42c2,1.3,4,2.6,6.12,3.85l4.24,2.61.58.33Zm-12.1.44-9.49.33L108.2,132.49c3.61,2.7,7.32,5.3,11,7.85Zm-12.48.43-9.15.29-18.66-62.8c1.31,1.16,2.65,2.27,4,3.38,2.37,2,4.73,3.85,7.19,5.73Zm-12.09.39-10.13.33L76.39,104.1c1.93,2.17,4,4.24,6,6.31s4.39,4.25,6.61,6.32Zm-13.07.43-8.77.29L74.7,137.31c-.38-12-.72-23.14-1-32.1ZM84,184.06l-7.56.24c-.49-11.09-.92-22.75-1.3-34.08Zm107,6.69c-.68.87-1.31,1.79-2,2.66L76.82,191.19l0-1.06Zm-3.33-10.16-2.55-5.79c4.24,1.74,8.53,3.38,12.82,4.92-.1.14-.2.34-.29.48ZM68.34,110V116H63.86v5.49h4.48v5.93H63.86v5.49h4.48V144H63.86v5.49h4.48V161H63.86v5.49h4.48v18l-4.14.14v-83.9h4.09v3.71H63.81v5.49h4.53ZM25.06,173.4,37.64,131a217.73,217.73,0,0,0,16.58-25.88L31.66,185.65a95,95,0,0,1-6.6-12.25m-1.78-4.14a94.39,94.39,0,0,1-5-17.49,103.39,103.39,0,0,0,14.55-14.66Zm33.59-63c0,8.53-.14,18.8-.34,29.74l-13,49.4-9,.28Zm-.63,42.12c-.33,12.24-.77,24.87-1.39,36.63l-8.29.29ZM39,195.72l15.18.53c-.29,4.67-.63,9.11-1,13.25A100.58,100.58,0,0,1,44.82,202c-2-2-4-4.14-5.78-6.31m74,34.55a95.89,95.89,0,0,1-34.6-6.36c-.43-6.6-.87-14.5-1.3-23.13l-8.82-3v21.54c-1.4-.72-2.8-1.49-4.14-2.31V196.59l4.14.14v.15h4.48l8.15.28,101.54,3.62c-.38.43-.82.82-1.2,1.25a96,96,0,0,1-68.25,28.24"/><polygon class="cls-1" points="145.89 251.29 144.78 245.6 138.66 246.81 131.72 248.16 125.6 249.36 126.7 255 132.78 253.84 135.91 269.84 129.84 271.05 130.9 276.69 137.07 275.53 144.01 274.18 150.08 272.98 148.97 267.29 142.9 268.49 139.76 252.49 145.89 251.29"/><path class="cls-1" d="M181.31,244.54c3.37,7.23.72,15.66-7.52,19.47s-16.39.43-19.76-6.79-.72-15.62,7.52-19.48,16.39-.43,19.76,6.8m-6.51,3c-2.07-4.44-6.36-6.32-10.7-4.29s-5.64,6.5-3.56,10.94,6.31,6.36,10.7,4.33,5.63-6.6,3.56-11"/><path class="cls-1" d="M201.45,221.65c-3.47-4.05-8.91-3.76-13-.24l-7.71,6.6-1.2,1-1.45,1.25,1.06,1.21,2.36-.19,16.15,18.94,5.35-4.58-6.61-7.71,1.55-1.3,11.9,3.18,6.46-5.5-13.79-3.23a8.74,8.74,0,0,0-1.06-9.44m-6.26,9.88-2.51,2.12-4.09-4.77,2.6-2.22c1.49-1.25,3.37-1.54,4.72.05s.87,3.42-.72,4.82"/><path class="cls-1" d="M227.53,220.59a17.49,17.49,0,0,1-6.85,5.83L214.85,222a13.18,13.18,0,0,0,7.67-4.43c1.3-1.74,1.2-3.28.28-4-1.2-.92-2.45-.34-5,.91l-3,1.4c-3.61,1.74-6.7,1.59-9.3-.38-3.71-2.8-4.39-8.05-.77-12.87a17.6,17.6,0,0,1,6.26-5.3l5.31,4a14.72,14.72,0,0,0-6.8,4.48c-1.06,1.4-1.11,2.84-.14,3.57.77.57,1.63.57,3.27-.2l3.52-1.68c3.66-1.79,7.09-2.85,10.46-.29,4.34,3.37,4.19,9,.87,13.35"/><path class="cls-1" d="M118.9,258.28c.19-5.35-4.05-8.78-9.45-9L99.28,249l-1.54,0-1.93-.05,0,1.64L97.64,252l-.86,24.87,7,.24.34-10.17,2,.05,6.65,10.41,8.49.29-8-11.66a8.83,8.83,0,0,0,5.59-7.71m-11.28,3-3.28-.09.24-6.27,3.42.1c2,0,3.52,1.11,3.47,3.23s-1.73,3.08-3.85,3"/><path class="cls-1" d="M87.57,255.77c1.49-5.11-1.74-9.54-6.89-11l-9.74-2.89-1.49-.43-1.83-.53-.48,1.54,1.44,1.88L61.5,268.16l6.74,2,2.9-9.73,2,.57,3.81,11.72,8.14,2.41-4.82-13.31a8.64,8.64,0,0,0,7.33-6m-11.66.14L72.77,255l1.79-6,3.27,1c1.88.58,3.14,2,2.56,4s-2.46,2.55-4.48,2"/><path class="cls-1" d="M54.41,233.41,52,232l-1-.58-2-1.2-.82,1.4.67,1.54-18.26,15L29,250.76l5,2.94,1.88-2.41,3-1.74,4.44,2.61,4.43,2.6-.1,3.42L46.51,261l5,2.94,1.54-2.6,4.82-26Zm-8.29,14.07-2.79-1.64,7.56-6.46-2,9.74Z"/><polygon class="cls-1" points="37.74 222.61 37.74 222.61 36 220.73 34.8 221.84 35.04 223.82 20 230.32 29.74 213.89 26.7 210.56 9.59 218.95 18.75 201.94 13.49 196.15 13.49 196.15 12.82 195.43 11.62 196.49 11.95 199.19 0 222.71 4.82 227.96 16.29 223.19 10.55 234.18 15.33 239.43 42.94 228.35 37.74 222.61"/></g></g></svg>