<svg xmlns="http://www.w3.org/2000/svg" viewBox="0 0 2675.89 2002.04"><defs><style>.cls-1{fill:#9da3a3;}.cls-2{fill:#6f7372;}.cls-3{fill:#0c0c0c;}.cls-4{fill:#323733;}.cls-5{fill:#fff;}.cls-6{fill:#3a3f3b;}.cls-7{fill:#ff0038;}.cls-8{fill:#9da2a3;}.cls-9{fill:#9da2a2;}.cls-10{fill:#9da1a1;}.cls-11{fill:#9d9a9c;}.cls-12{fill:#e92755;}.cls-13{fill:#ec0d3e;}.cls-14{fill:#eb0d3e;}.cls-15{fill:#c51343;}.cls-16{fill:#c91040;}.cls-17{fill:#d50f40;}.cls-18{fill:#e32a5a;}.cls-19{fill:#e3204f;}.cls-20{fill:#9d7f88;}.cls-21{fill:#c61648;}.cls-22{fill:#c54364;}.cls-23{fill:#a3808a;}.cls-24{fill:#c05b75;}.cls-25{fill:#9e7b85;}.cls-26{fill:#8e747c;}.cls-27{fill:#c55e76;}.cls-28{fill:#7f8483;}.cls-29{fill:#515957;}.cls-30{fill:#a36f7c;}.cls-31{fill:#b95973;}.cls-32{fill:#b07083;}.cls-33{fill:#9d848c;}.cls-34{fill:#0d0d0d;}.cls-35{fill:#c06e84;}.cls-36{fill:#92767e;}.cls-37{fill:#997c85;}.cls-38{fill:#af6175;}.cls-39{fill:#856e75;}.cls-40{fill:#343935;}.cls-41{fill:#333834;}</style></defs><title>houston-rockets</title><g id="Layer_2" data-name="Layer 2"><g id="Layer_1-2" data-name="Layer 1"><g id="EYg3rX.tif"><path class="cls-1" d="M2154.28,1587c-6.55,1.37-10.59,5.76-14.44,11a991,991,0,0,1-79.15,93.78,1002.37,1002.37,0,0,1-160.2,136.2,983.82,983.82,0,0,1-133.93,77.25,993.75,993.75,0,0,1-234.24,77.61A1026,1026,0,0,1,1425.84,1998c-14.53,1.32-29.13,2.72-43.81,2.73-14,0-27.94,1.52-41.89,1.24-32.57-.64-65.1-1.89-97.59-4.92A990.67,990.67,0,0,1,793.2,1839.63a1013.05,1013.05,0,0,1-257.48-242.41c-3.51-4.71-7.31-8.35-12.89-10.08.2-4.08-2.63-6.68-4.71-9.64a1016.86,1016.86,0,0,1-135.7-273.78,19.65,19.65,0,0,1-.6-2.94c-6.49-26.5-15-52.43-20.74-79.15-9.34-43.65-16.84-87.55-20.28-132.06-.57-7.48-3.48-8-9.6-6.12-49.4,15-98.09,31.89-145.46,52.46a645.11,645.11,0,0,0-77.33,39.37,71.52,71.52,0,0,0-11.36,8.08c-12.51,8.79-25.37,17-37,27.07-24.68,21.21-45.42,44.91-53.77,77.4-.58,2.25-.66,5.7-4.7,5.06q-.2-44-.4-87.9Q.7,1105.18.28,1005.36C.13,963.4.2,921.44,0,879.49c-.14-29.18,9.79-54.7,27.59-77.41,25.07-32,57.24-55.44,91.89-75.79,50.44-29.61,104.25-51.68,159.37-70.77q63.16-21.87,128-38.14c6.46-1.61,10.2-4.62,12.83-10.83a971,971,0,0,1,91.46-167A1024.73,1024.73,0,0,1,600.9,326.15,1001.82,1001.82,0,0,1,998.49,59.84,986.44,986.44,0,0,1,1161,16.1q39.69-7.23,80-10.91c23.53-2.14,47.13-2.7,70.66-4.32,28.7-2,57.25-.16,85.75,1.27,40.47,2,80.65,7.34,120.62,14.55a990,990,0,0,1,408,175.55,1017.5,1017.5,0,0,1,103.87,87.28,1007.35,1007.35,0,0,1,127.74,149.13,985.8,985.8,0,0,1,85,146.66c4.82,10.23,9.54,20.53,13.73,31,2.45,6.14,6.31,9.31,12.72,10.92,46.78,11.77,92.95,25.58,138.39,41.77,56.55,20.14,111.65,43.43,162.66,75.47,27.74,17.42,53.68,37,74.58,62.65,19.76,24.21,31.22,51,31.11,83.12-.49,138.57-.2,277.15-.21,415.73,0,1.65-.23,3.31-.35,5-4.76-.74-3.82-4.87-4.32-7.81-4.11-24.17-16.69-43.67-32.91-61.38-17.17-18.74-37.11-34-58.11-48.13-26.43-18.89-55.79-32.37-85.19-45.63-46.78-21.09-95.2-37.87-144.2-53-13-4-14.34-3.56-15.56,10a978.81,978.81,0,0,1-22.51,137.79c-5.35,22.69-12.15,45-18,67.51-10.41,35.89-24,70.63-39.06,104.76a1000.3,1000.3,0,0,1-97.65,172.79C2155.9,1580.63,2154.14,1583.43,2154.28,1587Z"/><path class="cls-2" d="M383.36,1300.79c4.5,8.59,6.73,18,9.89,27.08,9.93,28.52,21.18,56.48,33.47,84.07,25.33,56.89,56.44,110.46,91.82,161.62,2.25,3.26,4.66,6.43,6.8,9.77,1.84,2.86-.71,3.16-2.51,3.81-30.74-5.62-61.11-12.9-91.43-20.35-73.34-18-145.61-39.52-215.54-68.27-46.85-19.26-92.23-41.41-133.44-71.26-23-16.68-44.06-35.46-60.26-59.13-15.55-22.7-23.87-47.38-20.63-75.24,3.45-4.7,3.15-10.61,5.08-15.81,9.76-26.22,27.06-47,47.67-65.17a243.7,243.7,0,0,1,35-26.12c2-1.21,3.75-2.76,6.22-2.83,4.88-1.23,8.2,2.18,11.71,4.34,72.3,44.29,151.13,73.08,231.64,97.94,12.38,3.82,25,7,37.18,11.29,1.74.78,3.47,1.61,5.2,2.43A6.39,6.39,0,0,1,383.36,1300.79Z"/><path class="cls-2" d="M2581.28,1182.66c9.15,4,16.7,10.5,24.54,16.44,20.16,15.25,38.08,32.72,52,54a97.24,97.24,0,0,1,16,44.3c.11,1.22,1,2.35,1.55,3.52,1.53,20.36-4.68,38.81-14.44,56.18-15.13,26.94-37.09,47.65-61.48,66-37.19,28-78.21,49.18-120.73,67.64-75.24,32.67-153.51,56.15-233,75.84-30.31,7.52-60.69,14.76-91.43,20.37-1.62-.71-4.63-.43-3.27-3.51a36.12,36.12,0,0,1,4.29-6.68c17.44-23.45,32.41-48.49,47.4-73.52,15.38-25.65,28.86-52.33,41.52-79.38,18.7-40,35-80.92,47.73-123.21,11.59-7.76,25.38-9.51,38.3-13.27A1245,1245,0,0,0,2511,1219.35c20.46-9.58,40-21,59.34-32.69C2573.7,1184.64,2576.84,1181.8,2581.28,1182.66Z"/><path class="cls-3" d="M2633.65,1170.91a27.09,27.09,0,0,1-3.72-1.84c-51.38-39.62-109.13-67.47-169-91.21-54.19-21.47-109.76-38.75-166.06-53.75-2.58-.69-5.1-1.56-8-1.07-15,304.81-139.44,553.74-383.42,738.78-171.36,130-367.14,191.84-581.93,187.48-253.35-5.14-472.09-97.5-651.67-276.27C490.5,1494.5,399.69,1276,390.06,1023.38c-2.61-1.35-5.17-.28-7.69.4C301,1045.86,221,1071.6,145,1108.78c-34.16,16.73-66.92,35.79-97.13,59-1.49,1.14-2.72,3-5.44,2.39-1.64-2.18-.79-4.91-.79-7.39q-.09-142.43-.12-284.85a74.73,74.73,0,0,1,11.25-39.79c13.81-22.67,33.49-39.54,54.66-54.81,34.2-24.69,71.67-43.46,110.31-60,72.09-30.82,146.82-53.65,223-71.76,13-3.09,19.84-8.62,25.09-21.08A930.21,930.21,0,0,1,675.35,323Q855.74,147,1099.75,82.71A959.74,959.74,0,0,1,1396.6,54.05c115.72,7.3,226.62,34.48,332.28,82.5Q1901.61,215.06,2031,353.87a938.78,938.78,0,0,1,182.31,283.19c3,7.34,7.08,10.63,14.65,12.46,80,19.39,158.66,42.78,234.32,75.51,36.12,15.63,71.12,33.37,103.37,56.13,16.65,11.74,32.31,24.63,45.59,40.22a110.83,110.83,0,0,1,17.3,26.73,60.91,60.91,0,0,1,5.66,25.13q0,146.43,0,292.84A47.49,47.49,0,0,1,2633.65,1170.91Z"/><path class="cls-1" d="M377.26,1299.11a4.44,4.44,0,0,1,4.33,1.52A3.72,3.72,0,0,1,377.26,1299.11Z"/><path class="cls-4" d="M583.18,673.26c4.21-11.41,12.48-20.28,19.39-29.89A416.75,416.75,0,0,1,662.75,577c23.7-21.27,48.73-41,74.44-59.86a946.6,946.6,0,0,1,103.34-65.73A992.15,992.15,0,0,1,982,387.14c36.58-13.25,74-23.6,111.64-33,7.7-1.93,15.55-3.32,23.36-4.74,3.67-.67,6.51-2.5,7.28-6,4.37-19.76,10.44-39.08,15.79-59.5-10-.09-18.92,2.3-27.8,4a1029.67,1029.67,0,0,0-144.83,39.56c-25.07,8.83-49.64,18.93-74,29.5-25.38,11-49.86,23.8-74.39,36.48-20.95,10.82-41.12,23.1-61,35.76q-37.44,23.79-72.77,50.59c-6.53,4.95-13.36,4.88-18.23.39-5.51-5.09-5.6-12.68,0-19.7,6-7.52,12-15.06,18.33-22.3a979.78,979.78,0,0,1,76.09-77.76c37.49-34.39,78.29-64.75,121.48-91.67a853.12,853.12,0,0,1,142.44-71.33,843,843,0,0,1,118.83-36.69c24.52-5.56,49.22-10.32,74.21-13.54,20.38-2.63,40.82-4.3,61.25-6.28,20.65-2,41.2-.7,61.77-1.63,4.36-.2,7.77,1.11,10.52,4.46,7.37,9,15.23,17.58,22.1,26.93a439.56,439.56,0,0,1,45.66,77.09c3.32,7.24,6.08,14.73,9.23,22,1.7,3.94.31,6.52-3.62,5.26-9.09-2.92-18.63-.34-27.65-3a19.15,19.15,0,0,0-3.93-.61c-43.19-3-86.44-2.21-129.68-2-7.39,0-7.92,1-6.27,8.25,3.59,15.84,8.5,31.37,11.29,47.41.57,3.26,2,6.76,6.63,5.54,9.19-2.45,18.54-.84,27.81-1.24,5.66-.24,11.34.18,17-.08,19.64-.92,39.13,1.92,58.74,2.41,19.79.49,39.53,3.63,59.28,5.71,10,1.07,12.6,3.2,13.74,13.1,1.43,12.5,3.94,24.85,4.42,37.49.41,10.88,3.85,14.47,14.4,17.31,15.72,4.24,30.73,10.48,45.55,16.74,2.92-1.9,1.86-4.44,1.91-6.53.39-18.62-.42-37.15-3.81-55.53-1.36-7.37.19-8.64,7.58-7.11a818.69,818.69,0,0,1,122.3,35.34c5.28,2,10.71,3.6,16.06,5.41,3.37,1.14,5.24,3.13,6.08,7,2.54,11.67,3.86,23.52,5.53,35.3,2.15,15.06,3.9,30.18,5.66,45.3,1,8.22,1.5,16.56,1.94,24.76.62,11.93,2.79,23.72,2.62,35.74-.18,12.74,3.64,17.78,16.06,20.31,11,2.23,22,4.89,33.33,5.14,10.12.23,13.1-2.11,12.21-12.23-1.43-16.17-.83-32.48-3.45-48.57-1.16-7.18-1.06-14.54-1.68-21.79-1.65-19.1-4.21-38.08-6.44-58.12,7.94.62,14,4.74,20.15,8.17,18,10.07,36.62,18.93,54.12,29.86q17.34,10.82,34.77,21.46c4.93,3,6.74,6.1,5.52,12.86a338.16,338.16,0,0,0-4.91,72.41c.27,7.5,3.81,13,10.84,15.15a162.75,162.75,0,0,0,41,6.75c6.65.24,7.93-1.45,8.14-8.42.19-6.65.17-13.33,0-20a134.12,134.12,0,0,1,2.68-32.12c7.5,1,11.58,7.34,16.79,11.39,36.3,28.2,69.4,60,101.22,93.07,9.88,10.28,19,21.34,28.47,32,2.64,3,5,6.27,8.72,8.08,4.32,4.77,3,10.68,3,16.19q.15,90.78.07,181.57c0,14.42,10.51,23.25,24.93,21.28,5.48-.74,4.69-4.93,4.73-8.32.25-17.63.06-35.25.14-52.88,0-4.63-.38-9.33,1.18-13.82a5.61,5.61,0,0,1,2.12-2.57c5.8.44,6.05,5.42,7.23,9.31,6.7,22.3,13.69,44.51,19.91,66.93,2.45,8.84,6.56,14.25,15.77,15.25,5.78.63,12.78,6.81,16.51,2.65,3.31-3.7-1.77-11.09-3.41-16.72-8.9-30.66-18.48-61.12-26.88-91.92-3.19-11.68-1.18-22.65,8.52-31.16-.22,4.48,1.43,8.19,3.86,12,17.79,27.71,33.23,56.77,49.15,85.56,4.81,8.7,4.76,17.85,6.49,26.81s1.08,18.58,2.74,27.67c2.88,15.78,2,31.76,3.13,47.6,1.46,20.11,2.31,40.54-.91,60.74a51.67,51.67,0,0,0-.33,8c0,23.26-3.24,46.23-5.77,69.29-4,36.32-11.1,72-20.26,107.29a803.86,803.86,0,0,1-38.43,114.15c-8.48,19.88-17.08,39.7-26.78,59-4.63,9.2-9.67,18.21-14.6,27.25a25.14,25.14,0,0,1-3.47,4.84c-2,2.24-4.31,4.56-7.73,2.87-3.2-1.59-5.09-4.22-4.89-8a12.64,12.64,0,0,1,.29-3c4.1-13.37,5.75-27.22,8.12-40.92,3.28-18.91,5.47-38,7.83-57,5.39-43.45,3.53-87,3.48-130.52,0-13.52-1.85-27-3.35-40.56-1.31-11.85-2.75-23.66-4.25-35.49-2.45-19.41-6.18-38.56-10.16-57.69-6.72-32.21-16-63.69-26.12-95-2.23-7-5.23-13.66-7.48-20.61-2.18-6.73-6.78-10.76-13.38-12-12.34-2.35-24.77-4.3-37.2-6.16-13.76-2-18.22,9.48-14.13,19.71a808.2,808.2,0,0,1,34.88,109,698.63,698.63,0,0,1,15,81c2.24,18.36,3.45,37,4.95,55.43,2,24.31,1.4,48.54,1.2,72.78-.12,14.84-1.65,29.73-3.2,44.57-1.3,12.52-2.69,25-4.3,37.5-3.81,29.62-9.91,58.76-17.12,87.71a435.59,435.59,0,0,1-39.7,103,446.26,446.26,0,0,1-55.9,81,523.08,523.08,0,0,1-40.32,41.48,448.53,448.53,0,0,1-66.77,50.21c-35.18,21.85-73.19,37.64-111.92,52-44,16.26-89.19,28.16-135.09,37.36q-28.66,5.75-57.85,9c-28.35,3.2-56.69,5.6-85.26,6.3-11.54.28-23.35,2.7-34.73,1.1-18.83-2.65-37.75-.91-56.61-3-15.76-1.73-31.67-2.88-47.44-4.75-14.12-1.67-28.21-3.88-42.13-6.73a23,23,0,0,1-18.35-17.82c-2.38-10.25.11-20,8.62-27.13,22.71-19,44.54-38.88,65.77-59.51,8.07-7.85,16.82-15.09,24.58-23.29,18.05-19.07,36.18-38.07,53.61-57.69,10.93-12.28,14.78-27.2,11.89-43.63-2-11.23-.48-22.59-1-33.87-.14-3,.11-6.1-.7-8.9-2-6.93-8.63-8.81-13.67-3.65-6.49,6.64-12.61,13.68-18.51,20.86-12.23,14.87-25,29.25-37.9,43.56q-28.41,31.55-59.17,60.78c-19.24,18.29-38.74,36.34-58.93,53.64-15.89,13.61-31.8,27.16-48.39,39.86-21.66,16.59-46,20.44-71.51,10.86a711.09,711.09,0,0,1-77.35-34.54c-49.94-25.89-97.56-55.57-141.84-90.33-23.76-18.65-47-38-68.24-59.61-8.12-8.22-17.43-15.15-24.53-24.54-14.23-18.8-20-39.23-15.08-62.63a806.23,806.23,0,0,1,28.39-100.53c9.47-27,20.26-53.41,32-79.47,17.84-39.49,39.29-76.92,62.58-113.37,6.35-9.93,3.08-18.59-8.18-22.65-8.44-3-16.85-6.12-25.31-9.11-12.46-4.41-16.44-2.68-23.73,8.55a827.34,827.34,0,0,0-51.3,91.22c-22.85,47.35-42.38,96-56.7,146.71-2.87,10.18-8.08,18.07-18.79,21.43-10.41,3.25-20.6.1-27.09-8.94-11.26-15.68-20.85-32.4-30.5-49.09-11.84-20.47-22.15-41.75-32.42-63-11.13-23-20.6-46.8-29.62-70.76-14.2-37.7-24.63-76.44-33.6-115.61-4.95-21.62-8.09-43.58-11.62-65.48-3.58-22.28-4.18-44.82-7.54-67.08a5.59,5.59,0,0,1-.05-1c1.11-22.3-3.22-44.47-1.93-66.75,2.57-44.07,7-87.89,21.52-130a43.87,43.87,0,0,0,2.33-14.69q-.13-27,0-54c0-3.22-1-6.75,1.8-9.47,3.68,3.42,2.84,8,2.87,12.2.15,17.66.2,35.31,0,53-.11,11.29,4.23,18.89,15.14,23.14,12.4,4.83,23.77,12,36.2,16.87,7.4,2.89,10.77,8.29,10.65,16.28q-.21,14.48,0,29c.12,7.49-2.94,11.94-10.47,13.34-4.24.79-8.35,2.31-12.67,2.76-2.31.25-4.79.55-6.43-1.63-2.07-2.74-2.53-7.58-7.53-6.57-7.47,1.5-15.2,2.33-21.89,6.41-2.14,1.31-2.53,3.8-2.76,6.17-.26,2.65-.19,5.32-.2,8-.05,21.39,5.44,26,25.9,20.84,14.2-3.61,28.52-6.72,42.65-10.57,15.4-4.2,22.93-12.66,23.55-28.28.74-18.63.53-37.3,0-55.95-.32-12.44-5.93-21.24-17.78-26.41-11-4.78-21.92-9.68-32.65-15-7.76-3.87-11.65-9.26-11.35-18.06.31-9,.34-18,0-27s3.8-13.78,12.35-15.09c7.33-1.11,15.73-6.66,20.28,4.76.85,2.13,3.36,1.77,5.36,1.55a48.7,48.7,0,0,0,5.85-1.25c18.08-4.27,23.65-16.42,15.68-33.69-2.82-6.1-7.68-7.82-13.78-7.77-7.43,0-14.37,2.63-21.53,4.1C590.69,675,586.72,676.49,583.18,673.26Z"/><path class="cls-4" d="M1446.44,164c0-10.89,8.18-17.71,18.37-16.13,39.67,6.13,78.69,15.15,117.37,25.81,17.13,4.73,31.46,12.75,38.1,30.37,2.81,7.46,5.37,15,7.54,22.71,7.68,27.13,14.9,54.39,21.26,81.87,1.17,5.07,4.78,11.78,1.88,15-3.61,4-9.71-1-14.47-2.61a898.73,898.73,0,0,0-129.91-33.57c-6.28-1.11-8.78-4.68-10.49-10.3-8.64-28.42-20.73-55.41-34.58-81.64-3.88-7.34-7.8-14.69-12.21-21.73C1447.23,170.43,1446.16,167.23,1446.44,164Z"/><path class="cls-4" d="M1892.28,355.41c.39,4.2-.94,7.9-2.78,11.52-8.85,17.51-16,35.72-22.93,54.05-2.61,6.94-2.71,7-8.75,3.25-30.49-18.93-61.91-36.19-94.1-52-11.31-5.57-22.88-10.63-34.54-15.41-5.74-2.36-9.1-5.77-10.12-12-4.77-29.09-12.7-57.51-18.93-86.29-.77-3.55-2.34-6.93-3.2-10.47-2.57-10.64,1.19-17.49,10.94-21.44,4.25-1.72,7.72-.55,11.38,1.24q30,14.7,58.62,31.89a868.07,868.07,0,0,1,89.48,61.17c4.69,3.67,9.51,7.19,14.16,10.92C1889.06,337.85,1891.94,346.09,1892.28,355.41Z"/><path class="cls-5" d="M263.59,884.17q0-42.95,0-85.88c0-19.61,7.36-30,26-36.54,14.73-5.15,29.53-10.12,44.32-15.13a48.18,48.18,0,0,1,7.65-2.17c9-1.45,15.7,3.32,17.2,12.37a47.94,47.94,0,0,1,.29,8q0,86.88,0,173.75c0,18.81-7.22,29.05-24.79,35.17q-23.05,8-46.16,15.91a47.26,47.26,0,0,1-7.65,2.2c-8.67,1.38-15.08-3.16-16.55-11.81a54.53,54.53,0,0,1-.32-9Q263.57,927.6,263.59,884.17Z"/><path class="cls-5" d="M494.65,697.31c1.9,3.78,1.16,7.17,1.16,10.44q.07,94.41,0,188.84c0,20.64-6.57,29.22-26.72,35.15-15.62,4.6-31.21,9.3-46.87,13.78-14.69,4.2-22.64-1.65-22.66-16.95-.09-65.28.05-130.56-.2-195.83,0-5.75,1.62-8.31,7.1-9.7,9-2.27,17.74-5.26,27.81-8.32V905.36c9.08-.39,16.24-3.93,23.76-5.87,2.44-.63,3-2.27,3-4.43,0-2.33,0-4.66,0-7V716.22c0-9.41,0-9.46,8.95-12C478.23,701.82,486.5,699.58,494.65,697.31Z"/><path class="cls-5" d="M2133.94,773c-2.44,6.48-4.85,13-7.35,19.45-1.45,3.77,0,7.14,1.09,10.64q15.54,52.56,31,105.16c.91,3.09,1.68,6.23,2.85,10.61-11.92-3.11-22.71-6-33.52-8.74-4.17-1.07-4.19-4.85-5.09-7.86-7-23.21-13.83-46.48-20.76-69.72-1.33-4.45-2.82-8.86-4.23-13.28-.92-1-.77-2.29-.81-3.51-.08,1.22.07,2.49-.83,3.51V900.8c-7.76.55-14.14-2.45-20.7-3.89-15.11-3.31-15.07-3.47-15.07-19q0-95.4,0-190.78c0-3.32-.25-6.63-.39-9.95,1.07-3.15-.47-6.63,1.45-10.25,10.72.89,21,4.68,31.53,6.92,3.5.74,2.91,3.91,2.93,6.52q.15,21.38.29,42.76c2.75,10.83,3.88,21.67.87,32.69,2.45-7.05,2.83-15.13,8.79-20.7q8.21-23,16.43-46c2.62-7.27,2.7-7.35,9.84-5.46,9.61,2.55,19.17,5.28,29.42,8.12Z"/><path class="cls-5" d="M189.3,1026.34V932c-1.19-.13-1.93-.45-2.46-.24-6.79,2.7-15.39,3.81-19.78,8.7-4.19,4.66-1.29,13.39-1.34,20.32-.14,22.64-.24,45.29.08,67.92.08,5.51-1.41,8.38-6.78,10.19-8.75,2.94-17.22,6.73-25.9,10.21-2.12-2.32-1.4-4.7-1.4-6.83q-.06-105.88,0-211.76c0-9.58-.55-7.74,7.89-11.27,8.22-3.43,16.51-6.7,26-10.53v94.86c8.27-1.58,14.74-4.94,21.43-7.62,3.26-1.31,2.36-4.41,2.37-6.94.06-13.65,0-27.3,0-41,0-14.32.15-28.64-.09-42.95-.07-4.28,1.09-6.71,5.37-8.07,9.41-3,18.23-7.73,27.88-10,1.69,3.26,1,6.28,1,9.19q.07,103.88,0,207.75c0,11.53.67,8.91-8.61,12.73C207,1019.93,198.91,1022.74,189.3,1026.34Z"/><path class="cls-5" d="M583.18,673.26c8.38-.4,16.16-3.61,24.3-5.17a65.11,65.11,0,0,1,9.82-1.63c8.68-.31,14.65,4.31,16.39,12.91,1.79,8.87.54,17.92.77,26.89.06,2.42-1.46,3.71-3.51,4.19-10.25,2.43-20.53,4.73-30.65,7-2.3-3.76-.49-7.32-2.1-11.06-7.68.25-15,3.35-22.61,4.86-3,.6-3.22,3-3.23,5.35,0,12.66.1,25.31-.07,38-.06,4.26,2.64,5.57,5.77,7,13.52,6.41,26.78,13.41,40.53,19.27,11,4.69,15.87,12.5,15.87,24,0,20.31.3,40.63-.07,60.93-.27,14.94-8.62,25-23.09,28.73-16.74,4.29-33.56,8.28-50.35,12.37a40.9,40.9,0,0,1-5.88,1.12c-9.76.94-17.13-4.83-17.76-14.58-.52-8-.13-16-.21-24,0-2.58.6-4.42,3.46-5.14,10.22-2.55,20.41-5.23,30.23-7.76,2.56,3.91.58,7.6,2.71,11.18,7.44-.5,14.53-3.5,21.93-4.81,2.92-.52,3.57-2.48,3.57-5.07,0-13-.11-26,0-39,.05-4-2.66-4.89-5.38-6.18-14.73-6.95-29.39-14.07-44.19-20.86-8.23-3.78-12-10.09-12.23-18.87-.05-2,.07-4,.06-6q-.1-32-.24-63.91c4-13.79,12.91-21.71,27.13-24.47C570.58,677.44,577.26,676.49,583.18,673.26Z"/><path class="cls-5" d="M2280.47,857.25c-15.41-3.28-29.09-9.42-44.41-12.3,0,18.9.14,37.17-.09,55.44-.06,4.68,3,5.32,6.13,6.28q22.37,6.95,44.76,13.79c11.35,3.48,9,2.18,9.16,12.91.14,8,0,15.91,0,23.65-2.93,1.31-5.08.1-7.2-.54-26.71-8-53.37-16.28-80.14-24.13-5.13-1.5-7.6-3.24-7.58-9.29.24-71.23.15-142.46.17-213.7,0-1.93-.44-4,1.73-6.23,20.91,6.24,42.2,12.57,63.47,19,7.95,2.39,15.83,5,23.8,7.35,3.94,1.16,6.08,2.89,5.87,7.6-.41,9.28-.12,18.59-.12,29.48l-60-18.1c0,19.73.07,38.3,0,56.86,0,4.32,3.3,4.52,5.94,5.36,10.76,3.43,21.49,7,32.42,9.8,4.92,1.27,6.3,3.58,6.16,8.31C2280.27,838,2280.47,847.29,2280.47,857.25Z"/><path class="cls-5" d="M2544.61,870.1c-11.13-4.5-20.55-8.52-30.14-12.08-4.16-1.54-4.53-4.49-4.09-7.9.63-4.81-1.43-7.43-5.91-8.72-6.27-1.81-12-5.42-19.76-6.8v43.28c0,3.77,2.88,5.84,5,8.3,13.75,15.83,27.3,31.85,41.4,47.36a49.55,49.55,0,0,1,13.49,36.33c-.46,17.63-.09,35.28-.13,52.93a59.45,59.45,0,0,1-.45,9c-1.26,7.85-7.16,12.16-15,10.94a36.54,36.54,0,0,1-7.6-2.37q-24.11-9.51-48.16-19.15-22.77-9.18-23-33.91c-.07-7,0-14,0-22.11,11.37,3.11,21.53,7.74,31.87,11.8,3.32,1.3,2.6,4.44,2.39,6.91-.41,4.72,1.32,7.43,6,8.76,6.32,1.82,12.07,5.37,19.8,6.89,0-15.12.05-29.63,0-44.14,0-3.32-2.78-5.18-4.72-7.39-14-16-27.9-32.2-42.28-47.91-9.07-9.91-13.2-21.16-13-34.47.26-18,.06-36,.07-53.94,0-3.32-.11-6.64.86-9.9,2.26-7.61,8.3-11.6,16-9.84a87.1,87.1,0,0,1,12.2,4.3c14.23,5.59,28.48,11.11,42.62,16.92,14.31,5.89,22.06,16.65,22.53,32.25C2544.8,853,2544.61,860.62,2544.61,870.1Z"/><path class="cls-4" d="M2112.32,623.13c-12.38-.61-22.68-1.34-30.15-10.81-14.48-18.34-31.92-33.88-48.39-50.3a844.25,844.25,0,0,0-87-75.76c-7.67-5.79-15.07-11.93-23.06-17.33-5.83-3.94-6.79-6.2-4.74-12.63,5.54-17.42,11.79-34.6,20.2-50.88,3.93-7.62,11.57-9.25,18.1-3.79a108.41,108.41,0,0,1,11.32,11.26c32.45,36.46,63.55,74,89.93,115.18,14.15,22.1,27.94,44.41,40,67.77C2102.83,604.34,2108.21,612.33,2112.32,623.13Z"/><path class="cls-5" d="M2390.75,989.89c-11.55-2.62-21.28-6.86-31.29-10.21-2.77-.92-3.46-2.67-3.35-5.25.09-2.33,0-4.66,0-7V796.7c0-10.09,0-10.09-9.12-13.18-5.66-1.91-11.28-4-17-5.66-3.15-.91-4.1-2.65-4.06-5.74.12-10,0-19.93,0-30.24,7.58.93,14,3.85,20.49,6.08,22,7.52,43.9,15.3,65.79,23.12,9.44,3.37,8.56,1.31,8.65,12.58,0,8.2,0,16.41,0,25.66L2390.75,799Z"/><path class="cls-6" d="M2105.93,735.14c-1.85,8.37-5.39,16.12-9.66,24v-36C2099.48,727.16,2099.57,733.67,2105.93,735.14Z"/><path class="cls-7" d="M1202.55,240.28c3.18,1.55,3,5,3.9,7.6a932.45,932.45,0,0,1,34.39,142.33c2,12.46,4.11,24.92,5.67,37.44.58,4.72,2.36,6.31,7,6,13.92-1.09,27.86-2,41.79-2.92a598,598,0,0,1,79.76,0c25.28,1.59,50.29,4.68,74.88,10.75,27.32,6.74,53.41,16.47,76.19,33.56,23.91,17.94,40.22,41.1,43.64,71.16,5.14,45.2-6.12,85.86-37.5,119.88-6.08,6.6-12.37,13-19.68,18.36-1.44,2.36-4.17,3.12-6.07,4.9l.11,0c-.77.61-1.44,1.34-2.15,2l.12-.06c-.73.66-1.4,1.38-2.15,2l.09-.06c-2.23,1.44-4.14,3.28-6.28,4.84-3.08,1.13-5.54,3.31-8.35,4.9-24.73,14.63-50.41,26.93-78.92,32.27-2.63-.2-5.08,1.21-7.54.9,1.41.37,2.89-.28,4.42-.49,5.9-.82,11.9-.55,17.77-1.82a12.94,12.94,0,0,1,3-.33,5.72,5.72,0,0,1,4,2c15.1,2.23,30.52,1.82,45.4,5.93,12.91,3.57,25.3,8.05,36.17,16.18,15.38,11.49,23.9,26.94,24.36,45.91.58,23.93-.19,47.9-.38,71.85-.55,26.14-2.29,52.3,1.17,78.38a31.41,31.41,0,0,1,.06,5.4q.11,63.33,0,126.69c0,15.93,0,16.1,15.54,14.53,55.29-5.62,110.3-13,163.86-28.44,23-6.64,45.92-13.81,64.9-29.47.77-.81,1.59-1.56,2.42-2.3.4-.38.83-.73,1.24-1.1,12-11.94,11.23-23.38-2.39-33.29-12-8.74-26-13.33-40-17.53-46.32-13.85-94-21.21-141.63-28.22-15.45-2.28-30.87-4.72-46.4-6.44-4.15-.46-8.77-.64-10.79-5.54,6.83-3.81,14.2-1,21.29-1.73,6.27-.63,12.63.67,18.89-.69,29.59-1,59.06.86,88.56,2.93,20.87,1.47,41.65,3.65,62.32,6.75,43.75,6.56,86.94,15.39,127.57,33.76,13.37,6,26.14,13.13,36.55,23.78,1.63,1.66,3.29,3.3,4.76,5.1,11.61,14.27,11.32,29.56-1,43.22-3.77,4.18-8.07,7.89-12.13,11.81a13.1,13.1,0,0,0-2.78,2.19l.12-.08a193.86,193.86,0,0,1-21.45,13.93c-25.86,14.22-53.72,23.26-82,30.74-69.67,18.41-140.63,29.57-212.3,36.51-9.59.92-19.25,1.39-28.76,3.18-4.33.81-8.62,1.54-10.6,6.26-.88,33.27-1.87,66.54-2.63,99.81-1.57,68.89-2.68,137.8-4.72,206.68-.74,25.29-1,50.58-1.64,75.87q-1.8,66.38-3.76,132.74c-5.53-1-4.25-5.64-4.53-9.16-.4-5.12.23-10.33-1.54-15.31-.84-16.25-2.94-32.41-3-48.75-.07-63.19-4.21-126.3-4-189.5,0-6-1.33-11.9-2-17.85-1.43-12.49-5.08-14-16-7-3.74,14.36-2.41,29.08-3.1,43.65q-3.67,77.67-7.15,155.35c-.38,8.3-.71,16.59-1.06,24.89-1.18,5.4-.17,10.88-.61,16.3-.18,2.14-.07,5-3.7,3-3.84-12.87-3.79-26.3-3.93-39.38-.5-47.52-3.57-94.93-4.75-142.42q-1.14-45.76-3.61-91.57c-.07-1.33-.09-2.66-.25-4-1.41-11.07-4-12.27-13.9-6.51-.82,7.93-2,15.84-2.4,23.8-1.71,34.24-3.09,68.49-4.78,102.73-1.06,21.27-2.47,42.52-3.73,63.78-7-2.3-3.55-9.3-6.16-13.59-.41-17.62-2.71-35.15-2.78-52.8-.22-54.23-3.37-108.39-4.44-162.61-.79-40.22-3.29-80.42-3.6-120.68-.2-25.13-.31-25-24.38-24.92-36,.14-71.91,0-107.86,0a83.08,83.08,0,0,1-15.92-1.15c-6.84-1.33-12.55,0-16.46,6.21-2.25,42.47-3.1,85-4.43,127.49-1.49,47.81-3.4,95.61-5,143.41-.87,26.24-.93,52.49-2.77,78.69-6-1.44-4.31-6.52-4.58-10.38-.83-11.75,1.21-23.62-1.42-35.3-.61-15.9-3.25-31.68-2.87-47.64.91-38.19-3.33-76.27-2.12-114.46.21-6.66-1.46-13.19-2-19.81-1-11.75-3.4-12.79-13.27-6.28-3.17,8.89-2.15,18.31-3.06,27.45-2.26,22.73-3.18,45.58-4.92,68.36-2.49,32.68-5.23,65.33-7.87,98-5.27-.94-4.07-5.34-4.35-8.66-.45-5.27.25-10.64-1.57-15.78-1.34-13.56-2.49-27.27-2.41-40.75.26-39.25-3.3-78.41-2.31-117.64.41-16.36-2.34-32.49-2.22-48.79,0-4,0-8.56-3.94-10.73-4.46-2.48-7.07,2.13-10.32,4.07-2.84,16.7-3,33.65-4.43,50.48-2.83,32.36-5.17,64.75-7.69,97.13q-1.35,17.36-2.65,34.7c-5.53-1.13-4.16-5.75-4.47-9.29-.58-6.76.7-13.64-1.37-20.31a379.54,379.54,0,0,1-2.4-40.75c0-33.94-1.85-67.82-3-101.69-.89-27.22,0-54.54-2.69-81.68-1.29-13-2.3-13.63-15.26-14.77q-51.7-4.53-103-12.52c-68.46-10.76-136.35-23.82-200.23-52.26-17.24-7.68-32.65-17.79-45.55-31.68-7.7-8.29-11.61-17.68-9.77-29.1,1.19-4.34,3.7-8,6.15-11.7l0,.14a10.81,10.81,0,0,0,2-2.48c12.56-16.52,30.22-25.7,48.75-33.43,28-11.68,57.39-18.77,87.17-24.12a878.08,878.08,0,0,1,105.71-12.47c32.85-1.86,65.69-3.26,98.6-3.06,6.3,0,12.54,1.86,18.87.59,2.58-.6,6.13-1.67,6.39,2,.22,3.06-3.69,3.18-6.18,3.6-29.54,5-59.21,9.14-88.75,14.08-37.45,6.25-74.76,13.1-111.25,23.79-13.48,3.94-26.38,9.16-38.31,16.64-3.17,1.81-6,3.95-7.82,7.28-5.27,10.94-.63,19.45,7.1,26.69,9.54,9,21,15.12,33,20.06,41.51,17,85.2,25.29,129.25,31.91,25.25,3.79,50.53,7.68,76.12,8.45,5.2-1.84,3.77-6.46,3.9-10,1.38-40,3-80.11,2-120.19-.2-8.56,1.11-17,.85-25.57-1.25-4.58-.84-9.26-.85-13.91-.07-41.58,1.23-83.2-.33-124.73-2.94-78.44-3.85-156.87-3.78-235.34,0-22.32,1.7-44.5,3.48-66.69,1-11.95-.13-13.52-12-13.6-38.55-.29-77,2-115.54,3.45-16.6.64-33.12,2.78-49.77,2.39-3.17-.57-6.66-.33-8.91-3.36,19.91-7.52,40.64-12.22,61.17-17.55,41.8-10.87,84.15-19.22,126.6-27.14,5.61-4.65,6.53-11.26,7.61-17.86,9.73-59.51,24.42-117.8,42.78-175.19C1196.64,249.84,1198.52,244.51,1202.55,240.28Z"/><path class="cls-5" d="M939,834.87c-2.23-3.71-1.39-7.11-1.39-10.36q-.07-103.43,0-206.84c0-1.67.11-3.34,0-5-.25-3.75,1.42-5.26,5.17-5.61,7.95-.75,15.93-1.54,23.75-3.06,5.11-1,7.06.81,8.6,5.36,5.84,17.33,11.93,34.58,18.15,51.78,1.18,3.27,1.4,7.13,5.38,10.47,0-19-.14-37.12.09-55.21.06-5.15-2.36-11.43,1.59-15.21,3.51-3.34,9.57-1.65,14.49-2.25s9.92-1.08,14.88-1.67c3.29-.39,5.09.72,4.89,4.31-.11,2,0,4,0,6q0,102.93,0,205.85c0,2-.07,4,0,6,.13,3.11-.93,5.05-4.36,5.35q-13.43,1.15-26.83,2.55c-3.39.35-5-.79-4.76-4.32.12-1.66-.12-3.34,0-5,1.84-20-1.91-38.91-9.68-57.33-4.52-10.71-7.85-21.91-11.78-32.86-.61-1.7-.28-4.16-3.73-4.58v25.62q0,36,0,71.94c0,10.93.38,10.12-9.12,10.92C955.72,832.43,947.21,833.82,939,834.87Z"/><path class="cls-5" d="M1744.45,835.7c-11.78-1.49-22.25-2.93-32.76-4.09-4.4-.49-4-4-4.48-6.65-2.35-13.44-4.46-26.92-6.6-40.39q-3.28-20.7-6.46-41.42c-1.49-9.68-1.46-9.69-11.66-10.59-1-.09-2,0-3.08,0-2.18,2.54-1.14,5.65-1.15,8.5-.09,26.31,0,52.63-.08,79,0,7.49-.14,7.62-7.82,7s-15.23-1.58-22.86-2.15c-3.65-.27-5.56-1.65-5.28-5.51.14-2,0-4,0-6V608.52c0-1.34,0-2.67,0-4,.16-7.54.19-7.79,7.85-7,23.16,2.48,46.33,5,69.44,7.85,12.4,1.55,21.17,11.17,21.31,23.85.33,29.64.1,59.29.1,88.94,0,6.45-2.35,11.94-7.93,15.21-3.93,2.31-4.2,4.76-3.5,9C1734.6,772.85,1739.33,803.42,1744.45,835.7Z"/><path class="cls-5" d="M800.48,741c0-28.94.52-57.9-.21-86.82-.37-14.69,8-27.74,25.41-30.13,17.11-2.35,34.12-5.42,51.22-7.9,12-1.75,20.88,5.51,21.87,17.52.17,2,.09,4,.09,6q0,87.32.06,174.65c0,6.84-.79,13.29-5.07,18.85s-9.56,9.1-16.53,10.19c-18.72,2.94-37.38,6.16-56.13,8.85-12.37,1.78-20.58-6-20.65-19.38C800.38,802.2,800.49,771.6,800.48,741Z"/><path class="cls-5" d="M1883.15,743.36q0,43,0,85.95a65.33,65.33,0,0,1-.36,9c-1.3,9.3-7.51,14.79-16.89,15.1-7.4.24-14.5-1.92-21.74-2.89-11.54-1.53-23-3.68-34.51-5.42-16.28-2.45-25-12-25-28.26q-.13-88.95,0-177.91c0-16.46,8.53-23.73,24.89-21.31q25.18,3.72,50.27,8c14.79,2.52,23.21,12.39,23.31,27.81C1883.29,683.39,1883.15,713.37,1883.15,743.36Z"/><path class="cls-5" d="M2019.84,705.18c-10.07-2.1-19.76-4.32-29.53-6.07-4.67-.84-5-3.82-4.57-7.29.66-5.44-1.65-7.81-7-8.53-6.54-.88-13-2.41-19.39-3.65-1.47,3.79-.9,7.15-.9,10.45q-.06,67.45,0,134.91c0,10.57,0,10.57,10,12.74,1.62.36,3.22.86,4.85,1.18,11.56,2.32,11.56,2.31,13.55-9,9.68,2,19.35,4.13,29,6.13,3.37.7,5.12,2.28,5,6.09-.28,7.32.2,14.68-.24,22-.66,10.77-8.18,17.52-18.77,15.65-20-3.52-39.87-7.54-59.59-12.27-11-2.64-17.2-10.91-18.91-22.15a67.46,67.46,0,0,1-.41-10q0-84.95,0-169.9c0-21.71,7.16-27.43,28.49-23,14.65,3,29.28,6.23,44,8.79,15.88,2.77,26.62,15.29,25.39,30.66C2020.23,689.51,2021.76,697.18,2019.84,705.18Z"/><path class="cls-5" d="M699.29,874.83v-191c-10.53.45-19.81,4.2-30.66,5.27,0-10.83,0-21.38,0-31.92,0-3.75,3.07-3.65,5.65-4.19,15.28-3.19,30.53-6.51,45.82-9.64q19.53-4,39.12-7.63c5.93-1.12,6.43-.73,6.54,5.06.15,8-.1,16,.09,24,.1,4.2-1.76,5.84-5.73,6.44-6.24.93-12.36,2.77-18.61,3.39-5.73.56-7.26,3.36-6.64,8.48a49.69,49.69,0,0,1,0,6V855.68a57,57,0,0,0,0,6c.47,4.42-1.13,6.65-5.79,7.4C719.7,870.6,710.3,872.67,699.29,874.83Z"/><path class="cls-1" d="M773.2,1031.27c-1.53,13,3.52,23.19,12.57,32.17,12.28,12.19,27,20.53,42.44,27.65,35.25,16.2,72.39,26.55,110,35.2,39.55,9.08,79.55,15.63,119.77,21,27.36,3.67,54.83,6.33,82.27,9.16,5,.51,7,2,7.1,7,.16,10,.87,19.94,1.16,29.92.89,31,1.56,61.9,2.57,92.84,1.2,36.92,2.66,73.83,4,110.75-.24,15.47,2.66,30.82,1.81,46.32.55,7.09-.75,13.29-8.09,16.61-3.08-1.12-1.86-3.87-1.92-5.9-.9-30.61-1.38-61.22-2.58-91.81-1.7-43.56-2.76-87.13-4.24-130.69-.63-18.62-1.07-37.25-1.6-55.87-.25-8.87-.58-9.58-9.55-10.23-14.59-1.06-29.11-2.77-43.65-4.24-31.09-3.12-62-7.59-92.77-12.82-40.31-6.84-80.3-15.26-119.39-27.45-26.71-8.32-53.07-17.58-77-32.49-9-5.64-17.69-11.89-24.37-20.41-8.79-11.19-12.65-26.08-.64-41C774.84,1027,774.05,1029.11,773.2,1031.27Z"/><path class="cls-8" d="M965,493.58c35.53-2.46,71.09-4.06,106.69-5.13,21-.63,41.94-.74,62.9-.86,14-.07,13-1,11.83,12.18-6,65.82-4.17,131.77-2.9,197.67.59,30.28.74,60.6,2,90.87,2,49.94,1.3,99.89,1.58,149.84,0,2.31-.4,4.62-.61,6.93a7.21,7.21,0,0,1-7.71,0c-.15-1.65-.4-3.3-.42-5-.6-47.6-.76-95.2-1.89-142.79-.8-33.94-1-67.91-2.29-101.82-1.61-40.61-1.52-81.21-.81-121.81.41-23.25,2.53-46.48,3.91-69.72.38-6.4.45-6.66-6-6.61-28.94.23-57.91-1-86.82,1.37-.33,0-.67,0-1,0-29.95.25-59.81,2.35-89.67,4.45-3.2.23-6.43,0-10.79,0,2.19-4.17,4.55-6.62,7.83-8.26C955.35,493.23,960.37,495.48,965,493.58Z"/><path class="cls-1" d="M1254.77,1173.15c-.1-1.33-.17-2.66-.29-4-.39-4.15,1.21-6.28,5.65-5.91,5.3.43,10.61.91,15.92,1,45.27.54,90.54,1.77,135.78-.78,8.55-.48,8.92-.36,9.23,8.4q1.92,53.39,3.66,106.77c1.54,49.23,2.9,98.47,4.43,147.71,1,33.26,2.25,66.51,3.41,99.77,0,1.66.31,3.31.47,5,.68,12.12,2.62,24.18,1.65,36.37,0,1.66-.12,3.33-.12,5,0,9.73,0,9.73-8.25,16.6-2.86-1.39-1.52-4-1.58-6.07-.93-31.26-1.42-62.55-2.66-93.8-1.69-42.22-2.68-84.46-4-126.69-1.35-41.57-2.54-83.14-4-124.7q-1-28.42-1.7-56.86c-.19-7.67-.29-7.88-7.89-7.74q-30.42.57-60.85,1.47C1314,1175.5,1284.38,1173.13,1254.77,1173.15Z"/><path class="cls-9" d="M1489.34,1393c.74-1.81,1.12-3.94,2.3-5.4,4.48-5.5,9.73-5.16,13.91.6,2.68,3.68,3.07,8,3.47,12.29,1.68,18.58,1.2,37.23,1.69,55.84q2.24,85.28,4.42,170.55c.27,10,1,19.91,1.5,29.86,1.2,12.51,1.29,25.07,1.85,37.61.44,16.76,1.76,33.51.65,50.29-.69,10.16-.69,10.16-8.36,16.53-2.59-2-1.75-4.84-1.82-7.36-.25-8.66-.25-17.32-.44-26-.79-35.28-1.07-70.58-2.63-105.83-1-22.3-1.06-44.59-1.67-66.89-1.3-47.25-2.5-94.5-4-141.74C1499.92,1405.18,1499.4,1396.38,1489.34,1393Z"/><path class="cls-9" d="M1138.71,945.06l7.71,0c1.39,24.84,0,49.69.24,74.54.28,25.85-2.61,51.65-1.39,77.5.34,7.21-1.6,9.7-9.42,6.4-2.09-3.08-3.51-6.32-3.21-10.21,2.69-35.52.56-71.09,1.22-106.63.09-5,.21-9.95.77-14.92,1.12-10,0-11.12-10.12-9.64-31.89,4.65-63.82,9.11-95.53,14.91-41.5,7.6-83.19,14.54-122.75,30.1a16.35,16.35,0,0,1-5.84,1.18c-1.82-.25-3.52-.65-3.5-3,11.42-9.16,25.06-13.74,38.71-17.9,37-11.27,74.93-18.09,113-24.28,31.29-5.08,62.62-9.9,95.12-15l-5.62-1.94A4.71,4.71,0,0,1,1138.71,945.06Z"/><path class="cls-9" d="M1447.28,1352.34c1.1-4.63,2.28-9.78,8.24-9.5,5.73.28,6.83,5.6,8.07,10.06a30,30,0,0,1,.87,6.89q1.17,31.86,2.26,63.72,2.19,61.73,4.41,123.46c1.13,29.85,2.45,59.7,3.68,89.55,2,8.56-.64,17.37,1.37,25.93-1,6.67-1,6.67-8.09,12.63-2.88-1.35-1.6-4-1.67-6-1.5-40.5-2.62-81-4.4-121.5-1.57-35.51-2.39-71-4.11-106.54-1.19-24.55-.62-49.17-3.06-73.67C1454.24,1361.26,1454,1355.23,1447.28,1352.34Z"/><path class="cls-9" d="M1216.31,1288.87c.46-5.06,2.36-9.21,8-9.79,3.8-.39,7.9,4.63,8.47,10.84.88,9.57,1.38,19.18,1.63,28.79,1.06,41.47,1.92,82.94,3,124.41.29,11.26,1,22.51,1.58,33.77,1.58,6.47.91,13.08.6,19.56-.67,14.13,1.51,28.06,2.12,42.09-.12,10,.26,19.92-.2,29.88-.08,5.95-3.24,9.68-8.34,12.21-3-3-1.88-6.57-2-9.71-1-41.2-1.6-82.42-2.84-123.62-1.41-46.83-3.23-93.65-4-140.51C1224.25,1300,1224.13,1292.51,1216.31,1288.87Z"/><path class="cls-9" d="M1173.34,1244.39a10.59,10.59,0,0,1,2.32-6.46c3.46-4.64,9-4.36,12.46.46,2.85,4,2.71,8.72,3,13.39,1.53,29.19,1.12,58.43,2.36,87.61,1.12,26.22,1,52.45,1.88,78.66.46,13.6,1,27.2,1.57,40.79,1.6,10.89.33,21.94,1.82,32.84.63,5.24-2.62,10.47-.08,15.72,1.06,7-2.89,11.11-8.17,14.51-3-1.47-1.73-4.12-1.83-6.19-1.49-31.87-1.23-63.79-2.51-95.65-1.1-27.57-.55-55.18-2-82.7-1.29-24.25-1.14-48.5-1.68-72.74a57.12,57.12,0,0,0-1.61-11.82C1179.84,1248.68,1177.8,1245.45,1173.34,1244.39Z"/><path class="cls-9" d="M1533.13,1165.56c-.06-8.1-.07-8.19,6.52-8.85,34.41-3.45,68.84-6.78,103.07-11.8,61.59-9,122.67-20.37,181.79-40.47,14.83-5,29.07-11.49,43.38-17.75,2.14-.8,2.57.27,2.3,2.1-16.25,10.74-34.33,17.56-52.48,24.07-40.49,14.52-82.35,23.86-124.51,31.84-41.48,7.85-83.35,13.13-125.28,17.93C1556.36,1164,1544.73,1164.6,1533.13,1165.56Z"/><path class="cls-10" d="M1202.55,240.28c-18.4,57-34.24,114.55-44.86,173.5-1.59,8.82-3.54,17.62-4.41,26.52-.58,6-3.34,8.07-8.76,8,2.43-22.85,7.48-45.24,12.36-67.63,9.2-42.27,21.39-83.74,34.15-125C1193.06,249.05,1196,243.35,1202.55,240.28Z"/><path class="cls-11" d="M1408.69,733.33c28-7.2,54.49-18.3,79.83-32.18,1.89-.91,2.15.05,1.87,1.63-17,12.24-35.82,21-55.25,28.55-1.53.6-3,1.28-4.55,1.92-1.3,1.23-3.32.83-4.61,2.07l-.64.23-.68,0C1419.28,735.21,1413.3,739.23,1408.69,733.33Z"/><path class="cls-12" d="M1584.31,945.48c-9,3.42-18.31.58-27.43,1.58-4.14.45-8.66-1.42-12.37,1.89-3,2.5-5.79,5.38-9.75,6.47q-.12-37.81-.23-75.63a6.15,6.15,0,0,1,1.57-4.56l0,59.57c0,2,0,4-.05,6-.17,4,.67,5.92,5.62,5.33,13.49-1.6,27.1-.74,40.66-.93A11,11,0,0,1,1584.31,945.48Z"/><path class="cls-13" d="M1240.7,1538.85a504.51,504.51,0,0,1-1.77-62c2.56,2.42,1.68,5.58,1.72,8.48.11,9.64,0,19.29.13,28.94,0,2.89-.86,6.07,1.8,8.43q0,8-.1,16C1241.94,1539.68,1241.35,1539.72,1240.7,1538.85Z"/><path class="cls-14" d="M1517.32,1695.12a335.92,335.92,0,0,1-.69-38.34c3.32,3.56,1.27,8,1.85,12s-1.49,8.4,1.9,11.93q0,11-.1,21.93C1515.27,1701.7,1518.56,1697.51,1517.32,1695.12Z"/><path class="cls-15" d="M1517.32,1695.12c2.2,2,0,5.77,3,7.47.1,14,1,28.11-1.15,42.09Q1518.23,1719.9,1517.32,1695.12Z"/><path class="cls-16" d="M1434.68,1567.43a146.25,146.25,0,0,1-1.65-36.37c3.32,3.23-.53,8.53,3.35,11.59C1436.25,1550.94,1437.88,1559.35,1434.68,1567.43Z"/><path class="cls-17" d="M1156.94,1443.37c-1.26-15.42-2.93-30.82-1.81-46.32,3.28,5.52.85,11.58,1.63,17.33.55,4.12-1.41,8.6,1.81,12.32C1158.56,1432.31,1159.78,1438,1156.94,1443.37Z"/><path class="cls-18" d="M1476.18,1662.45c-2.46-8.53-1.69-17.24-1.37-25.93,2.58-2.72,1.21-6.16,1.67-9.27.5-3.44-1-7.18,1.55-10.32C1479.31,1632.18,1476,1647.25,1476.18,1662.45Z"/><path class="cls-19" d="M1197.09,1492.78l-.21-33.94c3.11,3.4,1.29,7.59,1.82,11.41.56,4.14-1.37,8.64,1.76,12.42a41.06,41.06,0,0,1-.47,12C1198.39,1495,1197.58,1494.13,1197.09,1492.78Z"/><path class="cls-20" d="M1870.19,1088.79l-2.3-2.1a109.19,109.19,0,0,1,20.37-11.75C1883.63,1081.38,1877.14,1085.38,1870.19,1088.79Z"/><path class="cls-21" d="M1240.7,1538.85l1.78-.11c.14,9.91.88,19.85-1,29.69C1240.66,1558.58,1240,1548.73,1240.7,1538.85Z"/><path class="cls-22" d="M1197.09,1492.78l2.9,1.91q-.69,6.36-1.37,12.71C1195.35,1502.82,1197.06,1497.71,1197.09,1492.78Z"/><path class="cls-23" d="M773.2,1031.27c-.32-1.59-.43-3.28-2.05-4.24,1.16-2.81,2.87-5.09,5.9-6.08C776.22,1024.56,775.37,1028.16,773.2,1031.27Z"/><path class="cls-24" d="M965,493.58c-4.52,2.79-9.44,1.59-14.25,1.4,1.58-2,3.82-1.92,6-2Z"/><path class="cls-25" d="M1490.39,702.78l-1.87-1.63c2.06-2.45,4.84-3.74,7.76-4.8a1.46,1.46,0,0,1,.13,2.47C1494.45,700.21,1492.91,702.23,1490.39,702.78Z"/><path class="cls-26" d="M1496.41,698.82c0-.83-.09-1.65-.13-2.47,1.72-1.76,3.4-3.58,6.21-3.22C1501.51,696.14,1499.09,697.62,1496.41,698.82Z"/><path class="cls-27" d="M1506.47,689.25c1-2.88,3.61-3.79,6.07-4.89C1511.53,687.25,1509.7,689.12,1506.47,689.25Z"/><path class="cls-28" d="M2096.25,819.25c-.52-1.27-.43-3.09.71-3.13s1.29,1.83.93,3.13Z"/><path class="cls-29" d="M1426,735.32a4.73,4.73,0,0,1,4.61-2.07c0,.71,0,1.41,0,2.11Z"/><path class="cls-30" d="M1888.14,1075a2.76,2.76,0,0,1,2.77-2.18A3.81,3.81,0,0,1,1888.14,1075Z"/><path class="cls-31" d="M779,1018.61a2.62,2.62,0,0,1-2,2.48A2.75,2.75,0,0,1,779,1018.61Z"/><path class="cls-32" d="M1504.43,691.22a2.11,2.11,0,0,1,2.15-2A2,2,0,0,1,1504.43,691.22Z"/><path class="cls-33" d="M1502.4,693.19a2,2,0,0,1,2.15-2A2,2,0,0,1,1502.4,693.19Z"/><path class="cls-34" d="M323.14,786.25c1.77,3,1,6.1,1,9q.07,68.4,0,136.8c0,9.65,0,9.76-9.54,12.88-5,1.62-9.72,4.17-14.88,4.63-2.78-1.84-1.75-4.4-1.75-6.53-.07-46.93,0-93.87-.17-140.8,0-5.81,1.13-9.44,7.38-10.65S316.88,786.94,323.14,786.25Z"/><path class="cls-4" d="M1411.92,1112c-2.64.25-5.27.72-7.9.72q-65.34.06-130.68,0c-17,0-16.72-.2-16.63-16.62.21-37.91-.24-75.83.32-113.74.57-38.89,2.11-77.76,3.07-116.64q.69-28.43.79-56.87c.06-13.3.53-26.58,1.64-39.84a11.78,11.78,0,0,1,9.41-2.38c38.84,5.9,77.63,12,112.7,31.43a81.09,81.09,0,0,1,15.95,11.88c11.59,10.85,16.74,24,17.11,40,1,41.58-2.71,83-2.25,124.6.45,40.89.16,81.8,0,122.7C1415.46,1102.26,1416.87,1108,1411.92,1112Z"/><path class="cls-4" d="M1419.67,679.32c-9,12.41-21.54,20.64-34.34,28.38-27.6,16.71-57.94,26.34-89.2,33.31-9.07,2-18.24,3.57-27.39,5.18-5.94,1-6.25.91-6.29-5.29-.13-20.29-.28-40.58,0-60.87.46-32.93-1.17-65.83-2.41-98.71-.93-24.52-1.76-49.13-5-73.53a20.49,20.49,0,0,1,.23-4c4.13-3.79,9-1.49,13.26-1,35.68,4.21,71,10.26,104.84,22.95,19.69,7.39,38.2,16.93,53.08,32.48,9.09,9.51,15,20.59,16.11,33.49,2.2,25,1.7,49.88-12,72.36-1.79,3-4,5.67-5.29,8.93C1423.43,675.15,1421.91,677.56,1419.67,679.32Z"/><path class="cls-4" d="M1784.29,1043.59c-9.13,9.19-20.78,14.23-32.41,19.09-27.72,11.56-56.76,18.59-86.14,24.36a1131.48,1131.48,0,0,1-115.32,16.37c-16.37,1.5-16.36,1.75-16.27-14.51q.35-59.39.74-118.79c0-3.64-.38-7.33.84-10.89,2.55-3,6-2.66,9.24-2.19,59.94,8.43,120,16,178.69,31.58,15.42,4.09,30.69,8.89,44.86,16.52,5.59,3,11,6.28,15.39,11,7.58,8.08,8.24,15.53,2.35,25.07l.08-.13A7.78,7.78,0,0,0,1784.29,1043.59Z"/><path class="cls-4" d="M898.9,1007.1C928.57,994,960.07,987.29,991.67,981c45.58-9.06,91.54-15.77,137.5-22.49,8.66-1.27,9.4-.94,8.95,7.49-1.69,31.56-.75,63.16-1.47,94.73-.32,14.26-.53,28.52-.8,42.78-25.55-1.15-50.82-5-76-8.76-33.78-5.09-67.33-11.51-100-21.74-17.76-5.57-35.24-11.84-51.1-21.89-6.22-4-12-8.39-16.49-14.27-6.79-8.92-7.19-16.41-1.64-25.56A23,23,0,0,1,898.9,1007.1Z"/><path class="cls-1" d="M1411.92,1112c.31-48.21.53-96.43,1-144.64.35-38.89.53-77.79,1.66-116.66.58-20.13-8.23-34.4-23.92-45.32-16.31-11.34-34.75-18-53.76-23.07-24.4-6.51-49.1-11.42-74.34-13.3a23,23,0,0,1-.31-3c.16-7.52.2-7.8,7.62-7,34.73,3.74,69,9.57,101.85,22.17,11.52,4.42,22.44,10,32.23,17.64,14.08,11,20.63,24.74,19.65,43.17-1.3,24.21-.64,48.53-.78,72.8-.24,41.9,0,83.81-.83,125.69-.39,21.27-.71,42.53-1.12,63.8C1420.71,1111.49,1420.61,1111.49,1411.92,1112Z"/><path class="cls-9" d="M1428.47,665.21c9.59-19.88,13-40.78,12.41-62.85-.59-22.89-10.37-40.05-28.36-53.22-18.52-13.55-39.57-21.56-61.4-27.8-28.79-8.23-58.2-13.22-87.95-16.34-2.63-.27-5.24-.78-7.86-1.18-.24-2-.53-3.94-.71-5.92-.34-3.74,1.88-4.52,5-4.16,40.25,4.7,80.31,10.4,118.78,23.87,14.45,5.06,28.36,11.39,41,20.17,16.86,11.69,28.33,26.72,30.35,48,2.8,29.42-2.06,56.89-19.53,81.39C1428.55,667.46,1427.57,667.18,1428.47,665.21Z"/><path class="cls-8" d="M1786.26,1041.15c3.33-14.75,1-20.86-11.78-29.33-15.46-10.28-33.09-15.4-50.68-20.25-33.29-9.18-67.29-15.15-101.39-20.44-26.21-4.07-52.48-7.76-78.74-11.55a77.6,77.6,0,0,0-7.94-.36c-.32-1.27-.65-2.54-1-3.8,1-5.59,4.65-7.1,9.75-6.47,28,4.06,55.94,7.9,83.85,12.25,38.76,6,77.42,12.72,115.08,24,14.67,4.4,29.17,9.39,41.91,18.28,8.19,5.71,13.68,12.8,11,23.56C1794.87,1033.05,1792,1038.14,1786.26,1041.15Z"/><path class="cls-35" d="M1408.69,733.33c4.9,3.85,10.78.52,16,2.19-8.55,2.93-17.37,1.07-26.17,1.32A19.23,19.23,0,0,1,1408.69,733.33Z"/><path class="cls-36" d="M898.9,1007.1a13.39,13.39,0,0,1-8.34,4.2,11,11,0,0,1,6.33-6Z"/><path class="cls-37" d="M1428.47,665.21c.58.64,1.15,1.28,1.73,1.91-.6,2.5-2.62,4-4,6a1.48,1.48,0,0,1-2.35,0C1424.86,670.19,1426,667.31,1428.47,665.21Z"/><path class="cls-38" d="M1423.81,673.12l2.35,0c-1.36,2.91-3,5.51-6.48,6.23C1420.61,677,1421.67,674.68,1423.81,673.12Z"/><path class="cls-39" d="M1784.29,1043.59a2.68,2.68,0,0,1,2-2.57A2.82,2.82,0,0,1,1784.29,1043.59Z"/><path class="cls-40" d="M1678.19,636.13c7.79.84,14.62,1.71,21.48,2.27,3.94.33,5.85,1.75,5.8,6.08-.17,16.6-.13,33.21,0,49.82,0,3.94-1.61,5.4-5.44,4.76-2.94-.49-5.91-.82-8.87-1.22-12.93-1.74-12.93-1.74-12.93-15.29Z"/><path class="cls-41" d="M861.85,653.77c1.7,3.21,1.16,5.93,1.16,8.54q0,69.39,0,138.78c0,8.95,0,9-8.88,10.3-5.53.82-12.28,4.42-16.33,1.33-4.74-3.62-1.79-11.16-1.82-16.93-.18-41.6-.09-83.2-.09-124.81a56.77,56.77,0,0,0,0-6c-.54-5.16,1-8,6.82-8.3C849,656.33,855.15,654.84,861.85,653.77Z"/><path class="cls-41" d="M1820.41,655.55c7.51-.61,13.6,1.49,19.84,2.28,7.37.93,7.43,1.29,7.46,8.78.06,17,0,34,0,51q0,44.46,0,88.93c0,9.25-.13,9.5-8.55,7.69-6.07-1.31-14.09.55-17.75-4.41-3.25-4.4-1-11.62-1-17.58q-.09-63,0-125.9Z"/></g></g></g></svg>