<svg xmlns="http://www.w3.org/2000/svg" viewBox="0 0 262.68 262.68"><defs><style>.cls-1{fill:#bec0c2;}.cls-2{fill:#002d62;}.cls-3{fill:#fdbb30;}.cls-4{fill:#fff;}</style></defs><title>indiana-pacers</title><g id="Layer_2" data-name="Layer 2"><g id="Layer_1-2" data-name="Layer 1"><path class="cls-1" d="M262.68,131.3A131.34,131.34,0,1,1,131.3,0h.08A131.31,131.31,0,0,1,262.68,131.3Z"/><path class="cls-2" d="M255.16,131.3a123.73,123.73,0,1,1,0-.11Z"/><path class="cls-3" d="M131.38,13.32A118,118,0,1,0,249.29,131.38v-.08A117.94,117.94,0,0,0,131.38,13.32Z"/><path class="cls-2" d="M212.13,131.3c0,45.54-36.22,82.48-80.75,82.48S50.62,176.84,50.62,131.3,86.7,48.9,131.38,48.9,212.13,85.77,212.13,131.3Z"/><path class="cls-4" d="M207,131.3c0,42.6-33.79,77.11-75.6,77.11S55.77,173.9,55.77,131.3s33.79-77.1,75.61-77.1S207,88.71,207,131.3Z"/><polygon class="cls-2" points="48.47 108.25 47.68 111.26 23.55 105.31 24.34 102.24 48.47 108.25"/><polygon class="cls-2" points="51.83 71.17 62.22 79.11 60.43 81.47 40.74 66.37 41.74 65.01 55.99 68.73 45.25 60.5 47.04 58.13 66.73 73.17 65.8 74.6 51.83 71.17"/><path class="cls-2" d="M77.25,33l4.87-2.51c2.08-1.07,4.65-1,6,1.57,3.08,6.16,4.51,8.81,7.66,14.82A4,4,0,0,1,94,52.33a2.3,2.3,0,0,1-.32.15l-5.09,2.58Zm13,18.18,1.29-.72a2.05,2.05,0,0,0,1.16-2.67l-.09-.19c-2.58-5-4.44-8.59-7-13.67A2,2,0,0,0,83,33l-.12.07-1.5.78Z"/><polygon class="cls-2" points="128.23 43.6 125.15 43.82 123.72 18.97 127.01 18.76 128.23 43.6"/><path class="cls-2" d="M164.45,50.19l1.08-4.8-4.16-1.57L158.87,48l-2.94-1.15,13.25-21.55,3.08,1.15-4.73,24.84Zm3.44-17-.14-.07-5.09,8.37L166,42.74Z"/><polygon class="cls-2" points="201.4 59.85 191.8 68.87 189.72 66.73 207.84 49.69 208.91 50.83 202.97 64.44 212.92 55.06 214.93 57.2 196.81 74.24 195.67 73.03 201.4 59.85"/><path class="cls-2" d="M213.78,106.1l4.37-2.22-1.43-4.22-4.87.79-1-3L236,94.08l1.07,3.07-22.2,12.1Zm15.39-7.94-.14-.22-9.66,1.36,1.14,3.37Z"/><path class="cls-2" d="M32.5,183.14,31,180.27l22-11.38,3.65,7c.72,1.43.36,2.5-.71,3.07-3.94,2-6,3.08-9.88,5.16a2,2,0,0,1-2.74-.73c0-.09-.09-.18-.13-.27L41,178.77Zm10.81-5.66,1.79,3.37,8.81-4.66-1.79-3.36Z"/><path class="cls-2" d="M65.29,222.66l2.44-4.3-3.58-2.79-3.65,3.22-2.44-1.93,19-16.61,2.57,2.08L67.87,224.66Zm8.52-15.18-.14-.21-7.3,6.44,2.79,2.22Z"/><path class="cls-2" d="M109.4,233.76l3.15.78L111,240.92a2,2,0,0,1-2.34,1.52h0l-.09,0c-2.22-.5-3.73-.93-6-1.5A2,2,0,0,1,101,238.5h0a.29.29,0,0,1,0-.09c1.93-7.88,3-12.24,4.94-20.12a2,2,0,0,1,2.34-1.52l.09,0c2.22.5,3.8,1,6.09,1.5a2,2,0,0,1,1.44,2.48v0l-1.22,5-3.15-.72,1.08-4.44-3.72-.86-4.59,18.91,3.73.85Z"/><polygon class="cls-2" points="155.15 242.28 147.13 243.78 142.83 219.29 150.71 217.86 151.14 220.51 146.34 221.3 147.77 229.32 152.28 228.53 152.71 231.18 148.27 231.97 149.85 240.49 154.57 239.7 155.15 242.28"/><path class="cls-2" d="M191.73,226.67,189,228.39l-14-20.55,6.8-4.65a1.9,1.9,0,0,1,2.68.19,1.7,1.7,0,0,1,.26.38c1.93,2.79,3.22,4.65,5.15,7.52a1.94,1.94,0,0,1-.3,2.74,1.65,1.65,0,0,1-.27.19l-.36.29,9.09,7.8-2.93,2-10.24-9-.07-1.14,2.14-1.43-4.51-6.59-3.36,2.29Z"/><path class="cls-2" d="M217,189.15l4.94,3.15,1.43-2.29-4.79-3.08-9.24.5a2.55,2.55,0,0,1-1.64-.35c-1.79-1.15-2.58-1.72-4.59-2.87a1.94,1.94,0,0,1-.59-2.68h0l0,0c.93-1.64,1.79-2.86,2.79-4.44a1.89,1.89,0,0,1,2.56-.72,1.58,1.58,0,0,1,.24.15l4.36,2.79-1.72,2.65L207,179.49l-1.43,2.36,3.72,2.29,8.81-.57a3.35,3.35,0,0,1,2.22.5c2.29,1.5,3.07,1.93,5.51,3.44a2,2,0,0,1,.71,2.72c-1,1.64-1.78,2.86-2.86,4.44a1.9,1.9,0,0,1-2.59.7,1.37,1.37,0,0,1-.2-.13l-5.44-3.51Z"/><path class="cls-1" d="M107.25,84.48,86.77,177.27h40.52s4.52-18.47,4.87-20.12H149.7c13.18.07,23.92-4.37,31.15-12.89,13.24-14.39,11-35.36,1-47.39A36.8,36.8,0,0,0,153,83.48H107.46Z"/><path class="cls-2" d="M129.23,153.5l-4.87,20.12h-33L110.4,87.27h42.53A33.08,33.08,0,0,1,179,99.37c9.45,11.39,10.38,30.36-.93,42.6-6.95,8.09-17.19,11.74-28.36,11.6Z"/><path class="cls-3" d="M106,107h18.61c2.15,0,4.44,1.72,3.51,4.51a27.66,27.66,0,0,0-1.36,5.52c-.14,1.36,1.43,2.29,2.29,2.29h38c.72,0,1.07-.22,1.07-.57a11.08,11.08,0,0,0-.21-2.44c-.14-.79-.22-1-.93-1-4.73,0-6.66-2.15-11.67-5.3S143.05,105,136.75,105h-30.5Z"/><path class="cls-3" d="M129,131.59a33.33,33.33,0,0,1-1.64-4.65c-.43-1.94-2.15-3.51-5.09-3.51h-20l.57-2.22,64.79.07c.58,0,.51.29.43,1s-.21,2-.28,2.8-.72.64-1.29.64a10.49,10.49,0,0,0-5.8,1.57c-2.65,2.08-8.45,5.66-11.6,6.59C145.62,134.88,132.81,138.89,129,131.59Z"/><path class="cls-3" d="M98.8,139.75h33.79a6.16,6.16,0,0,1,3.8,1.15,30.79,30.79,0,0,0,10.52,5.22c1.72.58,4.8-.14,7.52-1.64,6.73-3.87,11.1-11.1,12.6-15.82.36-1.22-.36-1.15-1.22-1.08-2.86.22-5.87,2.79-9.81,5.37s-11.95,4.87-19.61,4.87H99.3Z"/><path class="cls-3" d="M148.49,94.43a6.69,6.69,0,0,1,3.08.15c6.51,2.57,12.52,9.23,15.1,16.32.5,1.43.65,2.22,0,2.29-2.93.36-4.22-1.14-7.8-3.44a40.35,40.35,0,0,0-11-5.29c-4.36-1.36-12.24-1.65-13.17-1.65s-.93-.43-.5-.86A26.52,26.52,0,0,1,148.49,94.43Z"/><path class="cls-3" d="M179.27,118.78a.69.69,0,0,1-.64.64h-7.45c-.93,0-.93-.43-.93-1a11,11,0,0,1-.21-2.29c0-.58-.29-1.29.57-1.65a11.79,11.79,0,0,0,4.87-4.65c.21-.58.71-1.51,1.22-.72C178.56,111.9,179.13,115.34,179.27,118.78Z"/><path class="cls-3" d="M176.62,132.09c-.07.29-.64.5-.71,0a11.43,11.43,0,0,0-5.44-5.8c-.5-.28-.5-.64-.5-1.21s.28-2.22.35-2.87.29-1,.72-1h7.73c.22,0,.57.29.57.43A24.26,24.26,0,0,1,176.62,132.09Z"/><path class="cls-3" d="M156.58,146.55c-.58.15-1.79-.07.07-1.14,5.58-3.3,10.67-10.88,11.95-15.32.58-1.72.58-1.79,1.29-1.58a7.84,7.84,0,0,1,3.3,2.79c1,1.44,1.5,4.3.86,5A26.43,26.43,0,0,1,156.58,146.55Z"/><path class="cls-3" d="M170.82,112c-1.28.72-1.57.5-1.86-.43-2.43-8.52-9.66-14.89-12.6-16.82-.5-.29-.43-.57,0-.5,7,1,14,4.8,17.4,10C175.84,107.25,172.11,111.26,170.82,112Z"/></g></g></svg>