<svg xmlns="http://www.w3.org/2000/svg" viewBox="0 0 163.92 197.71"><defs><style>.cls-1{fill:#12173f;}.cls-2{fill:#5d76a9;}.cls-3{fill:#707271;}.cls-4{fill:#fb2;}</style></defs><title>memphis-grizzlies</title><g id="Layer_2" data-name="Layer 2"><g id="Layer_1-2" data-name="Layer 1"><path class="cls-1" d="M33,187.28a4.18,4.18,0,0,0-4.16-4.16H21v14.59h3.4v-4.56H27.6A1.89,1.89,0,0,1,29.42,195v2.68h3.4V195a5.24,5.24,0,0,0-1.07-3.16,4.16,4.16,0,0,0,1.21-3v-1.61Zm-4.16-.76a.77.77,0,0,1,.76.76v1.65a.85.85,0,0,1-.84.85H24.44v-3.22H28.8Z"/><polygon class="cls-1" points="109.44 197.71 97.36 197.71 97.36 183.12 100.75 183.12 100.75 194.31 109.44 194.31 109.44 197.71"/><polygon class="cls-1" points="143.08 186.52 143.08 183.12 131 183.12 131 197.71 143.08 197.71 143.08 194.31 134.4 194.31 134.4 191.95 141.88 191.95 141.88 188.55 134.4 188.55 134.4 186.52 143.08 186.52"/><polygon class="cls-1" points="66.67 197.71 53.55 197.71 61.07 186.52 54.38 186.52 54.38 183.12 67.45 183.12 59.94 194.31 66.67 194.31 66.67 197.71"/><polygon class="cls-1" points="87.74 197.71 74.63 197.71 82.15 186.52 75.45 186.52 75.45 183.12 88.53 183.12 81.01 194.31 87.74 194.31 87.74 197.71"/><rect class="cls-1" x="117.92" y="183.12" width="3.4" height="14.59"/><rect class="cls-1" x="41.98" y="183.12" width="3.4" height="14.59"/><rect class="cls-1" x="41.98" y="183.12" width="3.4" height="14.59"/><path class="cls-1" d="M99.72,151.16H87.3v26.71h6.14v-8.58h6.28a7.5,7.5,0,0,0,7.49-7.48v-3.16A7.51,7.51,0,0,0,99.72,151.16Zm1.34,10.65a1.35,1.35,0,0,1-1.34,1.34H93.44v-5.84h6.28a1.34,1.34,0,0,1,1.34,1.34Z"/><path class="cls-2" d="M90.63,177.87h-.52V154h9.61a4.67,4.67,0,0,1,4.67,4.67v3.16a4.68,4.68,0,0,1-4.67,4.67H90.63Zm0-11.91h9.09a4.16,4.16,0,0,0,4.16-4.14h0v-3.16a4.16,4.16,0,0,0-4.14-4.16H90.63Z"/><polygon class="cls-1" points="52.21 157.31 52.21 151.16 31.96 151.16 31.96 177.87 52.18 177.87 52.18 171.76 38.1 171.76 38.1 167.61 50.02 167.61 50.02 161.46 38.1 161.46 38.1 157.31 52.21 157.31"/><polygon class="cls-2" points="52.21 154.5 52.21 153.98 34.77 153.98 34.77 175.06 52.18 175.06 52.18 174.58 35.29 174.58 35.29 164.79 50.02 164.79 50.02 164.28 35.29 164.28 35.29 154.5 52.21 154.5"/><path class="cls-1" d="M76.55,151.2H55.37v26.67h6.15V157.34h5.11v20.57h6.15V157.34h3.77a1.34,1.34,0,0,1,1.34,1.34v19.19H84V158.68a7.5,7.5,0,0,0-7.49-7.48"/><path class="cls-2" d="M76.55,154H58.19v23.86h.51V154.53H69.45v23.38H70V154.53h6.59a4.15,4.15,0,0,1,4.16,4.14h0v19.19h.51V158.68A4.68,4.68,0,0,0,76.55,154"/><path class="cls-1" d="M21.18,151.2H0v26.67H6.14V157.34h5.12v20.57H17.4V157.34h3.78a1.34,1.34,0,0,1,1.34,1.34v19.19h6.14V158.68a7.49,7.49,0,0,0-7.48-7.48"/><path class="cls-2" d="M21.18,154H2.81v23.86h.52V154.53H14.07v23.38h.52V154.53h6.59a4.14,4.14,0,0,1,4.15,4.14h0v19.19h.52V158.68A4.68,4.68,0,0,0,21.18,154"/><rect class="cls-1" x="133.95" y="151.16" width="6.14" height="26.71"/><rect class="cls-2" x="136.76" y="151.16" width="0.51" height="26.71"/><polygon class="cls-1" points="123.86 151.16 123.86 161.46 116.2 161.46 116.2 151.16 110.09 151.16 110.09 177.87 116.2 177.87 116.2 167.61 123.86 167.61 123.86 177.87 129.97 177.87 129.97 151.16 123.86 151.16"/><polygon class="cls-2" points="126.64 151.16 126.64 164.28 113.39 164.28 113.39 151.16 112.91 151.16 112.91 177.87 113.39 177.87 113.39 164.79 126.64 164.79 126.64 177.87 127.15 177.87 127.15 151.16 126.64 151.16"/><path class="cls-1" d="M11.91,197.71H4.15A4.16,4.16,0,0,1,0,193.56v-6.28a4.17,4.17,0,0,1,4.15-4.16H7.76a4.17,4.17,0,0,1,4.15,4.16V188H8.51v-.68a.76.76,0,0,0-.75-.76H4.15a.76.76,0,0,0-.75.76v6.28a.76.76,0,0,0,.75.76H8.51V193h-2v-3.4h5.42Z"/><path class="cls-1" d="M11.91,197.71H4.15A4.16,4.16,0,0,1,0,193.56v-6.28a4.17,4.17,0,0,1,4.15-4.16H7.76a4.17,4.17,0,0,1,4.15,4.16V188H8.51v-.68a.76.76,0,0,0-.75-.76H4.15a.76.76,0,0,0-.75.76v6.28a.76.76,0,0,0,.75.76H8.51V193h-2v-3.4h5.42Z"/><path class="cls-1" d="M159.66,197.71H156a4.16,4.16,0,0,1-4.15-4.15v-.51h3.4v.51a.76.76,0,0,0,.75.76h3.64a.77.77,0,0,0,.76-.76v-.62l-6.32-1.68a3.13,3.13,0,0,1-2.2-3v-.89a4.26,4.26,0,0,1,4.26-4.26h3.53a4.18,4.18,0,0,1,4.16,4.16V188h-3.4v-.68a.77.77,0,0,0-.76-.76h-3.53a.86.86,0,0,0-.86.84v.71l6.32,1.68a3.14,3.14,0,0,1,2.19,3v.82a4.13,4.13,0,0,1-4.13,4.15h0"/><path class="cls-1" d="M156.36,177.84H143.77v-8.48h6.14v2.37h6.45a1.4,1.4,0,0,0,1.41-1.38v-1.27l-10-3.09a5.57,5.57,0,0,1-4-5.35v-1.92a7.56,7.56,0,0,1,7.55-7.56h12.6V160h-6.15v-2.68h-6.45a1.4,1.4,0,0,0-1.41,1.38v1.57l10,3.06a5.63,5.63,0,0,1,4,5.42v1.55a7.58,7.58,0,0,1-7.56,7.55"/><path class="cls-2" d="M156.36,175h-9.78v-5.7h.52v5.19h9.26a4.22,4.22,0,0,0,4.23-4.22h0v-1.55a2.38,2.38,0,0,0-1.68-2.26l-10.34-3.2a2.79,2.79,0,0,1-2-2.67v-1.93a4.74,4.74,0,0,1,4.74-4.73h9.78v6h-.55v-5.49h-9.27a4.22,4.22,0,0,0-4.22,4.22h0v1.93a2.28,2.28,0,0,0,1.62,2.19L159,166a2.89,2.89,0,0,1,2,2.75v1.55a4.64,4.64,0,0,1-4.55,4.73h-.12"/><path class="cls-3" d="M146.79,32.84a21.86,21.86,0,0,0,2.71-10.3A22.7,22.7,0,0,0,139.3,4.07c-8.3-5.63-20.73-6.42-29.55,4.12A56,56,0,0,0,82,11.66,55.89,55.89,0,0,0,54.27,8.19C45.45-2.35,33-1.56,24.72,4.07a22.64,22.64,0,0,0-10.2,18.47,22.37,22.37,0,0,0,2.71,10.3C10.57,42.41,6,53.81,6,65.38c0,13.94,6,21.14,8.21,24.23L16,87.83c6.32,16.06,17.1,24.72,30.14,32.58,0,0,.28-1.58.55-3,14,12.15,20.74,9.16,35.33,25.67,14.55-16.44,21.42-13.62,35.32-25.67.27,1.4.55,3,.55,3,5.8-3.5,22.17-12.29,30.14-32.58l1.78,1.78c1.38-1.88,8.21-9.5,8.21-24.23.07-11.57-4.53-22.93-11.19-32.54"/><path class="cls-1" d="M142.77,33c13.39-20.56-17-41.95-31.68-21.25A52.21,52.21,0,0,0,82,15.36a52.21,52.21,0,0,0-29.08-3.57C38.21-8.91,7.86,12.48,21.25,33,6,54,7.52,74.65,14.59,84.36l2.92-2.92s4.15,20.19,26.12,33.47l.79-4.36C58,125,70.3,124.66,82,137.88c11.67-13.18,24-12.87,37.55-27.33l.79,4.36c22-13.25,26.12-33.47,26.12-33.47l2.92,2.92c7.18-9.75,8.69-30.34-6.59-51.32"/><path class="cls-2" d="M82.15,109.9S71.61,110.07,70,111c0,0-1.82,3.12,12.12,3.08,13.25-.06,11.29-2.47,11.39-2.84a42.11,42.11,0,0,0-11.39-1.38"/><path class="cls-2" d="M73,97.65s1.64-4.77,3.39-3.26c2.44,2.09,5.6,6.35,5.6,6.79v5.67l-3.84.2a89.31,89.31,0,0,0-9.34,1.75C59,84.5,64.47,66.13,67.08,59.54,57.36,61.64,55.78,50,55.78,50A7.59,7.59,0,0,1,60,51a47.76,47.76,0,0,1,8.1,5.25h0c.72.55,1.38,1.1,2,1.61,6.63,5.56,12,4.43,12,4.43V86.08S62.72,84.6,73,97.65"/><path class="cls-2" d="M91.11,97.65c12.29-12.46-7.76-11.74-9-11.54,2.06.11,17.57.21,9,11.54"/><path class="cls-2" d="M99.24,60c11.06,29.76-2.95,48.91-3,49,8.68-22.8,3.12-41.71-.69-48.75a32.34,32.34,0,0,1-4.29.07,40,40,0,0,0,4.84-3.54l.45-.41a28.19,28.19,0,0,1,8.27-5.29h0A18.13,18.13,0,0,1,109,50s-1,9.82-9.75,10"/><path class="cls-2" d="M116.75,21.44s4.5-11.26,18.33-8.55c0,0-12.7-8.34-21.52,6.73,0,0-12.67-5.94-31.55,2.23,0,0-17.75-6.25-31.24-2.71,0,0-7.86-13.66-19-8s-5.28,18.6-3.36,22c0,0-18.37,18.71-11.47,41.81l3.71-4.6S26,95.52,39.58,103.45l.82-6.18s14.22,17.13,30.9,24.41c1.58.75,10.44,5.15,10.71,7.31V117s-11.57,1-14.66-4.4C65.26,109,51.94,85.22,58.53,60.33c0,0-6.42-1-7.62-11.77A22.64,22.64,0,0,0,40.2,46.7s10.61-3.33,20.56.52,12.63,13.66,19.36,9.34L82,28.92l2,27.64c6.73,4.32,9.41-5.46,19.36-9.34S124,46.7,124,46.7a32.14,32.14,0,0,0-11.09-4.36c-5.7-1.13-14.07,2.51-14.07,2.51s1.16-7.83,5-12C107.07,29.23,114.48,28.44,116.75,21.44ZM30.86,31c-.41-3.78,4.36-7.49,4.36-7.49-2-2-5.39-.27-5.39-.27,3.09-6.08,10.06-3.09,10.06-3.09-2.64-3.23-8.21-3-8.21-3,6.9-6.87,15.25,3.6,15.25,3.6C39.51,22.37,30.86,31,30.86,31Z"/><path class="cls-4" d="M68.07,56.28C67,55.94,65.26,57,64.26,59,61,58,59.83,54.43,60,51h0a49,49,0,0,1,8.1,5.25"/><path class="cls-4" d="M100.48,59c-1-2-2.92-3.12-4-2.61a28.19,28.19,0,0,1,8.27-5.29h0c.14,3.4-1,7-4.29,7.9"/></g></g></svg>