<svg xmlns="http://www.w3.org/2000/svg" viewBox="0 0 200 276.25"><defs><style>.cls-1{fill:#98002e;}.cls-2{fill:#f9a01b;}.cls-3{fill:none;stroke:#f9a01b;stroke-width:0.12px;}.cls-4{fill:#fff;}</style></defs><title>miami-heat</title><g id="Layer_2" data-name="Layer 2"><g id="Layer_1-2" data-name="Layer 1"><path d="M25.68,78.37c.6-6.84,25.08-15.84,64.92-17.28a23.7,23.7,0,0,0-9.24,15.48L81,79.45A30.34,30.34,0,0,1,79.8,85c-1.56,4-5.88,7.32-10.44,9.72-16-1.92-29.4-5.4-37.2-9.6C27.84,82.93,25.44,80.41,25.68,78.37Zm152.4-2c1.56,1.68,1.44,2.76,1.44,3.12-.12,1.92-2.52,4.32-6.6,6.36-8.52,4.44-23.16,7.8-40.44,9.6A23.19,23.19,0,0,1,135,94.09l.24-.12c5-2,10.68-4.32,10.92-12.6.12-1.32.12-5.28.84-6.72,1-1.92,3.36-4.68,5.4-5.52l-3.48-.6h-.48a8.32,8.32,0,0,0,2.52-3c14.16,3,23.64,7,27.12,10.8ZM195.36,66c-7.32-8.28-23.88-14.88-45-18.84,0-2.4,1.56-3.48,4.2-5.4A45,45,0,0,0,159,38.29c6.84-6.6-1.2-16.44-1.44-16.92L153.12,16l1.08,7c.72,4.68-1,6.36-6.24,10a19.31,19.31,0,0,0-1.68,1.44,33.09,33.09,0,0,0-.72-11c-1-4.32-3.12-6.12-3.12-6.12l-.6,6.36c0,.12-.48,5-7.08,11a22,22,0,0,0,1.56-2c3.24-4.8,2.28-10.08,1.2-16.32l-.24-1.32c-1.08-6.36.6-10.44,1.68-11.16C140,2.41,142.2.25,142.2.25s-1.08-.48-4.32-.12c-4.08.6-11,3.12-10.92,8.76a24.74,24.74,0,0,0,1.68,6.84c.72,2.28,1.44,4.44.72,5.4-.48.84-1.92,1.56-4.32,2-9.84,1.8-17.28,6.24-21,12.72a21.55,21.55,0,0,0-2.64,7c-24.12.12-47,3.12-64.68,8.52C16.8,57.49,5.88,65.89,5,75.61,4.56,80.77,7,88.09,19.68,95.17h-.12l3.6,1.8,1.92.84a111.45,111.45,0,0,0,20.52,6.72,43.85,43.85,0,0,0-7.56,5.4A53.43,53.43,0,1,0,124.32,162c4.32-12.84,3.84-26.64,3.6-31.92-.48-11.88,5.4-18.48,9.12-21.36,16.8-2.16,31.8-5.88,42.84-10.8l1.8-.84,3.84-1.8-.12-.12c9-5,14-10.8,14.52-17,.48-4.32-1.08-8.4-4.56-12.12Z"/><polygon points="53.28 241.09 60.12 213.37 48.84 213.37 42 241.09 53.28 241.09"/><path d="M77.88,220.09l.72,11.4H72.72l5.88,9.6H88.92l-1.56-27.72H70.44s-13.92,27.72-13.8,27.72h10.8Z"/><polygon points="51.84 266.77 49.44 276.25 60 276.25 66.84 248.41 56.28 248.41 53.76 259.21 45.84 259.21 48.36 248.41 37.8 248.41 30.96 276.25 41.52 276.25 43.8 266.77 51.84 266.77"/><polygon points="77.04 269.89 77.76 266.17 90.84 266.17 92.52 260.05 79.44 260.05 80.28 255.97 93.36 255.97 95.4 248.41 71.64 248.41 64.68 276.25 88.44 276.25 90.12 269.89 77.04 269.89"/><polygon points="144.96 241.09 151.8 213.37 140.52 213.37 133.68 241.09 144.96 241.09"/><path d="M163.56,234.85c1.56,2,3.24,6.12-3.72,9.24-8.16,3.72,0,13.08-11,13.08h-4.56l-4.68,19.08H128.28l4.56-19.08h-7.68l2.4-8.76h19.68c11.52,0,3.36-8,9.36-9.12C160.68,238.57,163.2,237.85,163.56,234.85Z"/><polygon points="22.56 227.65 20.76 213.37 6.84 213.37 0 241.09 10.32 241.09 14.04 226.57 14.16 226.57 16.2 241.09 22.2 241.09 30.6 226.57 30.72 226.57 27.36 241.09 37.08 241.09 43.92 213.37 30.6 213.37 22.56 227.65"/><polygon points="114.36 227.65 112.56 213.37 98.64 213.37 91.8 241.09 102.12 241.09 105.84 226.57 105.96 226.57 108 241.09 114 241.09 122.4 226.57 122.52 226.57 119.16 241.09 128.88 241.09 135.84 213.37 122.4 213.37 114.48 227.65 114.36 227.65"/><path d="M112.68,255.25l.72,11.4h-5.88l5.88,9.6h10.32l-1.56-27.84H105.24s-13.92,27.84-13.8,27.84h10.8Z"/><path class="cls-1" d="M20.64,154.93a34,34,0,0,0,13.44,21.12,32.06,32.06,0,0,0,7.8,4.08c-1.68-2.88-3.72-5.88-5.76-8.88-3.84-5.64-7.8-11.52-10.32-17.76a36.8,36.8,0,0,1-2.16-20,51.27,51.27,0,0,0-3.12,17.76C20.52,152.53,20.64,153.73,20.64,154.93Z"/><path class="cls-1" d="M29.28,152.17c2.4,5.88,6.24,11.52,10,16.92a143.35,143.35,0,0,1,7.8,12.6,67.22,67.22,0,0,0,7.2,1.08,59.34,59.34,0,0,1-6.6-12.6c-7.44-18.48-6.48-41.28,2.76-54.48a49.9,49.9,0,0,1,17.76-15.36c6.24-3.36,10.2-4.44,14.28-6.84C86.76,91,89,86.65,86.16,76.93a18.8,18.8,0,0,1-.72-6.84,18.4,18.4,0,0,0-2.16,6.72,53.55,53.55,0,0,1-1.8,8.88C77.64,95.77,59,101.29,56.64,102.13a47.34,47.34,0,0,0-17.28,9.24A37,37,0,0,0,29.28,152.17Z"/><path class="cls-1" d="M107,61.09l.36,1.8c.48,3.6-.6,6.48-4.8,7.08-4.44.72-6-3.12-6.36-6.24,0-1.2.12-2,.12-2.64H94.2a26.12,26.12,0,0,0-5.16,4c-.84,1.92-1.92,4.56-.24,10.68C91.68,86.65,90.36,93.25,81.72,97c-11.16,4.8-18.36,7.68-27.84,19.68-4.56,5.64-7.08,15.24-7.44,24.72a69.17,69.17,0,0,0,4.8,27.36A63.64,63.64,0,0,0,59,182.89a56.75,56.75,0,0,0,9-1.2,23.54,23.54,0,0,1-5.64-13.92c-1.08-17.76,8.4-25.2,23-36.84l6.6-5.52c26.16-22.2,18.48-44.76,21.36-64.08A56.26,56.26,0,0,0,107,61.09Z"/><path class="cls-1" d="M117.48,61.45a97,97,0,0,0-1.44,12c-1.08,16.8-.48,35.88-21.84,54.72l-6.36,5.16C73.56,144.73,65.4,151.93,66,167.41a18.47,18.47,0,0,0,5.88,13.08,57.71,57.71,0,0,0,11.76-4.92c18.48-10.56,30.12-26.28,34.56-46.44,2.76-12.72,2.76-23,2.64-31.44,0-4.2.6-12.36.6-12.36.6-5.16,1.32-12.6,7.44-22.08.24-.36.36-.6.6-1C125.76,61.93,121.68,61.69,117.48,61.45Z"/><path class="cls-1" d="M123.72,115.45c-.6,3.12-.72,6.48-1.08,9.84-.24,1.2-.48,2.52-.6,3.72a3.32,3.32,0,0,1-.24,1.08c-4.56,21.24-16.68,37.68-36.24,48.72a62.7,62.7,0,0,1-10.08,4.68c5.76,3.72,12.36,4.92,16.92,4.2,17.52-2.52,26-13.92,30.12-26.16,4.2-12.48,3.72-25.8,3.48-31.32-.6-18.48,13.56-25.32,13.56-25.32C128.64,104.29,124.92,109.09,123.72,115.45Z"/><path class="cls-1" d="M112.08,183.49a35.36,35.36,0,0,1-18.24,7.8,29.08,29.08,0,0,1-22.2-6.12c-.24-.12-.24-.24-.48-.36A58.79,58.79,0,0,1,62,186.49c7,7.56,16.32,11.88,28.68,12.6h.12a51.1,51.1,0,0,0,21.48-15.72C112.2,183.37,112.2,183.49,112.08,183.49Z"/><path class="cls-1" d="M47,196.21a25.36,25.36,0,0,0-2.76-11.52,50.1,50.1,0,0,1-12.48-5.52,37.31,37.31,0,0,1-6.12-5.52A51.08,51.08,0,0,0,47,196.21Z"/><path class="cls-1" d="M82.68,201.49a45.81,45.81,0,0,1-18.12-7.92,44.65,44.65,0,0,1-7.32-7,38.25,38.25,0,0,1-8.4-.84,25.51,25.51,0,0,1,1.8,12.36A50.43,50.43,0,0,0,72,202.69a51.74,51.74,0,0,0,10.68-1.08C82.8,201.49,82.68,201.49,82.68,201.49Z"/><path class="cls-1" d="M142.56,75c-1.2,4-5.16,3.48-6.36,1.32-1.8-3.36-1.08-6,.84-7.8s4.92-2.76,7.92-4.2h.12c-3.48-.6-7.2-1.08-11-1.56-.12.12-.12.12-.24.12a9.35,9.35,0,0,1-1,1.2,43.67,43.67,0,0,0-7.68,21.6L125,87.37a70,70,0,0,0-.36,10.44v1.68c-.12,1.44-.12,2.88-.12,4.2h0c.12-.6.12-.72.12-.48,1.68-5.64,4.92-9,9.48-10.92,5-1.92,9.84-3.72,10.08-10.92.12-3,.36-6,1-7.44a7.3,7.3,0,0,1,3.48-3.6C146.28,70.21,143.64,71.17,142.56,75Z"/><path class="cls-2" d="M148.44,46.69c.36-4.8,4.92-5.64,9.36-9.72,5.64-5.4-1.8-14.28-1.8-14.28,1,6-1.8,8.28-6.84,11.88a6.65,6.65,0,0,0-3,4.68,49.38,49.38,0,0,1-.72,7.08A25.06,25.06,0,0,1,148.44,46.69Z"/><path class="cls-3" d="M148.44,46.69c.36-4.8,4.92-5.64,9.36-9.72,5.64-5.4-1.8-14.28-1.8-14.28,1,6-1.8,8.28-6.84,11.88a6.65,6.65,0,0,0-3,4.68,49.38,49.38,0,0,1-.72,7.08A25.06,25.06,0,0,1,148.44,46.69Z"/><path class="cls-2" d="M133,38.41a48.35,48.35,0,0,0-3.72,3.12c-.84.84-1.68,1.56-2.4,2.4,4.92.36,9.72,1,14.4,1.56,2.88-5.4,4.32-11.4,2.52-21.84C143.76,23.65,143.4,30.73,133,38.41Z"/><path class="cls-3" d="M133,38.41a48.35,48.35,0,0,0-3.72,3.12c-.84.84-1.68,1.56-2.4,2.4,4.92.36,9.72,1,14.4,1.56,2.88-5.4,4.32-11.4,2.52-21.84C143.76,23.65,143.4,30.73,133,38.41Z"/><path class="cls-2" d="M105.36,42.85c5.64.12,11.16.24,16.68.72a2.75,2.75,0,0,1,.48-.6c3.6-3.84,9.24-7.2,12.24-11.52s1.8-9.72.6-16.2c-1.92-11.16,2.88-13.2,2.88-13.2S128.76,3.37,129,8.77c.24,7.32,7.8,14.16-3.6,16.32-12.48,2.28-20.28,9-22,17.88A12.38,12.38,0,0,1,105.36,42.85Z"/><path class="cls-3" d="M105.36,42.85c5.64.12,11.16.24,16.68.72a2.75,2.75,0,0,1,.48-.6c3.6-3.84,9.24-7.2,12.24-11.52s1.8-9.72.6-16.2c-1.92-11.16,2.88-13.2,2.88-13.2S128.76,3.37,129,8.77c.24,7.32,7.8,14.16-3.6,16.32-12.48,2.28-20.28,9-22,17.88A12.38,12.38,0,0,1,105.36,42.85Z"/><path class="cls-4" d="M105.36,45.73C53,45.25,9.48,58.69,8,75.85c-.6,6.84,5.52,13.2,16.44,18.48a116.21,116.21,0,0,0,25.32,8.16c2-.84,4-1.56,6.24-2.28a66.17,66.17,0,0,0,8.4-3.12c-14.64-2-26.4-5.4-33.72-9.36-5.4-2.88-8.28-6.12-7.92-9.6,1-11.52,37.56-20.4,81.6-20s79.08,10.2,78,21.6c-.24,3.24-3.24,6.12-8.16,8.76C165,93.37,148.8,97,129,98.77a24.25,24.25,0,0,0-1.8,3.12c9-3.36,19.44,1.68,19.44,1.68q.62.27,1.2.6c13.08-2.4,24.36-5.76,32.76-9.72,10-4.68,16.08-10.56,16.56-16.68C198.6,60.61,157.56,46.33,105.36,45.73Z"/></g></g></svg>