<svg xmlns="http://www.w3.org/2000/svg" viewBox="0 0 280.38 347.97"><defs><style>.cls-1{fill:#eee1c6;}.cls-2{fill:#00471b;}.cls-3{fill:#fff;}</style></defs><title>milwaukee-bucks</title><g id="Layer_2" data-name="Layer 2"><g id="Layer_1-2" data-name="Layer 1"><path class="cls-1" d="M140.38,348C63,348,0,285,0,207.59a139.51,139.51,0,0,1,42-100c.19-.19.48-.39.67-.58C33.31,92.91,28.11,76.45,32.06,56.52,39.38,19.83,69,8.76,70.29,8.28A3.89,3.89,0,0,1,71.73,8a4.43,4.43,0,0,1,3.85,2.31A4.32,4.32,0,0,1,76,13.19,70.07,70.07,0,0,1,98.79.19,6.86,6.86,0,0,1,100.14,0a4.34,4.34,0,0,1,3.94,2.5A4.31,4.31,0,0,1,102.35,8,73.56,73.56,0,0,0,80,28.89,61.13,61.13,0,0,1,93.3,27.06h.87a4.33,4.33,0,0,1,4,3.94,4.39,4.39,0,0,1-3.27,4.63A80.43,80.43,0,0,0,70.38,47.76a74.25,74.25,0,0,0-3.66,22.91c0,14.83,4.72,30.14,13,41.79a65.9,65.9,0,0,0,5.78,7.22c-.77-15.31,3.76-39,31.29-50a4.56,4.56,0,0,1,1.64-.29,4.22,4.22,0,0,1,3.85,2.41,4.35,4.35,0,0,1-1.64,5.68l-.19.1a36.24,36.24,0,0,0-10.4,10.2,39.72,39.72,0,0,1,7-1.35h.77a4.27,4.27,0,0,1,4.05,2.89,4.38,4.38,0,0,1-1.74,5.1l-.29.2c-8.76,5.1-13.67,11-14.54,17.52-1,7.13,3,13.87,5.78,17.72,7.42-8.57,12.13-23.11,13.48-28.6A4.34,4.34,0,0,1,128.83,98h.48a4.35,4.35,0,0,1,3.85,4.23c.1,18-4.72,30.33-9.63,38.13a39.2,39.2,0,0,0,16.18,4h1a37.83,37.83,0,0,0,16.18-4c-4.91-7.89-9.73-20.22-9.63-38.13A4.2,4.2,0,0,1,151.07,98h.48a4.42,4.42,0,0,1,4.24,3.27c1.35,5.49,6.16,20,13.48,28.6C172.16,126,176,119.3,175,112.17c-.86-6.55-5.77-12.52-14.53-17.52-.1,0-.29-.2-.29-.2a4.33,4.33,0,0,1-1.83-5.1,4.25,4.25,0,0,1,4-2.89h.77a38.29,38.29,0,0,1,7,1.35,36.24,36.24,0,0,0-10.4-10.2l-.19-.1A4.43,4.43,0,0,1,158,71.83a4.33,4.33,0,0,1,3.85-2.41,5,5,0,0,1,1.64.29c27.44,11,32,34.66,31.29,50a65.9,65.9,0,0,0,5.78-7.22,73.62,73.62,0,0,0,9.34-64.7c-12.9-9.25-24.36-12.13-24.55-12.13a4.35,4.35,0,0,1,.77-8.57H187a60.44,60.44,0,0,1,13.29,1.83A74.65,74.65,0,0,0,177.93,8,4.32,4.32,0,0,1,176.2,2.5a4.34,4.34,0,0,1,4-2.5,7.08,7.08,0,0,1,1.35.19,70.05,70.05,0,0,1,22.81,13,3.92,3.92,0,0,1,.49-2.89A4.31,4.31,0,0,1,208.65,8a3.89,3.89,0,0,1,1.44.29c1.25.48,30.91,11.55,38.23,48.24,3.94,19.93-1.25,36.39-10.59,50.45a4.44,4.44,0,0,1,.67.58,139.51,139.51,0,0,1,42,100C280.76,285,217.79,348,140.38,348Z"/><path class="cls-2" d="M100.14,4.43c-9.73,3.08-29.47,13.19-41,38.13-4.62,3.17-8.57,7.22-12.9,12.51,4.43-20.31,15.11-34.85,25.51-42.55,0,0-28.5,10.3-35.43,45-8.09,40.34,24.17,65.57,50.26,87.24l-19.84-8.09c-1.34-.58-2.31.77-2,2.31l.58,4.91c.29,2.69,2.31,16.37,9.82,20.51,1.54.86,4.33,1.92,12.61,2.5l14.93,1-2.51,8.38,14.64,23.4-7.51-7.9L92,246.1l42,34.57-13.09-59.41L140.38,245l19.35-23.78-13.09,59.41,42-34.57-15.31-54.4-7.51,7.9,14.64-23.4-2.51-8.38,14.93-1c8.18-.58,11-1.64,12.61-2.5,7.51-4.14,9.53-17.81,9.82-20.51l.58-4.91c.29-1.54-.68-2.89-2-2.31L194,144.72c26.09-21.67,58.35-46.9,50.26-87.24-6.93-34.66-35.43-45-35.43-45,10.49,7.7,21.08,22.14,25.51,42.55-4.23-5.29-8.18-9.34-12.9-12.51-11.65-24.94-31.29-35.05-41-38.13A77.62,77.62,0,0,1,209.9,36.3c-14.54-5.2-23.3-4.72-23.3-4.72s13,3.18,27.15,13.67a77.79,77.79,0,0,1-9.53,69.91,69.7,69.7,0,0,1-15.6,16.17c1.92-4.91,9.44-42.94-26.58-57.38l.29.19a40.1,40.1,0,0,1,17.33,24.17c-6.54-6.36-13.47-6.93-17.13-7.42.09,0,.09.1.19.1,33.41,19.26,6.83,45.35,6.83,45.35-10.49-8.86-16.65-28.6-18-34-.1,20.9,6.84,33.41,11.55,39.48a41,41,0,0,1-45.63,0c4.71-6.07,11.65-18.58,11.55-39.48-1.35,5.39-7.51,25.13-18,34,0,0-26.58-26.09,6.83-45.35.1,0,.1-.1.19-.1-3.66.49-10.59,1.16-17.13,7.42a40.86,40.86,0,0,1,17.33-24.17l.28-.19C82.51,88.39,90,126.42,92,131.33a69.7,69.7,0,0,1-15.6-16.17,77.79,77.79,0,0,1-9.53-69.91C81,34.76,94,31.58,94,31.58s-8.76-.48-23.3,4.72A79,79,0,0,1,100.13,4.43ZM45,110.63a136,136,0,0,0-40.63,97c0,75,61.05,136,136,136s136.05-61.05,136.05-136a135.56,135.56,0,0,0-40.63-97l-3,3.66a131.34,131.34,0,1,1-184.87,0l-3-3.66Zm6.55,6.93a126.54,126.54,0,0,0-37.65,90c0,69.71,56.72,126.52,126.52,126.52S266.9,277.39,266.9,207.59a125.81,125.81,0,0,0-37.55-89.83l-3.27,3.46a122.31,122.31,0,0,1,36,86.37A125.22,125.22,0,0,1,260,230.31l-37.65-10.4a83.4,83.4,0,0,1-164.94.48L20.7,230.31a126,126,0,0,1-2.12-22.72,123.56,123.56,0,0,1,36.21-86.75l-3.28-3.28Z"/><path class="cls-1" d="M54.69,56.23c-1.25,1.35-2.5,2.69-3.66,4.14-11.17,14.54,5.3,40.54,5.3,40.54s-6.16-28.12-1.64-44.68Zm171.29,0c4.72,16.56-1.54,44.68-1.54,44.68s16.46-26,5.2-40.54A51,51,0,0,0,226,56.23Z"/><path class="cls-3" d="M71.73,143.66s1.45,12.23,6.55,15c3.47,1.92,11.84,1.73,19.26,2.31-8.19-3.18-20.22-11.85-25.81-17.33Zm137.3,0c-5.68,5.48-17.62,14.15-25.8,17.33,7.32-.58,15.79-.39,19.26-2.31,5.1-2.79,6.54-15,6.54-15ZM164.76,162a1.29,1.29,0,0,0-.6.12c-4,1.83-8,3.66-10.11,4.62a1.29,1.29,0,0,0-.38,2.12c2,2,5.78,4,10.3.48a6.16,6.16,0,0,0,2.12-6.25,1.51,1.51,0,0,0-1.33-1.09Zm-48.76.09a1.24,1.24,0,0,0-1.23,1.09,6.18,6.18,0,0,0,2.12,6.26c4.43,3.47,8.28,1.54,10.3-.48a1.34,1.34,0,0,0-.48-2.12c-2.12-1-6.16-2.79-10.11-4.62a1.17,1.17,0,0,0-.6-.13Zm19.86,9.37-4,12.89A16.35,16.35,0,0,1,125,193l-2.41,10.59,5.87,8h6.26l-5.78-8.57,1-5.29a14.39,14.39,0,0,0,10.49,4.62,14,14,0,0,0,10.49-4.62l1,5.29-5.78,8.57h6.26l5.87-8L155.79,193a16.34,16.34,0,0,1-6.94-8.67l-3.94-12.9-4.53,2.22-4.53-2.22Zm-4,45.05,4,5.49h8.86l4-5.49Zm96.67,11.27-3.37,11.07-1,3.08,12.62,3.76,3.18,1,3-9.82,7.8,2.31-1.64,5.49-3.37-1.06-1.35,4.33,4.72,1.45,3.18,1,4.24-14.25-3.18-.68-10.49-3.17-3.18-1-3,9.83-6.74-2,1.64-5.49,3.37,1,1.35-4.34-4.63-1.44-3.17-1Zm-176.39.67L24.26,238.1l1.45,4.33,17.62-6.06-6.26,5.2,8.09.29-17.53,6.06,1.45,4.34L57,242.63l-1.54-4.34L47.37,238l6.26-5.19-1.45-4.34ZM222.8,243.69l-2.31,4.23,5.39,7.32-7.22-3.85-2.12,4,26.1,13.87,2.11-4.05-11.36-6.06,13.67,1.73,2.22-4.24-18.78-2.5-7.7-10.49ZM58.92,246.48,32.74,260.15l2.11,4L61,250.52Zm4.15,8.09-24,17.23,8.28,11.56,3.85-2.8-5.58-7.89,20.12-14.35-2.69-3.75Zm152,3.46-9.24,11.56,2.59,2.11L228.77,288l2-2.51,7.22-9.05-2.6-2-4.33-3.66-2.79,3.56,3.37,2.7-3.56,4.53L212.5,269.1l3.56-4.52,3.28,2.6,2.79-3.56-4.43-3.47L215.1,258ZM70.86,265.45,52,288.27l3.08,3.08,8.09-5.59L57.67,294,60.75,297l22.54-19.16-2.8-3L71,282.68l6.84-10.49-1.06-1.06-10.4,6.93L74,268.43l-3.09-3Zm132.49,6.83-3.56,2.89L215.87,294l-4.43,3.66-15.89-18.88-3.46,3,18.77,22.63,2.6-2.22,6.45-5.39,2.41-2-19-22.44ZM85.6,279.51l-.1.09L69.71,304.35l3.85,2.4,6.93-10.88L85.31,299l-6.93,10.88,3.85,2.41,13.38-20.89,1.54-2.41.87-1.35.09-.09-12.51-8Zm100.52,5.87-10.21,5.49,14,25.8,10.21-5.49,1.25-4.33-4.33-8-2.6-1.16.48-2.89-4.53-8.28-4.23-1.15ZM86.85,286,91.66,289l-3.85,6.06L83,292Zm13.48,3L89.64,316.29l3.18,1.25,7.89,3,3,1.16,10.59-27.44L110,292.6l-8.86,23-5.39-2,8.85-23-4.23-1.64Zm86.94,1.25,3.37,6.26-5.1,2.7-3.37-6.26Zm-22.33,4.53-14,2.69,5.67,28.79,14-2.69-.87-4.63-9.53,1.83-1.64-8.08L168,310.8l-.87-4.53-9.43,1.83-1.35-6.93,9.43-1.83-.86-4.62Zm-47.38.29-5.1,29.07,4.53.78,2.21-12.72,2.6,13.48,4.72.87-3.47-18.58,7.61-10.59-4.72-.87-5.29,7.41,1.44-8.08-4.53-.77Zm30.24,2.69-14.16.2.49,29.36,14.15-.19-.1-4.72-9.63.29-.09-8.28,9.63-.19-.1-4.62-9.63.19-.1-7.13,9.63-.19-.09-4.72Zm45,2.79,4,7.23-5.1,2.69-4-7.22Z"/></g></g></svg>