<svg xmlns="http://www.w3.org/2000/svg" viewBox="0 0 267.35 267.42"><defs><style>.cls-1{fill:#9ea2a2;}.cls-2{fill:#0c2340;}.cls-3{fill:#236192;}.cls-4{fill:#78be20;}.cls-5{fill:#fff;}</style></defs><title>minnesota-timberwolves</title><g id="Layer_2" data-name="Layer 2"><g id="Layer_1-2" data-name="Layer 1"><ellipse class="cls-1" cx="133.67" cy="133.71" rx="133.67" ry="133.71"/><ellipse class="cls-2" cx="134.35" cy="133.52" rx="128.96" ry="128.99"/><path class="cls-3" d="M134.67,48.24a85.28,85.28,0,0,0-19.26,2.09c-.58,1.87-1.36,5.49,0,8.8A10,10,0,0,0,119.83,64c5.91-2.4,12.32-4.86,18.51-6.93a107.44,107.44,0,0,1,20.14-5.26l-.42-.13a86.31,86.31,0,0,0-11.54-2.52,84.76,84.76,0,0,0-11.85-.9Zm-25.22,3.67a85.7,85.7,0,0,0-32.91,18.7l1.31,0c8.09-.47,19.6-.14,26.18.12,2.78-1.25,6.16-2.73,9.91-4.32a14.55,14.55,0,0,1-3.68-5.34,17.74,17.74,0,0,1-.81-9.18Zm60.75,4.3v.1c-.24,0-18.2-.42-40.43,10.37-.39.22-.78.47-1.15.73a74.39,74.39,0,0,0,16.85,2.73c1,.07,1.83.13,2.58.2l.62,0c2.68.23,6.44.66,10.86,1.45,3.29-4,7.26-6.54,9.93-7.13a9.61,9.61,0,0,1,5.91,5.65,18,18,0,0,1,9.22,8.91c10.11,4.4,20.27,10.91,28,20.57A85.29,85.29,0,0,0,170.2,56.21ZM123.89,71.58a44.17,44.17,0,0,0-4.49,6c2.31,2.4,6.72,7,8.91,9.47,3.77,2.27,7.55,4.74,11.31,7.37,6-6.73,11.28-12.19,16.52-17.67q-3.81-.55-7.92-.9l-.69-.06c-.7-.07-1.52-.12-2.44-.19a78.24,78.24,0,0,1-21.2-4ZM76.35,76.1c-2.2,0-4.06.08-5.48.18A85,85,0,0,0,54.2,103.65c8.68-9,21.75-18.59,36.26-15.76L93.82,82c-4.53-3-7.36-5.13-15.17-5.83l-2.3,0ZM186.91,86c2.59,11.62-.35,24.81-.35,24.81s6.32,3.66,7.85,10.63a3.78,3.78,0,0,1,1.51,1.38c1.76,2.17,4,7.16.39,17,0,0-2.14-4.58-6.69.35l-1.14,1.62c8.66,11.92,15.25,24.35,18.61,36.49a85.62,85.62,0,0,0,12.24-51.64c-2.2-10.14-9.36-28.8-32.42-40.62Zm-79.36,2c-2.34,1.11-4.9,2.41-7.37,3.84,6.95,4.57,12.13,12.28,16.06,21.34a32.58,32.58,0,0,1,9.35-2c3.71-4.72,7.14-8.86,10.36-12.61q-5.58-3.9-11.19-7.26c-4.09-1.47-13.86-2.89-17.21-3.35Zm-23,4.86c-15.21.5-28.66,16.38-34.09,23.74a85.14,85.14,0,0,0,6.22,53.09c4-3.78,7.9-7.68,11.58-11.57a107.58,107.58,0,0,1,4.94-35.36A100.05,100.05,0,0,1,84.58,98.62c.65-1.3,1.75-3.32,3-5.66a20.93,20.93,0,0,0-3.06-.11ZM95,95.13A30.66,30.66,0,0,0,91.56,98c-9.94,14-17,32.27-17.71,54.08,10.62-11.7,19.37-22.54,25.33-28.28a48.07,48.07,0,0,1,12.09-8.55c-4-9.12-9.18-16.57-16.24-20.13Zm90.15,51.65c-5.58,9.05-8.31,17.57-8.63,32.51-.17,8.18,3.87,14.49,6.86,24.22a85.37,85.37,0,0,0,19.53-19.08c-2.47-12.22-8.89-25.14-17.76-37.65Z"/><path class="cls-4" d="M169.22,68.44c-1.64,0-3.75,1.42-6.34,6.13,5.52-5.91,10.38-2.1,10.38-2.1C172.67,71.07,171.33,68.5,169.22,68.44ZM117.49,69.6l-11.85,6s-8.48-.7-12.94-.83a79.34,79.34,0,0,1,7.6,5.64l-5.25,8.7L106.24,83s7.05,1.18,13.48,2.5a50.93,50.93,0,0,0-8.14-7.31l5.91-8.57Zm4.77,51.19c-6.46,3.22-16.17,12.91-16.17,12.91,4.68-3.19,14.41-4.63,14.41-4.63a33.23,33.23,0,0,1,1.76-8.28Z"/><path class="cls-1" d="M134.06,37.42c-47.78,0-88.72,35.75-95.26,83.14a95.54,95.54,0,0,0,9.44,56.6q1.66-1.36,3.29-2.81A91.36,91.36,0,0,1,43,121.13c6.25-45.33,45.41-79.51,91.1-79.51a93.07,93.07,0,0,1,12.68.88,92,92,0,0,1,38.4,167.79c.29,1.43.54,2.94.75,4.52A96.27,96.27,0,0,0,134.06,37.42Zm42.06,39.91a19.87,19.87,0,0,1-.2,4.37l0,0c-3.86.7-12.36-.26-15.11-1.71-10.45,11.21-21.84,26.8-30.42,41.12-3.71,7.57-7.36,16.46-8.27,23.68a30.61,30.61,0,0,1-1.46-7.62c-4.75,1.83-20.87,9.75-24.32,34.05,0,0,10.25-10.57,21.58-14.69,0,0-7.18,18.79,6.52,52.1,0,0,5.55-20.42,17.14-25.58,7,34.88,27.61,35.45,33.62,59.18,0,0,6.29-12.29-1.28-33.18a10.78,10.78,0,0,1,4.82,3.33s-.34-6.11-6.05-19.29c-3.73-7.06-4.9-16.59-4.9-16.59-3.34,3-4.19,13.27-4.19,13.27-10.22-27.73,18.79-55.21,24.08-59.27,2.59-2,4.18-2,5.14-1.54,1-2.06.91-3.38-.29-4.24,0,0-.51-.35-.62-.41-3.08-1.64-8.59,3.15-12.2,5.13s-8.84,6.21-11.41.39,3.33-14.92,5.38-20.65c4.5-12.67,4.66-20.12,3.71-24.15,4.16,4.69,5.47,13.7,5.47,13.7s1.55-16.91-6.72-21.37Zm-90.19,96.6S66.59,188.1,46.81,189.24c0,0,19.57,4.61,27.85,1.23a10.5,10.5,0,0,1-2.57-2.4,52.37,52.37,0,0,0,13.79-14,.47.47,0,0,1,.05-.1Z"/><path class="cls-5" d="M144.27,13.54l-.47,3.54,4.52.6-1.68,12.66,3.64.49L152,18.16l4.51.6.47-3.54-12.67-1.68ZM112.91,15l-.52.09-4.57,17.52,4-.68,2.28-8.6,5,7.34,4-.69L112.91,15Zm54.39,2.95L162.66,33.6l3.51,1L170.82,19l-3.52-1Zm-70.87.86L84.59,23.58l1.34,3.32,4.22-1.71L94.94,37l3.4-1.38L93.55,23.81l4.22-1.71-1.34-3.31Zm86.75,4.45-7.65,14.64,3.24,1.69,3.52-6.74L184,39.07l.42.23,6.07-2.21-3.52,6.74,3.26,1.71,7.64-14.64-.49-.26-10.77,3.93-2.9-11,0-.08-.47-.25ZM73.29,30.82a8.4,8.4,0,1,0,8.4,8.4A8.39,8.39,0,0,0,73.29,30.82Zm0,3.82a4.59,4.59,0,1,1-4.58,4.58A4.58,4.58,0,0,1,73.29,34.64ZM208.78,39l-2.4,2.75-1.63,1.88-.13.15-2.26,2.61-1.94,2.23L198,51.39l2.76,2.39,2.39,2.08a5.64,5.64,0,0,0,3.55,1.45,5,5,0,0,0,4-1.74,4.91,4.91,0,0,0,1.2-3.58,4.92,4.92,0,0,0,2.44-1.55,4.85,4.85,0,0,0,1.19-4.09,5.55,5.55,0,0,0-1.94-3.18l-2-1.77L208.78,39Zm.36,5.15,2,1.77c.85.74,1,1.44.39,2.12-.73.84-1.64.36-2.28-.2l-1.92-1.66,1.77-2Zm-155.41,2h-.32a7.25,7.25,0,0,0-5.12,2.66,6.34,6.34,0,0,0-1.71,3.61,4.5,4.5,0,0,0,1.55,3.84c1.78,1.63,3.87,1.74,6.4.33l1.75-1c.92-.52,1.51-.71,2-.26s.45,1.28-.41,2.23l0,0a4,4,0,0,1-3.28,1.29l-.32,0L53.85,63l.34,0a8.21,8.21,0,0,0,6.54-3l.07-.08a7,7,0,0,0,2-4.2,4.75,4.75,0,0,0-1.74-3.81c-1.82-1.67-3.81-1.7-6.63-.13l-2,1.1c-.72.41-1.14.43-1.54.06s-.39-1.1.23-1.79h0a3.54,3.54,0,0,1,2.45-1.24l.33,0-.25-3.74Zm151.4,2.64,2.25,2c.92.8,1.14,1.75.55,2.43a1.6,1.6,0,0,1-2.36-.08L203.18,51l1.95-2.23ZM226.32,56,213.5,66.1l6.9,8.72,2.86-2.27-4.62-5.83,2.15-1.7,4,5,2.86-2.26-4-5,2.11-1.68,4.62,5.84,2.84-2.25L226.32,56Zm-189,5.49L31.11,70.7l13.6,9.07,6.17-9.25-3-2-4.13,6.19-2.27-1.52L45,67.84l-3-2L38.4,71.15l-2.24-1.5,4.13-6.19-3-2ZM239.79,75.34l-14.67,7.22,1.62,3.3,6.79-3.35-4.64,7.71,1.94,3.92s3.35-5.65,3.59-6a4.86,4.86,0,0,0,5.74.68c3.06-1.51,4-4.54,2.33-8l-2.7-5.47Zm-1.61,4.88,1,2.1c.74,1.51.39,2.55-.94,3.21s-2.41.32-3.16-1.19l-1-2.1,4.09-2ZM24.66,82.56,23.26,86l7.9,3.22L19.64,94.47l-.22.55,15.26,6.23,1.38-3.38-7.93-3.24L39.7,89.36l.22-.56L24.66,82.56ZM249,95.38l-14.62,9.71.14.57,9.84,2.29-7.73,6.48.14.57,17.44,2-.91-3.77-8.39-1,6.9-5.79-.13-.55-8.8-2.07,7-4.65L249,95.38ZM15.8,108.71l-.57,3.65,8.43,1.32-10,7.76-.09.6,16.29,2.54.56-3.61L22,119.65l10-7.8.1-.59L15.8,108.71Zm171.31,7.58a6.77,6.77,0,0,1,.73,4.07,8,8,0,0,1,2.49-.27,6.79,6.79,0,0,0-1.11-2,10.26,10.26,0,0,0-2.11-1.83Zm-8.54,1.65a15.12,15.12,0,0,1,.49,6.85c1.26-.87,2.41-1.58,3.45-2.17a16.56,16.56,0,0,0-.93-1.88,9.75,9.75,0,0,0-3-2.8Zm68.08,8a8.4,8.4,0,1,0,8.4,8.4A8.4,8.4,0,0,0,246.65,125.93Zm0,3.82a4.58,4.58,0,1,1-4.58,4.58A4.58,4.58,0,0,1,246.65,129.75Zm-217,4.81L13.31,135l.09,3.67,16.34-.39-.09-3.67ZM30.38,148l-16.15,3.42.11.55,9.88,5.8L17.58,167l0,.06.11.53,16.16-3.41-.75-3.58-7.45,1.58L29.37,157l-.11-.47L23.7,153.2l7.44-1.57L30.38,148Zm206.92,3.32L234.83,162l3.62.85,1.64-7,12.3,2.87.84-3.58-15.93-3.71Zm11.84,20.43-18.09.82-.2.5,12.53,13.07,1.5-3.75L238.75,176l8.87-.41,1.52-3.78Zm-24.3,13.82L218.9,195l3.08,1.94,4-6.28,2.31,1.46-3.42,5.41,3.08,2,3.43-5.42,2.28,1.44-4,6.29,3.05,1.93,5.95-9.39-13.82-8.74ZM216.56,203a12.5,12.5,0,0,0-4.7.89,8.84,8.84,0,0,0-2.42,1.71,6.64,6.64,0,0,0-1.75,2.94,5,5,0,0,0,1.36,4.92,4.66,4.66,0,0,0,4.72,1,16.87,16.87,0,0,0,2-.88,11.32,11.32,0,0,1,2.87-1.17c1.5-.09,1.47,2.08-.46,3a10.62,10.62,0,0,1-2.58.78l.46,3.68a11.5,11.5,0,0,0,4.06-1.3,6.27,6.27,0,0,0,3.31-4.93,5,5,0,0,0-1.52-3.73,4.47,4.47,0,0,0-3.66-1.21,13.76,13.76,0,0,0-4.12,1.53c-.58.28-1.19.58-1.5.68a1,1,0,0,1-1-.17,1.29,1.29,0,0,1-.31-1.27,3.94,3.94,0,0,1,2.2-2.26,8.69,8.69,0,0,1,3.07-.52V203Z"/></g></g></svg>