<svg xmlns="http://www.w3.org/2000/svg" viewBox="0 0 246.6 227.16"><defs><style>.cls-1{fill:#002d62;}.cls-2{fill:#007ac1;}.cls-3{fill:#f05133;}.cls-4{fill:#fff;}.cls-5{fill:#fdbb30;}</style></defs><title>oklahoma-city-thunder</title><g id="Layer_2" data-name="Layer 2"><g id="Layer_1-2" data-name="Layer 1"><path class="cls-1" d="M40,95.28l7-3.36L17.4,31.32l7-3.48L21,21,0,31.2l3.36,7,7-3.48Zm15.48-7.56,7.44-2.4-10.44-32,7.44-2.4,10.44,32,7.44-2.4L54.6,9l-7.44,2.4,10.44,32-7.44,2.4L39.6,13.8l-7.44,2.4ZM94.56,1.44l-7.68,1.2L97.44,69.12l-7.68,1.2L79.2,3.84,71.52,5,81.6,68.28a11.66,11.66,0,0,0,23-3.6ZM111,75.12l7.8.12.36-21.72c.24-6.6-.24-20-.6-26.28h.24c2,16.8,5.76,32.4,8.16,48.24l7.44.12L135.72.48l-7.8-.24-.36,21.84c-.24,6.6.24,19.92.6,26.28h-.24c-2-16.8-5.76-32.4-8.16-48.24L112.32,0Zm29.16.48L155.52,78a7.66,7.66,0,0,0,8.86-6.25s0-.07,0-.11l9.36-58.8a8,8,0,0,0-6.48-9L151.8,1.44ZM158.4,10.44l7.68,1.2-9.36,58.8L149,69.24Zm54.72,6-14.76-4.8a7.62,7.62,0,0,0-9.72,4.66l-.12.38L170.16,73.2a7.62,7.62,0,0,0,4.66,9.72l.38.12L190,87.84l2.4-7.44-14.88-4.8,8-24.6,11,3.6,2.4-7.32-11-3.6,8-24.6,14.76,4.8Zm-19.8,73,33-67.68,14,6.84a7.7,7.7,0,0,1,3.7,10.24l-.1.2L231.84,64c-1.56,3.24-4.32,4.56-7.32,3.12l-8.4,33.36-7-3.36,8.28-33.6-2.28-1.08L200.4,92.76Zm36.6-57.12-11.4,23.28L225.6,59,237,35.64Z"/><path class="cls-2" d="M13.8,227.16A365.61,365.61,0,0,1,62.28,191l10.08-5c1.32-.6,4.08-1.92,7.44-3.6,2.4,2.64,4.68,5.16,7.2,7.56C61.44,201.84,37,214.32,13.8,227.16Zm182.28-91.08a368.09,368.09,0,0,1,50.52-7.68c-18.12,5.52-36.6,11.64-55.2,18.48C193.08,143.4,194.52,139.8,196.08,136.08Z"/><path class="cls-3" d="M1.2,176.64A379.91,379.91,0,0,1,56.52,148c.6,1.32,1.32,2.64,2,4-1.08,2.16-2.16,4.44-3.24,6.6C36.72,164.28,18.6,170.28,1.2,176.64Zm202-61.8a396.25,396.25,0,0,1,43.32.6c-15,2.16-30.24,4.56-45.72,7.44C201.6,120.24,202.44,117.6,203.16,114.84Z"/><path class="cls-4" d="M123.84,91c28.2,0,50.28,6.6,75.36,19.08-12.24,46-34.68,77-75.36,102.12-15.24-9.48-28.32-20-39.12-32,4.8-2.28,10.2-4.92,15-7.08,2,.12,3.84.24,5.64.24a8.59,8.59,0,0,1-2.4,6c.84,1,1.56,1.8,2.4,2.64,2.16-1.92,3.48-4.68,3.6-8.64a65.5,65.5,0,0,0,14.16-1.56c-.12,7.32-1.2,12.6-3.24,14.76a.12.12,0,0,0-.12.11h0a13.82,13.82,0,0,1-1.44,1.32c2-.36,4.08-.84,5.88-1.32,2.52-5.16,2.52-14.16,2.52-15.72,4.68-1.2,8.76-2.4,12.48-3.6.12,4.2,1.92,8.16,5.16,9.72,1.44-1.08,2.76-2.16,4.2-3.24-.84.12-5.88.48-5.76-7.68,10.8-4.2,17.88-9,24.12-16.44A62.74,62.74,0,0,0,170.76,138c-7.44,11.76-14.16,18.6-27.6,24a55.68,55.68,0,0,1,2.16-8.52c4-1.68,8-3.6,10.44-4.68l5.88-6.12c1.56-5.64,2.88-11.28,4.32-17l-4.56,1.44,5.4-5.64c1.2-4.44,2.28-8.88,3.36-13.32-2.64.36-5.4.84-8,1.2.48-2.28.72-4.44,1-6.6-1.32-.24-2.64-.72-4-.84a62.48,62.48,0,0,1-1.44,8.16l-.36.12a15.76,15.76,0,0,0-7.32,3.12l.72-2.16c-4.32.72-8.64,1.56-13,2.4l-4.32,4.56.12-.48L135,114c-4.2,1-8.52,1.8-12.84,2.76-.84-5.76-1.8-10.92-2.52-15.12L116,102c.72,4.32,1.68,9.6,2.64,15.48l-3,.72-3.84,4.08c-2.64-2.88-8.16-1.08-11.64-.24-3.72,1-7.44,2-11.16,3a26.17,26.17,0,0,0-3.24,1,95.89,95.89,0,0,1-7.68-12.6l-.36-.84c-1.08.48-2.16.84-3.36,1.44l.48,1a100.58,100.58,0,0,0,7.32,12.48,32.07,32.07,0,0,0-10.92,7.8s-5.28,5.4-5.88,6.12a33.13,33.13,0,0,0-3.48,4.92A179.65,179.65,0,0,1,48.72,110C73.56,97.56,95.64,91,123.84,91Zm2.76,69.72c2.64-1.08,5.16-2.28,7.8-3.36l1.2-1.32a9,9,0,0,0,1.8.12,17.87,17.87,0,0,0,3.6-1,53.06,53.06,0,0,0-1.68,8.28c-3.6,1.32-7.8,2.64-12.48,3.84-.12-2.28-.12-4.32-.24-6.6Zm-18,8.16,2.52-1.2,6.24-5,1.44-3.72c.84,1.8,1.32,2.52,2.28,4.32l2-1V168a61.28,61.28,0,0,1-14.4,1.68Z"/><path class="cls-3" d="M139.08,100.44a140.52,140.52,0,0,1,17.64,1,123,123,0,0,1,13.08,3.36A65,65,0,0,1,172.32,123a69.86,69.86,0,0,1-1.68,15.12C163.2,149.88,156.36,156.6,143,162a55.68,55.68,0,0,1,2.16-8.52c4-1.68,7.92-3.6,10.44-4.56l5.88-6.12c1.44-5.76,2.88-11.4,4.32-17l-4.56,1.44,5.4-5.64c1.08-4.44,2.28-8.88,3.36-13.32-2.64.36-5.4.84-8,1.2.36-2.28.72-4.44,1-6.6-1.32-.36-2.64-.72-4-1a64.58,64.58,0,0,1-1.44,8.28l-.36.12a14,14,0,0,0-7.44,3.12l.84-2.16c-4.44.72-8.64,1.56-13.08,2.4l-4.2,4.44.12-.36,1.44-3.6c-4.32,1-8.52,1.8-12.84,2.76-.84-5.88-1.8-11-2.52-15.24A148.76,148.76,0,0,1,139.08,100.44Zm27.72,49.32a67,67,0,0,1-18.24,24.12c-.84.12-6,.48-5.88-7.68,10.8-4.2,17.88-9.12,24.12-16.44Zm-22.56,27.36a64.15,64.15,0,0,1-20,9.6c2.4-5.16,2.52-14.16,2.52-15.72,4.56-1.2,8.64-2.4,12.48-3.6.12,4.2,1.8,8.28,5,9.72ZM118.32,188c-2,.36-4.2.6-6.24.84-2.28-2.28-4.56-4.68-6.72-7,2.16-1.92,3.48-4.68,3.6-8.64a65.5,65.5,0,0,0,14.16-1.56c-.12,7.32-1.2,12.6-3.24,14.76a.12.12,0,0,0-.12.11h0L118.32,188ZM103,179.28c-1.56-1.8-3.12-3.72-4.56-5.64l1.32-.6c2,.12,3.84.24,5.64.24a9.19,9.19,0,0,1-2.4,6ZM74.4,132A161,161,0,0,1,69,116.28c1.68-.84,3.36-1.56,5.16-2.28l.36,1A101.44,101.44,0,0,0,82,127.44,30.16,30.16,0,0,0,74.4,132Zm3-19.44A160.39,160.39,0,0,1,115.8,102c.72,4.32,1.68,9.6,2.52,15.48l-3,.72-3.72,4.08c-2.76-2.88-8.28-1.08-11.64-.24-3.72,1-7.44,2-11.16,3a26.17,26.17,0,0,0-3.24,1A95.09,95.09,0,0,1,78,113.4Zm49.2,48.12c2.64-1.08,5.16-2.28,7.8-3.36l1.2-1.32a9,9,0,0,0,1.8.12,20.33,20.33,0,0,0,3.6-1,41.8,41.8,0,0,0-1.68,8.28c-3.72,1.32-7.8,2.64-12.6,3.84C126.72,165,126.72,163,126.6,160.68Zm-18,8.16,2.52-1.2,6.24-5,1.44-3.72c.84,1.8,1.32,2.52,2.28,4.32l2-.84v5.76a68.41,68.41,0,0,1-14.4,1.68Z"/><path class="cls-5" d="M125.16,204.48A156.85,156.85,0,0,1,93.24,176l5.16-2.4c1.56,1.92,3.12,3.84,4.68,5.64a25.06,25.06,0,0,0,2.4,2.64,153.82,153.82,0,0,0,22.68,20.52A34.39,34.39,0,0,1,125.16,204.48ZM68.52,137.64a170.22,170.22,0,0,1-8.76-23.88,163.37,163.37,0,0,1,65.52-15.84,162.1,162.1,0,0,1,31.44,3.36,173.28,173.28,0,0,0-17.64-1,150.58,150.58,0,0,0-19.68,1.2c-1.2.12-2.4.36-3.6.48a159.92,159.92,0,0,0-38.4,10.44c-1.08.48-2.28,1-3.36,1.44-1.68.72-3.36,1.56-5,2.4A142.21,142.21,0,0,0,74.28,132c-1.08,1-2.28,2-3.36,3.12Z"/><path class="cls-1" d="M42.6,107.28C69.6,93.48,93.24,85.8,124,85.8s54.36,7.68,81.36,21.48c-12.6,50.52-36.6,84.12-81.48,111-16.92-10.2-31.68-22.08-43.92-35.88-3.36,1.68-6.12,3-7.56,3.72-4.2,2.16-8.4,4.2-12.6,6.36-4.8,2.4-10.08,6.12-15.6,4.68-6-2.64-2-10-.24-14,4.68-10.44,9.6-20.88,14.64-31.2A155.88,155.88,0,0,1,44.4,114.6ZM123.84,91c-28.2,0-50.28,6.6-75.36,19.08a173.7,173.7,0,0,0,13.08,36.12,34.67,34.67,0,0,1,3.6-4.92c.6-.6,5.76-6.12,5.76-6.12a33.11,33.11,0,0,1,11-7.8,93,93,0,0,1-7.44-12.48l-.36-1c1.08-.48,2.16-1,3.36-1.44l.36.84A96.42,96.42,0,0,0,85.44,126c1.08-.36,2.16-.72,3.36-1.08C92.52,124,96.12,123,100,122c3.36-1,8.88-2.76,11.52.12l3.84-4.08,3-.6c-1-6-1.8-11.28-2.64-15.48,1.2-.12,2.4-.36,3.6-.48.72,4.2,1.68,9.48,2.52,15.12,4.32-.84,8.52-1.8,12.84-2.64l-1.44,3.6-.12.36,4.32-4.56c4.32-.72,8.52-1.56,13-2.4l-.72,2.28A15.31,15.31,0,0,1,157,110h.36a64.59,64.59,0,0,0,1.56-8.28c1.32.24,2.64.6,3.84.84a39.78,39.78,0,0,1-1,6.6c2.76-.36,5.4-.72,8.16-1.2-1.2,4.44-2.28,9-3.36,13.44l-5.4,5.64,4.56-1.44c-1.56,5.64-3,11.28-4.32,17l-5.88,6.12c-2.52,1.08-6.6,3-10.44,4.56a59.4,59.4,0,0,0-2.16,8.52c13.32-5.4,20.16-12.24,27.6-23.88a66.54,66.54,0,0,1-4,11.64c-6.24,7.32-13.2,12.24-24.12,16.32-.12,8.28,5.16,7.92,5.88,7.68a29,29,0,0,1-4.32,3.24c-3.24-1.44-4.92-5.52-5-9.72-3.72,1.32-7.8,2.4-12.48,3.6-.12,1.56-.12,10.56-2.52,15.72a59.41,59.41,0,0,1-5.88,1.32,13.71,13.71,0,0,0,1.32-1.32l.12-.12c2.16-2.16,3.12-7.44,3.36-14.76a76.69,76.69,0,0,1-14.16,1.68c-.12,4-1.44,6.72-3.6,8.52-.84-.84-1.56-1.68-2.4-2.52a9.38,9.38,0,0,0,2.28-6c-1.68-.12-3.6-.24-5.52-.36-4.8,2.28-10.32,4.92-15.12,7.08a176.86,176.86,0,0,0,39.24,32c40.68-25.08,63-56,75.24-102.12C174.12,97.56,152,91,123.84,91Zm2.76,69.72c.12,2.28.12,4.32.12,6.48,4.8-1.2,8.88-2.4,12.6-3.72A44.49,44.49,0,0,1,141,155a20.33,20.33,0,0,1-3.6,1,4.55,4.55,0,0,1-1.8,0l-1.2,1.2c-2.64,1.2-5.16,2.4-7.8,3.48Zm-18,8.16.12.84a61.28,61.28,0,0,0,14.4-1.68v-5.76l-2,1c-1-1.8-1.32-2.52-2.28-4.32l-1.44,3.72-6.24,5Z"/><path class="cls-4" d="M89.16,127.08c-6.36,1.8-12,4.44-16.56,9.48a46.79,46.79,0,0,0-6.24,9.84c-5,10.44-10,20.88-14.64,31.32-1.2,2.76-4.92,9.36-1,11.16,4.44,1.08,10-2.64,13.8-4.56,4.2-2.16,8.52-4.32,12.72-6.36,7.2-3.6,13.68-7.92,18.12-14.88a94.34,94.34,0,0,0,4.32-9.36c2.76-6.84,5.52-13.56,8.4-20.28,1.08-2.64,3-5.76,2.4-8.52-1.2-3.72-7.56-1.44-10.2-.72Zm-8,38.76c-3.36,1.56-6.6,3-10,4.56q7.2-16.74,15.12-33.48c2.88-.84,5.88-1.92,8.88-2.76Q87.78,150,81.12,165.84Zm57.48-50.4c-4.68,6.12-9.24,12.24-13.8,18.36,2.16-5.52,4.32-11.16,6.48-16.8-4.8,1-9.72,2-14.4,3.12-1.32,2.88-2.52,5.76-3.72,8.76a26.19,26.19,0,0,1,3-.84c-3.72,9.12-7.44,18.24-11,27.48-1.56,3.72-3,7.56-4.44,11.28,4.8-2.28,9.72-4.56,14.52-6.72,2.16-6.12,4.32-12.12,6.6-18.24,2,4.2,4.08,8.28,6.12,12.36,3.12-1.32,6.24-2.76,9.36-4.08l-5.76-13c3.48-5.28,7-10.56,10.44-15.72,1-.24,2-.36,3-.6.84-2.28,1.56-4.56,2.28-6.84Zm18.72-3.12a12.91,12.91,0,0,0-7,3.24,15.54,15.54,0,0,0-3.12,5.88c-2,6.48-4.08,13-6.24,19.44-.84,2.52-2.16,7.2,1.92,7A16.38,16.38,0,0,0,147,146.4c4.2-1.8,8.4-3.48,12.6-5.16,1-4.08,2-8.16,3.12-12.24-2.16.6-4.32,1.32-6.6,2-.6,1.92-1.08,3.72-1.56,5.64-1.56.48-3.12,1.08-4.56,1.56,1.92-6.6,3.72-13.08,5.76-19.68,1.32-.36,2.64-.6,4-1a29.86,29.86,0,0,1-1,3.48l6-1.44c.72-2.88,1.44-5.88,2.16-8.88C163.8,111.24,160.56,111.84,157.32,112.32Z"/><path class="cls-2" d="M174.84,106.2c1.92.72,3.84,1.32,5.76,2,4.56,1.8,8.64,3.48,12.12,5.16a161.43,161.43,0,0,1-62.16,87.48l-2.4,1.68A162.14,162.14,0,0,1,114,190.68l4.2-.6a67.78,67.78,0,0,0,55.56-77.76l-.36-1.44-.12-.48-.12-.12-.48-1.68-.12-.24-.12-.48-.12-.12v-.24a10.38,10.38,0,0,0-.6-2Q173.3,105.77,174.84,106.2Zm.36.48c1.8.6,3.72,1.32,5.52,1.92-1.8-.6-3.72-1.32-5.52-1.92Z"/></g></g></svg>