<svg xmlns="http://www.w3.org/2000/svg" viewBox="0 0 274.32 198.85"><defs><style>.cls-1{fill:#c2ccd2;}.cls-2{fill:#fff;}.cls-3{fill:#0b77bd;}</style></defs><title>orlando-magic</title><g id="Layer_2" data-name="Layer 2"><g id="Layer_1-2" data-name="Layer 1"><path class="cls-1" d="M110.76,138.49c14.64-2.28,29.4-1.56,42.24,3.84l1.56-3.48c-20.76-6.6-47-6.36-66.36,4.32l5.52-12.84c-24.6,6.6-40.92,20.52-57.6,34.68,12.12-28.56,38.4-52,68-60.6l-1.44,4.8c26-8.52,54.6-10.2,77.64-6.36L175,95.77l13.32,3.48,8.52-12.84,3.36,15.84,13.08,4.2s-9.48,4-9.12,4.2c49.44,20.28,33.6,88-13.32,88.2-23.76.24-42.24-21.24-41.4-43.68C137.16,147.25,125.16,143.41,110.76,138.49Z"/><path class="cls-1" d="M101.4,48.37v-.12a7.08,7.08,0,0,1,2.4-4.68,8.83,8.83,0,0,1,4.56-1.44s1.44-.12,2.76-.12l4.32-.36v30.6l-3.72.24c-2.28.12-3.6.24-6.12.36l-4.2.36Zm-20.76-.84a20.56,20.56,0,0,1,4.68-13.68,19.93,19.93,0,0,1,13.08-6c10.08-.84,20.28-1.44,30.36-1.68l7.44-.12v85.8l-.12,7.32-7.44-.12c-1.32,0-11.28.36-13.08.36h-.24l-7.92.84V120l-5,.24c-.72,0-12.72,1.2-13.2,1.32L80.64,123Z"/><path class="cls-1" d="M264.72,139.09s-10-3.12-11.4-3.48c-.12,0-.12,0-.12-.12-4.56-1.32-8.64-2.4-11.52-3.24l-5.28-1.32a20.1,20.1,0,0,1-16.68-20.88V54.25c0-5.4,1.68-10.44,5.64-13.56a13.92,13.92,0,0,1,9-2.88,27.56,27.56,0,0,1,5.28.6c.72.24,2.64.72,5.76,1.56s6.84,2,10.68,3.12c7.68,2.16,15.24,4.32,15.24,4.32l2.88.84V86.17L250,78.61l-.36-2.4s-.72-4.44-1.44-8.52v42.48l.12.24s-.12.12.72.36c0,0,1.56.36,2.52.6.72-2.76,1.44-5.76,1.44-5.76l1-4.2,20.28,6,.12,34.32Z"/><path class="cls-1" d="M.12,59.17A14.65,14.65,0,0,1,4.56,49,19.88,19.88,0,0,1,12,44.17c11.16-3.6,27-6,27.72-6.12l4.2-.6a20.35,20.35,0,0,1,5.88-2.28c5.4-1.08,22.08-4.2,22.8-4.32l8.64-1.68v87.24l-.12,6.48-6.48.72c-.48,0-12.6,2.16-13.2,2.28l-9,2V113.77l-25.08,6v14.28l-5.52,1.32c-.12,0-1.92.6-3.84,1.2s-4.32,1.32-6,1.8a9.9,9.9,0,0,0-2,.72l-10,3.6V59.17Z"/><path class="cls-1" d="M211.2,125.65H211c-.12,0-.24-.12-.36-.12a10.38,10.38,0,0,1-1.56-.36,35.07,35.07,0,0,1-4.32-.72c-3-.48-6.24-1.08-6.48-1.08l-3-.24-3.48-.36V30l7.92.6c.84.12,2.52.36,5,.84s5.28.84,7.2,1.2a20.13,20.13,0,0,1,2.88.48l5.52,1.44v93Z"/><path class="cls-1" d="M183,121.45c-.84-.12-5.88-.6-11-1.08s-10.44-.72-14-1l-3.72-.12c-5.4-.24-10.08-1.92-13.44-5.28s-4.92-8.16-4.92-13.56V42.37c0-4.56,1.32-8.88,4.56-11.88,4-3.72,8.76-4.08,11.76-4.08h3.24c1,0,2.28.12,4.2.24h2.16l-.12.12c2.16.12,4.68.36,8.16.6,11.28.84,14.28,1.2,16,1.56a6.13,6.13,0,0,1,1.56.48l4.2,2V61.69l-24-3.12-.6-2.76s-.6-3-1.2-5.76h-1.08L164.76,61v2.4h1.68a18.07,18.07,0,0,1,3.12.24c1.44.12,3.24.24,5,.36,3.72.36,7.8.84,9.84,1.08a5,5,0,0,1,1.44.12l5.76,1.32-.12,56.64Z"/><path d="M107,67.21a23.14,23.14,0,0,1,2.88-.24V47.53a9.91,9.91,0,0,1-1.08.12q-1.26,0-1.44.36c-.24.12-.24.12-.36.6ZM83,47.53C82.92,37.81,88.92,31,98.76,30.25s20.16-1.44,30.24-1.68l4.92-.12v88.32l-5-.12c-1.32,0-12.72.36-13.56.6l-5.4.48V85.21a23.14,23.14,0,0,0-2.88.24v27.72l-.12,4.68-4.56.12c-1,0-12.6,1.2-13.44,1.44l-5.76.84Z"/><path d="M265.56,136.81s-8.76-2.76-11.16-3.36c-.24-.12-.36-.12-.48-.24-4.92-1.44-9.36-2.64-12.36-3.36l-4.68-1.2c-9.48-2.16-14.88-9-14.76-18.6V54.37c0-5.16,1.44-9.12,4.68-11.76a12,12,0,0,1,7.44-2.4,22.77,22.77,0,0,1,4.8.6c1.56.36,31.56,9,31.56,9l1.2.24V82.93L252,76.81l-.12-1s-1.56-9.6-2.16-13.68c-1.2-.36-2.16-.6-2.76-.72l-.6-.24-.6-.24v49.2a2.39,2.39,0,0,0,.36,1.32,3.13,3.13,0,0,0,2.16,1.56s2.64.72,5,1.32c.72-3.24,1.8-8.16,1.8-8.16l.48-1.68,16.2,4.92v29.28Z"/><path d="M2.52,59.17c.24-7.08,6.24-11.4,10.2-12.72,10.92-3.48,26.64-5.88,27.48-6l4.68-.84a19.88,19.88,0,0,1,5.52-2.16c5.4-1.08,22-4.2,22.8-4.44l5.76-1v84.24l-.12,4.32-4.32.6c-1,0-12.6,2-13.44,2.28L55,124.81V56.65h-.12c-1.68.48-2,.84-2.4,2.76v51.84l-23.76,5.64V62.53a.58.58,0,0,1-.36.12,5.46,5.46,0,0,0-2.4,1.08,1.73,1.73,0,0,0-.72,1.68v62.76L25.08,132l-3.72.84c-.84.24-11.28,3.48-12,3.72l-6.72,2.52V59.17Z"/><path d="M211.68,123.25c-.84-.24-12.48-2.16-13.32-2.28l-3-.24-1.44-.12v-88l5.4.48c1.32.12,13.44,2.16,14.76,2.52l3.72,1v88Z"/><path d="M162.36,97.57a6.73,6.73,0,0,0,.24,1.08c.12.12.36.36,1.56.48a8.13,8.13,0,0,1,1.2.12V82.69a19.55,19.55,0,0,0-2.16-.12l-.84-.12Zm21,21.48c-2.28-.48-18-1.68-25.2-2l-3.84-.24c-4.92-.12-9-1.68-11.76-4.56s-4.2-7-4.2-11.76V42.37c0-4.2,1.2-7.68,3.72-10.2,3.24-3,7.44-3.36,10.2-3.36h3.12c2,0,5.88.36,14.16,1,11.4.84,14.4,1.2,15.84,1.44a7.89,7.89,0,0,1,1,.36L189.24,33v26l-19.68-2.64-.24-1.08s-1-4.68-1.56-7.56h-1.08l-3.12-.24h-.48a1.27,1.27,0,0,0-.72.12V66l4.08-.12h.12c1,0,5.28.36,9.6.72s8.4.84,9.36,1l3.84.84-.12,51.84Z"/><path class="cls-2" d="M112.56,44.77V69.49c-2,.12-6,.36-8.28.48V48.37c.24-1.44.72-3.12,4.32-3.36C108.6,45,110.76,44.77,112.56,44.77ZM129,32.05v-.84c-10.08.24-20,.72-30,1.56-8.52.84-13.32,6-13.2,14.64V117l2.52-.48c.84-.12,13.08-1.32,13.8-1.44h2V82.69c2-.12,6-.48,8.28-.6v32.52l2.52-.24c.6-.12,12-.6,13.68-.6h.12l1.44.12H131V31.21h-2.28Z"/><path class="cls-2" d="M269.16,111.37,257.64,108l-.12.84s-1.44,6.24-2,9c-4.56-1.32-6.6-1.92-7.68-2.16a6.05,6.05,0,0,1-4-2.88,7.16,7.16,0,0,1-.72-2.64V60.61a4.35,4.35,0,0,1,.48-1.8c.24-.36.6-.48,1.32-.48a8.17,8.17,0,0,1,1.56.24h.24c.12,0,2,.6,5.4,1.56.48,2.88,2.28,14,2.28,14v.6L269,79.21v-27l-.6-.24s-28.56-8.16-30.12-8.4a17.52,17.52,0,0,0-4.2-.6,9.1,9.1,0,0,0-5.76,1.8c-2.52,1.92-3.72,5.28-3.72,9.6v55.68c-.12,8.4,4.32,13.92,12.6,16h.48c1,.24,8.88,2.4,16.8,4.56l11.64,3.6,2.76.84Z"/><path class="cls-2" d="M50.88,40.21a15.51,15.51,0,0,0-7.8,4.2v-1.8L40.56,43c-.72.12-16.44,2.64-27,6-3.36,1.2-8.16,4.92-8.28,10.2v76.2l3-1.2c.6-.24,11.64-3.6,12.36-3.84l1.08-.24.6-.12V65.41c0-3.24,3-4.68,5-5.4a36,36,0,0,1,3.84-.72v54.24l18.36-4.32v-50c.48-3,1.8-4.44,4.56-5.16h0c.48-.12,2-.36,3.48-.6v68.16l2.76-.72c.6-.12,13-2.28,13.8-2.28l1.2-.12h.84V35.29l-2.64.48S56.28,39,50.88,40.21Z"/><path class="cls-2" d="M199.08,35.77l-1.56-.12-.84-.12v82.56l.72.12,1.32.12c.6.12,13,2,13.68,2.28l2.76.6V38.53l-1.68-.48C212.4,37.81,200.16,35.77,199.08,35.77Z"/><path class="cls-2" d="M166.56,68.41h-.12l-1.32.12h-.72V80.05h.72s1.68.12,2.88.24v22c-1.8-.24-4.08-.36-4.08-.36A4.37,4.37,0,0,1,160.2,100a5.43,5.43,0,0,1-.6-2.4V47.65a3.17,3.17,0,0,1,.6-2,3.52,3.52,0,0,1,2.76-.84h1c.36,0,2.4.12,6,.48.48,2.16,1.8,8.16,1.8,8.16l.12.48,14.76,1.92V34.57l-1.32-.6c-.6-.24-1.2-.48-16-1.56-8.76-.72-12.48-1-14.16-1h-3c-2.4,0-5.76.36-8.16,2.64-2,1.92-3,4.68-3,8.28v58.08c0,8.4,4.8,13.44,13.32,13.68h.48c2.16,0,25.8,1.68,29,2.28l2.64.48.12-46.44-1.8-.36C183.6,69.85,168.24,68.41,166.56,68.41Z"/><path class="cls-3" d="M266.88,113.05l-7.68-2.28-2.28,10c-4.92-1.56-10-2.88-10-2.88a8.13,8.13,0,0,1-5.28-4.08,8,8,0,0,1-1-3.6V60.61a5.33,5.33,0,0,1,1-3.12c.72-1,2.28-2,5.28-1.08a72.43,72.43,0,0,1,7.08,2L256.32,73l10.44,3.24V53.89S239.16,46,238,45.61c-7.32-1.8-11,1.2-11,8.76v55.68c0,7.56,3.72,12,11,13.8,0-.12,9.24,2.4,17.16,4.68L266.88,132Zm-226-59.52V45.25s-16.08,2.52-26.64,6c-2.76.84-6.72,4-6.72,8v73c.84-.36,11.76-3.72,12.6-4V65.53c0-4.44,3.6-6.6,6.72-7.56,1.68-.48,6.72-1.2,6.72-1.2v54l13.92-3.36V59.05c.48-3.84,2.52-6.36,6.24-7.2,3.6-.6,6.24-1,6.24-1v67.8c.72-.24,13.2-2.28,14-2.4V37.93s-17.28,3.24-22.68,4.32A13.91,13.91,0,0,0,40.92,53.53Zm157.92,62.64c1,0,13.08,2,13.92,2.28V40.33c-.84-.24-13.08-2.28-13.92-2.28ZM88,47.53v66.84c1-.12,13.2-1.32,14.16-1.32V80.65c4.2-.36,8.4-.6,12.6-.84v32.4c1-.12,13.44-.6,14.28-.6V33.37c-10,.24-19.92.84-29.88,1.68C91.8,35.77,88,40.09,88,47.53Zm14.16.84c.12-1.56,1-5.16,6.24-5.52,2.16-.24,4.2-.36,6.36-.48V71.65c-4.2.24-8.52.6-12.72.84V48.37ZM166.56,78c.84,0,3.72.24,3.72.24v26.28c-2.16-.12-4.32-.36-6.48-.48-3.12-.24-4.68-1.68-5.4-3a6.72,6.72,0,0,1-.84-3.48V61c0-7-.12-12.12-.12-12.6v-.72a5.55,5.55,0,0,1,1.2-3.48c1.08-1.2,2.88-1.8,5.28-1.56,0-.12,3.6.24,7.92.6L173.76,52l10.68,1.44V36.13c-.84-.36-29.76-2.64-29.76-2.28h-.48c-2.4-.12-6.12-.24-8.52,1.92-1.56,1.44-2.28,3.72-2.28,6.72v58c0,7.44,3.72,11.16,11.28,11.52,0-.24,26,1.56,29.76,2.28,0-.84.12-41,.12-41.88-1-.12-16.92-1.68-17.76-1.68V78Z"/><path class="cls-3" d="M40.92,53.53V45.25s-16.08,2.52-26.64,6c-2.76.84-6.72,4-6.72,8v73c.84-.36,11.76-3.72,12.6-4V65.53c0-4.32,3.6-6.6,6.72-7.56,1.68-.48,6.72-1.2,6.72-1.2v54l13.92-3.36V59.05a7.79,7.79,0,0,1,6.24-7.2c3.6-.6,6.24-1,6.24-1v67.8c.72-.24,13.2-2.28,14-2.4V37.93s-17.28,3.24-22.68,4.32A13.91,13.91,0,0,0,40.92,53.53Zm157.92,62.64c1,0,13.08,2,13.92,2.28V40.21c-.84-.24-13.08-2.16-13.92-2.28ZM166.56,78c.84,0,3.72.24,3.72.24v26.28c-2.16-.12-4.32-.36-6.48-.48-3.12-.24-4.68-1.68-5.4-3a7.22,7.22,0,0,1-1-3.48V61c0-7-.12-12.12-.12-12.6v-.72a5.55,5.55,0,0,1,1.2-3.48c1.08-1.2,2.88-1.8,5.28-1.56,0-.12,3.6.24,7.92.6L173.64,52l10.68,1.44V36.13c-1-.36-29.76-2.64-29.76-2.28H154c-2.16-.12-6-.24-8.4,1.92-1.56,1.44-2.28,3.72-2.28,6.72v58c0,7.32,3.72,11.16,11.28,11.52,0-.24,26,1.56,29.76,2.28V72.37c-.84-.12-16.8-1.68-17.76-1.68Z"/><path d="M89.52,22.21a.44.44,0,0,1-.24.36c-.12.24-.48.36-1,.48a5.55,5.55,0,0,0-1.8.36h-.24c-.24,0-.24-.12-.24-.12a.12.12,0,0,0-.12-.12h0V9.49s0-.12.24-.36a1.69,1.69,0,0,1,1-.48c.48,0,1.08-.24,1.56-.24.12,0,.24-.12.36-.12a.48.48,0,0,1,.36.12.12.12,0,0,1,.12.11h0Zm4.8-16.8a2.39,2.39,0,0,0-1.44-1,2.51,2.51,0,0,0-1.32-.24,9.06,9.06,0,0,0-1.8.24c-1.44.24-3,.6-4.44.72a8,8,0,0,0-2.88,1.08,4.49,4.49,0,0,0-1.32,1.32,4.91,4.91,0,0,0-.6,2.28V24.37a3.17,3.17,0,0,0,.6,2,2.39,2.39,0,0,0,1.44,1h1.08c.72,0,1.32-.12,1.92-.12,1.56-.36,3-.6,4.56-.84a16.23,16.23,0,0,0,2.88-1,6.88,6.88,0,0,0,1.32-1.32,3.68,3.68,0,0,0,.6-2.16V7.45A2.77,2.77,0,0,0,94.32,5.41Z"/><path d="M162.72,2.53a3.12,3.12,0,0,0-1.32-1.2,8.2,8.2,0,0,0-3-.72c-3-.24-6-.36-8.88-.36h-1v22h.84c1.32.12,2.64.12,4,.24h.84V4c.6,0,1.2.12,1.8.12,2.16.24,1.8,1,1.92,1.08v17.4h.72l3.84.36.84.12V4.57A2.6,2.6,0,0,0,162.72,2.53Z"/><path d="M175.44,20.41a6.07,6.07,0,0,1-.84.12.9.9,0,0,1-.6-.12,11.6,11.6,0,0,1-2-.24V5.65c.6,0,1.2.12,1.8.12a4.08,4.08,0,0,1,1.44.48c.36.24.48.36.48,1v12.6C175.56,20.29,175.56,20.29,175.44,20.41ZM180.6,4.57a5,5,0,0,0-1.44-1.32,6.8,6.8,0,0,0-2.88-.84c-1.2-.24-7.32-1-8.88-1.08l-1-.12v22.2h.72L176,24.49a5.85,5.85,0,0,0,1.32.12,5.52,5.52,0,0,0,1.56-.24,3.51,3.51,0,0,0,1.56-1,3.6,3.6,0,0,0,.72-2.16V6.73A4.44,4.44,0,0,0,180.6,4.57Z"/><path d="M106.92,10.69a1.18,1.18,0,0,1-.24.72,7.19,7.19,0,0,1-1.56.6,6.81,6.81,0,0,0-1.68.24V6a10.29,10.29,0,0,0,1.92-.24h.84c.48,0,.72,0,.72.12s0,0,.12.24V9.85A2.94,2.94,0,0,0,106.92,10.69Zm5.64,11.88V15.25a2.36,2.36,0,0,0-1.08-2c-.12,0-.12-.12-.36-.12a2.78,2.78,0,0,0,1.32-2.28V5.17A3.57,3.57,0,0,0,111.72,3a3.06,3.06,0,0,0-1.44-1,6.85,6.85,0,0,0-1.8-.24,4,4,0,0,0-1.2.12L98.52,3l-.72.12V25.21l1-.12a35.33,35.33,0,0,1,3.84-.48l.72-.12V15.85a12.29,12.29,0,0,0,1.92-.24H106a1.12,1.12,0,0,1,.84.24c.12,0,.12.12.12.48V24l1.08-.12,3.72-.36.84-.12Z"/><path d="M127.92,17.65V14.77h-.84l-3.36.24-1.32,4H121V.61h-1L116.16,1h-.84v22.2l1-.12c3.6-.24,7.32-.48,10.92-.6h.72Z"/><path d="M139.92,10.21H136.2V4.45c0-.12,0-.24.24-.48a3.38,3.38,0,0,1,1.68-.36h1.8ZM144.72,0h-9a7.33,7.33,0,0,0-3,.48,4.51,4.51,0,0,0-1.44,1.08,3.67,3.67,0,0,0-.72,2.28V22.21h1c1.2,0,2.52-.12,3.84-.12h.84V13.81h3.72V22h.84c1.2,0,2.64,0,3.84.12h1V0Z"/><path d="M192.72,23.17h0v.12a.58.58,0,0,1-.36.12.48.48,0,0,1-.36-.12,7.8,7.8,0,0,0-1.8-.24c-.48-.12-.84-.36-.84-.6a.37.37,0,0,1-.12-.24V8.41h.84l1.56.36a1.77,1.77,0,0,1,1,.36.42.42,0,0,1,.12.48Zm4.92-15.48a3.49,3.49,0,0,0-1.32-1.32,8.13,8.13,0,0,0-2.88-1.2c-1.44-.24-3-.6-4.44-.84a7.88,7.88,0,0,0-1.68-.12,4.2,4.2,0,0,0-1.32.12,3.22,3.22,0,0,0-1.56.84,4,4,0,0,0-.72,2.28V22a3.68,3.68,0,0,0,.6,2.16,4.74,4.74,0,0,0,1.32,1.32,11.61,11.61,0,0,0,2.88,1c1.56.24,3,.48,4.44.84a12.29,12.29,0,0,0,1.92.24,3.29,3.29,0,0,0,1.08-.12,2.52,2.52,0,0,0,1.56-.84,3.27,3.27,0,0,0,.6-2.16V9.85A4.74,4.74,0,0,0,197.64,7.69Z"/><polygon class="cls-2" points="105.96 127.81 108.72 126.49 111.12 128.53 110.64 125.53 113.28 123.97 110.28 123.37 109.56 120.37 108.12 123.13 105.12 122.77 107.28 125.05 105.96 127.81"/><path d="M199.2,110.65c2.76-1.2,7.8-3.36,7.8-3.36l.36-.12-.36-.12s-8.16-2.76-9.84-3.24c-.36-1.92-1.56-10.8-1.56-10.8l-.12-.36-3,4.8s-1.68,2.76-2.64,4.2c-1.92-.6-10.32-2.64-10.32-2.64l-.48-.24.36.48s3.36,4.32,5.4,7.08a133.17,133.17,0,0,0-29.4-2.88c-3.72,0-7.56.12-11.64.36a162.58,162.58,0,0,0-44.76,9l1.68-5-.36.12C77.76,115,53,136.21,42.12,157.09l.24.12c15.36-14.4,36.36-26,55.08-30.24l-4.92,11.4.36-.12c8.64-4.2,20.16-6,31.68-6,11.88,0,23.76,1.92,33,5.28l-3.48,7.68c-8.4-3.84-20.52-6.36-30.72-6.36-1.8,0-3.48,0-5.16.12v.36c12,3.36,24.24,7.2,34.08,15a17.65,17.65,0,0,0-.12,2.52c0,20.52,17.76,39.24,38.76,39.24h.48c22.92-.24,40.08-21.36,40.08-43.44C231.36,136.57,222.12,119.89,199.2,110.65Z"/><path class="cls-1" d="M186.6,148.45c-8.4,0-17-3.12-25.56-6.24a34.48,34.48,0,0,0-3.36,14.88,31.63,31.63,0,0,0,1,8.16h2.16a96.77,96.77,0,0,0,48.12-13,82.1,82.1,0,0,0-5.76-8.64A30.28,30.28,0,0,1,186.6,148.45Z"/><path class="cls-1" d="M160.2,168.37h-.6c5.16,13.44,17,22.2,31.44,22.44,4.68-11.4,9.72-23.76,21.48-29.64-.6-1.92-1.32-4-2.16-6A99.6,99.6,0,0,1,160.2,168.37Z"/><path class="cls-1" d="M195.84,126.61A40.13,40.13,0,0,0,187.2,124c-1.44.24-3.48.36-5,.6,8.76,3.48,15.24,7.68,21.6,15a31.94,31.94,0,0,0,8.28-9.24c-5.88-5.76-17-12.84-45-15,11.76,2.76,22.56,6.6,28.92,11Z"/><path class="cls-1" d="M117.72,122.65h5.52c19.8,0,50.28,2.28,62.16,16.32l-.24.24c-4.08-2.16-12.24-6-17.4-6h-.36a40.92,40.92,0,0,0-4.8,6.24c7.92,3,16,5.88,23.88,5.88a27.67,27.67,0,0,0,14.88-4.08c-13.8-15-37-21.6-58.92-21.6A108.92,108.92,0,0,0,117.72,122.65Z"/><path class="cls-1" d="M211.32,150.73a48.31,48.31,0,0,0,10.2-8.88,35.06,35.06,0,0,0-7.56-9.6,34.18,34.18,0,0,1-8.4,9.72A51.94,51.94,0,0,1,211.32,150.73Z"/><path class="cls-1" d="M194.4,190.69a34.77,34.77,0,0,0,18.72-7.8,36.14,36.14,0,0,0,1.2-9.48,45.28,45.28,0,0,0-.84-9C202.92,169.45,198.6,180.49,194.4,190.69Z"/><path class="cls-1" d="M217.32,175.45v3.12a37.21,37.21,0,0,0,7.44-17.4A43.68,43.68,0,0,0,216,163,55.08,55.08,0,0,1,217.32,175.45Z"/><path class="cls-1" d="M212.88,153.61c.84,2,1.68,4.2,2.52,6.36a44.55,44.55,0,0,1,9.72-1.8v-.72A33,33,0,0,0,223,145.21,61.41,61.41,0,0,1,212.88,153.61Z"/><path class="cls-1" d="M225.12,158.17a45.62,45.62,0,0,0-9.84,1.8,58,58,0,0,0-2.52-6.36,63.65,63.65,0,0,0,10.2-8.4,39.25,39.25,0,0,1,2.16,12.24Z"/><path class="cls-1" d="M214,132.13a37.8,37.8,0,0,1,7.56,9.72,51.42,51.42,0,0,1-10.2,8.76,82.1,82.1,0,0,0-5.64-8.64A34.53,34.53,0,0,0,214,132.13Z"/><path class="cls-1" d="M167.16,115.21c27.84,2.16,39,9.36,45,15a32.09,32.09,0,0,1-8.28,9.24,54.31,54.31,0,0,0-21.6-14.88,37.16,37.16,0,0,1,4.92-.72,66.89,66.89,0,0,1,8.76,2.64l.12-.24C189.72,121.81,178.92,118,167.16,115.21Z"/><path class="cls-1" d="M160.8,165.25h-2.16a32.55,32.55,0,0,1-1-8.28A34,34,0,0,1,161,142.21c8.52,3.12,17,6.24,25.56,6.24a31.3,31.3,0,0,0,16.56-4.8,50.77,50.77,0,0,1,5.76,8.52A96.94,96.94,0,0,1,160.8,165.25Z"/><path class="cls-1" d="M191,190.81c-14.4-.24-26.28-9-31.44-22.44h.6a99.94,99.94,0,0,0,50.16-13.2,50.42,50.42,0,0,1,2.16,6C200.76,167.05,195.6,179.41,191,190.81Z"/><path class="cls-1" d="M217.32,178.57v-3.12A55.08,55.08,0,0,0,216,163a41.56,41.56,0,0,1,8.76-1.8A36.2,36.2,0,0,1,217.32,178.57Z"/><path class="cls-1" d="M201.36,141.25a27.26,27.26,0,0,1-14.76,4.08c-8,0-16.08-2.88-23.88-5.88a39.55,39.55,0,0,1,4.68-6.24h.48c5,0,13.32,3.72,17.4,6l.24-.24c-11.88-14-42.36-16.32-62.16-16.32h-5.64a103.35,103.35,0,0,1,24.84-2.88C164.4,119.77,187.68,126.25,201.36,141.25Z"/><path class="cls-1" d="M213.12,182.89a34.77,34.77,0,0,1-18.72,7.8c4.2-10.2,8.52-21.24,19-26.28a45.32,45.32,0,0,1,1,9A36.14,36.14,0,0,1,213.12,182.89Z"/><polygon class="cls-1" points="185.52 113.65 191.64 111.61 196.2 116.77 195.72 109.93 201.6 107.41 195.12 105.25 194.16 98.53 190.8 104.05 184.32 102.37 188.64 107.89 185.52 113.65"/><polygon class="cls-2" points="153.36 118.57 157.56 116.41 161.04 119.65 160.32 114.97 164.4 112.57 159.72 111.85 158.76 107.17 156.6 111.37 151.92 110.89 155.16 114.25 153.36 118.57"/><polygon class="cls-2" points="105.96 127.81 108.72 126.49 111 128.53 110.64 125.53 113.28 123.97 110.16 123.37 109.56 120.37 108.12 123.13 105.12 122.77 107.16 125.05 105.96 127.81"/><path class="cls-3" d="M210.72,169.69v-.48l-3.84,6.48,1.08-5.76-.24-.12c-5.76,7-7.92,11.88-9.72,18v.36l.24-.12a37.79,37.79,0,0,0,11.16-5.88c1-2,1.32-6.24,1.32-11.4Z"/><path class="cls-3" d="M197.76,154.57a112.2,112.2,0,0,1-20.28,2,23.12,23.12,0,0,1-2.88-.12l14.28-4.32v-.24c-9.48-.48-16.8-.6-26-4.92l-.12-.12-.12.12a21.3,21.3,0,0,0-2.16,9.48,19.54,19.54,0,0,0,.84,5.88h1.08c4.08,0,21.12-.36,35.4-7.56Z"/><path class="cls-3" d="M200.88,166.21c-7.2,5.4-12.72,9.72-23.28,11.64,9.84-5,16.44-8.64,22.68-15l-.24-.24c-11,6.48-25.44,9.24-35.52,9.6h-.36l.24.24c8.28,13.2,18.84,14.4,22.32,14.4h1.2v-.12c4.56-7.08,7.44-13.92,13.2-20.4Z"/><path class="cls-2" d="M193.44,122.17a4.53,4.53,0,0,0-1.56-.72c8.52,2.52,14.28,5.76,17.52,8.28a14.23,14.23,0,0,1-1.68,2A43.93,43.93,0,0,0,193.44,122.17Zm26.28,47.88v-.6a32.9,32.9,0,0,0,.84-6.84,4.85,4.85,0,0,1,1.92-.36,43.31,43.31,0,0,1-2.76,7.8Zm3.6-15a20.64,20.64,0,0,0-3.12.48,31.75,31.75,0,0,0-1.08-4.92,18.51,18.51,0,0,0,3.24-2.88,24.47,24.47,0,0,1,1,7.32Zm-3.72-14c-1.08,1-1.92,1.92-2.88,2.76a33,33,0,0,0-3.6-6.36c.72-1,1.44-1.8,2-2.76A30.5,30.5,0,0,1,219.6,141Z"/></g></g></svg>