<svg xmlns="http://www.w3.org/2000/svg" viewBox="0 0 219.92 219.92"><defs><style>.cls-1{fill:#fff;}.cls-2{fill:#006bb6;}.cls-3{fill:#ed174c;}</style></defs><title>philadelphia-76ers</title><g id="Layer_2" data-name="Layer 2"><g id="Layer_1-2" data-name="Layer 1"><path class="cls-1" d="M219.92,110A110,110,0,1,1,110,0a110,110,0,0,1,110,110v0"/><path class="cls-2" d="M215.87,110A105.91,105.91,0,1,1,110,4.05h0A105.91,105.91,0,0,1,215.87,110"/><polygon class="cls-1" points="20.39 128.02 22.56 134.93 29.89 134.93 23.98 139.24 26.11 146.04 20.39 141.88 14.59 146.04 16.76 139.24 10.8 134.93 18.14 134.93 20.39 128.02"/><polygon class="cls-1" points="199.57 128.02 201.74 134.93 209.11 134.93 203.16 139.24 205.33 146.04 199.57 141.88 193.8 146.04 195.98 139.24 190.02 134.93 197.31 134.93 199.57 128.02"/><polygon class="cls-1" points="46.12 165.05 48.3 171.92 55.63 171.92 49.67 176.28 51.85 183.07 46.12 178.91 40.32 183.07 42.49 176.28 36.54 171.92 43.87 171.92 46.12 165.05"/><polygon class="cls-1" points="176.24 165.05 178.41 171.92 185.75 171.92 179.83 176.28 182 183.07 176.24 178.91 170.44 183.07 172.65 176.28 166.69 171.92 173.99 171.92 176.24 165.05"/><polygon class="cls-1" points="86.25 189.14 88.39 196.05 95.75 196.05 89.8 200.37 91.97 207.16 86.25 203 80.44 207.16 82.62 200.37 76.67 196.05 84 196.05 86.25 189.14"/><polygon class="cls-1" points="135 189.14 137.18 196.05 144.51 196.05 138.56 200.37 140.73 207.16 135 203 129.2 207.16 131.38 200.37 125.42 196.05 132.75 196.05 135 189.14"/><path class="cls-1" d="M189.37,110.45A79.42,79.42,0,1,1,110,31h0a79.4,79.4,0,0,1,79.41,79.39v0"/><path class="cls-2" d="M35.28,126.07a76.3,76.3,0,0,0,90.29,59.06,74.76,74.76,0,0,0,48.22-32.91,77.61,77.61,0,0,0,10.85-57.38A76.3,76.3,0,1,0,35.27,126v0"/><path class="cls-1" d="M135.92,51c.27,3-1.14,5.88-4.12,8.63-14.32-10.5-28-15.66-41.31-15.73a54.59,54.59,0,0,0-8.37.65,72.1,72.1,0,0,1,13.22-4.13A71.28,71.28,0,0,1,130.77,42c2.48,2.4,4.88,5.53,5.15,9"/><path class="cls-1" d="M121,174.25c15-13.82,22-43.41,26.19-61.08l.65-2.75c2.14-9,5.92-15.73,10-19.74,15.08,23.44,13,47.65,9.24,62.84A71.7,71.7,0,0,1,109.92,182,48.67,48.67,0,0,0,121,174.25"/><path class="cls-1" d="M148.33,73.84c6.11-5.12,11-9,14.47-11.57a71.2,71.2,0,0,1,16.07,29c-2.82-3.78-6.41-7.37-10.31-8.17-3.36-.69-6.79.26-10,2.56a97.3,97.3,0,0,0-10.19-11.84"/><path class="cls-1" d="M39.82,107.25c7-18.63,32.42-26.27,42-29.13l.42-.12a115.94,115.94,0,0,1,12.9-2.59c12.34-2.1,27.57-4.7,36.77-11.57a137.65,137.65,0,0,1,11.49,9.81c-20.8,17.68-53,47.38-87.31,83.84A70.93,70.93,0,0,1,40,125.08a70.18,70.18,0,0,1-1.52-14.59c.8-1.91,1.37-3.24,1.37-3.24"/><path class="cls-1" d="M145.92,71.51a143.17,143.17,0,0,0-11.45-9.85c3.47-3.4,5.08-7.06,4.73-11a14.1,14.1,0,0,0-2.36-6.49,73,73,0,0,1,23.63,15.66c-3.59,2.67-8.51,6.6-14.55,11.64"/><path class="cls-1" d="M129.12,61.78c-8.62,6-22.9,8.39-34.55,10.34a130,130,0,0,0-13.28,2.67l-.42.12C71.66,77.66,48.53,84.57,39,101.25a71.58,71.58,0,0,1,11.11-30,75.07,75.07,0,0,1,19.17-20c16.95-7.14,36-6.65,59.86,10.54"/><path class="cls-1" d="M167.88,86.36c5,1,10.34,9.43,12.9,14.24a70.8,70.8,0,0,1-8.66,45.21q.57-3.62.91-7.64a79.2,79.2,0,0,0-12.64-49.71c2.6-1.83,5.2-2.56,7.49-2.1"/><path class="cls-1" d="M145.81,76a89.16,89.16,0,0,1,10.12,11.83c-4.89,4.66-9.05,12.37-11.3,21.84l-.65,2.79c-4.09,17.33-10.92,46.31-25.2,59.41a41.89,41.89,0,0,1-16.84,9.73,71.17,71.17,0,0,1-31.15-11.26A72,72,0,0,1,58.3,160c34.67-36.88,67-66.54,87.51-84"/><path class="cls-1" d="M129.7,131.68l1.94-.53c1.19-.31,2-.69,2-2.41,0-1.41-.38-4-2.1-4s-1.79,3.06-1.79,4.7Z"/><path class="cls-1" d="M106.45,130.61c0-6.11-.23-11.37-4.36-11.37-3.36,0-4,5.26-4,11.37s-.19,11.42,4,11.42c3.48,0,4.36-5.31,4.36-11.42"/><path class="cls-1" d="M129.7,131.68l1.94-.53c1.19-.31,2-.69,2-2.41,0-1.41-.38-4-2.1-4s-1.79,3.06-1.79,4.7Z"/><path class="cls-1" d="M97.63,116.6h.07c2-3.09,5.77-4.58,9.47-4.58,8.4,0,13.55,7.25,13.55,17,0,11.53-7.82,18.4-17.48,18.4-14.85,0-20.28-12-20.28-25.88,0-16,7-29.21,24.25-29.21,6.76,0,12.29,4.35,12.29,11a6.22,6.22,0,0,1-6,6.42H113c-4.65,0-6.14-3.9-6.83-7.33-.27-1.45.27-4.66-2.14-4.66-5,0-5.84,9.85-6.07,13.48Z"/><path class="cls-1" d="M106.45,130.61c0-6.11-.23-11.37-4.36-11.37-3.36,0-4,5.26-4,11.37s-.19,11.42,4,11.42c3.48,0,4.36-5.31,4.36-11.42"/><path class="cls-1" d="M16.38,92.93c2.82.34,4,2.33,3.55,6l-.31,2.68,1.53.19c2,.23,2.67.19,2.9-1.38l1.8.23L25,107.9l-1.8-.23c.16-1.61-.57-1.8-2.52-2L15,105c-1.94-.22-2.67-.19-2.9,1.38l-1.79-.23,1-7.94C11.76,94.3,13.48,92.59,16.38,92.93Zm1.53,7.71c.26-2.4-.42-3.7-2.14-3.89-1.49-.19-2.56.76-2.79,2.56-.15,1.26.31,1.52,1.68,1.68l3.13.38C17.83,101.14,17.87,100.91,17.91,100.64Z"/><path class="cls-1" d="M27,84.91c.58-1.49,0-1.87-1.83-2.63L19.93,80.1c-1.79-.76-2.52-.91-3.17.54L15.08,80l2.83-6.72,1.64.69c-.57,1.49,0,1.87,1.83,2.63l1.34.57,2.1-5-1.34-.57c-1.79-.76-2.52-.92-3.17.54l-1.64-.69,2.83-6.72,1.68.69c-.58,1.48,0,1.87,1.83,2.63l5.23,2.18c1.79.76,2.52.91,3.17-.54l1.68.69L32.26,77l-1.64-.69c.57-1.49,0-1.87-1.83-2.63l-2.29-1-2.1,5,2.29,1c1.79.76,2.52.91,3.17-.54l1.64.69L28.67,85.6Z"/><path class="cls-1" d="M34,49.21c-.92,1.3-.42,1.84,1.14,3l4.55,3.4c1.56,1.18,2.21,1.49,3.2.27L44.37,57,40,62.77,38.56,61.7c.92-1.3.42-1.83-1.18-3l-4.55-3.4c-1.56-1.18-2.21-1.52-3.2-.26L28.18,54l4.35-5.81Z"/><path class="cls-1" d="M50.44,50.05l-1.15-1.37c1.18-1.07.8-1.68-.46-3.17l-3.66-4.35c-1.26-1.49-1.8-2-3.06-1L41,38.79l5.57-4.66,1.15,1.38c-1.19,1.07-.84,1.68.42,3.2l4.08,4.85c1,1.11,1.38,1.3,2.52.35,1.53-1.3,2.18-3.59,1.64-6.49L58,37.07l1.64,5.35Z"/><path class="cls-1" d="M67.73,36.73,67,35.09c1.37-.84,1.3-1.76,1.26-3.36l-.38-11.27,3.05-1.37,8.4,8.21c1,.92,1.49,1.37,2.71.95l.76,1.64-6.64,3-.72-1.6a.31.31,0,0,0,.15-.08c.91-.42,1.26-.8,1-1.37a1.71,1.71,0,0,0-.38-.54L74.64,27.8l-4.27,1.94.26,2.1a1.83,1.83,0,0,0,.12.46c.3.65.91.69,1.94.23l.73,1.6Zm5.42-10.27L70,23.1l.27,4.69Z"/><path class="cls-1" d="M90.18,25.85c1.57-.27,1.6-1,1.34-2.94l-.8-5.61c-.27-2-.5-2.64-2.1-2.45l-.27-1.79,7.33-1c5.65-.81,9,1.41,9.7,6.07s-1.95,7.71-7.6,8.55l-7.33,1Zm5.27-2.6c.19,1.45.46,1.83,2,1.61,2.9-.42,4.5-2.72,4-6.23s-2.64-5.27-5.58-4.85c-1.53.23-1.64.65-1.45,2.1Z"/><path class="cls-1" d="M115.8,23.71c1.57.19,1.83-.5,2.1-2.44l.8-5.62c.27-1.94.27-2.67-1.3-2.94l.27-1.79,12.1,1.76,1.34,4.69-1.45.5c-1.18-2.45-2.86-3.86-5.12-4.16-1.45-.23-1.72.19-1.91,1.6l-.3,2.1.69.11c1.52.23,2-.19,2.32-2l1.53.23-1,6.57-1.53-.23c0-1.72-.46-2.6-1.64-2.75l-.69-.12-.5,3.4c-.19,1.41-.07,1.87,1.42,2.06,2.14.31,4.66-.72,6.64-3.09l1.26.95-2.94,4.7-12.41-1.83Z"/><path class="cls-1" d="M138.63,30.16l.73-1.64c1.49.61,1.87,0,2.67-1.83l2.29-5.19c.8-1.8,1-2.49-.46-3.17l.73-1.65,6.64,2.91-.72,1.64c-1.49-.61-1.88,0-2.68,1.79l-2.56,5.81c-.57,1.33-.53,1.79.84,2.4,1.84.8,4.2.38,6.53-1.41l1,1.26-4,3.85Z"/><path class="cls-1" d="M176,41c-1.8,2.21-4.09,2.14-7-.19l-2.1-1.68L166,40.28c-1.22,1.53-1.61,2.18-.38,3.21l-1.15,1.41-5.65-4.58,1.15-1.41c1.26,1,1.83.49,3.05-1l3.55-4.42c1.22-1.53,1.57-2.18.38-3.21l1.15-1.41,6.22,5C177.31,36.27,177.84,38.68,176,41Zm-7.37-2.87c1.87,1.53,3.36,1.61,4.43.27,1-1.18.72-2.56-.69-3.7-1-.8-1.45-.58-2.33.49l-2,2.45C168.3,37.8,168.49,38,168.64,38.1Z"/><path class="cls-1" d="M177.12,54.22c.95,1.29,1.6,1,3.2-.16L185,50.82c1.61-1.11,2.14-1.64,1.26-3l1.49-1,4.16,5.95-1.45,1c-.95-1.3-1.6-1-3.21.15l-1.18.84,3.13,4.47,1.19-.84c1.6-1.11,2.13-1.65,1.26-3l1.45-1,4.16,6-1.49,1c-1-1.29-1.61-1-3.21.16l-4.66,3.24c-1.6,1.11-2.13,1.64-1.26,3l-1.49,1-4.16-6,1.45-1c1,1.3,1.61,1,3.21-.15l2-1.41-3.13-4.47-2,1.41c-1.6,1.11-2.14,1.65-1.26,3l-1.45,1-4.16-6Z"/><path class="cls-1" d="M203.58,79.22c-.62-1.49-1.34-1.33-3.17-.65l-5.31,2c-1.83.69-2.44,1.07-1.95,2.59l-1.68.65-2.59-6.79,1.68-.65c.61,1.49,1.33,1.3,3.16.61L199,75c1.83-.69,2.48-1.07,1.95-2.56l1.68-.65,2.6,6.79Z"/><path class="cls-1" d="M194.07,91.82l1.79-.23c.38,1.57,1.3,1.76,2.83,2.18l10.88,2.94L210,100l-10.31,5.61c-1.18.65-1.76,1-1.72,2.33l-1.79.23-1-7.21,1.76-.23v.15c.11,1,.42,1.45,1,1.37a2.1,2.1,0,0,0,.65-.23l1.91-1L200,96.37l-2.1-.39a2.1,2.1,0,0,0-.5,0c-.69.07-.91.68-.8,1.79l-1.76.23Zm8.25,8.17,4.12-2-4.54-1.11Z"/><path class="cls-1" d="M154.59,119.73a5,5,0,0,0-3.82,1.76c-.11-.23-.19-.46-.3-.65l-.8-1.57-11.42,3.36v6.27h2.1c.19,0,.3,0,.34,0a6.7,6.7,0,0,1,.27,2.67v7.25l-2.1.31V146h15.81v-6.87l-2.06-.31v-2.14a28.1,28.1,0,0,1,.57-4.92,6.51,6.51,0,0,0,2.06.3c2.82,0,4.81-2.55,4.81-6.18S157.87,119.73,154.59,119.73Z"/><path class="cls-1" d="M174.41,127a3.29,3.29,0,0,1-.2-1c0-1.87-.76-6.22-7.67-6.22-3.82,0-11.34,2.94-11.34,9.77a9,9,0,0,0,1.83,5.73,5.32,5.32,0,0,0-2.44,4.73c0,2.45,1.22,6.57,9.51,6.57,7.1,0,11.15-3.66,11.15-10.08C175.28,130.42,174.75,128.4,174.41,127Z"/><path class="cls-1" d="M90.87,90.3a2.29,2.29,0,0,0-1.72-.81c-1,0-1.87.65-2.86,1.72a17.68,17.68,0,0,1-13.18,5.46C66.24,96.67,59,93.5,53.22,88a2.33,2.33,0,0,0-1.68-.68c-2.82,0-3.55,4.5-3.55,4.58v22.64l1.8.27a44.3,44.3,0,0,0,18.09-.65c-5.8,5.19-18.86,19.32-18.67,32.76,0,2.48,1.57,2.75,2.22,2.75a2.49,2.49,0,0,0,1.72-.73l.34-.27a14.5,14.5,0,0,1,8.29-2.17,18.26,18.26,0,0,1,7.67,1.56,3,3,0,0,0,1.41.38,2.26,2.26,0,0,0,1.68-.72,2.92,2.92,0,0,0,.57-2.45c-1-9.77,1.19-20.42,5.35-26.57l.61-.91c3.55-5.24,10.92-16.16,12.29-25.17A2.72,2.72,0,0,0,90.87,90.3Z"/><path class="cls-1" d="M143.44,133.55l-.11-1.71a16.51,16.51,0,0,0-.5-3.21l-.08-2-.38.58A10.83,10.83,0,0,0,132,119.73c-7.33,0-12.45,5.81-12.45,14.09,0,6.38,3.74,12.79,12,12.79A13.22,13.22,0,0,0,143,140.35l.3-.54-.23-6.14Zm-8.89,4a1.91,1.91,0,0,1-1.68-1.1l4-1.11a7.78,7.78,0,0,1-2.36,2.21Z"/><path class="cls-1" d="M116.14,113.51c-.42-.57-.87-1.26-1.26-1.83a8.16,8.16,0,0,0,6.76-8.33c0-7.48-6.18-13.09-14.39-13.09-16.5,0-26.38,11.72-26.38,31.3,0,17.8,8.17,28,22.37,28,11.53,0,19.58-8.44,19.58-20.5C122.86,123,118.82,117.29,116.14,113.51Z"/><path class="cls-2" d="M134.58,139.66c-2.55,0-4.08-2.33-4.31-4.69l11-3c-.31-5.39-3.44-10.12-9.28-10.12-6.23,0-10.35,4.85-10.35,12,0,5.57,3.21,10.65,9.93,10.65a11,11,0,0,0,9.58-5.23l-2.18-2.6C137.94,138.36,136.68,139.66,134.58,139.66Zm-4.84-10.15c0-1.65,0-4.7,1.79-4.7s2.1,2.56,2.1,4a2.15,2.15,0,0,1-1.85,2.4h-.1l-1.94.53Z"/><path class="cls-2" d="M152.64,143.9H141V141l2.1-.31v-9.08c0-3.25-.42-4.81-2.75-4.81V124.2l8.24-2.41a15.38,15.38,0,0,1,1.38,6h.08c.84-2.48,1.87-6,4.54-6,2.37,0,3.4,1.83,3.4,4s-1,4.08-2.71,4.08a7.89,7.89,0,0,1-2.75-.68c-1.49-.5-2,6-2,7.4v4l2.06.31v2.94Z"/><path class="cls-2" d="M172.15,126.07c0,1.79-1.56,2.71-3.2,2.71a4,4,0,0,1-3.78-3.55c-.84,0-1.45.42-1.45,1.87,0,3.36,9.5,1,9.5,9.47,0,6.38-4.62,8-9.05,8-2.71,0-7.4-.34-7.4-4.47,0-1.87,1-3.28,2.9-3.28,2.86,0,3.36,2.63,3.85,4.5a.88.88,0,0,0,1,.58c1.53,0,2.63-.61,2.63-1.65,0-3.81-9.73-2.32-9.73-10.65,0-5.27,6.22-7.63,9.24-7.63,3.4,0,5.53,1.14,5.53,4.12"/><path class="cls-2" d="M107.25,112.06c-3.71,0-7.49,1.49-9.47,4.58H97.7l.38-5.35c.23-3.62,1-13.47,6.07-13.47,2.41,0,1.88,3.2,2.14,4.65.65,3.4,2.14,7.34,6.84,7.34a6.26,6.26,0,0,0,6.52-6c0-.15,0-.3,0-.45,0-6.64-5.54-11-12.3-11-17.29,0-24.24,13.21-24.24,29.2,0,13.9,5.38,25.89,20.27,25.89,9.66,0,17.49-6.87,17.49-18.4C120.8,119.31,115.65,112.06,107.25,112.06Zm-5.16,30c-4.12,0-4-5.31-4-11.42s.58-11.37,4-11.37c4.16,0,4.36,5.26,4.36,11.37S105.61,142,102.09,142Z"/><path class="cls-3" d="M50.09,92.09v20.62c11.53,1.72,25.32.57,35.09-13.67.42-.61.65-.19.38.34-2.71,5.54-9.16,10.65-14.74,15.05-5.34,4.2-19.7,19.24-19.51,32.49,0,1,0,.72,1,.07,4.35-3.24,12.86-3.32,18.1-.84.72.35.8.23.68-.68-1-10.27,1.3-21.46,5.69-28,3-4.51,11.19-16.11,12.6-25.2.15-1-.34-.8-1.53.46-9.24,9.77-25.92,9.51-36.73-.8-.64-.73-.95-.42-1,.15"/><circle class="cls-1" cx="70.11" cy="79.73" r="19.78"/><polygon class="cls-2" points="70.1 60.67 70.75 62.77 73 62.77 71.17 64.07 71.82 66.13 70.1 64.87 68.3 66.13 68.99 64.07 67.16 62.77 69.41 62.77 70.1 60.67"/><polygon class="cls-2" points="83.23 68.34 83.92 70.4 86.17 70.4 84.34 71.74 84.99 73.8 83.23 72.54 81.48 73.8 82.16 71.74 80.33 70.4 82.58 70.4 83.23 68.34"/><polygon class="cls-2" points="77.58 62.42 78.27 64.49 80.52 64.49 78.69 65.82 79.34 67.88 77.62 66.62 75.86 67.88 76.51 65.82 74.68 64.49 76.93 64.49 77.58 62.42"/><polygon class="cls-2" points="85.41 75.56 86.06 77.66 88.31 77.66 86.48 78.99 87.17 81.06 85.41 79.8 83.65 81.06 84.3 78.99 82.51 77.66 84.72 77.66 85.41 75.56"/><polygon class="cls-2" points="84.45 83.23 85.14 85.33 87.36 85.33 85.56 86.67 86.21 88.73 84.45 87.43 82.7 88.73 83.35 86.63 81.55 85.33 83.81 85.33 84.45 83.23"/><polygon class="cls-2" points="80.22 89.34 80.86 91.44 83.12 91.44 81.32 92.78 81.97 94.84 80.25 93.58 78.46 94.84 79.15 92.78 77.31 91.44 79.57 91.44 80.22 89.34"/><polygon class="cls-2" points="73.57 92.78 74.26 94.88 76.47 94.88 74.64 96.21 75.33 98.28 73.57 97.02 71.82 98.28 72.47 96.21 70.67 94.88 72.89 94.88 73.57 92.78"/><polygon class="cls-2" points="56.7 67.66 56.01 69.75 53.8 69.75 55.59 71.05 54.94 73.11 56.66 71.86 58.45 73.11 57.77 71.05 59.6 69.75 57.35 69.75 56.7 67.66"/><polygon class="cls-2" points="62.2 62.42 61.51 64.49 59.29 64.49 61.09 65.82 60.44 67.88 62.2 66.62 63.95 67.88 63.3 65.82 65.1 64.49 62.88 64.49 62.2 62.42"/><polygon class="cls-2" points="54.1 74.64 53.45 76.74 51.2 76.74 53.03 78.04 52.38 80.14 54.1 78.84 55.86 80.14 55.21 78.04 57.04 76.74 54.83 76.74 54.1 74.64"/><polygon class="cls-2" points="54.83 82.28 54.14 84.38 51.89 84.38 53.72 85.71 53.07 87.78 54.79 86.52 56.54 87.78 55.9 85.71 57.69 84.38 55.48 84.38 54.83 82.28"/><polygon class="cls-2" points="59.03 88.54 58.38 90.64 56.12 90.64 57.96 91.97 57.27 94.04 59.03 92.74 60.82 94.04 60.13 91.97 61.93 90.64 59.71 90.64 59.03 88.54"/><polygon class="cls-2" points="65.67 92.51 65.02 94.61 62.77 94.61 64.6 95.95 63.95 98.01 65.67 96.75 67.46 98.01 66.78 95.91 68.61 94.61 66.36 94.61 65.67 92.51"/></g></g></svg>