<svg xmlns="http://www.w3.org/2000/svg" viewBox="0 0 258.53 262.44"><defs><style>.cls-1{fill:#63727a;}.cls-2{fill:#fff;}.cls-3{fill:#bec0c2;}.cls-4{fill:#f9a01b;}.cls-5{fill:#e56020;}.cls-6{fill:#b95915;}</style></defs><title>phoenix-suns</title><g id="Layer_2" data-name="Layer 2"><g id="Layer_1-2" data-name="Layer 1"><path class="cls-1" d="M258.08.72A2.17,2.17,0,0,0,256.4,0H94.28C75,0,63.08,8.4,59,24.72L.08,259.68a2.23,2.23,0,0,0,.36,1.92,2.1,2.1,0,0,0,1.68.84H178.76c10.08,0,20.16-8.16,22.44-18L258.44,2.64A2.17,2.17,0,0,0,258.08.72Z"/><path d="M2.12,260.28H178.76c9.12,0,18.36-7.44,20.4-16.32L256.4,2H94.28c-15,.12-28.68,5-33.24,23.28Z"/><path class="cls-1" d="M38.48,164.76H191.72c7.68,0,15.24-6.12,17-13.68l32.16-139.2H100.52c-17.16,0-24.84,5.4-28.32,19.68Zm153.24,1.92H36.08l34.2-135.6c4.44-17.52,15.24-21,30.24-21h142.8L210.56,151.56c-1.92,8.28-10.32,15.12-18.84,15.12Z"/><polygon class="cls-2" points="61.52 242.64 65.84 248.52 98.12 248.52 111.2 196.68 98 196.68 86.72 241.2 74.96 241.2 86.24 196.68 69.56 196.68 68.48 197.52 71.84 202.08 61.52 242.64"/><polygon class="cls-2" points="62.6 214.8 65.72 202.32 61.4 196.44 35 196.44 27.8 202.32 23.36 219.72 45.68 229.08 42.68 241.2 31.04 241.2 32.36 235.56 20.72 230.16 17.6 242.64 21.8 248.52 48.32 248.52 55.52 242.64 59.96 225.12 37.64 215.76 40.64 203.76 52.28 203.76 50.84 209.52 62.6 214.8"/><polygon class="cls-2" points="153.8 202.32 149.48 196.44 117.32 196.44 104.24 248.28 117.44 248.28 128.6 203.76 140.36 203.76 129.2 248.28 145.76 248.28 146.84 247.32 143.6 242.88 153.8 202.32"/><polygon class="cls-2" points="194.72 214.8 197.84 202.32 193.52 196.44 167.12 196.44 159.92 202.32 155.48 219.72 177.8 229.08 174.8 241.2 163.04 241.2 164.48 235.56 152.84 230.16 149.72 242.64 153.92 248.52 180.44 248.52 187.64 242.64 192.08 225.12 169.76 215.76 172.76 203.76 184.4 203.76 182.96 209.52 194.72 214.8"/><polygon class="cls-3" points="20.72 230.16 25.52 237.36 24.44 241.56 26.84 244.8 45.56 244.8 49.28 241.92 55.52 242.64 48.32 248.52 21.8 248.52 17.6 242.64 20.72 230.16"/><polygon class="cls-3" points="42.68 241.2 49.28 241.92 53 227.16 30.44 217.68 34.16 203.04 27.8 202.32 23.36 219.72 45.68 229.08 42.68 241.2"/><polygon class="cls-3" points="56.36 200.04 38.12 200.04 34.16 203.04 40.64 203.76 52.28 203.76 50.84 209.52 57.8 207.36 58.88 203.4 56.36 200.04"/><polygon class="cls-3" points="152.84 230.16 157.64 237.36 156.56 241.56 158.96 244.8 177.68 244.8 181.4 241.92 187.64 242.64 180.44 248.52 153.92 248.52 149.72 242.64 152.84 230.16"/><polygon class="cls-3" points="174.8 241.2 181.4 241.92 185.12 227.16 162.56 217.68 166.28 203.04 159.92 202.32 155.48 219.72 177.8 229.08 174.8 241.2"/><polygon class="cls-3" points="188.48 200.04 170.12 200.04 166.28 203.04 172.76 203.76 184.4 203.76 182.96 209.52 189.92 207.36 190.88 203.4 188.48 200.04"/><polygon class="cls-3" points="68.48 197.52 78.8 200.04 68.36 241.56 70.76 244.8 92.36 244.8 98.12 248.52 65.84 248.52 61.52 242.64 71.84 202.08 68.48 197.52"/><polygon class="cls-3" points="98 196.68 103.64 200.04 92.36 244.8 86.72 241.2 98 196.68"/><polygon class="cls-3" points="123.08 200.04 117.32 196.44 104.24 248.28 117.44 248.28 111.68 244.8 123.08 200.04"/><polygon class="cls-3" points="136.52 244.8 146.96 203.4 144.56 200.04 123.08 200.04 128.6 203.76 140.36 203.76 129.2 248.28 145.76 248.28 146.84 247.32 136.52 244.8"/><path class="cls-2" d="M41.12,180.84l-3.48,1,1.08-4.56H42Zm-6.24-6.24-.36.24,1.08,1.44L32.24,190h4.68l.24-.36-1.08-1.32.84-3.6,7.2-2.28,1.44-6-1.44-1.8Z"/><polygon class="cls-2" points="73.04 174.6 69.56 174.6 68.24 180.12 64.88 180.96 66.44 174.6 61.88 174.6 61.52 174.84 62.6 176.28 59.24 189.96 62.72 189.96 64.16 183.84 67.52 183.12 65.84 189.96 70.4 189.96 70.76 189.6 69.68 188.28 73.04 174.6"/><path class="cls-2" d="M93.56,187.44H90.32l2.52-10.32h3.24ZM92,174.6l-2.28,1.8L86.84,188,88.28,190h6.24L96.8,188l2.88-11.64-1.44-1.8Z"/><polygon class="cls-2" points="152.72 176.4 151.28 174.6 143 174.6 139.28 189.96 142.76 189.96 145.88 177.12 149.12 177.12 146 189.96 150.56 189.96 150.92 189.6 149.84 188.28 152.72 176.4"/><polygon class="cls-2" points="174.08 174.6 169.4 174.6 169.04 174.84 170.24 176.28 166.88 189.96 171.44 189.96 171.8 189.6 170.72 188.28 174.08 174.6"/><polygon class="cls-2" points="198.68 188.4 196.88 182.4 203 174.6 199.64 174.6 196.16 179.28 194.96 174.6 190.4 174.6 190.04 174.84 191.84 176.28 193.64 182.52 187.88 189.96 191.12 189.96 194.48 185.4 195.68 189.96 200.24 189.96 200.6 189.6 198.68 188.4"/><polygon class="cls-2" points="121.52 187.44 117.56 187.44 118.52 183.48 121.76 183.48 122.36 180.96 119.12 180.96 120.08 177.12 123.8 177.12 124.76 178.44 125.12 178.2 125.96 174.6 116.12 174.6 115.76 174.84 116.84 176.28 113.48 189.96 122.48 189.96 123.32 186.36 123.08 186.12 121.52 187.44"/><polygon class="cls-4" points="42.68 162.24 130.16 114.36 70.76 162.24 142.88 120.84 141.68 129.24 153.68 122.52 180.8 148.2 195.2 104.76 216.08 103.44 205.52 77.16 224.36 62.4 199.88 52.8 206.12 26.52 185.36 36 174.56 13.44 157.88 30 127.88 16.56 123.8 43.32 97.04 49.2 112.88 58.68 96.92 66.72 110.48 67.92 54.8 111.12 110.84 81.36 50.84 127.08 114.68 93.84 46.4 145.08 121.64 105 42.68 162.24"/><path class="cls-5" d="M202.76,77.52A43.53,43.53,0,1,1,161,32.16,43.53,43.53,0,0,1,202.76,77.52Z"/><path class="cls-6" d="M164.6,113.28a43.54,43.54,0,0,1-29.52-73.8,43.57,43.57,0,1,0,55.44,66.6A42.52,42.52,0,0,1,164.6,113.28Z"/><path d="M202.76,76.2a29,29,0,0,0-.12-4.56,20.07,20.07,0,0,0-9-3.6c-.72,0-1.32-.12-2-.12a50.72,50.72,0,0,0-1.92-8.52,4.92,4.92,0,0,0,1.32.12c3.12.24,6.12.6,9.12,1.08a26.13,26.13,0,0,0-1.44-3.36c-3.24-.48-6.72-.84-10.2-1.08h0a50.77,50.77,0,0,0-4-8.16,11.43,11.43,0,0,0,5.76-2.88c-.84-.84-1.68-1.56-2.52-2.4A9.18,9.18,0,0,1,182.48,45c-.36-.48-.72-1-1-1.32a49.31,49.31,0,0,0-10.2-9.84A41.45,41.45,0,0,0,161,32.16h-.48A42.83,42.83,0,0,1,177.8,45a85.9,85.9,0,0,1-15-3.48c-1.56-.48-3-.84-4.44-1.32a61.77,61.77,0,0,0-20.64-2.4,44.85,44.85,0,0,0-10.2,8c5.52-2.28,16.56-6.12,30-2.4,1.44.36,2.88.72,4.44,1.2,5.88,1.8,12.6,3.72,18.36,3.72a56.74,56.74,0,0,1,4.08,7.56A31.35,31.35,0,0,0,181,55.8c-28.08-.48-52,7.8-65.28,21.24a42.6,42.6,0,0,0,.84,7.8c3.72-5.4,9.36-10.32,16.56-14.4,13.44-7.56,31.44-11.52,50.52-11.28.72,0,1.32.12,2,.12a52.14,52.14,0,0,1,2.16,8.52c-12.36.6-20.28,8.16-29.52,16.44-8.16,7.32-18.24,14.64-32.88,19.08A42,42,0,0,0,130,108c13.8-5.52,22.92-14.16,30.72-21.12C169.64,79,177.2,71.4,188.24,71a40.7,40.7,0,0,1,0,9.36c-1.44,17-11.4,31.56-24.84,38.76a44.6,44.6,0,0,0,10-2.16c1.08-1,2.16-1.92,3.12-2.88A52.85,52.85,0,0,0,192,80.76a42.8,42.8,0,0,0,0-9.6c.6.12,1.2.12,1.68.24A16.37,16.37,0,0,1,202.76,76.2Z"/></g></g></svg>