<svg xmlns="http://www.w3.org/2000/svg" viewBox="0 0 268.5 228.92"><defs><style>.cls-1{fill:#fff;}.cls-2{fill:#cf0a2c;}</style></defs><title>portland-trail-blazers</title><g id="Layer_2" data-name="Layer 2"><g id="Layer_1-2" data-name="Layer 1"><path d="M178.39,31.2a41.49,41.49,0,0,0-5.91-7.11,34.57,34.57,0,0,0-3-2.7L191,0H128.6L104.51,24.09l-.06.06a53,53,0,0,0-5.91,7.11,49.43,49.43,0,0,0-4.41,8.2,48.06,48.06,0,0,0,0,37.4A45.81,45.81,0,0,0,98.54,85a41.49,41.49,0,0,0,5.91,7.11,27.66,27.66,0,0,0,3,2.75L86,116.27h62.35l24.15-24.21a47.18,47.18,0,0,0,10.26-15.2,48.06,48.06,0,0,0,0-37.4A42.85,42.85,0,0,0,178.39,31.2Z"/><path class="cls-1" d="M169.73,26.9c-.92-1-1.95-1.89-2.93-2.75L140.64,50.42a8.41,8.41,0,0,1,3.56,2.06,8.17,8.17,0,0,1,0,11.42L95.67,112.42h5.74L147,66.77a12.18,12.18,0,0,0,.12-17.1l2.81-2.81a16,16,0,0,1,0,22.69h0l0,0-42.79,42.84h5.68l40-40A20.22,20.22,0,0,0,152.8,44l2.82-2.81a24.12,24.12,0,0,1,0,34.1l0,0-37.11,37.11h5.67l34.31-34.3a28.15,28.15,0,0,0,0-39.8l2.87-2.87A32.23,32.23,0,0,1,161.24,81L129.8,112.42h5.74L164.1,83.8a36.16,36.16,0,0,0,.09-51.14l0,0L167,29.77a40.23,40.23,0,0,1-.11,56.89h0l-25.69,25.75h5.68l22.88-22.88A44.41,44.41,0,0,0,169.73,26.9Z"/><path class="cls-2" d="M107.38,89.42a32.42,32.42,0,0,0,2.92,2.7L136.46,66a7.77,7.77,0,0,1-3.56-2.06,8.08,8.08,0,0,1,0-11.41h0L181.43,3.9h-5.68L130,49.62A12.11,12.11,0,0,0,130,66.71l-2.87,2.81a16,16,0,0,1,0-22.62l.09-.09L170.07,3.9h-5.68l-40,40a20.16,20.16,0,0,0,0,28.45l-2.87,2.81a24.22,24.22,0,0,1,.06-34.13L158.71,3.9H153L118.68,38.26a28.16,28.16,0,0,0-.06,39.81l-2.87,2.86a32.28,32.28,0,0,1,.06-45.54L147.3,3.9h-5.68L113,32.58a36.21,36.21,0,0,0-.12,51.16l-2.81,2.87a40.24,40.24,0,0,1,.05-56.89h0L135.94,3.9h-5.68l-23,23a44.21,44.21,0,0,0,.12,62.52Z"/><polygon points="60.34 213.89 57.3 213.89 57.3 210.79 66.82 210.79 66.82 213.89 63.73 213.89 63.73 228.92 60.34 228.92 60.34 213.89"/><path d="M71.18,210.79H78.7L80.93,213v6.31L79,221.12l2,7.74H77.66l-1.89-7.4H74.51v7.46H71.13V210.79Zm5.62,8.15.69-.8v-4l-.69-.8H74.57v5.56Z"/><path d="M87.76,210.79h4.87l2.76,18.13H92.06l-.46-4.19H88.68l-.52,4.19H85ZM89,221.92h2.18l-1.09-9Z"/><polygon points="99.23 226.34 101.24 226.34 101.24 213.38 99.23 213.38 99.23 210.79 106.63 210.79 106.63 213.38 104.68 213.38 104.68 226.34 106.63 226.34 106.63 228.92 99.23 228.92 99.23 226.34"/><polygon points="111.33 210.79 114.78 210.79 114.78 225.94 118.62 225.94 118.62 228.92 111.33 228.92 111.33 210.79"/><path d="M130.26,210.79h7.4l2.18,2.24v4.82l-1.78,1.78,1.78,1.78v5.27l-2.18,2.18h-7.4Zm5.34,7.58.86-.86v-3.22l-.75-.68h-2.06v4.81h1.95Zm.11,7.85.75-.68v-3.73l-.86-.81h-2v5.17h2.12Z"/><polygon points="144.89 210.79 148.22 210.79 148.22 225.94 152.17 225.94 152.17 228.92 144.89 228.92 144.89 210.79"/><path d="M158.6,210.79h4.93l2.75,18.13H163l-.52-4.19h-2.87l-.51,4.19h-3.22Zm1.32,11.13h2.18l-1.15-9Z"/><polygon points="170.13 226.45 174.77 213.89 170.24 213.89 170.24 210.79 178.44 210.79 178.44 213.2 173.85 225.82 178.44 225.82 178.44 228.92 170.13 228.92 170.13 226.45"/><polygon points="183.15 210.79 191.12 210.79 191.12 213.78 186.59 213.78 186.59 218.19 190.72 218.19 190.72 221.18 186.59 221.18 186.59 225.94 191.18 225.94 191.18 228.92 183.15 228.92 183.15 210.79"/><path d="M196.11,210.79h7.51l2.24,2.24v6.31l-1.78,1.78,1.95,7.8h-3.38l-1.84-7.4h-1.32v7.4h-3.38Zm5.62,8.15.69-.8v-4l-.69-.8h-2.24v5.56Z"/><polygon points="210.34 226.74 210.34 223.47 213.66 223.47 213.66 225.36 214.47 226.17 215.67 226.17 216.36 225.36 216.36 221.92 215.78 221.35 212.23 221.35 210.39 219.4 210.39 213.03 212.57 210.79 217.56 210.79 219.74 213.03 219.74 216.24 216.36 216.24 216.36 214.35 215.67 213.6 214.52 213.6 213.72 214.35 213.72 217.74 214.35 218.25 217.91 218.25 219.74 220.14 219.74 226.74 217.56 228.92 212.51 228.92 210.34 226.74"/><path d="M36.6,141.33c0-10.49-5.68-14-16.75-14H0L8.66,136v63.27H19.39V167.72H20c10.84,0,16.46-3.33,16.75-13.31V141.33ZM19.39,136H21.8c2.46,0,4.07.8,4.07,3.55v15.61c0,2.63-.75,4-4.53,4H19.5V136Z"/><path d="M51.91,140.36c0-3.62,1.15-4.42,3.33-4.42s3.21.8,3.21,4.42v45.83c0,3.67-1.15,4.41-3.21,4.41s-3.33-.74-3.33-4.41Zm3.21,58.85c6.66,0,14-2.7,14-12.05V139.44c0-9.41-7.4-12.1-14-12.1S41.18,130,41.18,139.44v47.72C41.18,196.51,48.58,199.21,55.12,199.21Z"/><path d="M183.09,140h.63l2.07,27.65h-5.11Zm-3.44,36.25h7l2.3,23h10.78l-8.14-71.87H175.52l-8.15,71.87h9.7Z"/><path d="M257.83,185.27c0,4.65-1.32,5.33-4.07,5.33h-2.58V136h2.58c2.69,0,4.07.74,4.07,5.33Zm10.67.92V143.63c0-12.68-4.48-16.29-15.09-16.29h-13v71.87h15.2c8.43,0,12.85-6.2,12.85-13Z"/><path d="M84.38,135.94H87c2.41,0,4.07.8,4.07,3.56v14.85c0,2.64-.8,4.65-4.59,4.65H84.38Zm.17,31.66c5-.23,6.59,1.49,6.59,5.8v25.81h10.39s.22-7.75,0-28.51c-.06-6.48-4.13-7.46-4.13-7.46,4.7-2,4.13-4.36,4.13-9.69l-.06-13.94c0-9.29-5-12.27-13.65-12.27H73.65v71.87H84.49V167.6Z"/><polygon points="162.84 190.6 149.19 190.6 149.19 127.34 138.41 127.34 138.41 199.21 162.84 199.21 162.84 190.6"/><polygon points="113.92 136 113.92 199.21 124.64 199.21 124.64 136 133.88 136 133.88 127.34 98.66 127.34 107.38 136 113.92 136"/><polygon points="214.06 159.34 226.17 199.21 235.92 199.21 235.92 127.34 226.22 127.34 226.22 167.66 214.06 127.34 204.37 127.34 204.37 199.21 214.06 199.21 214.06 159.34"/></g></g></svg>