<svg xmlns="http://www.w3.org/2000/svg" xmlns:xlink="http://www.w3.org/1999/xlink" viewBox="0 0 198.77 226.76"><defs><style>.cls-1{fill:none;}.cls-2{clip-path:url(#clip-path);}.cls-3{fill:#fff;}.cls-4{fill:#5c6670;}.cls-5{fill:#5b2b82;}</style><clipPath id="clip-path"><rect class="cls-1" width="198.77" height="226.76"/></clipPath></defs><title>sacramento-kings</title><g id="Layer_2" data-name="Layer 2"><g id="Layer_1-2" data-name="Layer 1"><g class="cls-2"><path class="cls-3" d="M198.77,0,170.32,28.56,146.55,4.81,122.66,28.56,98.93,4.81,75.2,28.56,51.46,4.81,27.74,28.57,0,.57V127c0,55,44.12,99.74,99.08,99.74A99.82,99.82,0,0,0,198.77,127Z"/></g><g class="cls-2"><path class="cls-4" d="M8.87,144.34a91,91,0,0,0,13.84,33.29c4.13-7.25,12.41-16.25,28.65-20.08-1.25-4.17-2.36-8.6-3.31-13.21Z"/></g><g class="cls-2"><path class="cls-4" d="M29.19,186.2a92.13,92.13,0,0,0,69.48,32.61c-2.52-1.29-5-2.7-7.34-4.22-11.3-7.3-26.82-21.51-36.85-47.85C38.7,170.18,32,179.12,29.19,186.2"/></g><g class="cls-2"><path class="cls-4" d="M64.2,165.36c7.12,17.89,17.87,31.63,32,40.86a71.78,71.78,0,0,0,24.17,10.15,92.28,92.28,0,0,0,39.94-20.6c-9-1-18.23-6.17-28-11.63C117.12,175.6,98.18,165,72.61,165c-2.76,0-5.59.13-8.41.38"/></g><g class="cls-2"><path class="cls-5" d="M102.65,97.81H69.77V137H83.43v-31.4H93.69V137h13V103.29c0-3-1.82-5.48-4.06-5.48"/></g><g class="cls-2"><path class="cls-5" d="M112.46,97.81v33.58c0,3,1.81,5.57,4,5.57h32.85V113.19l-13.12,0v16H126V105.36h23.37V97.81Z"/></g><g class="cls-2"><polygon class="cls-5" points="33.41 97.81 25.98 113.62 21.69 113.62 21.69 97.81 8.1 97.81 8.1 136.96 21.69 136.96 21.69 121.2 25.98 121.2 33.41 136.96 47 136.96 37.42 117.41 47 97.81 33.41 97.81"/></g><g class="cls-2"><rect class="cls-5" x="50.62" y="97.81" width="14.08" height="39.15"/></g><g class="cls-2"><path class="cls-5" d="M190.71,108.39V97.81H154.62v17.88c0,3,1.81,5.41,4,5.41H177v8.53H154.62V137h36.11V119c0-2.79-1.54-5.4-3.61-5.4h-19v-8.2h9.49v3Z"/></g><g class="cls-2"><polygon class="cls-5" points="152.31 58.1 140.79 58.1 164.56 34.32 146.55 16.34 122.66 40.09 98.93 16.34 57.2 58.1 45.68 58.1 69.41 34.29 51.46 16.34 27.74 40.09 8.1 20.59 8.1 59.55 8.1 90.62 190.71 90.62 190.71 60.49 190.71 19.68 152.31 58.1"/></g><g class="cls-2"><path class="cls-3" d="M48,83.1a1.84,1.84,0,0,0,1.84,1.84H60.09V82.19H51.73v-9h8.36V70.49H48Z"/></g><g class="cls-2"><path class="cls-3" d="M31.26,70.49V84.94H35V81.16h4.63v3.78h3.74V72.33a1.88,1.88,0,0,0-1.92-1.84H31.26Zm8.36,7.92H35V73.25h4.63Z"/></g><g class="cls-2"><path class="cls-3" d="M182.09,70.49h-8.46a1.85,1.85,0,0,0-1.84,1.83V83.1a1.85,1.85,0,0,0,1.84,1.84h8.46a1.84,1.84,0,0,0,1.83-1.85V72.32a1.83,1.83,0,0,0-1.83-1.83m-1.92,11.67h-4.61V73.24h4.61Z"/></g><g class="cls-2"><path class="cls-3" d="M14.52,77.25a1.84,1.84,0,0,0,1.84,1.84h6.52v3.1H14.52v2.75h12.1V78.18A1.84,1.84,0,0,0,25,76.35H18.25v-3.1h8.37V70.49H14.52Z"/></g><g class="cls-2"><path class="cls-3" d="M91.4,70.49H81.15V84.94h3.73V81.16h4.63v3.78h3.74V72.33a1.85,1.85,0,0,0-1.85-1.84m-1.89,7.92H84.88V73.25h4.63Z"/></g><g class="cls-2"><polygon class="cls-3" points="155.52 73.24 159.71 73.24 159.71 84.94 163.43 84.94 163.43 73.24 167.62 73.24 167.62 70.49 155.52 70.49 155.52 73.24"/></g><g class="cls-2"><path class="cls-3" d="M116.78,70.49H98.21V84.94h3.73V73.25h4.58V84.94h3.79V73.25h4.58V84.94h3.73V72.33a1.85,1.85,0,0,0-1.84-1.84"/></g><g class="cls-2"><path class="cls-3" d="M149.89,70.49H139.63V84.94h3.74V73.25H148V84.94h3.73V72.33a1.84,1.84,0,0,0-1.84-1.84"/></g><g class="cls-2"><path class="cls-3" d="M123.71,83.1a1.84,1.84,0,0,0,1.84,1.84H135.8V82.19h-8.35v-3.1h8.35V76.34h-8.35v-3.1h8.35V70.49H123.71V83.1Z"/></g><g class="cls-2"><path class="cls-3" d="M74.49,79.69h2V72.33a1.89,1.89,0,0,0-1.95-1.84H64.39V84.94h3.73V79.69h2.71l2.24,5.25H76.7Zm-1.74-2.75H68.12v-3.7h4.63Z"/></g><g class="cls-2"><path class="cls-4" d="M70.61,155.43c19.46-.4,38.7,4.47,63.25,18.46C152,184.23,160,187.37,165.42,186c5-1.23,9.66-4.2,17.87-21.54a90.32,90.32,0,0,0,6.47-20.14h-132c.92,4,1.83,8,3,11.63a87,87,0,0,1,9.81-.55"/></g></g></g></svg>