<svg xmlns="http://www.w3.org/2000/svg" viewBox="0 0 385.39 173.88"><defs><style>.cls-1{fill:#fff;}.cls-2{fill:#c4ced4;}</style></defs><title>san-antonio-spurs</title><g id="Layer_2" data-name="Layer 2"><g id="Layer_1-2" data-name="Layer 1"><path class="cls-1" d="M146.78,111.27h8.41l-2.53,6.36Zm-10,28.57-13.39,19.84,22-7.19,8.9,21.39,6.69-23,24.74,6.37-16-18.53,19.19-15.92-17.14,1.06L183,111.1h22.13l25.3-44.81V36.74h-18L203.92,52l-1.63,11.51-12.9,22.94H177.55L189.15,66V36.82H170.53L162.21,52l-1.47,11.59L140.49,99.76l3.1,8-3.91-4.25,1.63,21.8-23.59,1.06Z"/><path d="M40.9,86.45C33.63,88.33,26.2,90.37,19,92.33c-.82.24-1.55.57-2.29.73V74.78c1.15-.33,2.13-.66,3.27-.9,6-1.8,11.92-3.35,17.88-4.9,1-.33,2.12-.49,3.1-.82v10c5.63-1.47,11.18-2.77,16.74-4V62c-2-2.86-3.84-5.8-5.88-8.9-1.39.33-2.86.74-4.25,1.06h-.24c-11.92,2.86-23.76,6-35.51,9.64a11.66,11.66,0,0,0-1.31.4c-1.49.39-3,.86-4.41,1.39-2,4.17-4,8.33-5.88,12.33v24.57c2.94,2,5.88,4.08,8.9,6.2,2.45-.73,4.82-1.55,7.27-2.2,7.51-2.29,15-4.24,22.45-6.2.81-.17,1.63-.41,2.45-.58v19c-1,.24-2.13.49-3.11.81-6.2,1.55-12.4,3.19-18.53,5.06-1.06.25-2.12.57-3.18.9v-10c-5.47,1.63-11,3.35-16.49,5.06v12.25c2,2.77,3.84,5.55,5.8,8.32,1.38-.4,2.85-.89,4.32-1.3a9.43,9.43,0,0,1,1.47-.41c11.92-3.67,23.92-6.94,36.08-9.8,1.56-.4,2.94-.73,4.49-1.06,2-3.92,3.92-7.92,6-11.75V91.51c-2.94-2.28-6-4.73-8.89-7C46.2,85.14,43.51,85.88,40.9,86.45Z"/><path d="M385.39,107.43c-2.94-3.92-5.87-7.92-8.81-11.84-2.62-.81-5.31-1.63-7.92-2.45-7.27-2.12-14.53-4.16-21.88-6-.82-.16-1.55-.4-2.37-.57V68.16c1.06.33,2.13.49,3.19.82,6,1.55,12,3.1,18,4.9,1,.24,2.12.57,3.1.9v9.87c5.55,1.64,11,3.35,16.49,5.07V77.55c-1.88-4-3.84-8-5.72-12-1.47-.41-2.85-.9-4.32-1.3-.08,0-.08,0-.17-.09q-17.62-5.5-35.51-9.71a7.29,7.29,0,0,0-1.3-.33c-1.55-.4-3-.73-4.57-1.14-2.05,3-4.09,6.12-6.05,9.14V86.7c3,3.67,6,7.34,9,11,2.45.65,5,1.22,7.35,1.79q11.27,2.94,22.53,6.12c.82.17,1.55.49,2.29.66v19c-1-.25-2.12-.57-3.1-.9-6.21-1.8-12.41-3.43-18.53-5.06-1.07-.25-2.13-.49-3.19-.82v-10c-5.55-1.47-11.1-2.77-16.65-4v12.25c1.88,3.83,3.83,7.75,5.88,11.59,1.38.24,2.93.65,4.32,1,.49.08.9.24,1.39.33,12.16,2.93,24.25,6.12,36.16,9.87,1.55.41,2.94.9,4.33,1.31,2-2.78,5.8-8.57,5.8-8.57C385.39,132.65,385.39,115.84,385.39,107.43Z"/><path d="M117.14,57.47V78.78c-1.38.24-2.53.32-3.91.49-7.27,1-14.53,2-21.72,3.18V57.23C98.78,56,106,55,113.23,54.12c1.38-.24,2.53-.32,3.91-.49Zm6-16.49c-.57.08-.89.08-1.47.16-15.75,1.8-31.42,4.25-47,7.19v75.51c5.55-1.14,11.27-2.12,16.9-3V94.45c10-1.55,20.17-3,30.12-4.24.58-.09.9-.09,1.47-.17,1.47-.24,3-.32,4.49-.49,2.13-4,4.33-7.83,6.53-11.75V50.69c-2.12-3.42-4.24-7-6.53-10.44-1.47.32-3,.49-4.49.73Z"/><path d="M289.72,78.69c-7.35-1.14-14.78-2.2-22.12-3V53.39c7.51.9,14.85,2,22.36,3.18,1.23.17,2.53.41,3.76.57V79.43C292.41,79.1,291,78.94,289.72,78.69Zm14.86,8.49c2-.81,4-1.46,6-2.28V58.78c-3.6-4.17-7.11-8.33-10.7-12.49-16.32-2.78-32.73-5.06-49.22-6.53v75.51c5.63.49,11.34,1.06,17,1.79V87.51c4.32.49,8.73,1.14,13.06,1.72,1.39.16,2.94.4,4.33.57,2.93.41,5.79,1,8.73,1.3v29.55c.33,0,.57.17.9.17,5.39.9,10.61,1.79,16,2.77V91.51c-2.12-1.39-4.08-2.77-6.12-4.33Z"/><path d="M71.18,21.14c-2.44.41-4.73.9-7.1,1.39a2.92,2.92,0,0,0-.81.25V16.73c.32-.08.73-.08,1-.16,2-.41,3.91-.73,5.87-1.14.33-.08.74-.08,1.06-.16v3.18c1.8-.25,3.6-.65,5.47-1V13.55a34.92,34.92,0,0,0-2-2.94,8,8,0,0,1-1.38.17h-.08c-3.92.73-7.76,1.47-11.6,2.28a2.83,2.83,0,0,1-.4.08l-1.39.25c-.57,1.39-1.31,2.53-2,3.92v8c1.06.73,2,1.47,2.94,2.28l2.45-.49c2.45-.49,4.89-.9,7.26-1.47.33,0,.57-.08.82-.08v6.12c-.25.09-.66.09-1,.17-2,.41-4.08.81-6.12,1.14-.25.08-.66.08-1,.16V30c-1.8.41-3.68.65-5.39,1.06v4c.65,1,1.22,1.88,2,2.86l1.39-.25c.24,0,.32-.08.49-.08,4-.81,7.83-1.55,11.75-2.28.49-.09,1.06-.17,1.47-.25.57-1.22,1.31-2.45,1.88-3.75V23c-1-.82-1.88-1.63-2.94-2.37C73,20.82,72.08,20.9,71.18,21.14Z"/><path d="M90.78,22.61q1.59-6,2.94-12.24c1.06,3.75,2,7.59,2.93,11.34C94.78,22,92.74,22.37,90.78,22.61ZM90,8c-2.2,8.49-4.41,17-6.78,25.47,1.72-.33,3.43-.65,5.23-.82.49-2,.9-3.83,1.39-5.63,2.61-.41,5.22-.82,8-1.22.49,1.71.9,3.51,1.39,5.22,1.79-.33,3.75-.49,5.55-.82-2.21-7.83-4.41-15.67-6.78-23.42-2.69.4-5.31.81-8,1.22Z"/><path d="M125.47,19.59c-2.77-5.14-5.71-10.2-8.57-15.35-1.88.17-3.84.41-5.8.66V29.39c1.64-.17,3.27-.41,4.9-.57V12.41c2.86,5.14,5.63,10.37,8.49,15.51,2-.25,3.84-.41,5.88-.65V2.78c-1.63.24-3.27.32-4.9.57Z"/><path d="M155.59,15.84c1-3.92,2-8,3-11.92,1,3.84,1.88,7.75,2.94,11.67Zm-.81-14.78C152.49,9.39,150.21,17.71,148,26c1.72-.08,3.43-.16,5.23-.33.49-1.79.89-3.67,1.38-5.55,2.7-.16,5.39-.24,8-.41.58,1.88,1,3.68,1.47,5.47,1.88-.08,3.76-.16,5.64-.16C167.51,16.9,165.15,8.9,162.94.82c-2.86,0-5.55.08-8.16.24Z"/><path d="M192,16.25c-2.85-5.47-5.79-10.78-8.65-16.17-1.88,0-3.84.08-5.71.08V24.65c1.63,0,3.18-.08,4.81-.08V8.08c2.86,5.47,5.72,10.78,8.49,16.25h5.88V0H192Z"/><path d="M204.82,4.49c2.28,0,4.49.16,6.69.24v20c1.8.16,3.68.16,5.47.24V4.9c2.21.16,4.49.24,6.7.32V.9C217.39.57,211.1.41,204.82.24Z"/><path d="M273.64,21.22c-2.86-5.79-5.64-11.51-8.58-17.3-1.95-.25-3.83-.41-5.79-.57V27.84c1.63.16,3.26.24,4.9.49V11.92c2.77,5.79,5.63,11.51,8.49,17.39l5.71.73V5.55c-1.55-.24-3.18-.41-4.82-.65V21.22Z"/><path d="M286.37,10.37c1.47.24,2.78.41,4.16.65v16.9c-1.38-.25-2.69-.41-4.16-.65V31c4.57.65,9.14,1.31,13.72,2.12V29.39c-1.47-.17-2.78-.41-4.17-.65V11.84c1.39.16,2.7.41,4.17.65V8.73c-4.58-.65-9.15-1.38-13.72-2.12Z"/><path d="M245.8,7.67V22.53c-.49,0-.9-.08-1.39-.08-2-.25-3.84-.33-5.79-.41-.49,0-.9-.08-1.39-.08V5.63c.49,0,.9.08,1.39.08,1.95.17,3.83.33,5.79.41.49,0,.9.08,1.39.08Zm3.35-5.3c-.49,0-1-.08-1.47-.08-4-.33-7.84-.58-11.76-.9h-.49c-.57,0-1.06-.08-1.55-.08-.73,1.06-1.39,2.28-2.12,3.42V22c.73,1.14,1.39,2.53,2.12,3.67.49,0,1,.17,1.55.17h.49c3.92.24,7.76.49,11.76.89.49,0,1,.09,1.47.09.73-1.15,1.47-2.29,2.12-3.43V6.12c-.65-1.22-1.39-2.45-2.12-3.75Z"/><path d="M322.05,18.2V33.06c-.49-.08-.9-.24-1.47-.32-1.88-.41-3.84-.66-5.72-1.07a10.4,10.4,0,0,0-1.47-.32V15a9.19,9.19,0,0,0,1.47.33c1.88.41,3.84.73,5.72,1.14.57.08,1,.16,1.47.24Zm5.3-.81c-.65-1.31-1.39-2.78-2-4.08l-1.55-.25c-3.84-.81-7.67-1.55-11.67-2.28-.17,0-.33-.09-.49-.09a9.17,9.17,0,0,1-1.47-.32,35.53,35.53,0,0,0-2,3.26V30.86c.73,1.3,1.39,2.61,2,3.92.49.08,1,.24,1.47.32a4.17,4.17,0,0,1,.49.08c3.92.74,7.83,1.39,11.67,2.21a9.28,9.28,0,0,0,1.55.32c.66-1.14,1.39-2.12,2-3.26Z"/><polygon points="163.43 64.65 143.51 100.08 146.86 108.33 159.19 108.33 153.55 122.61 143.02 111.19 144.25 128 125.88 128.82 140.49 139.02 130.12 154.45 146.86 149.06 153.72 165.63 159.02 147.51 177.63 152.25 165.55 138.37 180.33 126.12 165.06 127.1 181.63 108.33 203.43 108.33 227.51 65.63 227.51 39.67 213.96 39.67 206.13 53.47 204.82 64.65 190.86 89.55 172.57 89.55 186.21 65.47 186.21 39.76 172.08 39.76 164.57 53.47 163.43 64.65"/><polygon class="cls-2" points="222.45 43.51 216.09 43.51 211.19 52.08 217.8 52.08 222.45 43.51"/><polygon class="cls-2" points="181.23 43.51 174.45 43.51 169.63 52.08 176.82 52.08 181.23 43.51"/><polygon class="cls-2" points="168.41 98.2 154.21 130.61 147.84 123.76 148.49 132.41 138.94 132.82 146.53 138.21 141.23 146.21 149.88 143.35 153.47 151.92 156.16 142.53 165.88 145.06 159.59 137.8 167.27 131.43 156.49 132.16 155.76 132.16 178.13 98.37 197.55 98.37 214.78 67.59 208.09 67.59 193.63 92.98 158.86 92.98 173.39 67.59 166.62 67.59 149.06 98.37 168.41 98.37 168.41 98.2"/><polygon class="cls-2" points="175.02 55.59 168.74 55.59 167.92 63.02 174.37 63.02 175.02 55.59"/><polygon class="cls-2" points="216.41 55.59 210.21 55.59 209.39 63.02 215.76 63.02 216.41 55.59"/><path d="M151.19,140.25a2.78,2.78,0,0,0,2.85-2.72v-.14a2.84,2.84,0,0,0-2.82-2.86h0a2.86,2.86,0,0,0,0,5.72Z"/></g></g></svg>