<svg xmlns="http://www.w3.org/2000/svg" viewBox="0 0 251.85 251.82"><defs><style>.cls-1{fill:#c4ced4;}.cls-2{fill:#e31837;}.cls-3{fill:#fff;}.cls-4{fill:#002b5c;}</style></defs><title>washington-wizards</title><g id="Layer_2" data-name="Layer 2"><g id="Layer_1-2" data-name="Layer 1"><ellipse class="cls-1" cx="125.92" cy="125.91" rx="125.92" ry="125.91"/><ellipse class="cls-2" cx="125.41" cy="125.3" rx="120.78" ry="120.97"/><path class="cls-3" d="M246.56,119.57,4.4,119.6q-.17,3.11-.17,6.24A115.24,115.24,0,0,0,8.85,158c28.52,0,204.21,0,233.21,0a116.3,116.3,0,0,0,4.65-32.43c0-2-.06-4-.16-6"/><path class="cls-4" d="M109.94,246.67a121.47,121.47,0,0,0,15,.93h.16A121.75,121.75,0,0,0,157,243.38c31.82-9.13,59-31.7,74.83-60.65H19.16c18.5,33.54,52.31,58.47,90.78,63.94"/><path class="cls-1" d="M199.75,85.69a85.14,85.14,0,0,0-20.5-24.91c-1.56-1.29-3.18-2.5-4.84-3.68a84,84,0,0,0-48.8-15.66h-.15a84.48,84.48,0,0,0-84.34,80c-.07,1.43-.11,2.88-.11,4.34v.14a84.12,84.12,0,0,0,6.63,32.85c.53,1.26,1.09,2.51,1.69,3.74a84.57,84.57,0,0,0,19.31,25.89q3,2.73,6.24,5.16a84.11,84.11,0,0,0,50.49,16.82h.12A84.4,84.4,0,0,0,209.92,126v0h0v0a84.25,84.25,0,0,0-6.62-32.84q-1.61-3.8-3.55-7.38"/><path class="cls-3" d="M128,11.62s1.65,1.2,1.48,2.72l-2.11,18.84,4.31.48c.84.1,1.48.11,1.82-.47,0,0,.53-4.75,1.13-10.06L139,32.71c.64,1.58-.76,1.69-.76,1.69l1.28.18h0l4.29.48c.85.1,1.48.1,1.82-.47l2.32-20.69-6-.69L140.24,13a3.25,3.25,0,0,1,1.37,2.6l-.9,8-5.13-10.78a.87.87,0,0,0-.72-.48l-5.09-.58L128,11.62Zm-3.16.26c-.61,0-3,.18-5.45.27-.6.12-1.7.14-1.46,2.63l1,18.87,6.08-.33.45-.12a5.23,5.23,0,0,1-.55-1.87s-1-17.09-1-17.88A2.68,2.68,0,0,1,124.83,11.88Zm-12.77.5L104.36,14s1.92.61,2.24,2.1l0,.06,1.11,5.33-4.23.89a2,2,0,0,0-1.5,1.49l-1.81-9-7.27,1.51a3.51,3.51,0,0,1,1.82,2.2l0,.06,3.83,18.5,4.25-.88c.84-.17,1.44-.37,1.59-1l-1.55-7.43,5.89-1.23,1.68,8.1,4.25-.87c.84-.18,1.44-.38,1.59-1Zm43.34,3.93a3.54,3.54,0,0,0-1,.2c-1.14.42-2.11,1.81-2.93,4.16l-3.06,8.84a12.24,12.24,0,0,0-.68,2.62,3.51,3.51,0,0,0,.94,3.19,12.6,12.6,0,0,0,4.42,2.25l3.78,1.31c2.73.95,4.66,1.2,5.78.77s2.12-1.81,2.94-4.17c0,0,1.46-4.15,1.67-4.77a1.64,1.64,0,0,0-1-2l-7.09-2.47c-.83-.29-1.36.34-1.65.88s-1.34,3.57-1.34,3.57l-.37.95a1.94,1.94,0,0,1,1.87-.43l2.6.91c-.39.95-.83,1.49-1.28,1.64a5.15,5.15,0,0,1-2.59-.49s-.91-.35-1.16-.5a1.56,1.56,0,0,1-.82-1.6,7.77,7.77,0,0,1,.42-1.6l1.7-4.89c.46-1.32.92-2,1.4-2.2a5.15,5.15,0,0,1,2.69.46l6.44,2.23a2.52,2.52,0,0,1,1.39,1.92l.45-1.28,1.14-3.3c.33-1.26-.47-1.94-1.55-2.32l-8.37-2.9a13.26,13.26,0,0,0-4.76-1Zm-67.47,1.6a1.92,1.92,0,0,0-.82.14l-7.31,3q-4,1.65-4.79,3.27c-.56,1.06-.35,2.77.6,5.08l.85,2a5,5,0,0,0,.45.83,4.77,4.77,0,0,0,2.82,1.94,7.8,7.8,0,0,0,4.94-.61l2.85-1.19c1.1-.45,1.91-.34,2.38.36a1.09,1.09,0,0,1,.2.62s.32,1-1.95,1.94l-5.73,2.4c-1.29.43-3.15-.78-3.15-.78l1.91,4.52a2.21,2.21,0,0,0,2.76,1.22l.57-.23,3.95-1.65,2.86-1.19c2.64-1.1,4.23-2.18,4.79-3.26s.32-2.64-.63-4.93c0,0-.74-1.71-1-2.18-1.38-2.66-4.28-3.56-7.22-2.34L84,28.25c-1.19.49-2,.4-2.5-.28,0,0-.14-.3-.15-.34-.15-.49-.52-1.36,1.24-2.09l6-2.48c1.29-.54,3.24.74,3.24.74l-1.9-4.53A2.32,2.32,0,0,0,87.93,17.91Zm85.66,4.59a1.16,1.16,0,0,0-.93.57c-.18.3-2,3.56-2,3.56l-.82,1.45a2.29,2.29,0,0,1,2.66-.38l3.18,1.84-8.13,14.08,5.73,3.32a5.26,5.26,0,0,1,.54-2s4.5-7.84,7.13-12.38L183.37,34c1.41.81,1.36,3,1.36,3l1.33-2.34,2.21-3.85-9-5.19-.08-.06-5.1-2.94a1.09,1.09,0,0,0-.51-.15ZM61.74,31.3l-3.59,2.5a1.82,1.82,0,0,0-1,1.75l6,18.42c.39,1.15-1,3.23-1,3.23l6.3-4.41a1.45,1.45,0,0,0,.5-1.7l-.89-2.6,4.8-3.36,1.87,1.18a1.33,1.33,0,0,1,.3,1.88L82,43.35Zm129.64,3.61c-1.22,0-2.59,1-4.13,3l-5.78,7.36A12.73,12.73,0,0,0,180,47.51a3.55,3.55,0,0,0-.17,3.33,13,13,0,0,0,3.44,3.56l3.14,2.48c2.28,1.79,4,2.66,5.22,2.61s2.6-1,4.14-3l5.79-7.36A13.32,13.32,0,0,0,203,46.9a3.52,3.52,0,0,0,.1-3.4A12.6,12.6,0,0,0,199.7,40l-3.14-2.48q-3.36-2.64-5.18-2.58ZM51.32,37.48l-.64.75-3.37,3.84-.05.06c-.45.52-.78,1-.74,1.44l8.59,13.26L43,50.28a1.76,1.76,0,0,1-.9-2.3l-1.21,1.37L38.4,52.16a.18.18,0,0,1,0,.08,2,2,0,0,0-.61,2.19l8.7,12.23L34.29,60.42a2,2,0,0,1-.89-2.56L32.11,59.3l-2.86,3.25a.18.18,0,0,1-.05.07c-.65.74-.82,1.81-.19,2.33.09.08,0,0,0,0L47.9,73.84l4.43-5c.61-.68.78-1,.5-1.77l-3.57-6.64L56.57,64l4.71-5.35a2.36,2.36,0,0,0,.43-2.31l-10-16.78a2.9,2.9,0,0,1-.36-2.09Zm13.73,2.75L68,42.14,66.21,43.4ZM192.8,41.69A4.94,4.94,0,0,1,195,42.82a11.12,11.12,0,0,1,1.22,1.08,1.56,1.56,0,0,1,.25,1.78,6.82,6.82,0,0,1-.95,1.32l-3.2,4.07c-.87,1.12-1.57,1.65-2.15,1.63a4.69,4.69,0,0,1-2-1.12,10.78,10.78,0,0,1-1.19-1,1.55,1.55,0,0,1-.25-1.78,9.25,9.25,0,0,1,.92-1.37l3.2-4.08C191.63,42.22,192.31,41.69,192.8,41.69Zm-67.21,1.88a82.2,82.2,0,1,0,82.2,82.2,82.21,82.21,0,0,0-82.2-82.2Zm82.52,4.31s.3,2-.89,2.95L192.27,62.51,195,65.94c.51.66,1,1.12,1.61,1l8-6.24-3.79,9.83c-.68,1.56-1.74.63-1.74.63l.76,1h0l2.66,3.41c.53.67,1,1.12,1.61,1l16.4-12.84-3.74-4.79-1-1.29a3.26,3.26,0,0,1-.91,2.81l-6.35,5,4.11-11.22a.83.83,0,0,0-.16-.83l-3.15-4-1.11-1.4ZM27,81.36l-2.83,8.75H15l7.45,5.39-2.85,8.74L27,98.84l7.44,5.4L31.62,95.5l7.44-5.39H29.87Zm196.9,1.16-2.83,8.75h-9.21l7.45,5.4-2.84,8.74,7.43-5.4,7.44,5.4-2.84-8.74,7.44-5.4h-9.2ZM188,193.92a2.15,2.15,0,0,0-.62,0,1.72,1.72,0,0,0-.77.31l-6.52,4.5q-3.52,2.43-4,4.18c-.33,1.16.25,2.78,1.65,4.84l1.23,1.75a4.71,4.71,0,0,0,.62.71,4.81,4.81,0,0,0,3.16,1.32,7.81,7.81,0,0,0,4.7-1.62l2.55-1.75q1.47-1,2.4-.15a1.06,1.06,0,0,1,.32.56s.52.91-1.5,2.3l-5.12,3.54c-1.16.69-3.24-.12-3.24-.12l2.81,4a2.21,2.21,0,0,0,3,.63l.51-.35,3.52-2.44,2.55-1.76c2.36-1.62,3.69-3,4-4.18s-.23-2.65-1.64-4.69c0,0-1.08-1.52-1.42-1.93-1.9-2.3-4.92-2.6-7.54-.8l-3,2c-1.06.73-1.9.82-2.5.25a2,2,0,0,1-.21-.3c-.25-.46-.8-1.21.77-2.29l5.33-3.68c1.15-.79,3.32,0,3.32,0l-2.8-4a2.26,2.26,0,0,0-1.56-.93Zm-128.53.35a1.2,1.2,0,0,0-1,.55c-.06.11,0,.06,0,.06l-6.72,19.39,5.66,3.57c.76.49,1.16.59,1.82.2l6-4.58-2.4,7.8,6,3.81a2.4,2.4,0,0,0,2.35.06l14-13.18a2.85,2.85,0,0,1,2-.7l-.85-.5L82,208s0,0-.08,0a2.08,2.08,0,0,0-1.54-.5l-9.49,9.24,3.47-11.17c.22-1.08,2-1.11,2-1.11l-1.52-1-3.2-2-.06,0a2,2,0,0,0-2.27-.26l-9.76,9.05,4.28-10.89A2.05,2.05,0,0,1,66.14,198l-1.62-1-3.67-2.31-.08,0a2.27,2.27,0,0,0-1.32-.37Zm111.44,12a9,9,0,0,0-2.85.82l-14.33,6.2A4.37,4.37,0,0,1,156.4,215L163,230.28a3.6,3.6,0,0,1-.3,2.5l14-6c1.9-.82,3-1.72,3.31-2.66s0-2.59-1-4.86l-4.15-9.06c-.44-1-.65-1.37-1-2a3.25,3.25,0,0,0-2.31-1.9A3.11,3.11,0,0,0,170.89,206.32Zm-81.13,5.36c-.58,0-1.29.19-1.83,2L81.74,231.5l5.75,2,.45.05a5.29,5.29,0,0,1,.2-1.93s5.58-16.19,5.88-16.91,1.41-1.13,1.41-1.13c-.56-.22-2.81-1-5.14-1.81C90.14,211.74,90,211.7,89.76,211.68Zm79.07.82a.84.84,0,0,1,.39.06,1.45,1.45,0,0,1,.67.62c.26.41,3.81,8.33,3.76,8.75a1,1,0,0,1-.65.9l-5.49,2.39-3.22-7.41c-.2-.49-.69-1.61-1.25-2.88l5.37-2.33a1.42,1.42,0,0,1,.42-.1Zm-70.34,2.17c-1,.08-1.39.84-1.68,1.76l-.63,2.86h0l-.28,1.18a3.66,3.66,0,0,1,2.46-.69l7.31,1.6L93.44,231.7l-.75,3.46,16,3.51c1,.23,1.73.26,2.09-.77l1.15-5.28a3.36,3.36,0,0,1-2.51.94l-7.74-1.71,12.53-9.58.91-4.08s-15.91-3.49-16.14-3.51a2.29,2.29,0,0,0-.45,0Zm51.69.15a12,12,0,0,0-2.13.22l-15.22,2.86s1.92.72,2.25,2.17l3.38,18.58,4.24-.79c.84-.15,1.45-.33,1.61-1l-1.14-6.29,3-.59,5.13,6.23,7.59-1.41a5.27,5.27,0,0,1-2-1l-4.62-5.11a3.75,3.75,0,0,0,2.26-1.37c.52-.87.54-2.53.09-5,0,0-.87-4.27-1-4.94a3.19,3.19,0,0,0-1.84-2.35,3.85,3.85,0,0,0-1.48-.24ZM121.71,218a1.78,1.78,0,0,0-1.78.88l-5.6,18.54c-.35,1.17-2.69,2.08-2.69,2.08h7.68a1.46,1.46,0,0,0,1.39-1.11l.76-2.64h5.86l.86,2a1.31,1.31,0,0,1-.83,1.71h8.45L126.09,218Zm25.93,2.44c.39.06.69.37.87.91a6.68,6.68,0,0,1,.25,2.41,1,1,0,0,1-.84.72l-3.51.7c-.8.15-1.38,1-1.86,2l-1-5.62,5.69-1.1a1.3,1.3,0,0,1,.44,0Zm-23.7,6.91,1.22,3.25H123Z"/><path class="cls-2" d="M125.54,50.41a75.36,75.36,0,0,0-15.94,1.7c3.79,2,7.57,5.55,10,12.1l6-8.76,6,8.76c2.39-6.53,6.16-10.13,9.94-12.08a75.52,75.52,0,0,0-15.88-1.72Zm-23.81,3.84A75.22,75.22,0,0,0,54.56,100.9c10.11-15.18,29.88-32.43,60.09-35.85-2.66-6.37-8.06-9.38-12.92-10.8Zm47.5,0C144.39,55.7,139,58.7,136.38,65.05c30,3.39,49.69,20.4,59.86,35.49a75.15,75.15,0,0,0-47-46.27Z"/><path class="cls-4" d="M151.28,73.84a7.51,7.51,0,0,0-4,1l-8.74,4.89.45,1.63,1.9,6.92a56.28,56.28,0,0,0,12.13,18.52c16.13,15.94,36.72,39.27,34.63,60.59a74.64,74.64,0,0,0,12.76-40.55,68.26,68.26,0,0,0-6.76-20.06c-5.62-10.8-16.5-21-29.85-28.87-5.71-3.31-9.84-4.08-12.55-4Zm-51.53,0c-2.71,0-6.83.71-12.54,4C73.85,85.74,63,95.93,57.36,106.74a68.81,68.81,0,0,0-6.87,20.72,74.59,74.59,0,0,0,12.89,40.07c-2.23-21.37,18.43-44.79,34.6-60.78a56.31,56.31,0,0,0,12.14-18.52L112,81.3l.44-1.62-8.74-4.89a7.69,7.69,0,0,0-4-1Zm25.77,15.81c-.87.62-28.55,20.54-40.75,40.27-16.46,26.62-14.32,42-10.06,50.74a74.79,74.79,0,0,0,38.91,18.85L120,108.57l5.34-5.37.07-.07h0l.06.07,5.36,5.37,6.46,90.87-.09,0a74.72,74.72,0,0,0,39.17-19c4.19-8.79,6.18-24.11-10.16-50.53-12.19-19.73-39.87-39.66-40.74-40.27Z"/><path class="cls-1" d="M125.51,61.27l-.88,1.78-1.74,3.55h0l-.07.15-.07.15-.94,1.91-.08.17,0,0-2.33.15a92.82,92.82,0,0,0-9.86,1.22c-1.44.25-2.89.46-4.32.77l4.6,2.48,4.59,2.48,1.43.76,1.42.77-.86,3.12-.05.17-.39,1.45-2.57,9.29,5.84-4.29,4-2.92,1.17-.86,1.16-.86v0l0,0,0,0v0l1.16.86,1.17.86,9.78,7.21-2.56-9.29-.22-.81-.22-.81-.86-3.12.92-.49,1.92-1,6.21-3.34,3-1.62c-1.43-.31-2.89-.52-4.33-.77a92.64,92.64,0,0,0-9.85-1.22L129.32,69l0-.1-.05-.1-.94-1.91-.05-.12-2.72-5.51Zm0,41.94.06,102.91,11.65-6.64.09,0-6.46-90.87-5.34-5.36Z"/></g></g></svg>